<?xml version="1.0" encoding="UTF-8"?>
<svg xmlns="http://www.w3.org/2000/svg" width="904" height="348" viewBox="0 0 904 348">
<rect width="904" height="348" fill="#FBF6EC"/>
<g shape-rendering="crispEdges">
<rect x="149.08" y="9" width="6" height="6" fill="#D72D24"/>
<text x="159.08" y="15" text-anchor="start" font-family="Avenir Next, Helvetica, Arial, sans-serif" font-size="12" fill="#2E231B">tach::Instant@0.2.0</text>
<rect x="304.76" y="9" width="6" height="6" fill="#5B6472"/>
<text x="314.76" y="15" text-anchor="start" font-family="Avenir Next, Helvetica, Arial, sans-serif" font-size="12" fill="#2E231B">quanta@0.12.6</text>
<rect x="420.12" y="9" width="6" height="6" fill="#4F6F6A"/>
<text x="430.12" y="15" text-anchor="start" font-family="Avenir Next, Helvetica, Arial, sans-serif" font-size="12" fill="#2E231B">fastant@0.1.11</text>
<rect x="542.2" y="9" width="6" height="6" fill="#8B5E3C"/>
<text x="552.2" y="15" text-anchor="start" font-family="Avenir Next, Helvetica, Arial, sans-serif" font-size="12" fill="#2E231B">minstant@0.1.7</text>
<rect x="664.28" y="9" width="6" height="6" fill="#9A8A3A"/>
<text x="674.28" y="15" text-anchor="start" font-family="Avenir Next, Helvetica, Arial, sans-serif" font-size="12" fill="#2E231B">std::Instant</text>
<text x="452" y="30" text-anchor="middle" font-family="Avenir Next, Helvetica, Arial, sans-serif" font-size="9" fill="#2E231B">All measurements are nanoseconds; squiggle marks compressed upper range.</text>
<rect x="6" y="42" width="94" height="270" fill="#FBF6EC"/>
<rect x="25" y="284" width="8" height="2" fill="#D72D24"/>
<text x="29" y="280" text-anchor="middle" font-family="Avenir Next, Helvetica, Arial, sans-serif" font-size="7" fill="#2E231B">0.33</text>
<rect x="37" y="264" width="8" height="22" fill="#5B6472"/>
<text x="41" y="260" text-anchor="middle" font-family="Avenir Next, Helvetica, Arial, sans-serif" font-size="7" fill="#2E231B">7.59</text>
<rect x="49" y="160" width="8" height="126" fill="#4F6F6A"/>
<text x="53" y="156" text-anchor="middle" font-family="Avenir Next, Helvetica, Arial, sans-serif" font-size="7" fill="#2E231B">43.7</text>
<rect x="61" y="162" width="8" height="124" fill="#8B5E3C"/>
<text x="65" y="138" text-anchor="middle" font-family="Avenir Next, Helvetica, Arial, sans-serif" font-size="7" fill="#2E231B">43.3</text>
<rect x="73" y="195" width="8" height="91" fill="#9A8A3A"/>
<text x="77" y="191" text-anchor="middle" font-family="Avenir Next, Helvetica, Arial, sans-serif" font-size="7" fill="#2E231B">31.7</text>
<text x="53" y="310" text-anchor="middle" font-family="Avenir Next, Helvetica, Arial, sans-serif" font-size="11" fill="#2E231B">Apple Silicon</text>
<text x="53" y="323" text-anchor="middle" font-family="Avenir Next, Helvetica, Arial, sans-serif" font-size="11" fill="#2E231B">M1 MacBook Pro</text>
<text x="53" y="336" text-anchor="middle" font-family="Avenir Next, Helvetica, Arial, sans-serif" font-size="7" fill="#2E231B">aarch64-apple-darwin</text>
<text x="53" y="349" text-anchor="middle" font-family="Avenir Next, Helvetica, Arial, sans-serif" font-size="11" fill="#2E231B">(cntvct)</text>
<rect x="120" y="42" width="94" height="270" fill="#FBF6EC"/>
<rect x="139" y="267" width="8" height="19" fill="#D72D24"/>
<text x="143" y="263" text-anchor="middle" font-family="Avenir Next, Helvetica, Arial, sans-serif" font-size="7" fill="#2E231B">6.67</text>
<rect x="151" y="266" width="8" height="20" fill="#5B6472"/>
<text x="155" y="252" text-anchor="middle" font-family="Avenir Next, Helvetica, Arial, sans-serif" font-size="7" fill="#2E231B">7.06</text>
<rect x="163" y="174" width="8" height="112" fill="#4F6F6A"/>
<text x="167" y="170" text-anchor="middle" font-family="Avenir Next, Helvetica, Arial, sans-serif" font-size="7" fill="#2E231B">38.9</text>
<rect x="175" y="172" width="8" height="114" fill="#8B5E3C"/>
<text x="179" y="158" text-anchor="middle" font-family="Avenir Next, Helvetica, Arial, sans-serif" font-size="7" fill="#2E231B">39.6</text>
<rect x="187" y="196" width="8" height="90" fill="#9A8A3A"/>
<text x="191" y="192" text-anchor="middle" font-family="Avenir Next, Helvetica, Arial, sans-serif" font-size="7" fill="#2E231B">31.5</text>
<text x="167" y="310" text-anchor="middle" font-family="Avenir Next, Helvetica, Arial, sans-serif" font-size="11" fill="#2E231B">AWS Graviton 3</text>
<text x="167" y="323" text-anchor="middle" font-family="Avenir Next, Helvetica, Arial, sans-serif" font-size="11" fill="#2E231B">c7g.4xlarge</text>
<text x="167" y="336" text-anchor="middle" font-family="Avenir Next, Helvetica, Arial, sans-serif" font-size="7" fill="#2E231B">aarch64-unknown-linux-gnu</text>
<text x="167" y="349" text-anchor="middle" font-family="Avenir Next, Helvetica, Arial, sans-serif" font-size="11" fill="#2E231B">(cntvct)</text>
<rect x="234" y="42" width="94" height="270" fill="#FBF6EC"/>
<rect x="253" y="245" width="8" height="41" fill="#D72D24"/>
<text x="257" y="241" text-anchor="middle" font-family="Avenir Next, Helvetica, Arial, sans-serif" font-size="7" fill="#2E231B">14.3</text>
<rect x="265" y="237" width="8" height="49" fill="#5B6472"/>
<text x="269" y="223" text-anchor="middle" font-family="Avenir Next, Helvetica, Arial, sans-serif" font-size="7" fill="#2E231B">17.1</text>
<rect x="277" y="244" width="8" height="42" fill="#4F6F6A"/>
<text x="281" y="240" text-anchor="middle" font-family="Avenir Next, Helvetica, Arial, sans-serif" font-size="7" fill="#2E231B">14.6</text>
<rect x="289" y="244" width="8" height="42" fill="#8B5E3C"/>
<text x="293" y="230" text-anchor="middle" font-family="Avenir Next, Helvetica, Arial, sans-serif" font-size="7" fill="#2E231B">14.6</text>
<rect x="301" y="212" width="8" height="74" fill="#9A8A3A"/>
<text x="305" y="208" text-anchor="middle" font-family="Avenir Next, Helvetica, Arial, sans-serif" font-size="7" fill="#2E231B">25.9</text>
<text x="281" y="310" text-anchor="middle" font-family="Avenir Next, Helvetica, Arial, sans-serif" font-size="11" fill="#2E231B">Alpine on Metal</text>
<text x="281" y="323" text-anchor="middle" font-family="Avenir Next, Helvetica, Arial, sans-serif" font-size="11" fill="#2E231B">m7i.metal-24xl</text>
<text x="281" y="336" text-anchor="middle" font-family="Avenir Next, Helvetica, Arial, sans-serif" font-size="7" fill="#2E231B">x86_64-unknown-linux-musl</text>
<text x="281" y="349" text-anchor="middle" font-family="Avenir Next, Helvetica, Arial, sans-serif" font-size="11" fill="#2E231B">(rdtsc)</text>
<rect x="348" y="42" width="94" height="270" fill="#FBF6EC"/>
<rect x="367" y="269" width="8" height="17" fill="#D72D24"/>
<text x="371" y="265" text-anchor="middle" font-family="Avenir Next, Helvetica, Arial, sans-serif" font-size="7" fill="#2E231B">6.08</text>
<rect x="379" y="56" width="8" height="230" fill="#5B6472"/>
<path d="M378 53 C380 48 382 58 384 53 S388 58 388 53" stroke="#FBF6EC" stroke-width="4" fill="none" stroke-linecap="round"/>
<path d="M378 53 C380 48 382 58 384 53 S388 58 388 53" stroke="#2E231B" stroke-width="0.8" fill="none" stroke-linecap="round" opacity="0.65"/>
<text x="383" y="52" text-anchor="middle" font-family="Avenir Next, Helvetica, Arial, sans-serif" font-size="7" fill="#2E231B">81.2</text>
<rect x="391" y="172" width="8" height="114" fill="#4F6F6A"/>
<text x="395" y="168" text-anchor="middle" font-family="Avenir Next, Helvetica, Arial, sans-serif" font-size="7" fill="#2E231B">39.8</text>
<rect x="403" y="170" width="8" height="116" fill="#8B5E3C"/>
<text x="407" y="156" text-anchor="middle" font-family="Avenir Next, Helvetica, Arial, sans-serif" font-size="7" fill="#2E231B">40.2</text>
<rect x="415" y="175" width="8" height="111" fill="#9A8A3A"/>
<text x="419" y="171" text-anchor="middle" font-family="Avenir Next, Helvetica, Arial, sans-serif" font-size="7" fill="#2E231B">38.6</text>
<text x="395" y="310" text-anchor="middle" font-family="Avenir Next, Helvetica, Arial, sans-serif" font-size="11" fill="#2E231B">GitHub macOS</text>
<text x="395" y="323" text-anchor="middle" font-family="Avenir Next, Helvetica, Arial, sans-serif" font-size="7" fill="#2E231B">macos-15-intel</text>
<text x="395" y="336" text-anchor="middle" font-family="Avenir Next, Helvetica, Arial, sans-serif" font-size="7" fill="#2E231B">x86_64-apple-darwin</text>
<text x="395" y="349" text-anchor="middle" font-family="Avenir Next, Helvetica, Arial, sans-serif" font-size="11" fill="#2E231B">(rdtsc)</text>
<rect x="462" y="42" width="94" height="270" fill="#FBF6EC"/>
<rect x="481" y="254" width="8" height="32" fill="#D72D24"/>
<text x="485" y="250" text-anchor="middle" font-family="Avenir Next, Helvetica, Arial, sans-serif" font-size="7" fill="#2E231B">11.2</text>
<rect x="493" y="252" width="8" height="34" fill="#5B6472"/>
<text x="497" y="238" text-anchor="middle" font-family="Avenir Next, Helvetica, Arial, sans-serif" font-size="7" fill="#2E231B">11.7</text>
<rect x="505" y="168" width="8" height="118" fill="#4F6F6A"/>
<text x="509" y="164" text-anchor="middle" font-family="Avenir Next, Helvetica, Arial, sans-serif" font-size="7" fill="#2E231B">40.9</text>
<rect x="517" y="168" width="8" height="118" fill="#8B5E3C"/>
<text x="521" y="154" text-anchor="middle" font-family="Avenir Next, Helvetica, Arial, sans-serif" font-size="7" fill="#2E231B">40.9</text>
<rect x="529" y="176" width="8" height="110" fill="#9A8A3A"/>
<text x="533" y="172" text-anchor="middle" font-family="Avenir Next, Helvetica, Arial, sans-serif" font-size="7" fill="#2E231B">38.4</text>
<text x="509" y="310" text-anchor="middle" font-family="Avenir Next, Helvetica, Arial, sans-serif" font-size="11" fill="#2E231B">GitHub Windows</text>
<text x="509" y="323" text-anchor="middle" font-family="Avenir Next, Helvetica, Arial, sans-serif" font-size="7" fill="#2E231B">windows-2025</text>
<text x="509" y="336" text-anchor="middle" font-family="Avenir Next, Helvetica, Arial, sans-serif" font-size="7" fill="#2E231B">x86_64-pc-windows-msvc</text>
<text x="509" y="349" text-anchor="middle" font-family="Avenir Next, Helvetica, Arial, sans-serif" font-size="11" fill="#2E231B">(rdtsc)</text>
<rect x="576" y="42" width="94" height="270" fill="#FBF6EC"/>
<rect x="595" y="261" width="8" height="25" fill="#D72D24"/>
<text x="599" y="257" text-anchor="middle" font-family="Avenir Next, Helvetica, Arial, sans-serif" font-size="7" fill="#2E231B">8.76</text>
<rect x="607" y="248" width="8" height="38" fill="#5B6472"/>
<text x="611" y="244" text-anchor="middle" font-family="Avenir Next, Helvetica, Arial, sans-serif" font-size="7" fill="#2E231B">13.3</text>
<rect x="619" y="259" width="8" height="27" fill="#4F6F6A"/>
<text x="623" y="255" text-anchor="middle" font-family="Avenir Next, Helvetica, Arial, sans-serif" font-size="7" fill="#2E231B">9.41</text>
<rect x="631" y="259" width="8" height="27" fill="#8B5E3C"/>
<text x="635" y="245" text-anchor="middle" font-family="Avenir Next, Helvetica, Arial, sans-serif" font-size="7" fill="#2E231B">9.41</text>
<rect x="643" y="217" width="8" height="69" fill="#9A8A3A"/>
<text x="647" y="213" text-anchor="middle" font-family="Avenir Next, Helvetica, Arial, sans-serif" font-size="7" fill="#2E231B">24.1</text>
<text x="623" y="310" text-anchor="middle" font-family="Avenir Next, Helvetica, Arial, sans-serif" font-size="11" fill="#2E231B">AWS Intel Burst</text>
<text x="623" y="323" text-anchor="middle" font-family="Avenir Next, Helvetica, Arial, sans-serif" font-size="11" fill="#2E231B">t3.medium</text>
<text x="623" y="336" text-anchor="middle" font-family="Avenir Next, Helvetica, Arial, sans-serif" font-size="7" fill="#2E231B">x86_64-unknown-linux-gnu</text>
<text x="623" y="349" text-anchor="middle" font-family="Avenir Next, Helvetica, Arial, sans-serif" font-size="11" fill="#2E231B">(rdtsc)</text>
<rect x="690" y="42" width="94" height="270" fill="#FBF6EC"/>
<rect x="709" y="259" width="8" height="27" fill="#D72D24"/>
<text x="713" y="255" text-anchor="middle" font-family="Avenir Next, Helvetica, Arial, sans-serif" font-size="7" fill="#2E231B">9.56</text>
<rect x="721" y="245" width="8" height="41" fill="#5B6472"/>
<text x="725" y="241" text-anchor="middle" font-family="Avenir Next, Helvetica, Arial, sans-serif" font-size="7" fill="#2E231B">14.1</text>
<rect x="733" y="257" width="8" height="29" fill="#4F6F6A"/>
<text x="737" y="253" text-anchor="middle" font-family="Avenir Next, Helvetica, Arial, sans-serif" font-size="7" fill="#2E231B">10.2</text>
<rect x="745" y="158" width="8" height="128" fill="#8B5E3C"/>
<text x="749" y="154" text-anchor="middle" font-family="Avenir Next, Helvetica, Arial, sans-serif" font-size="7" fill="#2E231B">44.4</text>
<rect x="757" y="200" width="8" height="86" fill="#9A8A3A"/>
<text x="761" y="196" text-anchor="middle" font-family="Avenir Next, Helvetica, Arial, sans-serif" font-size="7" fill="#2E231B">29.9</text>
<text x="737" y="310" text-anchor="middle" font-family="Avenir Next, Helvetica, Arial, sans-serif" font-size="11" fill="#2E231B">AWS Lambda</text>
<text x="737" y="323" text-anchor="middle" font-family="Avenir Next, Helvetica, Arial, sans-serif" font-size="11" fill="#2E231B">provided.al2023</text>
<text x="737" y="336" text-anchor="middle" font-family="Avenir Next, Helvetica, Arial, sans-serif" font-size="7" fill="#2E231B">x86_64-unknown-linux-gnu</text>
<text x="737" y="349" text-anchor="middle" font-family="Avenir Next, Helvetica, Arial, sans-serif" font-size="11" fill="#2E231B">(rdtsc)</text>
<rect x="804" y="42" width="94" height="270" fill="#FBF6EC"/>
<rect x="823" y="266" width="8" height="20" fill="#D72D24"/>
<text x="827" y="262" text-anchor="middle" font-family="Avenir Next, Helvetica, Arial, sans-serif" font-size="7" fill="#2E231B">6.84</text>
<rect x="835" y="266" width="8" height="20" fill="#5B6472"/>
<text x="839" y="252" text-anchor="middle" font-family="Avenir Next, Helvetica, Arial, sans-serif" font-size="7" fill="#2E231B">7.12</text>
<rect x="847" y="266" width="8" height="20" fill="#4F6F6A"/>
<text x="851" y="262" text-anchor="middle" font-family="Avenir Next, Helvetica, Arial, sans-serif" font-size="7" fill="#2E231B">6.84</text>
<rect x="859" y="266" width="8" height="20" fill="#8B5E3C"/>
<text x="863" y="252" text-anchor="middle" font-family="Avenir Next, Helvetica, Arial, sans-serif" font-size="7" fill="#2E231B">6.84</text>
<rect x="871" y="244" width="8" height="42" fill="#9A8A3A"/>
<text x="875" y="240" text-anchor="middle" font-family="Avenir Next, Helvetica, Arial, sans-serif" font-size="7" fill="#2E231B">14.7</text>
<text x="851" y="310" text-anchor="middle" font-family="Avenir Next, Helvetica, Arial, sans-serif" font-size="11" fill="#2E231B">AWS Intel Metal</text>
<text x="851" y="323" text-anchor="middle" font-family="Avenir Next, Helvetica, Arial, sans-serif" font-size="11" fill="#2E231B">m7i.metal-24xl</text>
<text x="851" y="336" text-anchor="middle" font-family="Avenir Next, Helvetica, Arial, sans-serif" font-size="7" fill="#2E231B">x86_64-unknown-linux-gnu</text>
<text x="851" y="349" text-anchor="middle" font-family="Avenir Next, Helvetica, Arial, sans-serif" font-size="11" fill="#2E231B">(rdtsc)</text>
</g>
</svg>
