<?xml version="1.0" encoding="UTF-8"?>
<svg xmlns="http://www.w3.org/2000/svg" width="1360" height="462" viewBox="0 0 1360 462">
<rect width="1360" height="462" fill="#FBF6EC"/>
<g shape-rendering="crispEdges">
<rect x="373.16" y="9" width="6" height="6" fill="#1B1A17"/>
<text x="383.16" y="15" text-anchor="start" font-family="Avenir Next, Helvetica, Arial, sans-serif" font-size="12" fill="#2E231B">clock</text>
<rect x="434.76" y="9" width="6" height="6" fill="#D72D24"/>
<text x="444.76" y="15" text-anchor="start" font-family="Avenir Next, Helvetica, Arial, sans-serif" font-size="12" fill="#2E231B">tach@0.2.0</text>
<rect x="529.96" y="9" width="6" height="6" fill="#5B6472"/>
<text x="539.96" y="15" text-anchor="start" font-family="Avenir Next, Helvetica, Arial, sans-serif" font-size="12" fill="#2E231B">quanta@0.12.6</text>
<rect x="645.32" y="9" width="6" height="6" fill="#8B5E3C"/>
<text x="655.32" y="15" text-anchor="start" font-family="Avenir Next, Helvetica, Arial, sans-serif" font-size="12" fill="#2E231B">minstant@0.1.7</text>
<rect x="767.4" y="9" width="6" height="6" fill="#4F6F6A"/>
<text x="777.4" y="15" text-anchor="start" font-family="Avenir Next, Helvetica, Arial, sans-serif" font-size="12" fill="#2E231B">fastant@0.1.11</text>
<rect x="889.48" y="9" width="6" height="6" fill="#9A8A3A"/>
<text x="899.48" y="15" text-anchor="start" font-family="Avenir Next, Helvetica, Arial, sans-serif" font-size="12" fill="#2E231B">std@1.91-1.95</text>
<text x="680" y="30" text-anchor="middle" font-family="Avenir Next, Helvetica, Arial, sans-serif" font-size="9" fill="#2E231B">All measurements are nanoseconds; squiggle marks compressed upper range.</text>
<rect x="6" y="42" width="94" height="382" fill="#FFF8E8"/>
<rect x="19" y="382" width="8" height="2" fill="#1B1A17"/>
<text x="23" y="378" text-anchor="middle" font-family="Avenir Next, Helvetica, Arial, sans-serif" font-size="7" fill="#2E231B">0.33</text>
<rect x="31" y="382" width="8" height="2" fill="#D72D24"/>
<text x="35" y="368" text-anchor="middle" font-family="Avenir Next, Helvetica, Arial, sans-serif" font-size="7" fill="#2E231B">0.33</text>
<rect x="43" y="375" width="8" height="9" fill="#5B6472"/>
<text x="47" y="351" text-anchor="middle" font-family="Avenir Next, Helvetica, Arial, sans-serif" font-size="7" fill="#2E231B">4.62</text>
<rect x="55" y="333" width="8" height="51" fill="#8B5E3C"/>
<text x="59" y="329" text-anchor="middle" font-family="Avenir Next, Helvetica, Arial, sans-serif" font-size="7" fill="#2E231B">25.7</text>
<rect x="67" y="333" width="8" height="51" fill="#4F6F6A"/>
<text x="71" y="319" text-anchor="middle" font-family="Avenir Next, Helvetica, Arial, sans-serif" font-size="7" fill="#2E231B">25.7</text>
<rect x="79" y="347" width="8" height="37" fill="#9A8A3A"/>
<text x="83" y="343" text-anchor="middle" font-family="Avenir Next, Helvetica, Arial, sans-serif" font-size="7" fill="#2E231B">18.4</text>
<text x="53" y="405" text-anchor="middle" font-family="Avenir Next, Helvetica, Arial, sans-serif" font-size="11" fill="#2E231B">macOS aarch64</text>
<text x="53" y="418" text-anchor="middle" font-family="Avenir Next, Helvetica, Arial, sans-serif" font-size="7" fill="#2E231B">aarch64-apple-darwin</text>
<text x="53" y="431" text-anchor="middle" font-family="Avenir Next, Helvetica, Arial, sans-serif" font-size="11" fill="#2E231B">(cntvct)</text>
<rect x="120" y="42" width="94" height="382" fill="#FFF8E8"/>
<rect x="133" y="354" width="8" height="30" fill="#1B1A17"/>
<text x="137" y="350" text-anchor="middle" font-family="Avenir Next, Helvetica, Arial, sans-serif" font-size="7" fill="#2E231B">15.2</text>
<rect x="145" y="353" width="8" height="31" fill="#D72D24"/>
<text x="149" y="339" text-anchor="middle" font-family="Avenir Next, Helvetica, Arial, sans-serif" font-size="7" fill="#2E231B">15.4</text>
<rect x="157" y="334" width="8" height="50" fill="#5B6472"/>
<text x="161" y="320" text-anchor="middle" font-family="Avenir Next, Helvetica, Arial, sans-serif" font-size="7" fill="#2E231B">25.1</text>
<rect x="169" y="306" width="8" height="78" fill="#8B5E3C"/>
<text x="173" y="302" text-anchor="middle" font-family="Avenir Next, Helvetica, Arial, sans-serif" font-size="7" fill="#2E231B">39.0</text>
<rect x="181" y="340" width="8" height="44" fill="#4F6F6A"/>
<text x="185" y="336" text-anchor="middle" font-family="Avenir Next, Helvetica, Arial, sans-serif" font-size="7" fill="#2E231B">22.1</text>
<rect x="193" y="328" width="8" height="56" fill="#9A8A3A"/>
<text x="197" y="324" text-anchor="middle" font-family="Avenir Next, Helvetica, Arial, sans-serif" font-size="7" fill="#2E231B">28.1</text>
<text x="167" y="405" text-anchor="middle" font-family="Avenir Next, Helvetica, Arial, sans-serif" font-size="11" fill="#2E231B">Docker x86_64</text>
<text x="167" y="418" text-anchor="middle" font-family="Avenir Next, Helvetica, Arial, sans-serif" font-size="7" fill="#2E231B">x86_64-unknown-linux-gnu</text>
<text x="167" y="431" text-anchor="middle" font-family="Avenir Next, Helvetica, Arial, sans-serif" font-size="11" fill="#2E231B">(rdtsc)</text>
<rect x="234" y="42" width="94" height="382" fill="#FFF8E8"/>
<rect x="247" y="332" width="8" height="52" fill="#1B1A17"/>
<text x="251" y="328" text-anchor="middle" font-family="Avenir Next, Helvetica, Arial, sans-serif" font-size="7" fill="#2E231B">25.8</text>
<rect x="259" y="332" width="8" height="52" fill="#D72D24"/>
<text x="263" y="318" text-anchor="middle" font-family="Avenir Next, Helvetica, Arial, sans-serif" font-size="7" fill="#2E231B">25.8</text>
<rect x="271" y="146" width="8" height="238" fill="#5B6472"/>
<path d="M270 221 C272 216 274 226 276 221 S280 226 280 221" stroke="#FFF8E8" stroke-width="4" fill="none" stroke-linecap="round"/>
<path d="M270 221 C272 216 274 226 276 221 S280 226 280 221" stroke="#2E231B" stroke-width="0.8" fill="none" stroke-linecap="round" opacity="0.65"/>
<text x="275" y="142" text-anchor="middle" font-family="Avenir Next, Helvetica, Arial, sans-serif" font-size="7" fill="#2E231B">254</text>
<rect x="283" y="114" width="8" height="270" fill="#8B5E3C"/>
<path d="M282 221 C284 216 286 226 288 221 S292 226 292 221" stroke="#FFF8E8" stroke-width="4" fill="none" stroke-linecap="round"/>
<path d="M282 221 C284 216 286 226 288 221 S292 226 292 221" stroke="#2E231B" stroke-width="0.8" fill="none" stroke-linecap="round" opacity="0.65"/>
<text x="287" y="110" text-anchor="middle" font-family="Avenir Next, Helvetica, Arial, sans-serif" font-size="7" fill="#2E231B">323</text>
<rect x="295" y="114" width="8" height="270" fill="#4F6F6A"/>
<path d="M294 221 C296 216 298 226 300 221 S304 226 304 221" stroke="#FFF8E8" stroke-width="4" fill="none" stroke-linecap="round"/>
<path d="M294 221 C296 216 298 226 300 221 S304 226 304 221" stroke="#2E231B" stroke-width="0.8" fill="none" stroke-linecap="round" opacity="0.65"/>
<text x="299" y="100" text-anchor="middle" font-family="Avenir Next, Helvetica, Arial, sans-serif" font-size="7" fill="#2E231B">324</text>
<rect x="307" y="160" width="8" height="224" fill="#9A8A3A"/>
<path d="M306 221 C308 216 310 226 312 221 S316 226 316 221" stroke="#FFF8E8" stroke-width="4" fill="none" stroke-linecap="round"/>
<path d="M306 221 C308 216 310 226 312 221 S316 226 316 221" stroke="#2E231B" stroke-width="0.8" fill="none" stroke-linecap="round" opacity="0.65"/>
<text x="311" y="156" text-anchor="middle" font-family="Avenir Next, Helvetica, Arial, sans-serif" font-size="7" fill="#2E231B">223</text>
<text x="281" y="405" text-anchor="middle" font-family="Avenir Next, Helvetica, Arial, sans-serif" font-size="11" fill="#2E231B">Docker x86</text>
<text x="281" y="418" text-anchor="middle" font-family="Avenir Next, Helvetica, Arial, sans-serif" font-size="7" fill="#2E231B">i686-unknown-linux-gnu</text>
<text x="281" y="431" text-anchor="middle" font-family="Avenir Next, Helvetica, Arial, sans-serif" font-size="11" fill="#2E231B">(rdtsc)</text>
<rect x="348" y="42" width="94" height="382" fill="#FFF8E8"/>
<rect x="361" y="382" width="8" height="2" fill="#1B1A17"/>
<text x="365" y="378" text-anchor="middle" font-family="Avenir Next, Helvetica, Arial, sans-serif" font-size="7" fill="#2E231B">0.33</text>
<rect x="373" y="382" width="8" height="2" fill="#D72D24"/>
<text x="377" y="368" text-anchor="middle" font-family="Avenir Next, Helvetica, Arial, sans-serif" font-size="7" fill="#2E231B">0.33</text>
<rect x="385" y="375" width="8" height="9" fill="#5B6472"/>
<text x="389" y="351" text-anchor="middle" font-family="Avenir Next, Helvetica, Arial, sans-serif" font-size="7" fill="#2E231B">4.47</text>
<rect x="397" y="330" width="8" height="54" fill="#8B5E3C"/>
<text x="401" y="326" text-anchor="middle" font-family="Avenir Next, Helvetica, Arial, sans-serif" font-size="7" fill="#2E231B">27.2</text>
<rect x="409" y="329" width="8" height="55" fill="#4F6F6A"/>
<text x="413" y="315" text-anchor="middle" font-family="Avenir Next, Helvetica, Arial, sans-serif" font-size="7" fill="#2E231B">27.3</text>
<rect x="421" y="344" width="8" height="40" fill="#9A8A3A"/>
<text x="425" y="340" text-anchor="middle" font-family="Avenir Next, Helvetica, Arial, sans-serif" font-size="7" fill="#2E231B">20.2</text>
<text x="395" y="405" text-anchor="middle" font-family="Avenir Next, Helvetica, Arial, sans-serif" font-size="11" fill="#2E231B">Docker aarch64</text>
<text x="395" y="418" text-anchor="middle" font-family="Avenir Next, Helvetica, Arial, sans-serif" font-size="7" fill="#2E231B">aarch64-unknown-linux-gnu</text>
<text x="395" y="431" text-anchor="middle" font-family="Avenir Next, Helvetica, Arial, sans-serif" font-size="11" fill="#2E231B">(cntvct)</text>
<rect x="462" y="42" width="94" height="382" fill="#FFF8E8"/>
<rect x="475" y="265" width="8" height="119" fill="#1B1A17"/>
<text x="479" y="261" text-anchor="middle" font-family="Avenir Next, Helvetica, Arial, sans-serif" font-size="7" fill="#2E231B">59.6</text>
<rect x="487" y="265" width="8" height="119" fill="#D72D24"/>
<text x="491" y="251" text-anchor="middle" font-family="Avenir Next, Helvetica, Arial, sans-serif" font-size="7" fill="#2E231B">59.6</text>
<rect x="499" y="163" width="8" height="221" fill="#5B6472"/>
<path d="M498 221 C500 216 502 226 504 221 S508 226 508 221" stroke="#FFF8E8" stroke-width="4" fill="none" stroke-linecap="round"/>
<path d="M498 221 C500 216 502 226 504 221 S508 226 508 221" stroke="#2E231B" stroke-width="0.8" fill="none" stroke-linecap="round" opacity="0.65"/>
<text x="503" y="159" text-anchor="middle" font-family="Avenir Next, Helvetica, Arial, sans-serif" font-size="7" fill="#2E231B">215</text>
<rect x="511" y="138" width="8" height="246" fill="#8B5E3C"/>
<path d="M510 221 C512 216 514 226 516 221 S520 226 520 221" stroke="#FFF8E8" stroke-width="4" fill="none" stroke-linecap="round"/>
<path d="M510 221 C512 216 514 226 516 221 S520 226 520 221" stroke="#2E231B" stroke-width="0.8" fill="none" stroke-linecap="round" opacity="0.65"/>
<text x="515" y="134" text-anchor="middle" font-family="Avenir Next, Helvetica, Arial, sans-serif" font-size="7" fill="#2E231B">271</text>
<rect x="523" y="138" width="8" height="246" fill="#4F6F6A"/>
<path d="M522 221 C524 216 526 226 528 221 S532 226 532 221" stroke="#FFF8E8" stroke-width="4" fill="none" stroke-linecap="round"/>
<path d="M522 221 C524 216 526 226 528 221 S532 226 532 221" stroke="#2E231B" stroke-width="0.8" fill="none" stroke-linecap="round" opacity="0.65"/>
<text x="527" y="124" text-anchor="middle" font-family="Avenir Next, Helvetica, Arial, sans-serif" font-size="7" fill="#2E231B">271</text>
<rect x="535" y="177" width="8" height="207" fill="#9A8A3A"/>
<path d="M534 221 C536 216 538 226 540 221 S544 226 544 221" stroke="#FFF8E8" stroke-width="4" fill="none" stroke-linecap="round"/>
<path d="M534 221 C536 216 538 226 540 221 S544 226 544 221" stroke="#2E231B" stroke-width="0.8" fill="none" stroke-linecap="round" opacity="0.65"/>
<text x="539" y="173" text-anchor="middle" font-family="Avenir Next, Helvetica, Arial, sans-serif" font-size="7" fill="#2E231B">185</text>
<text x="509" y="405" text-anchor="middle" font-family="Avenir Next, Helvetica, Arial, sans-serif" font-size="11" fill="#2E231B">Docker riscv64</text>
<text x="509" y="418" text-anchor="middle" font-family="Avenir Next, Helvetica, Arial, sans-serif" font-size="7" fill="#2E231B">riscv64gc-unknown-linux-gnu</text>
<text x="509" y="431" text-anchor="middle" font-family="Avenir Next, Helvetica, Arial, sans-serif" font-size="11" fill="#2E231B">(rdtime)</text>
<rect x="576" y="42" width="94" height="382" fill="#FFF8E8"/>
<rect x="589" y="365" width="8" height="19" fill="#1B1A17"/>
<text x="593" y="361" text-anchor="middle" font-family="Avenir Next, Helvetica, Arial, sans-serif" font-size="7" fill="#2E231B">9.40</text>
<rect x="601" y="365" width="8" height="19" fill="#D72D24"/>
<text x="605" y="351" text-anchor="middle" font-family="Avenir Next, Helvetica, Arial, sans-serif" font-size="7" fill="#2E231B">9.72</text>
<rect x="613" y="356" width="8" height="28" fill="#5B6472"/>
<text x="617" y="332" text-anchor="middle" font-family="Avenir Next, Helvetica, Arial, sans-serif" font-size="7" fill="#2E231B">14.0</text>
<rect x="625" y="364" width="8" height="20" fill="#8B5E3C"/>
<text x="629" y="360" text-anchor="middle" font-family="Avenir Next, Helvetica, Arial, sans-serif" font-size="7" fill="#2E231B">10.2</text>
<rect x="637" y="364" width="8" height="20" fill="#4F6F6A"/>
<text x="641" y="350" text-anchor="middle" font-family="Avenir Next, Helvetica, Arial, sans-serif" font-size="7" fill="#2E231B">10.1</text>
<rect x="649" y="333" width="8" height="51" fill="#9A8A3A"/>
<text x="653" y="329" text-anchor="middle" font-family="Avenir Next, Helvetica, Arial, sans-serif" font-size="7" fill="#2E231B">25.3</text>
<text x="623" y="405" text-anchor="middle" font-family="Avenir Next, Helvetica, Arial, sans-serif" font-size="11" fill="#2E231B">AWS Nitro x86_64</text>
<text x="623" y="418" text-anchor="middle" font-family="Avenir Next, Helvetica, Arial, sans-serif" font-size="11" fill="#2E231B">t3.micro</text>
<text x="623" y="431" text-anchor="middle" font-family="Avenir Next, Helvetica, Arial, sans-serif" font-size="7" fill="#2E231B">x86_64-unknown-linux-musl</text>
<text x="623" y="444" text-anchor="middle" font-family="Avenir Next, Helvetica, Arial, sans-serif" font-size="11" fill="#2E231B">(rdtsc)</text>
<rect x="690" y="42" width="94" height="382" fill="#FFF8E8"/>
<rect x="703" y="349" width="8" height="35" fill="#1B1A17"/>
<text x="707" y="345" text-anchor="middle" font-family="Avenir Next, Helvetica, Arial, sans-serif" font-size="7" fill="#2E231B">17.5</text>
<rect x="715" y="348" width="8" height="36" fill="#D72D24"/>
<text x="719" y="334" text-anchor="middle" font-family="Avenir Next, Helvetica, Arial, sans-serif" font-size="7" fill="#2E231B">17.8</text>
<rect x="727" y="340" width="8" height="44" fill="#5B6472"/>
<text x="731" y="316" text-anchor="middle" font-family="Avenir Next, Helvetica, Arial, sans-serif" font-size="7" fill="#2E231B">22.2</text>
<rect x="739" y="233" width="8" height="151" fill="#8B5E3C"/>
<text x="743" y="229" text-anchor="middle" font-family="Avenir Next, Helvetica, Arial, sans-serif" font-size="7" fill="#2E231B">75.6</text>
<rect x="751" y="348" width="8" height="36" fill="#4F6F6A"/>
<text x="755" y="344" text-anchor="middle" font-family="Avenir Next, Helvetica, Arial, sans-serif" font-size="7" fill="#2E231B">18.2</text>
<rect x="763" y="276" width="8" height="108" fill="#9A8A3A"/>
<text x="767" y="272" text-anchor="middle" font-family="Avenir Next, Helvetica, Arial, sans-serif" font-size="7" fill="#2E231B">53.8</text>
<text x="737" y="405" text-anchor="middle" font-family="Avenir Next, Helvetica, Arial, sans-serif" font-size="11" fill="#2E231B">AWS Lambda x86_64</text>
<text x="737" y="418" text-anchor="middle" font-family="Avenir Next, Helvetica, Arial, sans-serif" font-size="11" fill="#2E231B">provided.al2023</text>
<text x="737" y="431" text-anchor="middle" font-family="Avenir Next, Helvetica, Arial, sans-serif" font-size="7" fill="#2E231B">x86_64-unknown-linux-musl</text>
<text x="737" y="444" text-anchor="middle" font-family="Avenir Next, Helvetica, Arial, sans-serif" font-size="11" fill="#2E231B">(rdtsc)</text>
<rect x="804" y="42" width="94" height="382" fill="#FFF8E8"/>
<rect x="817" y="370" width="8" height="14" fill="#1B1A17"/>
<text x="821" y="366" text-anchor="middle" font-family="Avenir Next, Helvetica, Arial, sans-serif" font-size="7" fill="#2E231B">6.84</text>
<rect x="829" y="370" width="8" height="14" fill="#D72D24"/>
<text x="833" y="356" text-anchor="middle" font-family="Avenir Next, Helvetica, Arial, sans-serif" font-size="7" fill="#2E231B">6.84</text>
<rect x="841" y="370" width="8" height="14" fill="#5B6472"/>
<text x="845" y="366" text-anchor="middle" font-family="Avenir Next, Helvetica, Arial, sans-serif" font-size="7" fill="#2E231B">7.13</text>
<rect x="853" y="370" width="8" height="14" fill="#8B5E3C"/>
<text x="857" y="356" text-anchor="middle" font-family="Avenir Next, Helvetica, Arial, sans-serif" font-size="7" fill="#2E231B">6.84</text>
<rect x="865" y="370" width="8" height="14" fill="#4F6F6A"/>
<text x="869" y="366" text-anchor="middle" font-family="Avenir Next, Helvetica, Arial, sans-serif" font-size="7" fill="#2E231B">6.84</text>
<rect x="877" y="355" width="8" height="29" fill="#9A8A3A"/>
<text x="881" y="351" text-anchor="middle" font-family="Avenir Next, Helvetica, Arial, sans-serif" font-size="7" fill="#2E231B">14.7</text>
<text x="851" y="405" text-anchor="middle" font-family="Avenir Next, Helvetica, Arial, sans-serif" font-size="11" fill="#2E231B">AWS Metal x86_64</text>
<text x="851" y="418" text-anchor="middle" font-family="Avenir Next, Helvetica, Arial, sans-serif" font-size="11" fill="#2E231B">m7i.metal</text>
<text x="851" y="431" text-anchor="middle" font-family="Avenir Next, Helvetica, Arial, sans-serif" font-size="7" fill="#2E231B">x86_64-unknown-linux-musl</text>
<text x="851" y="444" text-anchor="middle" font-family="Avenir Next, Helvetica, Arial, sans-serif" font-size="11" fill="#2E231B">(rdtsc)</text>
<rect x="918" y="42" width="94" height="382" fill="#FFF8E8"/>
<rect x="931" y="364" width="8" height="20" fill="#1B1A17"/>
<text x="935" y="360" text-anchor="middle" font-family="Avenir Next, Helvetica, Arial, sans-serif" font-size="7" fill="#2E231B">10.1</text>
<rect x="943" y="364" width="8" height="20" fill="#D72D24"/>
<text x="947" y="350" text-anchor="middle" font-family="Avenir Next, Helvetica, Arial, sans-serif" font-size="7" fill="#2E231B">10.1</text>
<rect x="955" y="299" width="8" height="85" fill="#5B6472"/>
<text x="959" y="295" text-anchor="middle" font-family="Avenir Next, Helvetica, Arial, sans-serif" font-size="7" fill="#2E231B">42.4</text>
<rect x="967" y="363" width="8" height="21" fill="#8B5E3C"/>
<text x="971" y="359" text-anchor="middle" font-family="Avenir Next, Helvetica, Arial, sans-serif" font-size="7" fill="#2E231B">10.7</text>
<rect x="979" y="363" width="8" height="21" fill="#4F6F6A"/>
<text x="983" y="349" text-anchor="middle" font-family="Avenir Next, Helvetica, Arial, sans-serif" font-size="7" fill="#2E231B">10.7</text>
<rect x="991" y="295" width="8" height="89" fill="#9A8A3A"/>
<text x="995" y="291" text-anchor="middle" font-family="Avenir Next, Helvetica, Arial, sans-serif" font-size="7" fill="#2E231B">44.6</text>
<text x="965" y="405" text-anchor="middle" font-family="Avenir Next, Helvetica, Arial, sans-serif" font-size="11" fill="#2E231B">AWS Nitro x86</text>
<text x="965" y="418" text-anchor="middle" font-family="Avenir Next, Helvetica, Arial, sans-serif" font-size="11" fill="#2E231B">t3.micro</text>
<text x="965" y="431" text-anchor="middle" font-family="Avenir Next, Helvetica, Arial, sans-serif" font-size="7" fill="#2E231B">i686-unknown-linux-musl</text>
<text x="965" y="444" text-anchor="middle" font-family="Avenir Next, Helvetica, Arial, sans-serif" font-size="11" fill="#2E231B">(rdtsc)</text>
<rect x="1032" y="42" width="94" height="382" fill="#FFF8E8"/>
<rect x="1045" y="370" width="8" height="14" fill="#1B1A17"/>
<text x="1049" y="366" text-anchor="middle" font-family="Avenir Next, Helvetica, Arial, sans-serif" font-size="7" fill="#2E231B">6.84</text>
<rect x="1057" y="370" width="8" height="14" fill="#D72D24"/>
<text x="1061" y="356" text-anchor="middle" font-family="Avenir Next, Helvetica, Arial, sans-serif" font-size="7" fill="#2E231B">6.84</text>
<rect x="1069" y="338" width="8" height="46" fill="#5B6472"/>
<text x="1073" y="334" text-anchor="middle" font-family="Avenir Next, Helvetica, Arial, sans-serif" font-size="7" fill="#2E231B">23.1</text>
<rect x="1081" y="370" width="8" height="14" fill="#8B5E3C"/>
<text x="1085" y="366" text-anchor="middle" font-family="Avenir Next, Helvetica, Arial, sans-serif" font-size="7" fill="#2E231B">6.84</text>
<rect x="1093" y="370" width="8" height="14" fill="#4F6F6A"/>
<text x="1097" y="356" text-anchor="middle" font-family="Avenir Next, Helvetica, Arial, sans-serif" font-size="7" fill="#2E231B">6.84</text>
<rect x="1105" y="339" width="8" height="45" fill="#9A8A3A"/>
<text x="1109" y="335" text-anchor="middle" font-family="Avenir Next, Helvetica, Arial, sans-serif" font-size="7" fill="#2E231B">22.7</text>
<text x="1079" y="405" text-anchor="middle" font-family="Avenir Next, Helvetica, Arial, sans-serif" font-size="11" fill="#2E231B">AWS Metal x86</text>
<text x="1079" y="418" text-anchor="middle" font-family="Avenir Next, Helvetica, Arial, sans-serif" font-size="11" fill="#2E231B">m7i.metal</text>
<text x="1079" y="431" text-anchor="middle" font-family="Avenir Next, Helvetica, Arial, sans-serif" font-size="7" fill="#2E231B">i686-unknown-linux-musl</text>
<text x="1079" y="444" text-anchor="middle" font-family="Avenir Next, Helvetica, Arial, sans-serif" font-size="11" fill="#2E231B">(rdtsc)</text>
<rect x="1146" y="42" width="94" height="382" fill="#FFF8E8"/>
<rect x="1159" y="349" width="8" height="35" fill="#1B1A17"/>
<text x="1163" y="345" text-anchor="middle" font-family="Avenir Next, Helvetica, Arial, sans-serif" font-size="7" fill="#2E231B">17.3</text>
<rect x="1171" y="349" width="8" height="35" fill="#D72D24"/>
<text x="1175" y="335" text-anchor="middle" font-family="Avenir Next, Helvetica, Arial, sans-serif" font-size="7" fill="#2E231B">17.3</text>
<rect x="1183" y="340" width="8" height="44" fill="#5B6472"/>
<text x="1187" y="316" text-anchor="middle" font-family="Avenir Next, Helvetica, Arial, sans-serif" font-size="7" fill="#2E231B">22.0</text>
<rect x="1195" y="239" width="8" height="145" fill="#8B5E3C"/>
<text x="1199" y="235" text-anchor="middle" font-family="Avenir Next, Helvetica, Arial, sans-serif" font-size="7" fill="#2E231B">72.3</text>
<rect x="1207" y="236" width="8" height="148" fill="#4F6F6A"/>
<text x="1211" y="222" text-anchor="middle" font-family="Avenir Next, Helvetica, Arial, sans-serif" font-size="7" fill="#2E231B">74.1</text>
<rect x="1219" y="276" width="8" height="108" fill="#9A8A3A"/>
<text x="1223" y="272" text-anchor="middle" font-family="Avenir Next, Helvetica, Arial, sans-serif" font-size="7" fill="#2E231B">54.2</text>
<text x="1193" y="405" text-anchor="middle" font-family="Avenir Next, Helvetica, Arial, sans-serif" font-size="11" fill="#2E231B">AWS Lambda aarch64</text>
<text x="1193" y="418" text-anchor="middle" font-family="Avenir Next, Helvetica, Arial, sans-serif" font-size="11" fill="#2E231B">provided.al2023</text>
<text x="1193" y="431" text-anchor="middle" font-family="Avenir Next, Helvetica, Arial, sans-serif" font-size="7" fill="#2E231B">aarch64-unknown-linux-gnu</text>
<text x="1193" y="444" text-anchor="middle" font-family="Avenir Next, Helvetica, Arial, sans-serif" font-size="11" fill="#2E231B">(cntvct)</text>
<rect x="1260" y="42" width="94" height="382" fill="#FFF8E8"/>
<rect x="1273" y="370" width="8" height="14" fill="#1B1A17"/>
<text x="1277" y="366" text-anchor="middle" font-family="Avenir Next, Helvetica, Arial, sans-serif" font-size="7" fill="#2E231B">6.96</text>
<rect x="1285" y="370" width="8" height="14" fill="#D72D24"/>
<text x="1289" y="356" text-anchor="middle" font-family="Avenir Next, Helvetica, Arial, sans-serif" font-size="7" fill="#2E231B">6.96</text>
<rect x="1297" y="361" width="8" height="23" fill="#5B6472"/>
<text x="1301" y="337" text-anchor="middle" font-family="Avenir Next, Helvetica, Arial, sans-serif" font-size="7" fill="#2E231B">11.7</text>
<rect x="1309" y="317" width="8" height="67" fill="#8B5E3C"/>
<text x="1313" y="313" text-anchor="middle" font-family="Avenir Next, Helvetica, Arial, sans-serif" font-size="7" fill="#2E231B">33.6</text>
<rect x="1321" y="317" width="8" height="67" fill="#4F6F6A"/>
<text x="1325" y="303" text-anchor="middle" font-family="Avenir Next, Helvetica, Arial, sans-serif" font-size="7" fill="#2E231B">33.7</text>
<rect x="1333" y="306" width="8" height="78" fill="#9A8A3A"/>
<text x="1337" y="292" text-anchor="middle" font-family="Avenir Next, Helvetica, Arial, sans-serif" font-size="7" fill="#2E231B">39.2</text>
<text x="1307" y="405" text-anchor="middle" font-family="Avenir Next, Helvetica, Arial, sans-serif" font-size="11" fill="#2E231B">AWS Nitro x86_64</text>
<text x="1307" y="418" text-anchor="middle" font-family="Avenir Next, Helvetica, Arial, sans-serif" font-size="11" fill="#2E231B">Windows c5.large</text>
<text x="1307" y="431" text-anchor="middle" font-family="Avenir Next, Helvetica, Arial, sans-serif" font-size="7" fill="#2E231B">x86_64-pc-windows-msvc</text>
<text x="1307" y="444" text-anchor="middle" font-family="Avenir Next, Helvetica, Arial, sans-serif" font-size="11" fill="#2E231B">(rdtsc)</text>
</g>
</svg>
