<?xml version="1.0" encoding="UTF-8"?>
<svg xmlns="http://www.w3.org/2000/svg" width="676" height="462" viewBox="0 0 676 462">
<rect width="676" height="462" fill="#FBF6EC"/>
<g shape-rendering="crispEdges">
<rect x="61.96" y="9" width="6" height="6" fill="#D72D24"/>
<text x="71.96" y="15" text-anchor="start" font-family="Avenir Next, Helvetica, Arial, sans-serif" font-size="12" fill="#2E231B">tach@0.2.0</text>
<rect x="157.16" y="9" width="6" height="6" fill="#5B6472"/>
<text x="167.16" y="15" text-anchor="start" font-family="Avenir Next, Helvetica, Arial, sans-serif" font-size="12" fill="#2E231B">quanta@0.12.6</text>
<rect x="272.52" y="9" width="6" height="6" fill="#8B5E3C"/>
<text x="282.52" y="15" text-anchor="start" font-family="Avenir Next, Helvetica, Arial, sans-serif" font-size="12" fill="#2E231B">minstant@0.1.7</text>
<rect x="394.6" y="9" width="6" height="6" fill="#4F6F6A"/>
<text x="404.6" y="15" text-anchor="start" font-family="Avenir Next, Helvetica, Arial, sans-serif" font-size="12" fill="#2E231B">fastant@0.1.11</text>
<rect x="516.68" y="9" width="6" height="6" fill="#9A8A3A"/>
<text x="526.68" y="15" text-anchor="start" font-family="Avenir Next, Helvetica, Arial, sans-serif" font-size="12" fill="#2E231B">std@1.91-1.95</text>
<text x="338" y="30" text-anchor="middle" font-family="Avenir Next, Helvetica, Arial, sans-serif" font-size="9" fill="#2E231B">All measurements are nanoseconds.</text>
<rect x="6" y="42" width="94" height="382" fill="#FFF8E8"/>
<rect x="25" y="382" width="8" height="2" fill="#D72D24"/>
<text x="29" y="378" text-anchor="middle" font-family="Avenir Next, Helvetica, Arial, sans-serif" font-size="7" fill="#2E231B">0.33</text>
<rect x="37" y="375" width="8" height="9" fill="#5B6472"/>
<text x="41" y="361" text-anchor="middle" font-family="Avenir Next, Helvetica, Arial, sans-serif" font-size="7" fill="#2E231B">4.62</text>
<rect x="49" y="333" width="8" height="51" fill="#8B5E3C"/>
<text x="53" y="329" text-anchor="middle" font-family="Avenir Next, Helvetica, Arial, sans-serif" font-size="7" fill="#2E231B">25.7</text>
<rect x="61" y="333" width="8" height="51" fill="#4F6F6A"/>
<text x="65" y="319" text-anchor="middle" font-family="Avenir Next, Helvetica, Arial, sans-serif" font-size="7" fill="#2E231B">25.7</text>
<rect x="73" y="347" width="8" height="37" fill="#9A8A3A"/>
<text x="77" y="343" text-anchor="middle" font-family="Avenir Next, Helvetica, Arial, sans-serif" font-size="7" fill="#2E231B">18.4</text>
<text x="53" y="405" text-anchor="middle" font-family="Avenir Next, Helvetica, Arial, sans-serif" font-size="11" fill="#2E231B">macOS aarch64</text>
<text x="53" y="418" text-anchor="middle" font-family="Avenir Next, Helvetica, Arial, sans-serif" font-size="7" fill="#2E231B">aarch64-apple-darwin</text>
<rect x="120" y="42" width="94" height="382" fill="#FFF8E8"/>
<rect x="139" y="353" width="8" height="31" fill="#D72D24"/>
<text x="143" y="349" text-anchor="middle" font-family="Avenir Next, Helvetica, Arial, sans-serif" font-size="7" fill="#2E231B">15.4</text>
<rect x="151" y="334" width="8" height="50" fill="#5B6472"/>
<text x="155" y="330" text-anchor="middle" font-family="Avenir Next, Helvetica, Arial, sans-serif" font-size="7" fill="#2E231B">25.1</text>
<rect x="163" y="306" width="8" height="78" fill="#8B5E3C"/>
<text x="167" y="302" text-anchor="middle" font-family="Avenir Next, Helvetica, Arial, sans-serif" font-size="7" fill="#2E231B">39.0</text>
<rect x="175" y="340" width="8" height="44" fill="#4F6F6A"/>
<text x="179" y="336" text-anchor="middle" font-family="Avenir Next, Helvetica, Arial, sans-serif" font-size="7" fill="#2E231B">22.1</text>
<rect x="187" y="328" width="8" height="56" fill="#9A8A3A"/>
<text x="191" y="324" text-anchor="middle" font-family="Avenir Next, Helvetica, Arial, sans-serif" font-size="7" fill="#2E231B">28.1</text>
<text x="167" y="405" text-anchor="middle" font-family="Avenir Next, Helvetica, Arial, sans-serif" font-size="11" fill="#2E231B">Docker x86_64</text>
<text x="167" y="418" text-anchor="middle" font-family="Avenir Next, Helvetica, Arial, sans-serif" font-size="7" fill="#2E231B">x86_64-unknown-linux-gnu</text>
<rect x="234" y="42" width="94" height="382" fill="#FFF8E8"/>
<rect x="253" y="365" width="8" height="19" fill="#D72D24"/>
<text x="257" y="361" text-anchor="middle" font-family="Avenir Next, Helvetica, Arial, sans-serif" font-size="7" fill="#2E231B">9.72</text>
<rect x="265" y="356" width="8" height="28" fill="#5B6472"/>
<text x="269" y="342" text-anchor="middle" font-family="Avenir Next, Helvetica, Arial, sans-serif" font-size="7" fill="#2E231B">14.0</text>
<rect x="277" y="364" width="8" height="20" fill="#8B5E3C"/>
<text x="281" y="360" text-anchor="middle" font-family="Avenir Next, Helvetica, Arial, sans-serif" font-size="7" fill="#2E231B">10.2</text>
<rect x="289" y="364" width="8" height="20" fill="#4F6F6A"/>
<text x="293" y="350" text-anchor="middle" font-family="Avenir Next, Helvetica, Arial, sans-serif" font-size="7" fill="#2E231B">10.1</text>
<rect x="301" y="333" width="8" height="51" fill="#9A8A3A"/>
<text x="305" y="329" text-anchor="middle" font-family="Avenir Next, Helvetica, Arial, sans-serif" font-size="7" fill="#2E231B">25.3</text>
<text x="281" y="405" text-anchor="middle" font-family="Avenir Next, Helvetica, Arial, sans-serif" font-size="11" fill="#2E231B">AWS Nitro x86_64</text>
<text x="281" y="418" text-anchor="middle" font-family="Avenir Next, Helvetica, Arial, sans-serif" font-size="11" fill="#2E231B">t3.micro</text>
<rect x="348" y="42" width="94" height="382" fill="#FFF8E8"/>
<rect x="367" y="348" width="8" height="36" fill="#D72D24"/>
<text x="371" y="344" text-anchor="middle" font-family="Avenir Next, Helvetica, Arial, sans-serif" font-size="7" fill="#2E231B">17.8</text>
<rect x="379" y="340" width="8" height="44" fill="#5B6472"/>
<text x="383" y="326" text-anchor="middle" font-family="Avenir Next, Helvetica, Arial, sans-serif" font-size="7" fill="#2E231B">22.2</text>
<rect x="391" y="233" width="8" height="151" fill="#8B5E3C"/>
<text x="395" y="229" text-anchor="middle" font-family="Avenir Next, Helvetica, Arial, sans-serif" font-size="7" fill="#2E231B">75.6</text>
<rect x="403" y="348" width="8" height="36" fill="#4F6F6A"/>
<text x="407" y="344" text-anchor="middle" font-family="Avenir Next, Helvetica, Arial, sans-serif" font-size="7" fill="#2E231B">18.2</text>
<rect x="415" y="276" width="8" height="108" fill="#9A8A3A"/>
<text x="419" y="272" text-anchor="middle" font-family="Avenir Next, Helvetica, Arial, sans-serif" font-size="7" fill="#2E231B">53.8</text>
<text x="395" y="405" text-anchor="middle" font-family="Avenir Next, Helvetica, Arial, sans-serif" font-size="11" fill="#2E231B">AWS Lambda x86_64</text>
<text x="395" y="418" text-anchor="middle" font-family="Avenir Next, Helvetica, Arial, sans-serif" font-size="11" fill="#2E231B">provided.al2023</text>
<rect x="462" y="42" width="94" height="382" fill="#FFF8E8"/>
<rect x="481" y="370" width="8" height="14" fill="#D72D24"/>
<text x="485" y="366" text-anchor="middle" font-family="Avenir Next, Helvetica, Arial, sans-serif" font-size="7" fill="#2E231B">6.84</text>
<rect x="493" y="370" width="8" height="14" fill="#5B6472"/>
<text x="497" y="356" text-anchor="middle" font-family="Avenir Next, Helvetica, Arial, sans-serif" font-size="7" fill="#2E231B">7.13</text>
<rect x="505" y="370" width="8" height="14" fill="#8B5E3C"/>
<text x="509" y="366" text-anchor="middle" font-family="Avenir Next, Helvetica, Arial, sans-serif" font-size="7" fill="#2E231B">6.84</text>
<rect x="517" y="370" width="8" height="14" fill="#4F6F6A"/>
<text x="521" y="356" text-anchor="middle" font-family="Avenir Next, Helvetica, Arial, sans-serif" font-size="7" fill="#2E231B">6.84</text>
<rect x="529" y="355" width="8" height="29" fill="#9A8A3A"/>
<text x="533" y="341" text-anchor="middle" font-family="Avenir Next, Helvetica, Arial, sans-serif" font-size="7" fill="#2E231B">14.7</text>
<text x="509" y="405" text-anchor="middle" font-family="Avenir Next, Helvetica, Arial, sans-serif" font-size="11" fill="#2E231B">AWS Metal x86_64</text>
<text x="509" y="418" text-anchor="middle" font-family="Avenir Next, Helvetica, Arial, sans-serif" font-size="11" fill="#2E231B">m7i.metal</text>
<rect x="576" y="42" width="94" height="382" fill="#FFF8E8"/>
<rect x="595" y="370" width="8" height="14" fill="#D72D24"/>
<text x="599" y="366" text-anchor="middle" font-family="Avenir Next, Helvetica, Arial, sans-serif" font-size="7" fill="#2E231B">6.96</text>
<rect x="607" y="361" width="8" height="23" fill="#5B6472"/>
<text x="611" y="347" text-anchor="middle" font-family="Avenir Next, Helvetica, Arial, sans-serif" font-size="7" fill="#2E231B">11.7</text>
<rect x="619" y="317" width="8" height="67" fill="#8B5E3C"/>
<text x="623" y="313" text-anchor="middle" font-family="Avenir Next, Helvetica, Arial, sans-serif" font-size="7" fill="#2E231B">33.6</text>
<rect x="631" y="317" width="8" height="67" fill="#4F6F6A"/>
<text x="635" y="303" text-anchor="middle" font-family="Avenir Next, Helvetica, Arial, sans-serif" font-size="7" fill="#2E231B">33.7</text>
<rect x="643" y="306" width="8" height="78" fill="#9A8A3A"/>
<text x="647" y="292" text-anchor="middle" font-family="Avenir Next, Helvetica, Arial, sans-serif" font-size="7" fill="#2E231B">39.2</text>
<text x="623" y="405" text-anchor="middle" font-family="Avenir Next, Helvetica, Arial, sans-serif" font-size="11" fill="#2E231B">AWS Nitro x86_64</text>
<text x="623" y="418" text-anchor="middle" font-family="Avenir Next, Helvetica, Arial, sans-serif" font-size="11" fill="#2E231B">Windows c5.large</text>
</g>
</svg>
