<?xml version="1.0" encoding="UTF-8"?>
<svg xmlns="http://www.w3.org/2000/svg" width="625.6800000000001" height="462" viewBox="0 0 625.6800000000001 462">
<rect width="625.6800000000001" height="462" fill="#FBF6EC"/>
<g shape-rendering="crispEdges">
<rect x="6" y="9" width="6" height="6" fill="#1B1A17"/>
<text x="16" y="15" text-anchor="start" font-family="Avenir Next, Helvetica, Arial, sans-serif" font-size="12" fill="#2E231B">clock</text>
<rect x="67.6" y="9" width="6" height="6" fill="#D72D24"/>
<text x="77.6" y="15" text-anchor="start" font-family="Avenir Next, Helvetica, Arial, sans-serif" font-size="12" fill="#2E231B">tach@0.2.0</text>
<rect x="162.8" y="9" width="6" height="6" fill="#5B6472"/>
<text x="172.8" y="15" text-anchor="start" font-family="Avenir Next, Helvetica, Arial, sans-serif" font-size="12" fill="#2E231B">quanta@0.12.6</text>
<rect x="278.16" y="9" width="6" height="6" fill="#8B5E3C"/>
<text x="288.16" y="15" text-anchor="start" font-family="Avenir Next, Helvetica, Arial, sans-serif" font-size="12" fill="#2E231B">minstant@0.1.7</text>
<rect x="400.24" y="9" width="6" height="6" fill="#4F6F6A"/>
<text x="410.24" y="15" text-anchor="start" font-family="Avenir Next, Helvetica, Arial, sans-serif" font-size="12" fill="#2E231B">fastant@0.1.11</text>
<rect x="522.32" y="9" width="6" height="6" fill="#9A8A3A"/>
<text x="532.32" y="15" text-anchor="start" font-family="Avenir Next, Helvetica, Arial, sans-serif" font-size="12" fill="#2E231B">std@1.91-1.95</text>
<text x="312.84" y="30" text-anchor="middle" font-family="Avenir Next, Helvetica, Arial, sans-serif" font-size="9" fill="#2E231B">All measurements are nanoseconds.</text>
<rect x="37.84" y="42" width="94" height="382" fill="#FFF8E8"/>
<rect x="50.84" y="354" width="8" height="30" fill="#1B1A17"/>
<text x="54.84" y="350" text-anchor="middle" font-family="Avenir Next, Helvetica, Arial, sans-serif" font-size="7" fill="#2E231B">15.2</text>
<rect x="62.84" y="353" width="8" height="31" fill="#D72D24"/>
<text x="66.84" y="339" text-anchor="middle" font-family="Avenir Next, Helvetica, Arial, sans-serif" font-size="7" fill="#2E231B">15.4</text>
<rect x="74.84" y="334" width="8" height="50" fill="#5B6472"/>
<text x="78.84" y="320" text-anchor="middle" font-family="Avenir Next, Helvetica, Arial, sans-serif" font-size="7" fill="#2E231B">25.1</text>
<rect x="86.84" y="306" width="8" height="78" fill="#8B5E3C"/>
<text x="90.84" y="302" text-anchor="middle" font-family="Avenir Next, Helvetica, Arial, sans-serif" font-size="7" fill="#2E231B">39.0</text>
<rect x="98.84" y="340" width="8" height="44" fill="#4F6F6A"/>
<text x="102.84" y="336" text-anchor="middle" font-family="Avenir Next, Helvetica, Arial, sans-serif" font-size="7" fill="#2E231B">22.1</text>
<rect x="110.84" y="328" width="8" height="56" fill="#9A8A3A"/>
<text x="114.84" y="324" text-anchor="middle" font-family="Avenir Next, Helvetica, Arial, sans-serif" font-size="7" fill="#2E231B">28.1</text>
<text x="84.84" y="405" text-anchor="middle" font-family="Avenir Next, Helvetica, Arial, sans-serif" font-size="11" fill="#2E231B">Docker x86_64</text>
<text x="84.84" y="418" text-anchor="middle" font-family="Avenir Next, Helvetica, Arial, sans-serif" font-size="7" fill="#2E231B">x86_64-unknown-linux-gnu</text>
<text x="84.84" y="431" text-anchor="middle" font-family="Avenir Next, Helvetica, Arial, sans-serif" font-size="11" fill="#2E231B">(rdtsc)</text>
<rect x="151.84" y="42" width="94" height="382" fill="#FFF8E8"/>
<rect x="164.84" y="365" width="8" height="19" fill="#1B1A17"/>
<text x="168.84" y="361" text-anchor="middle" font-family="Avenir Next, Helvetica, Arial, sans-serif" font-size="7" fill="#2E231B">9.40</text>
<rect x="176.84" y="365" width="8" height="19" fill="#D72D24"/>
<text x="180.84" y="351" text-anchor="middle" font-family="Avenir Next, Helvetica, Arial, sans-serif" font-size="7" fill="#2E231B">9.72</text>
<rect x="188.84" y="356" width="8" height="28" fill="#5B6472"/>
<text x="192.84" y="332" text-anchor="middle" font-family="Avenir Next, Helvetica, Arial, sans-serif" font-size="7" fill="#2E231B">14.0</text>
<rect x="200.84" y="364" width="8" height="20" fill="#8B5E3C"/>
<text x="204.84" y="360" text-anchor="middle" font-family="Avenir Next, Helvetica, Arial, sans-serif" font-size="7" fill="#2E231B">10.2</text>
<rect x="212.84" y="364" width="8" height="20" fill="#4F6F6A"/>
<text x="216.84" y="350" text-anchor="middle" font-family="Avenir Next, Helvetica, Arial, sans-serif" font-size="7" fill="#2E231B">10.1</text>
<rect x="224.84" y="333" width="8" height="51" fill="#9A8A3A"/>
<text x="228.84" y="329" text-anchor="middle" font-family="Avenir Next, Helvetica, Arial, sans-serif" font-size="7" fill="#2E231B">25.3</text>
<text x="198.84" y="405" text-anchor="middle" font-family="Avenir Next, Helvetica, Arial, sans-serif" font-size="11" fill="#2E231B">AWS Nitro x86_64</text>
<text x="198.84" y="418" text-anchor="middle" font-family="Avenir Next, Helvetica, Arial, sans-serif" font-size="11" fill="#2E231B">t3.micro</text>
<text x="198.84" y="431" text-anchor="middle" font-family="Avenir Next, Helvetica, Arial, sans-serif" font-size="7" fill="#2E231B">x86_64-unknown-linux-musl</text>
<text x="198.84" y="444" text-anchor="middle" font-family="Avenir Next, Helvetica, Arial, sans-serif" font-size="11" fill="#2E231B">(rdtsc)</text>
<rect x="265.84" y="42" width="94" height="382" fill="#FFF8E8"/>
<rect x="278.84" y="349" width="8" height="35" fill="#1B1A17"/>
<text x="282.84" y="345" text-anchor="middle" font-family="Avenir Next, Helvetica, Arial, sans-serif" font-size="7" fill="#2E231B">17.5</text>
<rect x="290.84" y="348" width="8" height="36" fill="#D72D24"/>
<text x="294.84" y="334" text-anchor="middle" font-family="Avenir Next, Helvetica, Arial, sans-serif" font-size="7" fill="#2E231B">17.8</text>
<rect x="302.84" y="340" width="8" height="44" fill="#5B6472"/>
<text x="306.84" y="316" text-anchor="middle" font-family="Avenir Next, Helvetica, Arial, sans-serif" font-size="7" fill="#2E231B">22.2</text>
<rect x="314.84" y="233" width="8" height="151" fill="#8B5E3C"/>
<text x="318.84" y="229" text-anchor="middle" font-family="Avenir Next, Helvetica, Arial, sans-serif" font-size="7" fill="#2E231B">75.6</text>
<rect x="326.84" y="348" width="8" height="36" fill="#4F6F6A"/>
<text x="330.84" y="344" text-anchor="middle" font-family="Avenir Next, Helvetica, Arial, sans-serif" font-size="7" fill="#2E231B">18.2</text>
<rect x="338.84" y="276" width="8" height="108" fill="#9A8A3A"/>
<text x="342.84" y="272" text-anchor="middle" font-family="Avenir Next, Helvetica, Arial, sans-serif" font-size="7" fill="#2E231B">53.8</text>
<text x="312.84" y="405" text-anchor="middle" font-family="Avenir Next, Helvetica, Arial, sans-serif" font-size="11" fill="#2E231B">AWS Lambda x86_64</text>
<text x="312.84" y="418" text-anchor="middle" font-family="Avenir Next, Helvetica, Arial, sans-serif" font-size="11" fill="#2E231B">provided.al2023</text>
<text x="312.84" y="431" text-anchor="middle" font-family="Avenir Next, Helvetica, Arial, sans-serif" font-size="7" fill="#2E231B">x86_64-unknown-linux-musl</text>
<text x="312.84" y="444" text-anchor="middle" font-family="Avenir Next, Helvetica, Arial, sans-serif" font-size="11" fill="#2E231B">(rdtsc)</text>
<rect x="379.84" y="42" width="94" height="382" fill="#FFF8E8"/>
<rect x="392.84" y="370" width="8" height="14" fill="#1B1A17"/>
<text x="396.84" y="366" text-anchor="middle" font-family="Avenir Next, Helvetica, Arial, sans-serif" font-size="7" fill="#2E231B">6.84</text>
<rect x="404.84" y="370" width="8" height="14" fill="#D72D24"/>
<text x="408.84" y="356" text-anchor="middle" font-family="Avenir Next, Helvetica, Arial, sans-serif" font-size="7" fill="#2E231B">6.84</text>
<rect x="416.84" y="370" width="8" height="14" fill="#5B6472"/>
<text x="420.84" y="366" text-anchor="middle" font-family="Avenir Next, Helvetica, Arial, sans-serif" font-size="7" fill="#2E231B">7.13</text>
<rect x="428.84" y="370" width="8" height="14" fill="#8B5E3C"/>
<text x="432.84" y="356" text-anchor="middle" font-family="Avenir Next, Helvetica, Arial, sans-serif" font-size="7" fill="#2E231B">6.84</text>
<rect x="440.84" y="370" width="8" height="14" fill="#4F6F6A"/>
<text x="444.84" y="366" text-anchor="middle" font-family="Avenir Next, Helvetica, Arial, sans-serif" font-size="7" fill="#2E231B">6.84</text>
<rect x="452.84" y="355" width="8" height="29" fill="#9A8A3A"/>
<text x="456.84" y="351" text-anchor="middle" font-family="Avenir Next, Helvetica, Arial, sans-serif" font-size="7" fill="#2E231B">14.7</text>
<text x="426.84" y="405" text-anchor="middle" font-family="Avenir Next, Helvetica, Arial, sans-serif" font-size="11" fill="#2E231B">AWS Metal x86_64</text>
<text x="426.84" y="418" text-anchor="middle" font-family="Avenir Next, Helvetica, Arial, sans-serif" font-size="11" fill="#2E231B">m7i.metal</text>
<text x="426.84" y="431" text-anchor="middle" font-family="Avenir Next, Helvetica, Arial, sans-serif" font-size="7" fill="#2E231B">x86_64-unknown-linux-musl</text>
<text x="426.84" y="444" text-anchor="middle" font-family="Avenir Next, Helvetica, Arial, sans-serif" font-size="11" fill="#2E231B">(rdtsc)</text>
<rect x="493.84" y="42" width="94" height="382" fill="#FFF8E8"/>
<rect x="506.84" y="370" width="8" height="14" fill="#1B1A17"/>
<text x="510.84" y="366" text-anchor="middle" font-family="Avenir Next, Helvetica, Arial, sans-serif" font-size="7" fill="#2E231B">6.96</text>
<rect x="518.84" y="370" width="8" height="14" fill="#D72D24"/>
<text x="522.84" y="356" text-anchor="middle" font-family="Avenir Next, Helvetica, Arial, sans-serif" font-size="7" fill="#2E231B">6.96</text>
<rect x="530.84" y="361" width="8" height="23" fill="#5B6472"/>
<text x="534.84" y="337" text-anchor="middle" font-family="Avenir Next, Helvetica, Arial, sans-serif" font-size="7" fill="#2E231B">11.7</text>
<rect x="542.84" y="317" width="8" height="67" fill="#8B5E3C"/>
<text x="546.84" y="313" text-anchor="middle" font-family="Avenir Next, Helvetica, Arial, sans-serif" font-size="7" fill="#2E231B">33.6</text>
<rect x="554.84" y="317" width="8" height="67" fill="#4F6F6A"/>
<text x="558.84" y="303" text-anchor="middle" font-family="Avenir Next, Helvetica, Arial, sans-serif" font-size="7" fill="#2E231B">33.7</text>
<rect x="566.84" y="306" width="8" height="78" fill="#9A8A3A"/>
<text x="570.84" y="292" text-anchor="middle" font-family="Avenir Next, Helvetica, Arial, sans-serif" font-size="7" fill="#2E231B">39.2</text>
<text x="540.84" y="405" text-anchor="middle" font-family="Avenir Next, Helvetica, Arial, sans-serif" font-size="11" fill="#2E231B">AWS Nitro x86_64</text>
<text x="540.84" y="418" text-anchor="middle" font-family="Avenir Next, Helvetica, Arial, sans-serif" font-size="11" fill="#2E231B">Windows c5.large</text>
<text x="540.84" y="431" text-anchor="middle" font-family="Avenir Next, Helvetica, Arial, sans-serif" font-size="7" fill="#2E231B">x86_64-pc-windows-msvc</text>
<text x="540.84" y="444" text-anchor="middle" font-family="Avenir Next, Helvetica, Arial, sans-serif" font-size="11" fill="#2E231B">(rdtsc)</text>
</g>
</svg>
