<?xml version="1.0" encoding="UTF-8" standalone="no"?>
<!DOCTYPE svg PUBLIC "-//W3C//DTD SVG 1.1//EN"
 "http://www.w3.org/Graphics/SVG/1.1/DTD/svg11.dtd">
<!-- Generated by graphviz version 14.1.5 (20260411.2331)
 -->
<!-- Title: benchmark Pages: 1 -->
<svg width="660pt" height="325pt"
 viewBox="0.00 0.00 660.00 325.00" xmlns="http://www.w3.org/2000/svg" xmlns:xlink="http://www.w3.org/1999/xlink">
<g id="graph0" class="graph" transform="scale(1 1) rotate(0) translate(5.76 319.26)">
<title>benchmark</title>
<polygon fill="#fbf6ec" stroke="none" points="-5.76,5.76 -5.76,-319.26 653.76,-319.26 653.76,5.76 -5.76,5.76"/>
<!-- benchmark -->
<g id="node1" class="node">
<title>benchmark</title>
<polygon fill="#1b1a17" stroke="none" points="0,-285 0,-313.5 174.75,-313.5 174.75,-285 0,-285"/>
<polygon fill="none" stroke="#e4d8c2" points="0,-285 0,-313.5 174.75,-313.5 174.75,-285 0,-285"/>
<text xml:space="preserve" text-anchor="start" x="52.88" y="-297.1" font-family="Avenir Next, Helvetica, Arial, sans-serif" font-weight="bold" font-size="12.00" fill="#fbf6ec">target / env</text>
<polygon fill="#075a4a" stroke="none" points="174.75,-285 174.75,-313.5 235.5,-313.5 235.5,-285 174.75,-285"/>
<polygon fill="none" stroke="#e4d8c2" points="174.75,-285 174.75,-313.5 235.5,-313.5 235.5,-285 174.75,-285"/>
<text xml:space="preserve" text-anchor="start" x="192.75" y="-297.1" font-family="Avenir Next, Helvetica, Arial, sans-serif" font-weight="bold" font-size="12.00" fill="#fbf6ec">tach</text>
<polygon fill="#1b1a17" stroke="none" points="235.5,-285 235.5,-313.5 335.25,-313.5 335.25,-285 235.5,-285"/>
<polygon fill="none" stroke="#e4d8c2" points="235.5,-285 235.5,-313.5 335.25,-313.5 335.25,-285 235.5,-285"/>
<text xml:space="preserve" text-anchor="start" x="264.75" y="-297.1" font-family="Avenir Next, Helvetica, Arial, sans-serif" font-weight="bold" font-size="12.00" fill="#fbf6ec">quanta</text>
<polygon fill="#1b1a17" stroke="none" points="335.25,-285 335.25,-313.5 441.75,-313.5 441.75,-285 335.25,-285"/>
<polygon fill="none" stroke="#e4d8c2" points="335.25,-285 335.25,-313.5 441.75,-313.5 441.75,-285 335.25,-285"/>
<text xml:space="preserve" text-anchor="start" x="362.62" y="-297.1" font-family="Avenir Next, Helvetica, Arial, sans-serif" font-weight="bold" font-size="12.00" fill="#fbf6ec">minstant</text>
<polygon fill="#1b1a17" stroke="none" points="441.75,-285 441.75,-313.5 548.25,-313.5 548.25,-285 441.75,-285"/>
<polygon fill="none" stroke="#e4d8c2" points="441.75,-285 441.75,-313.5 548.25,-313.5 548.25,-285 441.75,-285"/>
<text xml:space="preserve" text-anchor="start" x="474.75" y="-297.1" font-family="Avenir Next, Helvetica, Arial, sans-serif" font-weight="bold" font-size="12.00" fill="#fbf6ec">fastant</text>
<polygon fill="#1b1a17" stroke="none" points="548.25,-285 548.25,-313.5 648,-313.5 648,-285 548.25,-285"/>
<polygon fill="none" stroke="#e4d8c2" points="548.25,-285 548.25,-313.5 648,-313.5 648,-285 548.25,-285"/>
<text xml:space="preserve" text-anchor="start" x="588.75" y="-297.1" font-family="Avenir Next, Helvetica, Arial, sans-serif" font-weight="bold" font-size="12.00" fill="#fbf6ec">std</text>
<polygon fill="#fff8e8" stroke="none" points="0,-256.5 0,-285 174.75,-285 174.75,-256.5 0,-256.5"/>
<polygon fill="none" stroke="#e4d8c2" points="0,-256.5 0,-285 174.75,-285 174.75,-256.5 0,-256.5"/>
<text xml:space="preserve" text-anchor="start" x="6" y="-267" font-family="Avenir Next, Helvetica, Arial, sans-serif" font-size="12.00">AWS t3 KVM / x86_64&#45;musl</text>
<polygon fill="#075a4a" stroke="none" points="174.75,-256.5 174.75,-285 235.5,-285 235.5,-256.5 174.75,-256.5"/>
<polygon fill="none" stroke="#e4d8c2" points="174.75,-256.5 174.75,-285 235.5,-285 235.5,-256.5 174.75,-256.5"/>
<text xml:space="preserve" text-anchor="start" x="184.12" y="-267" font-family="Avenir Next, Helvetica, Arial, sans-serif" font-size="12.00" fill="#fbf6ec">8.711ns</text>
<polygon fill="#eac17d" stroke="none" points="235.5,-256.5 235.5,-285 335.25,-285 335.25,-256.5 235.5,-256.5"/>
<polygon fill="none" stroke="#e4d8c2" points="235.5,-256.5 235.5,-285 335.25,-285 335.25,-256.5 235.5,-256.5"/>
<text xml:space="preserve" text-anchor="start" x="244.88" y="-267" font-family="Avenir Next, Helvetica, Arial, sans-serif" font-size="12.00">13.254ns 1.52x</text>
<polygon fill="#ddeed9" stroke="none" points="335.25,-256.5 335.25,-285 441.75,-285 441.75,-256.5 335.25,-256.5"/>
<polygon fill="none" stroke="#e4d8c2" points="335.25,-256.5 335.25,-285 441.75,-285 441.75,-256.5 335.25,-256.5"/>
<text xml:space="preserve" text-anchor="start" x="351.38" y="-267" font-family="Avenir Next, Helvetica, Arial, sans-serif" font-size="12.00">9.356ns 1.07x</text>
<polygon fill="#ddeed9" stroke="none" points="441.75,-256.5 441.75,-285 548.25,-285 548.25,-256.5 441.75,-256.5"/>
<polygon fill="none" stroke="#e4d8c2" points="441.75,-256.5 441.75,-285 548.25,-285 548.25,-256.5 441.75,-256.5"/>
<text xml:space="preserve" text-anchor="start" x="457.88" y="-267" font-family="Avenir Next, Helvetica, Arial, sans-serif" font-size="12.00">9.356ns 1.07x</text>
<polygon fill="#d9874a" stroke="none" points="548.25,-256.5 548.25,-285 648,-285 648,-256.5 548.25,-256.5"/>
<polygon fill="none" stroke="#e4d8c2" points="548.25,-256.5 548.25,-285 648,-285 648,-256.5 548.25,-256.5"/>
<text xml:space="preserve" text-anchor="start" x="557.62" y="-267" font-family="Avenir Next, Helvetica, Arial, sans-serif" font-size="12.00">24.249ns 2.78x</text>
<polygon fill="#fff8e8" stroke="none" points="0,-228 0,-256.5 174.75,-256.5 174.75,-228 0,-228"/>
<polygon fill="none" stroke="#e4d8c2" points="0,-228 0,-256.5 174.75,-256.5 174.75,-228 0,-228"/>
<text xml:space="preserve" text-anchor="start" x="6" y="-238.5" font-family="Avenir Next, Helvetica, Arial, sans-serif" font-size="12.00">AWS m7i metal / x86_64&#45;musl</text>
<polygon fill="#075a4a" stroke="none" points="174.75,-228 174.75,-256.5 235.5,-256.5 235.5,-228 174.75,-228"/>
<polygon fill="none" stroke="#e4d8c2" points="174.75,-228 174.75,-256.5 235.5,-256.5 235.5,-228 174.75,-228"/>
<text xml:space="preserve" text-anchor="start" x="184.12" y="-238.5" font-family="Avenir Next, Helvetica, Arial, sans-serif" font-size="12.00" fill="#fbf6ec">6.841ns</text>
<polygon fill="#ddeed9" stroke="none" points="235.5,-228 235.5,-256.5 335.25,-256.5 335.25,-228 235.5,-228"/>
<polygon fill="none" stroke="#e4d8c2" points="235.5,-228 235.5,-256.5 335.25,-256.5 335.25,-228 235.5,-228"/>
<text xml:space="preserve" text-anchor="start" x="248.25" y="-238.5" font-family="Avenir Next, Helvetica, Arial, sans-serif" font-size="12.00">7.130ns 1.04x</text>
<polygon fill="#ddeed9" stroke="none" points="335.25,-228 335.25,-256.5 441.75,-256.5 441.75,-228 335.25,-228"/>
<polygon fill="none" stroke="#e4d8c2" points="335.25,-228 335.25,-256.5 441.75,-256.5 441.75,-228 335.25,-228"/>
<text xml:space="preserve" text-anchor="start" x="351.38" y="-238.5" font-family="Avenir Next, Helvetica, Arial, sans-serif" font-size="12.00">6.841ns 1.00x</text>
<polygon fill="#ddeed9" stroke="none" points="441.75,-228 441.75,-256.5 548.25,-256.5 548.25,-228 441.75,-228"/>
<polygon fill="none" stroke="#e4d8c2" points="441.75,-228 441.75,-256.5 548.25,-256.5 548.25,-228 441.75,-228"/>
<text xml:space="preserve" text-anchor="start" x="457.88" y="-238.5" font-family="Avenir Next, Helvetica, Arial, sans-serif" font-size="12.00">6.841ns 1.00x</text>
<polygon fill="#d9874a" stroke="none" points="548.25,-228 548.25,-256.5 648,-256.5 648,-228 548.25,-228"/>
<polygon fill="none" stroke="#e4d8c2" points="548.25,-228 548.25,-256.5 648,-256.5 648,-228 548.25,-228"/>
<text xml:space="preserve" text-anchor="start" x="557.62" y="-238.5" font-family="Avenir Next, Helvetica, Arial, sans-serif" font-size="12.00">14.734ns 2.15x</text>
<polygon fill="#fff8e8" stroke="none" points="0,-199.5 0,-228 174.75,-228 174.75,-199.5 0,-199.5"/>
<polygon fill="none" stroke="#e4d8c2" points="0,-199.5 0,-228 174.75,-228 174.75,-199.5 0,-199.5"/>
<text xml:space="preserve" text-anchor="start" x="6" y="-210" font-family="Avenir Next, Helvetica, Arial, sans-serif" font-size="12.00">AWS m7i metal / x86_64&#45;gnu</text>
<polygon fill="#075a4a" stroke="none" points="174.75,-199.5 174.75,-228 235.5,-228 235.5,-199.5 174.75,-199.5"/>
<polygon fill="none" stroke="#e4d8c2" points="174.75,-199.5 174.75,-228 235.5,-228 235.5,-199.5 174.75,-199.5"/>
<text xml:space="preserve" text-anchor="start" x="184.12" y="-210" font-family="Avenir Next, Helvetica, Arial, sans-serif" font-size="12.00" fill="#fbf6ec">6.842ns</text>
<polygon fill="#ddeed9" stroke="none" points="235.5,-199.5 235.5,-228 335.25,-228 335.25,-199.5 235.5,-199.5"/>
<polygon fill="none" stroke="#e4d8c2" points="235.5,-199.5 235.5,-228 335.25,-228 335.25,-199.5 235.5,-199.5"/>
<text xml:space="preserve" text-anchor="start" x="248.25" y="-210" font-family="Avenir Next, Helvetica, Arial, sans-serif" font-size="12.00">7.395ns 1.08x</text>
<polygon fill="#ddeed9" stroke="none" points="335.25,-199.5 335.25,-228 441.75,-228 441.75,-199.5 335.25,-199.5"/>
<polygon fill="none" stroke="#e4d8c2" points="335.25,-199.5 335.25,-228 441.75,-228 441.75,-199.5 335.25,-199.5"/>
<text xml:space="preserve" text-anchor="start" x="351.38" y="-210" font-family="Avenir Next, Helvetica, Arial, sans-serif" font-size="12.00">6.842ns 1.00x</text>
<polygon fill="#ddeed9" stroke="none" points="441.75,-199.5 441.75,-228 548.25,-228 548.25,-199.5 441.75,-199.5"/>
<polygon fill="none" stroke="#e4d8c2" points="441.75,-199.5 441.75,-228 548.25,-228 548.25,-199.5 441.75,-199.5"/>
<text xml:space="preserve" text-anchor="start" x="457.88" y="-210" font-family="Avenir Next, Helvetica, Arial, sans-serif" font-size="12.00">6.842ns 1.00x</text>
<polygon fill="#d9874a" stroke="none" points="548.25,-199.5 548.25,-228 648,-228 648,-199.5 548.25,-199.5"/>
<polygon fill="none" stroke="#e4d8c2" points="548.25,-199.5 548.25,-228 648,-228 648,-199.5 548.25,-199.5"/>
<text xml:space="preserve" text-anchor="start" x="557.62" y="-210" font-family="Avenir Next, Helvetica, Arial, sans-serif" font-size="12.00">14.812ns 2.17x</text>
<polygon fill="#fff8e8" stroke="none" points="0,-171 0,-199.5 174.75,-199.5 174.75,-171 0,-171"/>
<polygon fill="none" stroke="#e4d8c2" points="0,-171 0,-199.5 174.75,-199.5 174.75,-171 0,-171"/>
<text xml:space="preserve" text-anchor="start" x="6" y="-181.5" font-family="Avenir Next, Helvetica, Arial, sans-serif" font-size="12.00">AWS t3 KVM / x86&#45;musl</text>
<polygon fill="#075a4a" stroke="none" points="174.75,-171 174.75,-199.5 235.5,-199.5 235.5,-171 174.75,-171"/>
<polygon fill="none" stroke="#e4d8c2" points="174.75,-171 174.75,-199.5 235.5,-199.5 235.5,-171 174.75,-171"/>
<text xml:space="preserve" text-anchor="start" x="180.75" y="-181.5" font-family="Avenir Next, Helvetica, Arial, sans-serif" font-size="12.00" fill="#fbf6ec">13.552ns</text>
<polygon fill="#8f2e2e" stroke="none" points="235.5,-171 235.5,-199.5 335.25,-199.5 335.25,-171 235.5,-171"/>
<polygon fill="none" stroke="#e4d8c2" points="235.5,-171 235.5,-199.5 335.25,-199.5 335.25,-171 235.5,-171"/>
<text xml:space="preserve" text-anchor="start" x="244.88" y="-181.5" font-family="Avenir Next, Helvetica, Arial, sans-serif" font-size="12.00" fill="#fbf6ec">69.312ns 5.11x</text>
<polygon fill="#ddeed9" stroke="none" points="335.25,-171 335.25,-199.5 441.75,-199.5 441.75,-171 335.25,-171"/>
<polygon fill="none" stroke="#e4d8c2" points="335.25,-171 335.25,-199.5 441.75,-199.5 441.75,-171 335.25,-171"/>
<text xml:space="preserve" text-anchor="start" x="348" y="-181.5" font-family="Avenir Next, Helvetica, Arial, sans-serif" font-size="12.00">14.363ns 1.06x</text>
<polygon fill="#ddeed9" stroke="none" points="441.75,-171 441.75,-199.5 548.25,-199.5 548.25,-171 441.75,-171"/>
<polygon fill="none" stroke="#e4d8c2" points="441.75,-171 441.75,-199.5 548.25,-199.5 548.25,-171 441.75,-171"/>
<text xml:space="preserve" text-anchor="start" x="454.5" y="-181.5" font-family="Avenir Next, Helvetica, Arial, sans-serif" font-size="12.00">14.154ns 1.04x</text>
<polygon fill="#8f2e2e" stroke="none" points="548.25,-171 548.25,-199.5 648,-199.5 648,-171 548.25,-171"/>
<polygon fill="none" stroke="#e4d8c2" points="548.25,-171 548.25,-199.5 648,-199.5 648,-171 548.25,-171"/>
<text xml:space="preserve" text-anchor="start" x="557.62" y="-181.5" font-family="Avenir Next, Helvetica, Arial, sans-serif" font-size="12.00" fill="#fbf6ec">66.458ns 4.90x</text>
<polygon fill="#fff8e8" stroke="none" points="0,-142.5 0,-171 174.75,-171 174.75,-142.5 0,-142.5"/>
<polygon fill="none" stroke="#e4d8c2" points="0,-142.5 0,-171 174.75,-171 174.75,-142.5 0,-142.5"/>
<text xml:space="preserve" text-anchor="start" x="6" y="-153" font-family="Avenir Next, Helvetica, Arial, sans-serif" font-size="12.00">AWS m7i metal / x86&#45;musl</text>
<polygon fill="#075a4a" stroke="none" points="174.75,-142.5 174.75,-171 235.5,-171 235.5,-142.5 174.75,-142.5"/>
<polygon fill="none" stroke="#e4d8c2" points="174.75,-142.5 174.75,-171 235.5,-171 235.5,-142.5 174.75,-142.5"/>
<text xml:space="preserve" text-anchor="start" x="184.12" y="-153" font-family="Avenir Next, Helvetica, Arial, sans-serif" font-size="12.00" fill="#fbf6ec">6.841ns</text>
<polygon fill="#d9874a" stroke="none" points="235.5,-142.5 235.5,-171 335.25,-171 335.25,-142.5 235.5,-142.5"/>
<polygon fill="none" stroke="#e4d8c2" points="235.5,-142.5 235.5,-171 335.25,-171 335.25,-142.5 235.5,-142.5"/>
<text xml:space="preserve" text-anchor="start" x="244.88" y="-153" font-family="Avenir Next, Helvetica, Arial, sans-serif" font-size="12.00">23.066ns 3.37x</text>
<polygon fill="#ddeed9" stroke="none" points="335.25,-142.5 335.25,-171 441.75,-171 441.75,-142.5 335.25,-142.5"/>
<polygon fill="none" stroke="#e4d8c2" points="335.25,-142.5 335.25,-171 441.75,-171 441.75,-142.5 335.25,-142.5"/>
<text xml:space="preserve" text-anchor="start" x="351.38" y="-153" font-family="Avenir Next, Helvetica, Arial, sans-serif" font-size="12.00">6.841ns 1.00x</text>
<polygon fill="#ddeed9" stroke="none" points="441.75,-142.5 441.75,-171 548.25,-171 548.25,-142.5 441.75,-142.5"/>
<polygon fill="none" stroke="#e4d8c2" points="441.75,-142.5 441.75,-171 548.25,-171 548.25,-142.5 441.75,-142.5"/>
<text xml:space="preserve" text-anchor="start" x="457.88" y="-153" font-family="Avenir Next, Helvetica, Arial, sans-serif" font-size="12.00">6.841ns 1.00x</text>
<polygon fill="#d9874a" stroke="none" points="548.25,-142.5 548.25,-171 648,-171 648,-142.5 548.25,-142.5"/>
<polygon fill="none" stroke="#e4d8c2" points="548.25,-142.5 548.25,-171 648,-171 648,-142.5 548.25,-142.5"/>
<text xml:space="preserve" text-anchor="start" x="557.62" y="-153" font-family="Avenir Next, Helvetica, Arial, sans-serif" font-size="12.00">22.743ns 3.32x</text>
<polygon fill="#fff8e8" stroke="none" points="0,-114 0,-142.5 174.75,-142.5 174.75,-114 0,-114"/>
<polygon fill="none" stroke="#e4d8c2" points="0,-114 0,-142.5 174.75,-142.5 174.75,-114 0,-114"/>
<text xml:space="preserve" text-anchor="start" x="6" y="-124.5" font-family="Avenir Next, Helvetica, Arial, sans-serif" font-size="12.00">Docker / x86_64&#45;gnu</text>
<polygon fill="#075a4a" stroke="none" points="174.75,-114 174.75,-142.5 235.5,-142.5 235.5,-114 174.75,-114"/>
<polygon fill="none" stroke="#e4d8c2" points="174.75,-114 174.75,-142.5 235.5,-142.5 235.5,-114 174.75,-114"/>
<text xml:space="preserve" text-anchor="start" x="180.75" y="-124.5" font-family="Avenir Next, Helvetica, Arial, sans-serif" font-size="12.00" fill="#fbf6ec">15.394ns</text>
<polygon fill="#f4e7bf" stroke="none" points="235.5,-114 235.5,-142.5 335.25,-142.5 335.25,-114 235.5,-114"/>
<polygon fill="none" stroke="#e4d8c2" points="235.5,-114 235.5,-142.5 335.25,-142.5 335.25,-114 235.5,-114"/>
<text xml:space="preserve" text-anchor="start" x="244.88" y="-124.5" font-family="Avenir Next, Helvetica, Arial, sans-serif" font-size="12.00">25.079ns 1.63x</text>
<polygon fill="#d9874a" stroke="none" points="335.25,-114 335.25,-142.5 441.75,-142.5 441.75,-114 335.25,-114"/>
<polygon fill="none" stroke="#e4d8c2" points="335.25,-114 335.25,-142.5 441.75,-142.5 441.75,-114 335.25,-114"/>
<text xml:space="preserve" text-anchor="start" x="348" y="-124.5" font-family="Avenir Next, Helvetica, Arial, sans-serif" font-size="12.00">39.050ns 2.54x</text>
<polygon fill="#f4e7bf" stroke="none" points="441.75,-114 441.75,-142.5 548.25,-142.5 548.25,-114 441.75,-114"/>
<polygon fill="none" stroke="#e4d8c2" points="441.75,-114 441.75,-142.5 548.25,-142.5 548.25,-114 441.75,-114"/>
<text xml:space="preserve" text-anchor="start" x="454.5" y="-124.5" font-family="Avenir Next, Helvetica, Arial, sans-serif" font-size="12.00">22.066ns 1.43x</text>
<polygon fill="#f4e7bf" stroke="none" points="548.25,-114 548.25,-142.5 648,-142.5 648,-114 548.25,-114"/>
<polygon fill="none" stroke="#e4d8c2" points="548.25,-114 548.25,-142.5 648,-142.5 648,-114 548.25,-114"/>
<text xml:space="preserve" text-anchor="start" x="557.62" y="-124.5" font-family="Avenir Next, Helvetica, Arial, sans-serif" font-size="12.00">28.070ns 1.82x</text>
<polygon fill="#fff8e8" stroke="none" points="0,-85.5 0,-114 174.75,-114 174.75,-85.5 0,-85.5"/>
<polygon fill="none" stroke="#e4d8c2" points="0,-85.5 0,-114 174.75,-114 174.75,-85.5 0,-85.5"/>
<text xml:space="preserve" text-anchor="start" x="6" y="-96" font-family="Avenir Next, Helvetica, Arial, sans-serif" font-size="12.00">Docker / x86&#45;gnu</text>
<polygon fill="#075a4a" stroke="none" points="174.75,-85.5 174.75,-114 235.5,-114 235.5,-85.5 174.75,-85.5"/>
<polygon fill="none" stroke="#e4d8c2" points="174.75,-85.5 174.75,-114 235.5,-114 235.5,-85.5 174.75,-85.5"/>
<text xml:space="preserve" text-anchor="start" x="180.75" y="-96" font-family="Avenir Next, Helvetica, Arial, sans-serif" font-size="12.00" fill="#fbf6ec">25.789ns</text>
<polygon fill="#8f2e2e" stroke="none" points="235.5,-85.5 235.5,-114 335.25,-114 335.25,-85.5 235.5,-85.5"/>
<polygon fill="none" stroke="#e4d8c2" points="235.5,-85.5 235.5,-114 335.25,-114 335.25,-85.5 235.5,-85.5"/>
<text xml:space="preserve" text-anchor="start" x="241.5" y="-96" font-family="Avenir Next, Helvetica, Arial, sans-serif" font-size="12.00" fill="#fbf6ec">253.702ns 9.84x</text>
<polygon fill="#8f2e2e" stroke="none" points="335.25,-85.5 335.25,-114 441.75,-114 441.75,-85.5 335.25,-85.5"/>
<polygon fill="none" stroke="#e4d8c2" points="335.25,-85.5 335.25,-114 441.75,-114 441.75,-85.5 335.25,-85.5"/>
<text xml:space="preserve" text-anchor="start" x="341.25" y="-96" font-family="Avenir Next, Helvetica, Arial, sans-serif" font-size="12.00" fill="#fbf6ec">323.398ns 12.54x</text>
<polygon fill="#8f2e2e" stroke="none" points="441.75,-85.5 441.75,-114 548.25,-114 548.25,-85.5 441.75,-85.5"/>
<polygon fill="none" stroke="#e4d8c2" points="441.75,-85.5 441.75,-114 548.25,-114 548.25,-85.5 441.75,-85.5"/>
<text xml:space="preserve" text-anchor="start" x="447.75" y="-96" font-family="Avenir Next, Helvetica, Arial, sans-serif" font-size="12.00" fill="#fbf6ec">324.264ns 12.57x</text>
<polygon fill="#8f2e2e" stroke="none" points="548.25,-85.5 548.25,-114 648,-114 648,-85.5 548.25,-85.5"/>
<polygon fill="none" stroke="#e4d8c2" points="548.25,-85.5 548.25,-114 648,-114 648,-85.5 548.25,-85.5"/>
<text xml:space="preserve" text-anchor="start" x="554.25" y="-96" font-family="Avenir Next, Helvetica, Arial, sans-serif" font-size="12.00" fill="#fbf6ec">222.623ns 8.63x</text>
<polygon fill="#fff8e8" stroke="none" points="0,-57 0,-85.5 174.75,-85.5 174.75,-57 0,-57"/>
<polygon fill="none" stroke="#e4d8c2" points="0,-57 0,-85.5 174.75,-85.5 174.75,-57 0,-57"/>
<text xml:space="preserve" text-anchor="start" x="6" y="-67.5" font-family="Avenir Next, Helvetica, Arial, sans-serif" font-size="12.00">Docker / aarch64&#45;gnu</text>
<polygon fill="#075a4a" stroke="none" points="174.75,-57 174.75,-85.5 235.5,-85.5 235.5,-57 174.75,-57"/>
<polygon fill="none" stroke="#e4d8c2" points="174.75,-57 174.75,-85.5 235.5,-85.5 235.5,-57 174.75,-57"/>
<text xml:space="preserve" text-anchor="start" x="184.12" y="-67.5" font-family="Avenir Next, Helvetica, Arial, sans-serif" font-size="12.00" fill="#fbf6ec">0.330ns</text>
<polygon fill="#8f2e2e" stroke="none" points="235.5,-57 235.5,-85.5 335.25,-85.5 335.25,-57 235.5,-57"/>
<polygon fill="none" stroke="#e4d8c2" points="235.5,-57 235.5,-85.5 335.25,-85.5 335.25,-57 235.5,-57"/>
<text xml:space="preserve" text-anchor="start" x="244.88" y="-67.5" font-family="Avenir Next, Helvetica, Arial, sans-serif" font-size="12.00" fill="#fbf6ec">4.466ns 13.53x</text>
<polygon fill="#8f2e2e" stroke="none" points="335.25,-57 335.25,-85.5 441.75,-85.5 441.75,-57 335.25,-57"/>
<polygon fill="none" stroke="#e4d8c2" points="335.25,-57 335.25,-85.5 441.75,-85.5 441.75,-57 335.25,-57"/>
<text xml:space="preserve" text-anchor="start" x="344.62" y="-67.5" font-family="Avenir Next, Helvetica, Arial, sans-serif" font-size="12.00" fill="#fbf6ec">27.203ns 82.43x</text>
<polygon fill="#8f2e2e" stroke="none" points="441.75,-57 441.75,-85.5 548.25,-85.5 548.25,-57 441.75,-57"/>
<polygon fill="none" stroke="#e4d8c2" points="441.75,-57 441.75,-85.5 548.25,-85.5 548.25,-57 441.75,-57"/>
<text xml:space="preserve" text-anchor="start" x="451.12" y="-67.5" font-family="Avenir Next, Helvetica, Arial, sans-serif" font-size="12.00" fill="#fbf6ec">27.275ns 82.65x</text>
<polygon fill="#8f2e2e" stroke="none" points="548.25,-57 548.25,-85.5 648,-85.5 648,-57 548.25,-57"/>
<polygon fill="none" stroke="#e4d8c2" points="548.25,-57 548.25,-85.5 648,-85.5 648,-57 548.25,-57"/>
<text xml:space="preserve" text-anchor="start" x="554.25" y="-67.5" font-family="Avenir Next, Helvetica, Arial, sans-serif" font-size="12.00" fill="#fbf6ec">20.222ns 61.28x</text>
<polygon fill="#fff8e8" stroke="none" points="0,-28.5 0,-57 174.75,-57 174.75,-28.5 0,-28.5"/>
<polygon fill="none" stroke="#e4d8c2" points="0,-28.5 0,-57 174.75,-57 174.75,-28.5 0,-28.5"/>
<text xml:space="preserve" text-anchor="start" x="6" y="-39" font-family="Avenir Next, Helvetica, Arial, sans-serif" font-size="12.00">Docker / riscv64&#45;gnu</text>
<polygon fill="#075a4a" stroke="none" points="174.75,-28.5 174.75,-57 235.5,-57 235.5,-28.5 174.75,-28.5"/>
<polygon fill="none" stroke="#e4d8c2" points="174.75,-28.5 174.75,-57 235.5,-57 235.5,-28.5 174.75,-28.5"/>
<text xml:space="preserve" text-anchor="start" x="180.75" y="-39" font-family="Avenir Next, Helvetica, Arial, sans-serif" font-size="12.00" fill="#fbf6ec">59.584ns</text>
<polygon fill="#d9874a" stroke="none" points="235.5,-28.5 235.5,-57 335.25,-57 335.25,-28.5 235.5,-28.5"/>
<polygon fill="none" stroke="#e4d8c2" points="235.5,-28.5 235.5,-57 335.25,-57 335.25,-28.5 235.5,-28.5"/>
<text xml:space="preserve" text-anchor="start" x="241.5" y="-39" font-family="Avenir Next, Helvetica, Arial, sans-serif" font-size="12.00">215.296ns 3.61x</text>
<polygon fill="#8f2e2e" stroke="none" points="335.25,-28.5 335.25,-57 441.75,-57 441.75,-28.5 335.25,-28.5"/>
<polygon fill="none" stroke="#e4d8c2" points="335.25,-28.5 335.25,-57 441.75,-57 441.75,-28.5 335.25,-28.5"/>
<text xml:space="preserve" text-anchor="start" x="344.62" y="-39" font-family="Avenir Next, Helvetica, Arial, sans-serif" font-size="12.00" fill="#fbf6ec">271.262ns 4.55x</text>
<polygon fill="#8f2e2e" stroke="none" points="441.75,-28.5 441.75,-57 548.25,-57 548.25,-28.5 441.75,-28.5"/>
<polygon fill="none" stroke="#e4d8c2" points="441.75,-28.5 441.75,-57 548.25,-57 548.25,-28.5 441.75,-28.5"/>
<text xml:space="preserve" text-anchor="start" x="451.12" y="-39" font-family="Avenir Next, Helvetica, Arial, sans-serif" font-size="12.00" fill="#fbf6ec">271.241ns 4.55x</text>
<polygon fill="#d9874a" stroke="none" points="548.25,-28.5 548.25,-57 648,-57 648,-28.5 548.25,-28.5"/>
<polygon fill="none" stroke="#e4d8c2" points="548.25,-28.5 548.25,-57 648,-57 648,-28.5 548.25,-28.5"/>
<text xml:space="preserve" text-anchor="start" x="554.25" y="-39" font-family="Avenir Next, Helvetica, Arial, sans-serif" font-size="12.00">185.151ns 3.11x</text>
<polygon fill="#fff8e8" stroke="none" points="0,0 0,-28.5 174.75,-28.5 174.75,0 0,0"/>
<polygon fill="none" stroke="#e4d8c2" points="0,0 0,-28.5 174.75,-28.5 174.75,0 0,0"/>
<text xml:space="preserve" text-anchor="start" x="6" y="-10.5" font-family="Avenir Next, Helvetica, Arial, sans-serif" font-size="12.00">local macOS / aarch64</text>
<polygon fill="#075a4a" stroke="none" points="174.75,0 174.75,-28.5 235.5,-28.5 235.5,0 174.75,0"/>
<polygon fill="none" stroke="#e4d8c2" points="174.75,0 174.75,-28.5 235.5,-28.5 235.5,0 174.75,0"/>
<text xml:space="preserve" text-anchor="start" x="184.12" y="-10.5" font-family="Avenir Next, Helvetica, Arial, sans-serif" font-size="12.00" fill="#fbf6ec">0.330ns</text>
<polygon fill="#8f2e2e" stroke="none" points="235.5,0 235.5,-28.5 335.25,-28.5 335.25,0 235.5,0"/>
<polygon fill="none" stroke="#e4d8c2" points="235.5,0 235.5,-28.5 335.25,-28.5 335.25,0 235.5,0"/>
<text xml:space="preserve" text-anchor="start" x="244.88" y="-10.5" font-family="Avenir Next, Helvetica, Arial, sans-serif" font-size="12.00" fill="#fbf6ec">4.622ns 14.01x</text>
<polygon fill="#8f2e2e" stroke="none" points="335.25,0 335.25,-28.5 441.75,-28.5 441.75,0 335.25,0"/>
<polygon fill="none" stroke="#e4d8c2" points="335.25,0 335.25,-28.5 441.75,-28.5 441.75,0 335.25,0"/>
<text xml:space="preserve" text-anchor="start" x="344.62" y="-10.5" font-family="Avenir Next, Helvetica, Arial, sans-serif" font-size="12.00" fill="#fbf6ec">25.740ns 78.00x</text>
<polygon fill="#8f2e2e" stroke="none" points="441.75,0 441.75,-28.5 548.25,-28.5 548.25,0 441.75,0"/>
<polygon fill="none" stroke="#e4d8c2" points="441.75,0 441.75,-28.5 548.25,-28.5 548.25,0 441.75,0"/>
<text xml:space="preserve" text-anchor="start" x="451.12" y="-10.5" font-family="Avenir Next, Helvetica, Arial, sans-serif" font-size="12.00" fill="#fbf6ec">25.683ns 77.83x</text>
<polygon fill="#8f2e2e" stroke="none" points="548.25,0 548.25,-28.5 648,-28.5 648,0 548.25,0"/>
<polygon fill="none" stroke="#e4d8c2" points="548.25,0 548.25,-28.5 648,-28.5 648,0 548.25,0"/>
<text xml:space="preserve" text-anchor="start" x="554.25" y="-10.5" font-family="Avenir Next, Helvetica, Arial, sans-serif" font-size="12.00" fill="#fbf6ec">18.422ns 55.82x</text>
</g>
</g>
</svg>
