<?xml version="1.0" encoding="UTF-8"?>
<svg xmlns="http://www.w3.org/2000/svg" width="1417.5200000000002" height="375" viewBox="0 0 1417.5200000000002 375">
<rect width="1417.5200000000002" height="375" fill="#FBF6EC"/>
<g shape-rendering="crispEdges">
<text x="708.76" y="22" text-anchor="middle" font-family="Avenir Next, Helvetica, Arial, sans-serif" font-size="16" fill="#2E231B">Instant: now() vs now + elapsed()</text>
<rect x="6" y="330" width="6" height="6" fill="#F0635A"/>
<text x="16" y="336" text-anchor="start" font-family="Avenir Next, Helvetica, Arial, sans-serif" font-size="12" fill="#2E231B">tach: now()</text>
<rect x="107.92" y="330" width="6" height="6" fill="#D72D24"/>
<text x="117.92" y="336" text-anchor="start" font-family="Avenir Next, Helvetica, Arial, sans-serif" font-size="12" fill="#2E231B">tach: elapsed()</text>
<rect x="236.72" y="330" width="6" height="6" fill="#8B1E18"/>
<text x="246.72" y="336" text-anchor="start" font-family="Avenir Next, Helvetica, Arial, sans-serif" font-size="12" fill="#2E231B">tach: elapsed_fast()</text>
<rect x="399.12" y="330" width="6" height="6" fill="#8590A0"/>
<text x="409.12" y="336" text-anchor="start" font-family="Avenir Next, Helvetica, Arial, sans-serif" font-size="12" fill="#2E231B">quanta: now()</text>
<rect x="514.48" y="330" width="6" height="6" fill="#5B6472"/>
<text x="524.48" y="336" text-anchor="start" font-family="Avenir Next, Helvetica, Arial, sans-serif" font-size="12" fill="#2E231B">quanta: elapsed()</text>
<rect x="656.72" y="330" width="6" height="6" fill="#7A9A95"/>
<text x="666.72" y="336" text-anchor="start" font-family="Avenir Next, Helvetica, Arial, sans-serif" font-size="12" fill="#2E231B">fastant: now()</text>
<rect x="778.8" y="330" width="6" height="6" fill="#4F6F6A"/>
<text x="788.8" y="336" text-anchor="start" font-family="Avenir Next, Helvetica, Arial, sans-serif" font-size="12" fill="#2E231B">fastant: elapsed()</text>
<rect x="927.76" y="330" width="6" height="6" fill="#B58669"/>
<text x="937.76" y="336" text-anchor="start" font-family="Avenir Next, Helvetica, Arial, sans-serif" font-size="12" fill="#2E231B">minstant: now()</text>
<rect x="1056.56" y="330" width="6" height="6" fill="#8B5E3C"/>
<text x="1066.56" y="336" text-anchor="start" font-family="Avenir Next, Helvetica, Arial, sans-serif" font-size="12" fill="#2E231B">minstant: elapsed()</text>
<rect x="1212.24" y="330" width="6" height="6" fill="#BAAA5A"/>
<text x="1222.24" y="336" text-anchor="start" font-family="Avenir Next, Helvetica, Arial, sans-serif" font-size="12" fill="#2E231B">std: now()</text>
<rect x="1307.44" y="330" width="6" height="6" fill="#9A8A3A"/>
<text x="1317.44" y="336" text-anchor="start" font-family="Avenir Next, Helvetica, Arial, sans-serif" font-size="12" fill="#2E231B">std: elapsed()</text>
<text x="708.76" y="356" text-anchor="middle" font-family="Avenir Next, Helvetica, Arial, sans-serif" font-size="8" font-style="italic" fill="#2E231B">All measurements are nanoseconds.</text>
<rect x="622.76" y="254" width="12" height="2" fill="#F0635A"/>
<text x="628.76" y="250" text-anchor="middle" font-family="Avenir Next, Helvetica, Arial, sans-serif" font-size="7" fill="#2E231B">0.35</text>
<rect x="638.76" y="241" width="12" height="15" fill="#D72D24"/>
<text x="644.76" y="237" text-anchor="middle" font-family="Avenir Next, Helvetica, Arial, sans-serif" font-size="7" fill="#2E231B">5.29</text>
<rect x="654.76" y="246" width="12" height="10" fill="#8B1E18"/>
<text x="660.76" y="222" text-anchor="middle" font-family="Avenir Next, Helvetica, Arial, sans-serif" font-size="7" fill="#2E231B">3.39</text>
<rect x="670.76" y="243" width="12" height="13" fill="#8590A0"/>
<text x="676.76" y="239" text-anchor="middle" font-family="Avenir Next, Helvetica, Arial, sans-serif" font-size="7" fill="#2E231B">4.57</text>
<rect x="686.76" y="230" width="12" height="26" fill="#5B6472"/>
<text x="692.76" y="226" text-anchor="middle" font-family="Avenir Next, Helvetica, Arial, sans-serif" font-size="7" fill="#2E231B">9.09</text>
<rect x="702.76" y="178" width="12" height="78" fill="#7A9A95"/>
<text x="708.76" y="174" text-anchor="middle" font-family="Avenir Next, Helvetica, Arial, sans-serif" font-size="7" fill="#2E231B">27.6</text>
<rect x="718.76" y="89" width="12" height="167" fill="#4F6F6A"/>
<text x="724.76" y="85" text-anchor="middle" font-family="Avenir Next, Helvetica, Arial, sans-serif" font-size="7" fill="#2E231B">59.4</text>
<rect x="734.76" y="180" width="12" height="76" fill="#B58669"/>
<text x="740.76" y="176" text-anchor="middle" font-family="Avenir Next, Helvetica, Arial, sans-serif" font-size="7" fill="#2E231B">27.2</text>
<rect x="750.76" y="86" width="12" height="170" fill="#8B5E3C"/>
<text x="756.76" y="82" text-anchor="middle" font-family="Avenir Next, Helvetica, Arial, sans-serif" font-size="7" fill="#2E231B">60.6</text>
<rect x="766.76" y="199" width="12" height="57" fill="#BAAA5A"/>
<text x="772.76" y="195" text-anchor="middle" font-family="Avenir Next, Helvetica, Arial, sans-serif" font-size="7" fill="#2E231B">20.1</text>
<rect x="782.76" y="133" width="12" height="123" fill="#9A8A3A"/>
<text x="788.76" y="129" text-anchor="middle" font-family="Avenir Next, Helvetica, Arial, sans-serif" font-size="7" fill="#2E231B">43.7</text>
<text x="708.76" y="280" text-anchor="middle" font-family="Avenir Next, Helvetica, Arial, sans-serif" font-size="11" fill="#2E231B">Apple Silicon</text>
<text x="708.76" y="293" text-anchor="middle" font-family="Avenir Next, Helvetica, Arial, sans-serif" font-size="11" fill="#2E231B">M1 MacBook Pro</text>
<text x="708.76" y="306" text-anchor="middle" font-family="Avenir Next, Helvetica, Arial, sans-serif" font-size="7" fill="#2E231B">aarch64-apple-darwin</text>
</g>
</svg>
