<?xml version="1.0" encoding="UTF-8"?>
<svg xmlns="http://www.w3.org/2000/svg" width="1192" height="712" viewBox="0 0 1192 712">
<rect width="1192" height="712" fill="#FBF6EC"/>
<g shape-rendering="crispEdges">
<text x="596" y="22" text-anchor="middle" font-family="Avenir Next, Helvetica, Arial, sans-serif" font-size="16" fill="#2E231B">Instant::now()</text>
<rect x="48" y="258" width="16" height="2" fill="#D72D24"/>
<text x="56" y="254" text-anchor="middle" font-family="Avenir Next, Helvetica, Arial, sans-serif" font-size="7" fill="#2E231B">0.35</text>
<rect x="68" y="247" width="16" height="13" fill="#5B6472"/>
<text x="76" y="243" text-anchor="middle" font-family="Avenir Next, Helvetica, Arial, sans-serif" font-size="7" fill="#2E231B">4.58</text>
<rect x="88" y="184" width="16" height="76" fill="#4F6F6A"/>
<text x="96" y="180" text-anchor="middle" font-family="Avenir Next, Helvetica, Arial, sans-serif" font-size="7" fill="#2E231B">27.2</text>
<rect x="108" y="183" width="16" height="77" fill="#8B5E3C"/>
<text x="116" y="179" text-anchor="middle" font-family="Avenir Next, Helvetica, Arial, sans-serif" font-size="7" fill="#2E231B">27.3</text>
<rect x="128" y="203" width="16" height="57" fill="#9A8A3A"/>
<text x="136" y="199" text-anchor="middle" font-family="Avenir Next, Helvetica, Arial, sans-serif" font-size="7" fill="#2E231B">20.3</text>
<text x="96" y="284" text-anchor="middle" font-family="Avenir Next, Helvetica, Arial, sans-serif" font-size="11" fill="#2E231B">Apple Silicon</text>
<text x="96" y="297" text-anchor="middle" font-family="Avenir Next, Helvetica, Arial, sans-serif" font-size="11" fill="#2E231B">M1 MacBook Pro</text>
<text x="96" y="310" text-anchor="middle" font-family="Avenir Next, Helvetica, Arial, sans-serif" font-size="7" fill="#2E231B">aarch64-apple-darwin</text>
<rect x="248" y="241" width="16" height="19" fill="#D72D24"/>
<text x="256" y="237" text-anchor="middle" font-family="Avenir Next, Helvetica, Arial, sans-serif" font-size="7" fill="#2E231B">6.67</text>
<rect x="268" y="240" width="16" height="20" fill="#5B6472"/>
<text x="276" y="236" text-anchor="middle" font-family="Avenir Next, Helvetica, Arial, sans-serif" font-size="7" fill="#2E231B">7.02</text>
<rect x="288" y="143" width="16" height="117" fill="#4F6F6A"/>
<text x="296" y="139" text-anchor="middle" font-family="Avenir Next, Helvetica, Arial, sans-serif" font-size="7" fill="#2E231B">41.7</text>
<rect x="308" y="143" width="16" height="117" fill="#8B5E3C"/>
<text x="316" y="139" text-anchor="middle" font-family="Avenir Next, Helvetica, Arial, sans-serif" font-size="7" fill="#2E231B">41.7</text>
<rect x="328" y="169" width="16" height="91" fill="#9A8A3A"/>
<text x="336" y="165" text-anchor="middle" font-family="Avenir Next, Helvetica, Arial, sans-serif" font-size="7" fill="#2E231B">32.5</text>
<text x="296" y="284" text-anchor="middle" font-family="Avenir Next, Helvetica, Arial, sans-serif" font-size="11" fill="#2E231B">AWS Graviton 3</text>
<text x="296" y="297" text-anchor="middle" font-family="Avenir Next, Helvetica, Arial, sans-serif" font-size="11" fill="#2E231B">c7g.4xlarge</text>
<text x="296" y="310" text-anchor="middle" font-family="Avenir Next, Helvetica, Arial, sans-serif" font-size="7" fill="#2E231B">aarch64-unknown-linux-gnu</text>
<rect x="448" y="235" width="16" height="25" fill="#D72D24"/>
<text x="456" y="231" text-anchor="middle" font-family="Avenir Next, Helvetica, Arial, sans-serif" font-size="7" fill="#2E231B">8.74</text>
<rect x="468" y="223" width="16" height="37" fill="#5B6472"/>
<text x="476" y="219" text-anchor="middle" font-family="Avenir Next, Helvetica, Arial, sans-serif" font-size="7" fill="#2E231B">13.3</text>
<rect x="488" y="229" width="16" height="31" fill="#4F6F6A"/>
<text x="496" y="225" text-anchor="middle" font-family="Avenir Next, Helvetica, Arial, sans-serif" font-size="7" fill="#2E231B">11.2</text>
<rect x="508" y="234" width="16" height="26" fill="#8B5E3C"/>
<text x="516" y="230" text-anchor="middle" font-family="Avenir Next, Helvetica, Arial, sans-serif" font-size="7" fill="#2E231B">9.39</text>
<rect x="528" y="192" width="16" height="68" fill="#9A8A3A"/>
<text x="536" y="188" text-anchor="middle" font-family="Avenir Next, Helvetica, Arial, sans-serif" font-size="7" fill="#2E231B">24.3</text>
<text x="496" y="284" text-anchor="middle" font-family="Avenir Next, Helvetica, Arial, sans-serif" font-size="11" fill="#2E231B">AWS Intel Burst</text>
<text x="496" y="297" text-anchor="middle" font-family="Avenir Next, Helvetica, Arial, sans-serif" font-size="11" fill="#2E231B">t3.medium</text>
<text x="496" y="310" text-anchor="middle" font-family="Avenir Next, Helvetica, Arial, sans-serif" font-size="7" fill="#2E231B">x86_64-unknown-linux-gnu</text>
<rect x="648" y="241" width="16" height="19" fill="#D72D24"/>
<text x="656" y="237" text-anchor="middle" font-family="Avenir Next, Helvetica, Arial, sans-serif" font-size="7" fill="#2E231B">6.84</text>
<rect x="668" y="240" width="16" height="20" fill="#5B6472"/>
<text x="676" y="236" text-anchor="middle" font-family="Avenir Next, Helvetica, Arial, sans-serif" font-size="7" fill="#2E231B">7.11</text>
<rect x="688" y="241" width="16" height="19" fill="#4F6F6A"/>
<text x="696" y="237" text-anchor="middle" font-family="Avenir Next, Helvetica, Arial, sans-serif" font-size="7" fill="#2E231B">6.84</text>
<rect x="708" y="241" width="16" height="19" fill="#8B5E3C"/>
<text x="716" y="237" text-anchor="middle" font-family="Avenir Next, Helvetica, Arial, sans-serif" font-size="7" fill="#2E231B">6.84</text>
<rect x="728" y="219" width="16" height="41" fill="#9A8A3A"/>
<text x="736" y="215" text-anchor="middle" font-family="Avenir Next, Helvetica, Arial, sans-serif" font-size="7" fill="#2E231B">14.7</text>
<text x="696" y="284" text-anchor="middle" font-family="Avenir Next, Helvetica, Arial, sans-serif" font-size="11" fill="#2E231B">Alpine on Metal</text>
<text x="696" y="297" text-anchor="middle" font-family="Avenir Next, Helvetica, Arial, sans-serif" font-size="11" fill="#2E231B">m7i.metal-24xl</text>
<text x="696" y="310" text-anchor="middle" font-family="Avenir Next, Helvetica, Arial, sans-serif" font-size="7" fill="#2E231B">x86_64-unknown-linux-musl</text>
<rect x="848" y="222" width="16" height="38" fill="#D72D24"/>
<text x="856" y="218" text-anchor="middle" font-family="Avenir Next, Helvetica, Arial, sans-serif" font-size="7" fill="#2E231B">13.6</text>
<rect x="868" y="195" width="16" height="65" fill="#5B6472"/>
<text x="876" y="191" text-anchor="middle" font-family="Avenir Next, Helvetica, Arial, sans-serif" font-size="7" fill="#2E231B">23.3</text>
<rect x="888" y="216" width="16" height="44" fill="#4F6F6A"/>
<text x="896" y="212" text-anchor="middle" font-family="Avenir Next, Helvetica, Arial, sans-serif" font-size="7" fill="#2E231B">15.5</text>
<rect x="908" y="100" width="16" height="160" fill="#8B5E3C"/>
<text x="916" y="96" text-anchor="middle" font-family="Avenir Next, Helvetica, Arial, sans-serif" font-size="7" fill="#2E231B">56.9</text>
<rect x="928" y="118" width="16" height="142" fill="#9A8A3A"/>
<text x="936" y="114" text-anchor="middle" font-family="Avenir Next, Helvetica, Arial, sans-serif" font-size="7" fill="#2E231B">50.8</text>
<text x="896" y="284" text-anchor="middle" font-family="Avenir Next, Helvetica, Arial, sans-serif" font-size="11" fill="#2E231B">AWS Lambda</text>
<text x="896" y="297" text-anchor="middle" font-family="Avenir Next, Helvetica, Arial, sans-serif" font-size="11" fill="#2E231B">provided.al2023</text>
<text x="896" y="310" text-anchor="middle" font-family="Avenir Next, Helvetica, Arial, sans-serif" font-size="7" fill="#2E231B">x86_64-unknown-linux-gnu</text>
<rect x="1048" y="225" width="16" height="35" fill="#D72D24"/>
<text x="1056" y="221" text-anchor="middle" font-family="Avenir Next, Helvetica, Arial, sans-serif" font-size="7" fill="#2E231B">12.3</text>
<rect x="1068" y="225" width="16" height="35" fill="#5B6472"/>
<text x="1076" y="221" text-anchor="middle" font-family="Avenir Next, Helvetica, Arial, sans-serif" font-size="7" fill="#2E231B">12.4</text>
<rect x="1088" y="132" width="16" height="128" fill="#4F6F6A"/>
<text x="1096" y="128" text-anchor="middle" font-family="Avenir Next, Helvetica, Arial, sans-serif" font-size="7" fill="#2E231B">45.5</text>
<rect x="1108" y="132" width="16" height="128" fill="#8B5E3C"/>
<text x="1116" y="128" text-anchor="middle" font-family="Avenir Next, Helvetica, Arial, sans-serif" font-size="7" fill="#2E231B">45.5</text>
<rect x="1128" y="144" width="16" height="116" fill="#9A8A3A"/>
<text x="1136" y="140" text-anchor="middle" font-family="Avenir Next, Helvetica, Arial, sans-serif" font-size="7" fill="#2E231B">41.2</text>
<text x="1096" y="284" text-anchor="middle" font-family="Avenir Next, Helvetica, Arial, sans-serif" font-size="11" fill="#2E231B">GitHub Windows</text>
<text x="1096" y="297" text-anchor="middle" font-family="Avenir Next, Helvetica, Arial, sans-serif" font-size="7" fill="#2E231B">windows-2025</text>
<text x="1096" y="310" text-anchor="middle" font-family="Avenir Next, Helvetica, Arial, sans-serif" font-size="7" fill="#2E231B">x86_64-pc-windows-msvc</text>
<text x="596" y="362" text-anchor="middle" font-family="Avenir Next, Helvetica, Arial, sans-serif" font-size="16" fill="#2E231B">Instant: now() + elapsed()</text>
<rect x="48" y="597" width="16" height="3" fill="#D72D24"/>
<text x="56" y="593" text-anchor="middle" font-family="Avenir Next, Helvetica, Arial, sans-serif" font-size="7" fill="#2E231B">1.20</text>
<rect x="68" y="574" width="16" height="26" fill="#5B6472"/>
<text x="76" y="570" text-anchor="middle" font-family="Avenir Next, Helvetica, Arial, sans-serif" font-size="7" fill="#2E231B">9.16</text>
<rect x="88" y="433" width="16" height="167" fill="#4F6F6A"/>
<text x="96" y="429" text-anchor="middle" font-family="Avenir Next, Helvetica, Arial, sans-serif" font-size="7" fill="#2E231B">59.7</text>
<rect x="108" y="433" width="16" height="167" fill="#8B5E3C"/>
<text x="116" y="429" text-anchor="middle" font-family="Avenir Next, Helvetica, Arial, sans-serif" font-size="7" fill="#2E231B">59.6</text>
<rect x="128" y="477" width="16" height="123" fill="#9A8A3A"/>
<text x="136" y="473" text-anchor="middle" font-family="Avenir Next, Helvetica, Arial, sans-serif" font-size="7" fill="#2E231B">43.7</text>
<text x="96" y="624" text-anchor="middle" font-family="Avenir Next, Helvetica, Arial, sans-serif" font-size="11" fill="#2E231B">Apple Silicon</text>
<text x="96" y="637" text-anchor="middle" font-family="Avenir Next, Helvetica, Arial, sans-serif" font-size="11" fill="#2E231B">M1 MacBook Pro</text>
<text x="96" y="650" text-anchor="middle" font-family="Avenir Next, Helvetica, Arial, sans-serif" font-size="7" fill="#2E231B">aarch64-apple-darwin</text>
<rect x="248" y="563" width="16" height="37" fill="#D72D24"/>
<text x="256" y="559" text-anchor="middle" font-family="Avenir Next, Helvetica, Arial, sans-serif" font-size="7" fill="#2E231B">13.4</text>
<rect x="268" y="557" width="16" height="43" fill="#5B6472"/>
<text x="276" y="553" text-anchor="middle" font-family="Avenir Next, Helvetica, Arial, sans-serif" font-size="7" fill="#2E231B">15.3</text>
<rect x="288" y="370" width="16" height="230" fill="#4F6F6A"/>
<path d="M287 367 C289 362 291 372 293 367 S297 372 305 367" stroke="#FBF6EC" stroke-width="4" fill="none" stroke-linecap="round"/>
<path d="M287 367 C289 362 291 372 293 367 S297 372 305 367" stroke="#2E231B" stroke-width="0.8" fill="none" stroke-linecap="round" opacity="0.65"/>
<text x="296" y="366" text-anchor="middle" font-family="Avenir Next, Helvetica, Arial, sans-serif" font-size="7" fill="#2E231B">87.8</text>
<rect x="308" y="370" width="16" height="230" fill="#8B5E3C"/>
<path d="M307 367 C309 362 311 372 313 367 S317 372 325 367" stroke="#FBF6EC" stroke-width="4" fill="none" stroke-linecap="round"/>
<path d="M307 367 C309 362 311 372 313 367 S317 372 325 367" stroke="#2E231B" stroke-width="0.8" fill="none" stroke-linecap="round" opacity="0.65"/>
<text x="316" y="366" text-anchor="middle" font-family="Avenir Next, Helvetica, Arial, sans-serif" font-size="7" fill="#2E231B">88.1</text>
<rect x="328" y="396" width="16" height="204" fill="#9A8A3A"/>
<text x="336" y="392" text-anchor="middle" font-family="Avenir Next, Helvetica, Arial, sans-serif" font-size="7" fill="#2E231B">72.6</text>
<text x="296" y="624" text-anchor="middle" font-family="Avenir Next, Helvetica, Arial, sans-serif" font-size="11" fill="#2E231B">AWS Graviton 3</text>
<text x="296" y="637" text-anchor="middle" font-family="Avenir Next, Helvetica, Arial, sans-serif" font-size="11" fill="#2E231B">c7g.4xlarge</text>
<text x="296" y="650" text-anchor="middle" font-family="Avenir Next, Helvetica, Arial, sans-serif" font-size="7" fill="#2E231B">aarch64-unknown-linux-gnu</text>
<rect x="448" y="547" width="16" height="53" fill="#D72D24"/>
<text x="456" y="543" text-anchor="middle" font-family="Avenir Next, Helvetica, Arial, sans-serif" font-size="7" fill="#2E231B">18.9</text>
<rect x="468" y="521" width="16" height="79" fill="#5B6472"/>
<text x="476" y="517" text-anchor="middle" font-family="Avenir Next, Helvetica, Arial, sans-serif" font-size="7" fill="#2E231B">28.2</text>
<rect x="488" y="513" width="16" height="87" fill="#4F6F6A"/>
<text x="496" y="509" text-anchor="middle" font-family="Avenir Next, Helvetica, Arial, sans-serif" font-size="7" fill="#2E231B">31.0</text>
<rect x="508" y="513" width="16" height="87" fill="#8B5E3C"/>
<text x="516" y="509" text-anchor="middle" font-family="Avenir Next, Helvetica, Arial, sans-serif" font-size="7" fill="#2E231B">31.1</text>
<rect x="528" y="450" width="16" height="150" fill="#9A8A3A"/>
<text x="536" y="446" text-anchor="middle" font-family="Avenir Next, Helvetica, Arial, sans-serif" font-size="7" fill="#2E231B">53.5</text>
<text x="496" y="624" text-anchor="middle" font-family="Avenir Next, Helvetica, Arial, sans-serif" font-size="11" fill="#2E231B">AWS Intel Burst</text>
<text x="496" y="637" text-anchor="middle" font-family="Avenir Next, Helvetica, Arial, sans-serif" font-size="11" fill="#2E231B">t3.medium</text>
<text x="496" y="650" text-anchor="middle" font-family="Avenir Next, Helvetica, Arial, sans-serif" font-size="7" fill="#2E231B">x86_64-unknown-linux-gnu</text>
<rect x="648" y="562" width="16" height="38" fill="#D72D24"/>
<text x="656" y="558" text-anchor="middle" font-family="Avenir Next, Helvetica, Arial, sans-serif" font-size="7" fill="#2E231B">13.7</text>
<rect x="668" y="551" width="16" height="49" fill="#5B6472"/>
<text x="676" y="547" text-anchor="middle" font-family="Avenir Next, Helvetica, Arial, sans-serif" font-size="7" fill="#2E231B">17.5</text>
<rect x="688" y="540" width="16" height="60" fill="#4F6F6A"/>
<text x="696" y="536" text-anchor="middle" font-family="Avenir Next, Helvetica, Arial, sans-serif" font-size="7" fill="#2E231B">21.4</text>
<rect x="708" y="540" width="16" height="60" fill="#8B5E3C"/>
<text x="716" y="536" text-anchor="middle" font-family="Avenir Next, Helvetica, Arial, sans-serif" font-size="7" fill="#2E231B">21.4</text>
<rect x="728" y="509" width="16" height="91" fill="#9A8A3A"/>
<text x="736" y="505" text-anchor="middle" font-family="Avenir Next, Helvetica, Arial, sans-serif" font-size="7" fill="#2E231B">32.6</text>
<text x="696" y="624" text-anchor="middle" font-family="Avenir Next, Helvetica, Arial, sans-serif" font-size="11" fill="#2E231B">Alpine on Metal</text>
<text x="696" y="637" text-anchor="middle" font-family="Avenir Next, Helvetica, Arial, sans-serif" font-size="11" fill="#2E231B">m7i.metal-24xl</text>
<text x="696" y="650" text-anchor="middle" font-family="Avenir Next, Helvetica, Arial, sans-serif" font-size="7" fill="#2E231B">x86_64-unknown-linux-musl</text>
<rect x="848" y="510" width="16" height="90" fill="#D72D24"/>
<text x="856" y="506" text-anchor="middle" font-family="Avenir Next, Helvetica, Arial, sans-serif" font-size="7" fill="#2E231B">31.9</text>
<rect x="868" y="457" width="16" height="143" fill="#5B6472"/>
<text x="876" y="453" text-anchor="middle" font-family="Avenir Next, Helvetica, Arial, sans-serif" font-size="7" fill="#2E231B">50.9</text>
<rect x="888" y="455" width="16" height="145" fill="#4F6F6A"/>
<text x="896" y="451" text-anchor="middle" font-family="Avenir Next, Helvetica, Arial, sans-serif" font-size="7" fill="#2E231B">51.8</text>
<rect x="908" y="370" width="16" height="230" fill="#8B5E3C"/>
<path d="M907 367 C909 362 911 372 913 367 S917 372 925 367" stroke="#FBF6EC" stroke-width="4" fill="none" stroke-linecap="round"/>
<path d="M907 367 C909 362 911 372 913 367 S917 372 925 367" stroke="#2E231B" stroke-width="0.8" fill="none" stroke-linecap="round" opacity="0.65"/>
<text x="916" y="366" text-anchor="middle" font-family="Avenir Next, Helvetica, Arial, sans-serif" font-size="7" fill="#2E231B">136</text>
<rect x="928" y="370" width="16" height="230" fill="#9A8A3A"/>
<path d="M927 367 C929 362 931 372 933 367 S937 372 945 367" stroke="#FBF6EC" stroke-width="4" fill="none" stroke-linecap="round"/>
<path d="M927 367 C929 362 931 372 933 367 S937 372 945 367" stroke="#2E231B" stroke-width="0.8" fill="none" stroke-linecap="round" opacity="0.65"/>
<text x="936" y="366" text-anchor="middle" font-family="Avenir Next, Helvetica, Arial, sans-serif" font-size="7" fill="#2E231B">106</text>
<text x="896" y="624" text-anchor="middle" font-family="Avenir Next, Helvetica, Arial, sans-serif" font-size="11" fill="#2E231B">AWS Lambda</text>
<text x="896" y="637" text-anchor="middle" font-family="Avenir Next, Helvetica, Arial, sans-serif" font-size="11" fill="#2E231B">provided.al2023</text>
<text x="896" y="650" text-anchor="middle" font-family="Avenir Next, Helvetica, Arial, sans-serif" font-size="7" fill="#2E231B">x86_64-unknown-linux-gnu</text>
<rect x="1048" y="531" width="16" height="69" fill="#D72D24"/>
<text x="1056" y="527" text-anchor="middle" font-family="Avenir Next, Helvetica, Arial, sans-serif" font-size="7" fill="#2E231B">24.7</text>
<rect x="1068" y="529" width="16" height="71" fill="#5B6472"/>
<text x="1076" y="525" text-anchor="middle" font-family="Avenir Next, Helvetica, Arial, sans-serif" font-size="7" fill="#2E231B">25.5</text>
<rect x="1088" y="370" width="16" height="230" fill="#4F6F6A"/>
<path d="M1087 367 C1089 362 1091 372 1093 367 S1097 372 1105 367" stroke="#FBF6EC" stroke-width="4" fill="none" stroke-linecap="round"/>
<path d="M1087 367 C1089 362 1091 372 1093 367 S1097 372 1105 367" stroke="#2E231B" stroke-width="0.8" fill="none" stroke-linecap="round" opacity="0.65"/>
<text x="1096" y="366" text-anchor="middle" font-family="Avenir Next, Helvetica, Arial, sans-serif" font-size="7" fill="#2E231B">105</text>
<rect x="1108" y="370" width="16" height="230" fill="#8B5E3C"/>
<path d="M1107 367 C1109 362 1111 372 1113 367 S1117 372 1125 367" stroke="#FBF6EC" stroke-width="4" fill="none" stroke-linecap="round"/>
<path d="M1107 367 C1109 362 1111 372 1113 367 S1117 372 1125 367" stroke="#2E231B" stroke-width="0.8" fill="none" stroke-linecap="round" opacity="0.65"/>
<text x="1116" y="366" text-anchor="middle" font-family="Avenir Next, Helvetica, Arial, sans-serif" font-size="7" fill="#2E231B">104</text>
<rect x="1128" y="370" width="16" height="230" fill="#9A8A3A"/>
<path d="M1127 367 C1129 362 1131 372 1133 367 S1137 372 1145 367" stroke="#FBF6EC" stroke-width="4" fill="none" stroke-linecap="round"/>
<path d="M1127 367 C1129 362 1131 372 1133 367 S1137 372 1145 367" stroke="#2E231B" stroke-width="0.8" fill="none" stroke-linecap="round" opacity="0.65"/>
<text x="1136" y="366" text-anchor="middle" font-family="Avenir Next, Helvetica, Arial, sans-serif" font-size="7" fill="#2E231B">85.7</text>
<text x="1096" y="624" text-anchor="middle" font-family="Avenir Next, Helvetica, Arial, sans-serif" font-size="11" fill="#2E231B">GitHub Windows</text>
<text x="1096" y="637" text-anchor="middle" font-family="Avenir Next, Helvetica, Arial, sans-serif" font-size="7" fill="#2E231B">windows-2025</text>
<text x="1096" y="650" text-anchor="middle" font-family="Avenir Next, Helvetica, Arial, sans-serif" font-size="7" fill="#2E231B">x86_64-pc-windows-msvc</text>
<rect x="323.32" y="674" width="6" height="6" fill="#D72D24"/>
<text x="333.32" y="680" text-anchor="start" font-family="Avenir Next, Helvetica, Arial, sans-serif" font-size="12" fill="#2E231B">tach@0.2.0</text>
<rect x="418.52" y="674" width="6" height="6" fill="#5B6472"/>
<text x="428.52" y="680" text-anchor="start" font-family="Avenir Next, Helvetica, Arial, sans-serif" font-size="12" fill="#2E231B">quanta@0.12.6</text>
<rect x="533.88" y="674" width="6" height="6" fill="#4F6F6A"/>
<text x="543.88" y="680" text-anchor="start" font-family="Avenir Next, Helvetica, Arial, sans-serif" font-size="12" fill="#2E231B">fastant@0.1.11</text>
<rect x="655.96" y="674" width="6" height="6" fill="#8B5E3C"/>
<text x="665.96" y="680" text-anchor="start" font-family="Avenir Next, Helvetica, Arial, sans-serif" font-size="12" fill="#2E231B">minstant@0.1.7</text>
<rect x="778.04" y="674" width="6" height="6" fill="#9A8A3A"/>
<text x="788.04" y="680" text-anchor="start" font-family="Avenir Next, Helvetica, Arial, sans-serif" font-size="12" fill="#2E231B">std::Instant</text>
<text x="596" y="700" text-anchor="middle" font-family="Avenir Next, Helvetica, Arial, sans-serif" font-size="8" font-style="italic" fill="#2E231B">All measurements are nanoseconds; squiggle marks compressed upper range.</text>
</g>
</svg>
