<?xml version="1.0" encoding="UTF-8" standalone="no"?>
<!DOCTYPE svg PUBLIC "-//W3C//DTD SVG 1.1//EN"
 "http://www.w3.org/Graphics/SVG/1.1/DTD/svg11.dtd">
<!-- Generated by graphviz version 14.1.5 (20260411.2331)
 -->
<!-- Title: benchmark Pages: 1 -->
<svg width="688pt" height="155pt"
 viewBox="0.00 0.00 688.00 155.00" xmlns="http://www.w3.org/2000/svg" xmlns:xlink="http://www.w3.org/1999/xlink">
<g id="graph0" class="graph" transform="scale(1 1) rotate(0) translate(5.76 149.51)">
<title>benchmark</title>
<polygon fill="#fbf6ec" stroke="none" points="-5.76,5.76 -5.76,-149.51 682.01,-149.51 682.01,5.76 -5.76,5.76"/>
<!-- benchmark -->
<g id="node1" class="node">
<title>benchmark</title>
<text xml:space="preserve" text-anchor="start" x="229.75" y="-135.25" font-family="Avenir Next, Helvetica, Arial, sans-serif" font-size="10.00"> &#160;&#160;&#160;&#160;&#160;&#160;&#160;&#160;&#160;&#160;&#160;</text>
<text xml:space="preserve" text-anchor="start" x="256.75" y="-135.25" font-family="Avenir Next, Helvetica, Arial, sans-serif" font-size="8.00" fill="#075a4a">■</text>
<text xml:space="preserve" text-anchor="start" x="261.25" y="-135.25" font-family="Avenir Next, Helvetica, Arial, sans-serif" font-size="8.00"> tach   </text>
<text xml:space="preserve" text-anchor="start" x="285.25" y="-135.25" font-family="Avenir Next, Helvetica, Arial, sans-serif" font-size="8.00" fill="#d48a22">■</text>
<text xml:space="preserve" text-anchor="start" x="289.75" y="-135.25" font-family="Avenir Next, Helvetica, Arial, sans-serif" font-size="8.00"> quanta   </text>
<text xml:space="preserve" text-anchor="start" x="324.25" y="-135.25" font-family="Avenir Next, Helvetica, Arial, sans-serif" font-size="8.00" fill="#8f2e2e">■</text>
<text xml:space="preserve" text-anchor="start" x="328.75" y="-135.25" font-family="Avenir Next, Helvetica, Arial, sans-serif" font-size="8.00"> minstant   </text>
<text xml:space="preserve" text-anchor="start" x="368.5" y="-135.25" font-family="Avenir Next, Helvetica, Arial, sans-serif" font-size="8.00" fill="#4b6f78">■</text>
<text xml:space="preserve" text-anchor="start" x="373" y="-135.25" font-family="Avenir Next, Helvetica, Arial, sans-serif" font-size="8.00"> fastant   </text>
<text xml:space="preserve" text-anchor="start" x="406" y="-135.25" font-family="Avenir Next, Helvetica, Arial, sans-serif" font-size="8.00" fill="#b95032">■</text>
<text xml:space="preserve" text-anchor="start" x="410.5" y="-135.25" font-family="Avenir Next, Helvetica, Arial, sans-serif" font-size="8.00"> std</text>
<text xml:space="preserve" text-anchor="start" x="424" y="-135.25" font-family="Avenir Next, Helvetica, Arial, sans-serif" font-size="10.00"> &#160;&#160;&#160;&#160;&#160;&#160;&#160;&#160;&#160;</text>
<polygon fill="#fff8e8" stroke="none" points="0,-25.5 0,-123.5 10.5,-123.5 10.5,-25.5 0,-25.5"/>
<text xml:space="preserve" text-anchor="start" x="-1.12" y="-60.62" font-family="Avenir Next, Helvetica, Arial, sans-serif" font-size="6.00">8.71</text>
<polygon fill="#075a4a" stroke="none" points="0.25,-25.5 0.25,-56.5 10.25,-56.5 10.25,-25.5 0.25,-25.5"/>
<polygon fill="#fff8e8" stroke="none" points="10.5,-25.5 10.5,-123.5 21,-123.5 21,-25.5 10.5,-25.5"/>
<text xml:space="preserve" text-anchor="start" x="9.38" y="-76.62" font-family="Avenir Next, Helvetica, Arial, sans-serif" font-size="6.00">13.3</text>
<polygon fill="#d48a22" stroke="none" points="10.75,-25.5 10.75,-72.5 20.75,-72.5 20.75,-25.5 10.75,-25.5"/>
<polygon fill="#fff8e8" stroke="none" points="21,-25.5 21,-123.5 31.5,-123.5 31.5,-25.5 21,-25.5"/>
<text xml:space="preserve" text-anchor="start" x="19.88" y="-62.62" font-family="Avenir Next, Helvetica, Arial, sans-serif" font-size="6.00">9.36</text>
<polygon fill="#8f2e2e" stroke="none" points="21.25,-25.5 21.25,-58.5 31.25,-58.5 31.25,-25.5 21.25,-25.5"/>
<polygon fill="#fff8e8" stroke="none" points="31.5,-25.5 31.5,-123.5 42,-123.5 42,-25.5 31.5,-25.5"/>
<text xml:space="preserve" text-anchor="start" x="30.38" y="-62.62" font-family="Avenir Next, Helvetica, Arial, sans-serif" font-size="6.00">9.36</text>
<polygon fill="#4b6f78" stroke="none" points="31.75,-25.5 31.75,-58.5 41.75,-58.5 41.75,-25.5 31.75,-25.5"/>
<polygon fill="#fff8e8" stroke="none" points="42,-25.5 42,-123.5 52.5,-123.5 52.5,-25.5 42,-25.5"/>
<text xml:space="preserve" text-anchor="start" x="40.88" y="-115.62" font-family="Avenir Next, Helvetica, Arial, sans-serif" font-size="6.00">24.2</text>
<polygon fill="#b95032" stroke="none" points="42.25,-25.5 42.25,-111.5 52.25,-111.5 52.25,-25.5 42.25,-25.5"/>
<polygon fill="#fff8e8" stroke="none" points="0,0 0,-25.5 52.5,-25.5 52.5,0 0,0"/>
<text xml:space="preserve" text-anchor="start" x="0" y="-16.5" font-family="Avenir Next, Helvetica, Arial, sans-serif" font-size="9.00">AWS t3 KVM</text>
<text xml:space="preserve" text-anchor="start" x="0" y="-3.75" font-family="Avenir Next, Helvetica, Arial, sans-serif" font-size="9.00">x86_64&#45;musl</text>
<polygon fill="#fff8e8" stroke="none" points="76.5,-25.5 76.5,-123.5 89.25,-123.5 89.25,-25.5 76.5,-25.5"/>
<text xml:space="preserve" text-anchor="start" x="76.5" y="-69.62" font-family="Avenir Next, Helvetica, Arial, sans-serif" font-size="6.00">6.84</text>
<polygon fill="#075a4a" stroke="none" points="77.88,-25.5 77.88,-65.5 87.88,-65.5 87.88,-25.5 77.88,-25.5"/>
<polygon fill="#fff8e8" stroke="none" points="89.25,-25.5 89.25,-123.5 102,-123.5 102,-25.5 89.25,-25.5"/>
<text xml:space="preserve" text-anchor="start" x="89.25" y="-71.62" font-family="Avenir Next, Helvetica, Arial, sans-serif" font-size="6.00">7.13</text>
<polygon fill="#d48a22" stroke="none" points="90.62,-25.5 90.62,-67.5 100.62,-67.5 100.62,-25.5 90.62,-25.5"/>
<polygon fill="#fff8e8" stroke="none" points="102,-25.5 102,-123.5 114.75,-123.5 114.75,-25.5 102,-25.5"/>
<text xml:space="preserve" text-anchor="start" x="102" y="-69.62" font-family="Avenir Next, Helvetica, Arial, sans-serif" font-size="6.00">6.84</text>
<polygon fill="#8f2e2e" stroke="none" points="103.38,-25.5 103.38,-65.5 113.38,-65.5 113.38,-25.5 103.38,-25.5"/>
<polygon fill="#fff8e8" stroke="none" points="114.75,-25.5 114.75,-123.5 127.5,-123.5 127.5,-25.5 114.75,-25.5"/>
<text xml:space="preserve" text-anchor="start" x="114.75" y="-69.62" font-family="Avenir Next, Helvetica, Arial, sans-serif" font-size="6.00">6.84</text>
<polygon fill="#4b6f78" stroke="none" points="116.12,-25.5 116.12,-65.5 126.12,-65.5 126.12,-25.5 116.12,-25.5"/>
<polygon fill="#fff8e8" stroke="none" points="127.5,-25.5 127.5,-123.5 140.25,-123.5 140.25,-25.5 127.5,-25.5"/>
<text xml:space="preserve" text-anchor="start" x="127.5" y="-115.62" font-family="Avenir Next, Helvetica, Arial, sans-serif" font-size="6.00">14.7</text>
<polygon fill="#b95032" stroke="none" points="128.88,-25.5 128.88,-111.5 138.88,-111.5 138.88,-25.5 128.88,-25.5"/>
<polygon fill="#fff8e8" stroke="none" points="76.5,0 76.5,-25.5 140.25,-25.5 140.25,0 76.5,0"/>
<text xml:space="preserve" text-anchor="start" x="76.5" y="-16.5" font-family="Avenir Next, Helvetica, Arial, sans-serif" font-size="9.00">AWS m7i metal</text>
<text xml:space="preserve" text-anchor="start" x="82.12" y="-3.75" font-family="Avenir Next, Helvetica, Arial, sans-serif" font-size="9.00">x86_64&#45;musl</text>
<polygon fill="#fff8e8" stroke="none" points="164.25,-25.5 164.25,-123.5 174.75,-123.5 174.75,-25.5 164.25,-25.5"/>
<text xml:space="preserve" text-anchor="start" x="163.12" y="-46.62" font-family="Avenir Next, Helvetica, Arial, sans-serif" font-size="6.00">13.6</text>
<polygon fill="#075a4a" stroke="none" points="164.5,-25.5 164.5,-42.5 174.5,-42.5 174.5,-25.5 164.5,-25.5"/>
<polygon fill="#fff8e8" stroke="none" points="174.75,-25.5 174.75,-123.5 185.25,-123.5 185.25,-25.5 174.75,-25.5"/>
<text xml:space="preserve" text-anchor="start" x="173.62" y="-115.62" font-family="Avenir Next, Helvetica, Arial, sans-serif" font-size="6.00">69.3</text>
<polygon fill="#d48a22" stroke="none" points="175,-25.5 175,-111.5 185,-111.5 185,-25.5 175,-25.5"/>
<polygon fill="#fff8e8" stroke="none" points="185.25,-25.5 185.25,-123.5 195.75,-123.5 195.75,-25.5 185.25,-25.5"/>
<text xml:space="preserve" text-anchor="start" x="184.12" y="-47.62" font-family="Avenir Next, Helvetica, Arial, sans-serif" font-size="6.00">14.4</text>
<polygon fill="#8f2e2e" stroke="none" points="185.5,-25.5 185.5,-43.5 195.5,-43.5 195.5,-25.5 185.5,-25.5"/>
<polygon fill="#fff8e8" stroke="none" points="195.75,-25.5 195.75,-123.5 206.25,-123.5 206.25,-25.5 195.75,-25.5"/>
<text xml:space="preserve" text-anchor="start" x="194.62" y="-47.62" font-family="Avenir Next, Helvetica, Arial, sans-serif" font-size="6.00">14.2</text>
<polygon fill="#4b6f78" stroke="none" points="196,-25.5 196,-43.5 206,-43.5 206,-25.5 196,-25.5"/>
<polygon fill="#fff8e8" stroke="none" points="206.25,-25.5 206.25,-123.5 216.75,-123.5 216.75,-25.5 206.25,-25.5"/>
<text xml:space="preserve" text-anchor="start" x="205.12" y="-111.62" font-family="Avenir Next, Helvetica, Arial, sans-serif" font-size="6.00">66.5</text>
<polygon fill="#b95032" stroke="none" points="206.5,-25.5 206.5,-107.5 216.5,-107.5 216.5,-25.5 206.5,-25.5"/>
<polygon fill="#fff8e8" stroke="none" points="164.25,0 164.25,-25.5 216.75,-25.5 216.75,0 164.25,0"/>
<text xml:space="preserve" text-anchor="start" x="164.25" y="-16.5" font-family="Avenir Next, Helvetica, Arial, sans-serif" font-size="9.00">AWS t3 KVM</text>
<text xml:space="preserve" text-anchor="start" x="171.75" y="-3.75" font-family="Avenir Next, Helvetica, Arial, sans-serif" font-size="9.00">x86&#45;musl</text>
<polygon fill="#fff8e8" stroke="none" points="240.75,-25.5 240.75,-123.5 253.5,-123.5 253.5,-25.5 240.75,-25.5"/>
<text xml:space="preserve" text-anchor="start" x="240.75" y="-55.62" font-family="Avenir Next, Helvetica, Arial, sans-serif" font-size="6.00">6.84</text>
<polygon fill="#075a4a" stroke="none" points="242.12,-25.5 242.12,-51.5 252.12,-51.5 252.12,-25.5 242.12,-25.5"/>
<polygon fill="#fff8e8" stroke="none" points="253.5,-25.5 253.5,-123.5 266.25,-123.5 266.25,-25.5 253.5,-25.5"/>
<text xml:space="preserve" text-anchor="start" x="253.5" y="-115.62" font-family="Avenir Next, Helvetica, Arial, sans-serif" font-size="6.00">23.1</text>
<polygon fill="#d48a22" stroke="none" points="254.88,-25.5 254.88,-111.5 264.88,-111.5 264.88,-25.5 254.88,-25.5"/>
<polygon fill="#fff8e8" stroke="none" points="266.25,-25.5 266.25,-123.5 279,-123.5 279,-25.5 266.25,-25.5"/>
<text xml:space="preserve" text-anchor="start" x="266.25" y="-55.62" font-family="Avenir Next, Helvetica, Arial, sans-serif" font-size="6.00">6.84</text>
<polygon fill="#8f2e2e" stroke="none" points="267.62,-25.5 267.62,-51.5 277.62,-51.5 277.62,-25.5 267.62,-25.5"/>
<polygon fill="#fff8e8" stroke="none" points="279,-25.5 279,-123.5 291.75,-123.5 291.75,-25.5 279,-25.5"/>
<text xml:space="preserve" text-anchor="start" x="279" y="-55.62" font-family="Avenir Next, Helvetica, Arial, sans-serif" font-size="6.00">6.84</text>
<polygon fill="#4b6f78" stroke="none" points="280.38,-25.5 280.38,-51.5 290.38,-51.5 290.38,-25.5 280.38,-25.5"/>
<polygon fill="#fff8e8" stroke="none" points="291.75,-25.5 291.75,-123.5 304.5,-123.5 304.5,-25.5 291.75,-25.5"/>
<text xml:space="preserve" text-anchor="start" x="291.75" y="-114.62" font-family="Avenir Next, Helvetica, Arial, sans-serif" font-size="6.00">22.7</text>
<polygon fill="#b95032" stroke="none" points="293.12,-25.5 293.12,-110.5 303.12,-110.5 303.12,-25.5 293.12,-25.5"/>
<polygon fill="#fff8e8" stroke="none" points="240.75,0 240.75,-25.5 304.5,-25.5 304.5,0 240.75,0"/>
<text xml:space="preserve" text-anchor="start" x="240.75" y="-16.5" font-family="Avenir Next, Helvetica, Arial, sans-serif" font-size="9.00">AWS m7i metal</text>
<text xml:space="preserve" text-anchor="start" x="253.88" y="-3.75" font-family="Avenir Next, Helvetica, Arial, sans-serif" font-size="9.00">x86&#45;musl</text>
<polygon fill="#fff8e8" stroke="none" points="328.5,-25.5 328.5,-123.5 338.5,-123.5 338.5,-25.5 328.5,-25.5"/>
<text xml:space="preserve" text-anchor="start" x="327.12" y="-63.62" font-family="Avenir Next, Helvetica, Arial, sans-serif" font-size="6.00">15.4</text>
<polygon fill="#075a4a" stroke="none" points="328.5,-25.5 328.5,-59.5 338.5,-59.5 338.5,-25.5 328.5,-25.5"/>
<polygon fill="#fff8e8" stroke="none" points="338.5,-25.5 338.5,-123.5 348.5,-123.5 348.5,-25.5 338.5,-25.5"/>
<text xml:space="preserve" text-anchor="start" x="337.12" y="-84.62" font-family="Avenir Next, Helvetica, Arial, sans-serif" font-size="6.00">25.1</text>
<polygon fill="#d48a22" stroke="none" points="338.5,-25.5 338.5,-80.5 348.5,-80.5 348.5,-25.5 338.5,-25.5"/>
<polygon fill="#fff8e8" stroke="none" points="348.5,-25.5 348.5,-123.5 358.5,-123.5 358.5,-25.5 348.5,-25.5"/>
<text xml:space="preserve" text-anchor="start" x="347.12" y="-115.62" font-family="Avenir Next, Helvetica, Arial, sans-serif" font-size="6.00">39.0</text>
<polygon fill="#8f2e2e" stroke="none" points="348.5,-25.5 348.5,-111.5 358.5,-111.5 358.5,-25.5 348.5,-25.5"/>
<polygon fill="#fff8e8" stroke="none" points="358.5,-25.5 358.5,-123.5 368.5,-123.5 368.5,-25.5 358.5,-25.5"/>
<text xml:space="preserve" text-anchor="start" x="357.12" y="-78.62" font-family="Avenir Next, Helvetica, Arial, sans-serif" font-size="6.00">22.1</text>
<polygon fill="#4b6f78" stroke="none" points="358.5,-25.5 358.5,-74.5 368.5,-74.5 368.5,-25.5 358.5,-25.5"/>
<polygon fill="#fff8e8" stroke="none" points="368.5,-25.5 368.5,-123.5 378.5,-123.5 378.5,-25.5 368.5,-25.5"/>
<text xml:space="preserve" text-anchor="start" x="367.12" y="-91.62" font-family="Avenir Next, Helvetica, Arial, sans-serif" font-size="6.00">28.1</text>
<polygon fill="#b95032" stroke="none" points="368.5,-25.5 368.5,-87.5 378.5,-87.5 378.5,-25.5 368.5,-25.5"/>
<polygon fill="#fff8e8" stroke="none" points="328.5,0 328.5,-25.5 378.5,-25.5 378.5,0 328.5,0"/>
<text xml:space="preserve" text-anchor="start" x="338.88" y="-16.5" font-family="Avenir Next, Helvetica, Arial, sans-serif" font-size="9.00">Docker</text>
<text xml:space="preserve" text-anchor="start" x="328.75" y="-3.75" font-family="Avenir Next, Helvetica, Arial, sans-serif" font-size="9.00">x86_64&#45;gnu</text>
<polygon fill="#fff8e8" stroke="none" points="402.5,-25.5 402.5,-123.5 412.5,-123.5 412.5,-25.5 402.5,-25.5"/>
<text xml:space="preserve" text-anchor="start" x="401.12" y="-36.62" font-family="Avenir Next, Helvetica, Arial, sans-serif" font-size="6.00">25.8</text>
<polygon fill="#075a4a" stroke="none" points="402.5,-25.5 402.5,-32.5 412.5,-32.5 412.5,-25.5 402.5,-25.5"/>
<polygon fill="#fff8e8" stroke="none" points="412.5,-25.5 412.5,-123.5 422.5,-123.5 422.5,-25.5 412.5,-25.5"/>
<text xml:space="preserve" text-anchor="start" x="411.88" y="-96.62" font-family="Avenir Next, Helvetica, Arial, sans-serif" font-size="6.00">254</text>
<polygon fill="#d48a22" stroke="none" points="412.5,-25.5 412.5,-92.5 422.5,-92.5 422.5,-25.5 412.5,-25.5"/>
<polygon fill="#fff8e8" stroke="none" points="422.5,-25.5 422.5,-123.5 432.5,-123.5 432.5,-25.5 422.5,-25.5"/>
<text xml:space="preserve" text-anchor="start" x="421.88" y="-115.62" font-family="Avenir Next, Helvetica, Arial, sans-serif" font-size="6.00">323</text>
<polygon fill="#8f2e2e" stroke="none" points="422.5,-25.5 422.5,-111.5 432.5,-111.5 432.5,-25.5 422.5,-25.5"/>
<polygon fill="#fff8e8" stroke="none" points="432.5,-25.5 432.5,-123.5 442.5,-123.5 442.5,-25.5 432.5,-25.5"/>
<text xml:space="preserve" text-anchor="start" x="431.88" y="-115.62" font-family="Avenir Next, Helvetica, Arial, sans-serif" font-size="6.00">324</text>
<polygon fill="#4b6f78" stroke="none" points="432.5,-25.5 432.5,-111.5 442.5,-111.5 442.5,-25.5 432.5,-25.5"/>
<polygon fill="#fff8e8" stroke="none" points="442.5,-25.5 442.5,-123.5 452.5,-123.5 452.5,-25.5 442.5,-25.5"/>
<text xml:space="preserve" text-anchor="start" x="441.88" y="-88.62" font-family="Avenir Next, Helvetica, Arial, sans-serif" font-size="6.00">223</text>
<polygon fill="#b95032" stroke="none" points="442.5,-25.5 442.5,-84.5 452.5,-84.5 452.5,-25.5 442.5,-25.5"/>
<polygon fill="#fff8e8" stroke="none" points="402.5,0 402.5,-25.5 452.5,-25.5 452.5,0 402.5,0"/>
<text xml:space="preserve" text-anchor="start" x="412.88" y="-16.5" font-family="Avenir Next, Helvetica, Arial, sans-serif" font-size="9.00">Docker</text>
<text xml:space="preserve" text-anchor="start" x="410.25" y="-3.75" font-family="Avenir Next, Helvetica, Arial, sans-serif" font-size="9.00">x86&#45;gnu</text>
<polygon fill="#fff8e8" stroke="none" points="476.5,-25.5 476.5,-123.5 486.85,-123.5 486.85,-25.5 476.5,-25.5"/>
<text xml:space="preserve" text-anchor="start" x="475.3" y="-31.62" font-family="Avenir Next, Helvetica, Arial, sans-serif" font-size="6.00">0.33</text>
<polygon fill="#075a4a" stroke="none" points="476.68,-25.5 476.68,-27.5 486.68,-27.5 486.68,-25.5 476.68,-25.5"/>
<polygon fill="#fff8e8" stroke="none" points="486.85,-25.5 486.85,-123.5 497.2,-123.5 497.2,-25.5 486.85,-25.5"/>
<text xml:space="preserve" text-anchor="start" x="485.65" y="-43.62" font-family="Avenir Next, Helvetica, Arial, sans-serif" font-size="6.00">4.47</text>
<polygon fill="#d48a22" stroke="none" points="487.02,-25.5 487.02,-39.5 497.02,-39.5 497.02,-25.5 487.02,-25.5"/>
<polygon fill="#fff8e8" stroke="none" points="497.2,-25.5 497.2,-123.5 507.55,-123.5 507.55,-25.5 497.2,-25.5"/>
<text xml:space="preserve" text-anchor="start" x="496" y="-115.62" font-family="Avenir Next, Helvetica, Arial, sans-serif" font-size="6.00">27.2</text>
<polygon fill="#8f2e2e" stroke="none" points="497.38,-25.5 497.38,-111.5 507.38,-111.5 507.38,-25.5 497.38,-25.5"/>
<polygon fill="#fff8e8" stroke="none" points="507.55,-25.5 507.55,-123.5 517.9,-123.5 517.9,-25.5 507.55,-25.5"/>
<text xml:space="preserve" text-anchor="start" x="506.35" y="-115.62" font-family="Avenir Next, Helvetica, Arial, sans-serif" font-size="6.00">27.3</text>
<polygon fill="#4b6f78" stroke="none" points="507.72,-25.5 507.72,-111.5 517.72,-111.5 517.72,-25.5 507.72,-25.5"/>
<polygon fill="#fff8e8" stroke="none" points="517.9,-25.5 517.9,-123.5 528.25,-123.5 528.25,-25.5 517.9,-25.5"/>
<text xml:space="preserve" text-anchor="start" x="516.7" y="-93.62" font-family="Avenir Next, Helvetica, Arial, sans-serif" font-size="6.00">20.2</text>
<polygon fill="#b95032" stroke="none" points="518.08,-25.5 518.08,-89.5 528.08,-89.5 528.08,-25.5 518.08,-25.5"/>
<polygon fill="#fff8e8" stroke="none" points="476.5,0 476.5,-25.5 528.25,-25.5 528.25,0 476.5,0"/>
<text xml:space="preserve" text-anchor="start" x="487.75" y="-16.5" font-family="Avenir Next, Helvetica, Arial, sans-serif" font-size="9.00">Docker</text>
<text xml:space="preserve" text-anchor="start" x="476.5" y="-3.75" font-family="Avenir Next, Helvetica, Arial, sans-serif" font-size="9.00">aarch64&#45;gnu</text>
<polygon fill="#fff8e8" stroke="none" points="552.25,-25.5 552.25,-123.5 562.25,-123.5 562.25,-25.5 552.25,-25.5"/>
<text xml:space="preserve" text-anchor="start" x="550.88" y="-48.62" font-family="Avenir Next, Helvetica, Arial, sans-serif" font-size="6.00">59.6</text>
<polygon fill="#075a4a" stroke="none" points="552.25,-25.5 552.25,-44.5 562.25,-44.5 562.25,-25.5 552.25,-25.5"/>
<polygon fill="#fff8e8" stroke="none" points="562.25,-25.5 562.25,-123.5 572.25,-123.5 572.25,-25.5 562.25,-25.5"/>
<text xml:space="preserve" text-anchor="start" x="561.62" y="-97.62" font-family="Avenir Next, Helvetica, Arial, sans-serif" font-size="6.00">215</text>
<polygon fill="#d48a22" stroke="none" points="562.25,-25.5 562.25,-93.5 572.25,-93.5 572.25,-25.5 562.25,-25.5"/>
<polygon fill="#fff8e8" stroke="none" points="572.25,-25.5 572.25,-123.5 582.25,-123.5 582.25,-25.5 572.25,-25.5"/>
<text xml:space="preserve" text-anchor="start" x="571.62" y="-115.62" font-family="Avenir Next, Helvetica, Arial, sans-serif" font-size="6.00">271</text>
<polygon fill="#8f2e2e" stroke="none" points="572.25,-25.5 572.25,-111.5 582.25,-111.5 582.25,-25.5 572.25,-25.5"/>
<polygon fill="#fff8e8" stroke="none" points="582.25,-25.5 582.25,-123.5 592.25,-123.5 592.25,-25.5 582.25,-25.5"/>
<text xml:space="preserve" text-anchor="start" x="581.62" y="-115.62" font-family="Avenir Next, Helvetica, Arial, sans-serif" font-size="6.00">271</text>
<polygon fill="#4b6f78" stroke="none" points="582.25,-25.5 582.25,-111.5 592.25,-111.5 592.25,-25.5 582.25,-25.5"/>
<polygon fill="#fff8e8" stroke="none" points="592.25,-25.5 592.25,-123.5 602.25,-123.5 602.25,-25.5 592.25,-25.5"/>
<text xml:space="preserve" text-anchor="start" x="591.62" y="-88.62" font-family="Avenir Next, Helvetica, Arial, sans-serif" font-size="6.00">185</text>
<polygon fill="#b95032" stroke="none" points="592.25,-25.5 592.25,-84.5 602.25,-84.5 602.25,-25.5 592.25,-25.5"/>
<polygon fill="#fff8e8" stroke="none" points="552.25,0 552.25,-25.5 602.25,-25.5 602.25,0 552.25,0"/>
<text xml:space="preserve" text-anchor="start" x="562.62" y="-16.5" font-family="Avenir Next, Helvetica, Arial, sans-serif" font-size="9.00">Docker</text>
<text xml:space="preserve" text-anchor="start" x="553.25" y="-3.75" font-family="Avenir Next, Helvetica, Arial, sans-serif" font-size="9.00">riscv64&#45;gnu</text>
<polygon fill="#fff8e8" stroke="none" points="626.25,-25.5 626.25,-123.5 636.25,-123.5 636.25,-25.5 626.25,-25.5"/>
<text xml:space="preserve" text-anchor="start" x="624.88" y="-31.62" font-family="Avenir Next, Helvetica, Arial, sans-serif" font-size="6.00">0.33</text>
<polygon fill="#075a4a" stroke="none" points="626.25,-25.5 626.25,-27.5 636.25,-27.5 636.25,-25.5 626.25,-25.5"/>
<polygon fill="#fff8e8" stroke="none" points="636.25,-25.5 636.25,-123.5 646.25,-123.5 646.25,-25.5 636.25,-25.5"/>
<text xml:space="preserve" text-anchor="start" x="634.88" y="-44.62" font-family="Avenir Next, Helvetica, Arial, sans-serif" font-size="6.00">4.62</text>
<polygon fill="#d48a22" stroke="none" points="636.25,-25.5 636.25,-40.5 646.25,-40.5 646.25,-25.5 636.25,-25.5"/>
<polygon fill="#fff8e8" stroke="none" points="646.25,-25.5 646.25,-123.5 656.25,-123.5 656.25,-25.5 646.25,-25.5"/>
<text xml:space="preserve" text-anchor="start" x="644.88" y="-115.62" font-family="Avenir Next, Helvetica, Arial, sans-serif" font-size="6.00">25.7</text>
<polygon fill="#8f2e2e" stroke="none" points="646.25,-25.5 646.25,-111.5 656.25,-111.5 656.25,-25.5 646.25,-25.5"/>
<polygon fill="#fff8e8" stroke="none" points="656.25,-25.5 656.25,-123.5 666.25,-123.5 666.25,-25.5 656.25,-25.5"/>
<text xml:space="preserve" text-anchor="start" x="654.88" y="-115.62" font-family="Avenir Next, Helvetica, Arial, sans-serif" font-size="6.00">25.7</text>
<polygon fill="#4b6f78" stroke="none" points="656.25,-25.5 656.25,-111.5 666.25,-111.5 666.25,-25.5 656.25,-25.5"/>
<polygon fill="#fff8e8" stroke="none" points="666.25,-25.5 666.25,-123.5 676.25,-123.5 676.25,-25.5 666.25,-25.5"/>
<text xml:space="preserve" text-anchor="start" x="664.88" y="-91.62" font-family="Avenir Next, Helvetica, Arial, sans-serif" font-size="6.00">18.4</text>
<polygon fill="#b95032" stroke="none" points="666.25,-25.5 666.25,-87.5 676.25,-87.5 676.25,-25.5 666.25,-25.5"/>
<polygon fill="#fff8e8" stroke="none" points="626.25,0 626.25,-25.5 676.25,-25.5 676.25,0 626.25,0"/>
<text xml:space="preserve" text-anchor="start" x="636.25" y="-16.5" font-family="Avenir Next, Helvetica, Arial, sans-serif" font-size="9.00">macOS</text>
<text xml:space="preserve" text-anchor="start" x="635.12" y="-3.75" font-family="Avenir Next, Helvetica, Arial, sans-serif" font-size="9.00">aarch64</text>
</g>
</g>
</svg>
