<?xml version="1.0" encoding="UTF-8" standalone="no"?>
<!DOCTYPE svg PUBLIC "-//W3C//DTD SVG 1.1//EN"
 "http://www.w3.org/Graphics/SVG/1.1/DTD/svg11.dtd">
<!-- Generated by graphviz version 14.1.5 (20260411.2331)
 -->
<!-- Title: benchmark Pages: 1 -->
<svg width="524pt" height="952pt"
 viewBox="0.00 0.00 524.00 952.00" xmlns="http://www.w3.org/2000/svg" xmlns:xlink="http://www.w3.org/1999/xlink">
<g id="graph0" class="graph" transform="scale(1 1) rotate(0) translate(5.76 946.51)">
<title>benchmark</title>
<polygon fill="#fbf6ec" stroke="none" points="-5.76,5.76 -5.76,-946.51 517.76,-946.51 517.76,5.76 -5.76,5.76"/>
<!-- benchmark -->
<g id="node1" class="node">
<title>benchmark</title>
<polygon fill="#fff8e8" stroke="none" points="0,-838 0,-936.75 186,-936.75 186,-838 0,-838"/>
<text xml:space="preserve" text-anchor="start" x="0" y="-884" font-family="Avenir Next, Helvetica, Arial, sans-serif" font-size="11.00">AWS t3 KVM / x86_64&#45;musl</text>
<polygon fill="#fff8e8" stroke="none" points="186,-838 186,-936.75 512,-936.75 512,-838 186,-838"/>
<text xml:space="preserve" text-anchor="start" x="220.92" y="-923.5" font-family="Avenir Next, Helvetica, Arial, sans-serif" font-size="11.00" fill="#075a4a">tach</text>
<polygon fill="#075a4a" stroke="none" points="247.58,-922.88 247.58,-930.88 306.58,-930.88 306.58,-922.88 247.58,-922.88"/>
<text xml:space="preserve" text-anchor="start" x="419.33" y="-923.5" font-family="Avenir Next, Helvetica, Arial, sans-serif" font-size="11.00">8.711ns</text>
<text xml:space="preserve" text-anchor="start" x="206.67" y="-903.75" font-family="Avenir Next, Helvetica, Arial, sans-serif" font-size="11.00">quanta</text>
<polygon fill="#d48a22" stroke="none" points="247.58,-903.12 247.58,-911.12 337.58,-911.12 337.58,-903.12 247.58,-903.12"/>
<text xml:space="preserve" text-anchor="start" x="419.33" y="-903.75" font-family="Avenir Next, Helvetica, Arial, sans-serif" font-size="11.00">13.254ns</text>
<text xml:space="preserve" text-anchor="start" x="197.67" y="-884" font-family="Avenir Next, Helvetica, Arial, sans-serif" font-size="11.00">minstant</text>
<polygon fill="#8f2e2e" stroke="none" points="247.58,-883.38 247.58,-891.38 311.58,-891.38 311.58,-883.38 247.58,-883.38"/>
<text xml:space="preserve" text-anchor="start" x="419.33" y="-884" font-family="Avenir Next, Helvetica, Arial, sans-serif" font-size="11.00">9.356ns</text>
<text xml:space="preserve" text-anchor="start" x="208.17" y="-864.25" font-family="Avenir Next, Helvetica, Arial, sans-serif" font-size="11.00">fastant</text>
<polygon fill="#4b6f78" stroke="none" points="247.58,-863.62 247.58,-871.62 311.58,-871.62 311.58,-863.62 247.58,-863.62"/>
<text xml:space="preserve" text-anchor="start" x="419.33" y="-864.25" font-family="Avenir Next, Helvetica, Arial, sans-serif" font-size="11.00">9.356ns</text>
<text xml:space="preserve" text-anchor="start" x="226.92" y="-844.5" font-family="Avenir Next, Helvetica, Arial, sans-serif" font-size="11.00">std</text>
<polygon fill="#b95032" stroke="none" points="247.33,-843.88 247.33,-851.88 412.33,-851.88 412.33,-843.88 247.33,-843.88"/>
<text xml:space="preserve" text-anchor="start" x="419.33" y="-844.5" font-family="Avenir Next, Helvetica, Arial, sans-serif" font-size="11.00">24.249ns</text>
<polygon fill="#fff8e8" stroke="none" points="0,-733.25 0,-832 186,-832 186,-733.25 0,-733.25"/>
<text xml:space="preserve" text-anchor="start" x="0" y="-779.25" font-family="Avenir Next, Helvetica, Arial, sans-serif" font-size="11.00">AWS m7i metal / x86_64&#45;musl</text>
<polygon fill="#fff8e8" stroke="none" points="186,-733.25 186,-832 512,-832 512,-733.25 186,-733.25"/>
<text xml:space="preserve" text-anchor="start" x="220.92" y="-818.75" font-family="Avenir Next, Helvetica, Arial, sans-serif" font-size="11.00" fill="#075a4a">tach</text>
<polygon fill="#075a4a" stroke="none" points="247.58,-818.12 247.58,-826.12 324.58,-826.12 324.58,-818.12 247.58,-818.12"/>
<text xml:space="preserve" text-anchor="start" x="419.33" y="-818.75" font-family="Avenir Next, Helvetica, Arial, sans-serif" font-size="11.00">6.841ns</text>
<text xml:space="preserve" text-anchor="start" x="206.67" y="-799" font-family="Avenir Next, Helvetica, Arial, sans-serif" font-size="11.00">quanta</text>
<polygon fill="#d48a22" stroke="none" points="247.58,-798.38 247.58,-806.38 327.58,-806.38 327.58,-798.38 247.58,-798.38"/>
<text xml:space="preserve" text-anchor="start" x="419.33" y="-799" font-family="Avenir Next, Helvetica, Arial, sans-serif" font-size="11.00">7.130ns</text>
<text xml:space="preserve" text-anchor="start" x="197.67" y="-779.25" font-family="Avenir Next, Helvetica, Arial, sans-serif" font-size="11.00">minstant</text>
<polygon fill="#8f2e2e" stroke="none" points="247.58,-778.62 247.58,-786.62 324.58,-786.62 324.58,-778.62 247.58,-778.62"/>
<text xml:space="preserve" text-anchor="start" x="419.33" y="-779.25" font-family="Avenir Next, Helvetica, Arial, sans-serif" font-size="11.00">6.841ns</text>
<text xml:space="preserve" text-anchor="start" x="208.17" y="-759.5" font-family="Avenir Next, Helvetica, Arial, sans-serif" font-size="11.00">fastant</text>
<polygon fill="#4b6f78" stroke="none" points="247.58,-758.88 247.58,-766.88 324.58,-766.88 324.58,-758.88 247.58,-758.88"/>
<text xml:space="preserve" text-anchor="start" x="419.33" y="-759.5" font-family="Avenir Next, Helvetica, Arial, sans-serif" font-size="11.00">6.841ns</text>
<text xml:space="preserve" text-anchor="start" x="226.92" y="-739.75" font-family="Avenir Next, Helvetica, Arial, sans-serif" font-size="11.00">std</text>
<polygon fill="#b95032" stroke="none" points="247.33,-739.12 247.33,-747.12 412.33,-747.12 412.33,-739.12 247.33,-739.12"/>
<text xml:space="preserve" text-anchor="start" x="419.33" y="-739.75" font-family="Avenir Next, Helvetica, Arial, sans-serif" font-size="11.00">14.734ns</text>
<polygon fill="#fff8e8" stroke="none" points="0,-628.5 0,-727.25 186,-727.25 186,-628.5 0,-628.5"/>
<text xml:space="preserve" text-anchor="start" x="0" y="-674.5" font-family="Avenir Next, Helvetica, Arial, sans-serif" font-size="11.00">AWS t3 KVM / x86&#45;musl</text>
<polygon fill="#fff8e8" stroke="none" points="186,-628.5 186,-727.25 512,-727.25 512,-628.5 186,-628.5"/>
<text xml:space="preserve" text-anchor="start" x="220.92" y="-714" font-family="Avenir Next, Helvetica, Arial, sans-serif" font-size="11.00" fill="#075a4a">tach</text>
<polygon fill="#075a4a" stroke="none" points="247.58,-713.38 247.58,-721.38 279.58,-721.38 279.58,-713.38 247.58,-713.38"/>
<text xml:space="preserve" text-anchor="start" x="419.33" y="-714" font-family="Avenir Next, Helvetica, Arial, sans-serif" font-size="11.00">13.552ns</text>
<text xml:space="preserve" text-anchor="start" x="206.67" y="-694.25" font-family="Avenir Next, Helvetica, Arial, sans-serif" font-size="11.00">quanta</text>
<polygon fill="#d48a22" stroke="none" points="247.33,-693.62 247.33,-701.62 412.33,-701.62 412.33,-693.62 247.33,-693.62"/>
<text xml:space="preserve" text-anchor="start" x="419.33" y="-694.25" font-family="Avenir Next, Helvetica, Arial, sans-serif" font-size="11.00">69.312ns</text>
<text xml:space="preserve" text-anchor="start" x="197.67" y="-674.5" font-family="Avenir Next, Helvetica, Arial, sans-serif" font-size="11.00">minstant</text>
<polygon fill="#8f2e2e" stroke="none" points="247.58,-673.88 247.58,-681.88 281.58,-681.88 281.58,-673.88 247.58,-673.88"/>
<text xml:space="preserve" text-anchor="start" x="419.33" y="-674.5" font-family="Avenir Next, Helvetica, Arial, sans-serif" font-size="11.00">14.363ns</text>
<text xml:space="preserve" text-anchor="start" x="208.17" y="-654.75" font-family="Avenir Next, Helvetica, Arial, sans-serif" font-size="11.00">fastant</text>
<polygon fill="#4b6f78" stroke="none" points="247.58,-654.12 247.58,-662.12 281.58,-662.12 281.58,-654.12 247.58,-654.12"/>
<text xml:space="preserve" text-anchor="start" x="419.33" y="-654.75" font-family="Avenir Next, Helvetica, Arial, sans-serif" font-size="11.00">14.154ns</text>
<text xml:space="preserve" text-anchor="start" x="226.92" y="-635" font-family="Avenir Next, Helvetica, Arial, sans-serif" font-size="11.00">std</text>
<polygon fill="#b95032" stroke="none" points="247.58,-634.38 247.58,-642.38 405.58,-642.38 405.58,-634.38 247.58,-634.38"/>
<text xml:space="preserve" text-anchor="start" x="419.33" y="-635" font-family="Avenir Next, Helvetica, Arial, sans-serif" font-size="11.00">66.458ns</text>
<polygon fill="#fff8e8" stroke="none" points="0,-523.75 0,-622.5 186,-622.5 186,-523.75 0,-523.75"/>
<text xml:space="preserve" text-anchor="start" x="0" y="-569.75" font-family="Avenir Next, Helvetica, Arial, sans-serif" font-size="11.00">AWS m7i metal / x86&#45;musl</text>
<polygon fill="#fff8e8" stroke="none" points="186,-523.75 186,-622.5 512,-622.5 512,-523.75 186,-523.75"/>
<text xml:space="preserve" text-anchor="start" x="220.92" y="-609.25" font-family="Avenir Next, Helvetica, Arial, sans-serif" font-size="11.00" fill="#075a4a">tach</text>
<polygon fill="#075a4a" stroke="none" points="247.58,-608.62 247.58,-616.62 296.58,-616.62 296.58,-608.62 247.58,-608.62"/>
<text xml:space="preserve" text-anchor="start" x="419.33" y="-609.25" font-family="Avenir Next, Helvetica, Arial, sans-serif" font-size="11.00">6.841ns</text>
<text xml:space="preserve" text-anchor="start" x="206.67" y="-589.5" font-family="Avenir Next, Helvetica, Arial, sans-serif" font-size="11.00">quanta</text>
<polygon fill="#d48a22" stroke="none" points="247.33,-588.88 247.33,-596.88 412.33,-596.88 412.33,-588.88 247.33,-588.88"/>
<text xml:space="preserve" text-anchor="start" x="419.33" y="-589.5" font-family="Avenir Next, Helvetica, Arial, sans-serif" font-size="11.00">23.066ns</text>
<text xml:space="preserve" text-anchor="start" x="197.67" y="-569.75" font-family="Avenir Next, Helvetica, Arial, sans-serif" font-size="11.00">minstant</text>
<polygon fill="#8f2e2e" stroke="none" points="247.58,-569.12 247.58,-577.12 296.58,-577.12 296.58,-569.12 247.58,-569.12"/>
<text xml:space="preserve" text-anchor="start" x="419.33" y="-569.75" font-family="Avenir Next, Helvetica, Arial, sans-serif" font-size="11.00">6.841ns</text>
<text xml:space="preserve" text-anchor="start" x="208.17" y="-550" font-family="Avenir Next, Helvetica, Arial, sans-serif" font-size="11.00">fastant</text>
<polygon fill="#4b6f78" stroke="none" points="247.58,-549.38 247.58,-557.38 296.58,-557.38 296.58,-549.38 247.58,-549.38"/>
<text xml:space="preserve" text-anchor="start" x="419.33" y="-550" font-family="Avenir Next, Helvetica, Arial, sans-serif" font-size="11.00">6.841ns</text>
<text xml:space="preserve" text-anchor="start" x="226.92" y="-530.25" font-family="Avenir Next, Helvetica, Arial, sans-serif" font-size="11.00">std</text>
<polygon fill="#b95032" stroke="none" points="247.58,-529.62 247.58,-537.62 410.58,-537.62 410.58,-529.62 247.58,-529.62"/>
<text xml:space="preserve" text-anchor="start" x="419.33" y="-530.25" font-family="Avenir Next, Helvetica, Arial, sans-serif" font-size="11.00">22.743ns</text>
<polygon fill="#fff8e8" stroke="none" points="0,-419 0,-517.75 186,-517.75 186,-419 0,-419"/>
<text xml:space="preserve" text-anchor="start" x="0" y="-465" font-family="Avenir Next, Helvetica, Arial, sans-serif" font-size="11.00">Docker / x86_64&#45;gnu</text>
<polygon fill="#fff8e8" stroke="none" points="186,-419 186,-517.75 512,-517.75 512,-419 186,-419"/>
<text xml:space="preserve" text-anchor="start" x="220.92" y="-504.5" font-family="Avenir Next, Helvetica, Arial, sans-serif" font-size="11.00" fill="#075a4a">tach</text>
<polygon fill="#075a4a" stroke="none" points="247.58,-503.88 247.58,-511.88 312.58,-511.88 312.58,-503.88 247.58,-503.88"/>
<text xml:space="preserve" text-anchor="start" x="419.33" y="-504.5" font-family="Avenir Next, Helvetica, Arial, sans-serif" font-size="11.00">15.394ns</text>
<text xml:space="preserve" text-anchor="start" x="206.67" y="-484.75" font-family="Avenir Next, Helvetica, Arial, sans-serif" font-size="11.00">quanta</text>
<polygon fill="#d48a22" stroke="none" points="247.58,-484.12 247.58,-492.12 353.58,-492.12 353.58,-484.12 247.58,-484.12"/>
<text xml:space="preserve" text-anchor="start" x="419.33" y="-484.75" font-family="Avenir Next, Helvetica, Arial, sans-serif" font-size="11.00">25.079ns</text>
<text xml:space="preserve" text-anchor="start" x="197.67" y="-465" font-family="Avenir Next, Helvetica, Arial, sans-serif" font-size="11.00">minstant</text>
<polygon fill="#8f2e2e" stroke="none" points="247.33,-464.38 247.33,-472.38 412.33,-472.38 412.33,-464.38 247.33,-464.38"/>
<text xml:space="preserve" text-anchor="start" x="419.33" y="-465" font-family="Avenir Next, Helvetica, Arial, sans-serif" font-size="11.00">39.050ns</text>
<text xml:space="preserve" text-anchor="start" x="208.17" y="-445.25" font-family="Avenir Next, Helvetica, Arial, sans-serif" font-size="11.00">fastant</text>
<polygon fill="#4b6f78" stroke="none" points="247.58,-444.62 247.58,-452.62 340.58,-452.62 340.58,-444.62 247.58,-444.62"/>
<text xml:space="preserve" text-anchor="start" x="419.33" y="-445.25" font-family="Avenir Next, Helvetica, Arial, sans-serif" font-size="11.00">22.066ns</text>
<text xml:space="preserve" text-anchor="start" x="226.92" y="-425.5" font-family="Avenir Next, Helvetica, Arial, sans-serif" font-size="11.00">std</text>
<polygon fill="#b95032" stroke="none" points="247.58,-424.88 247.58,-432.88 366.58,-432.88 366.58,-424.88 247.58,-424.88"/>
<text xml:space="preserve" text-anchor="start" x="419.33" y="-425.5" font-family="Avenir Next, Helvetica, Arial, sans-serif" font-size="11.00">28.070ns</text>
<polygon fill="#fff8e8" stroke="none" points="0,-314.25 0,-413 186,-413 186,-314.25 0,-314.25"/>
<text xml:space="preserve" text-anchor="start" x="0" y="-360.25" font-family="Avenir Next, Helvetica, Arial, sans-serif" font-size="11.00">Docker / x86&#45;gnu</text>
<polygon fill="#fff8e8" stroke="none" points="186,-314.25 186,-413 512,-413 512,-314.25 186,-314.25"/>
<text xml:space="preserve" text-anchor="start" x="220.92" y="-399.75" font-family="Avenir Next, Helvetica, Arial, sans-serif" font-size="11.00" fill="#075a4a">tach</text>
<polygon fill="#075a4a" stroke="none" points="247.58,-399.12 247.58,-407.12 260.58,-407.12 260.58,-399.12 247.58,-399.12"/>
<text xml:space="preserve" text-anchor="start" x="419.33" y="-399.75" font-family="Avenir Next, Helvetica, Arial, sans-serif" font-size="11.00">25.789ns</text>
<text xml:space="preserve" text-anchor="start" x="206.67" y="-380" font-family="Avenir Next, Helvetica, Arial, sans-serif" font-size="11.00">quanta</text>
<polygon fill="#d48a22" stroke="none" points="247.58,-379.38 247.58,-387.38 376.58,-387.38 376.58,-379.38 247.58,-379.38"/>
<text xml:space="preserve" text-anchor="start" x="419.33" y="-380" font-family="Avenir Next, Helvetica, Arial, sans-serif" font-size="11.00">253.702ns</text>
<text xml:space="preserve" text-anchor="start" x="197.67" y="-360.25" font-family="Avenir Next, Helvetica, Arial, sans-serif" font-size="11.00">minstant</text>
<polygon fill="#8f2e2e" stroke="none" points="247.58,-359.62 247.58,-367.62 411.58,-367.62 411.58,-359.62 247.58,-359.62"/>
<text xml:space="preserve" text-anchor="start" x="419.33" y="-360.25" font-family="Avenir Next, Helvetica, Arial, sans-serif" font-size="11.00">323.398ns</text>
<text xml:space="preserve" text-anchor="start" x="208.17" y="-340.5" font-family="Avenir Next, Helvetica, Arial, sans-serif" font-size="11.00">fastant</text>
<polygon fill="#4b6f78" stroke="none" points="247.33,-339.88 247.33,-347.88 412.33,-347.88 412.33,-339.88 247.33,-339.88"/>
<text xml:space="preserve" text-anchor="start" x="419.33" y="-340.5" font-family="Avenir Next, Helvetica, Arial, sans-serif" font-size="11.00">324.264ns</text>
<text xml:space="preserve" text-anchor="start" x="226.92" y="-320.75" font-family="Avenir Next, Helvetica, Arial, sans-serif" font-size="11.00">std</text>
<polygon fill="#b95032" stroke="none" points="247.58,-320.12 247.58,-328.12 360.58,-328.12 360.58,-320.12 247.58,-320.12"/>
<text xml:space="preserve" text-anchor="start" x="419.33" y="-320.75" font-family="Avenir Next, Helvetica, Arial, sans-serif" font-size="11.00">222.623ns</text>
<polygon fill="#fff8e8" stroke="none" points="0,-209.5 0,-308.25 186,-308.25 186,-209.5 0,-209.5"/>
<text xml:space="preserve" text-anchor="start" x="0" y="-255.5" font-family="Avenir Next, Helvetica, Arial, sans-serif" font-size="11.00">Docker / aarch64&#45;gnu</text>
<polygon fill="#fff8e8" stroke="none" points="186,-209.5 186,-308.25 512,-308.25 512,-209.5 186,-209.5"/>
<text xml:space="preserve" text-anchor="start" x="220.92" y="-295" font-family="Avenir Next, Helvetica, Arial, sans-serif" font-size="11.00" fill="#075a4a">tach</text>
<polygon fill="#075a4a" stroke="none" points="247.58,-294.38 247.58,-302.38 249.58,-302.38 249.58,-294.38 247.58,-294.38"/>
<text xml:space="preserve" text-anchor="start" x="419.33" y="-295" font-family="Avenir Next, Helvetica, Arial, sans-serif" font-size="11.00">0.330ns</text>
<text xml:space="preserve" text-anchor="start" x="206.67" y="-275.25" font-family="Avenir Next, Helvetica, Arial, sans-serif" font-size="11.00">quanta</text>
<polygon fill="#d48a22" stroke="none" points="247.58,-274.62 247.58,-282.62 274.58,-282.62 274.58,-274.62 247.58,-274.62"/>
<text xml:space="preserve" text-anchor="start" x="419.33" y="-275.25" font-family="Avenir Next, Helvetica, Arial, sans-serif" font-size="11.00">4.466ns</text>
<text xml:space="preserve" text-anchor="start" x="197.67" y="-255.5" font-family="Avenir Next, Helvetica, Arial, sans-serif" font-size="11.00">minstant</text>
<polygon fill="#8f2e2e" stroke="none" points="247.58,-254.88 247.58,-262.88 411.58,-262.88 411.58,-254.88 247.58,-254.88"/>
<text xml:space="preserve" text-anchor="start" x="419.33" y="-255.5" font-family="Avenir Next, Helvetica, Arial, sans-serif" font-size="11.00">27.203ns</text>
<text xml:space="preserve" text-anchor="start" x="208.17" y="-235.75" font-family="Avenir Next, Helvetica, Arial, sans-serif" font-size="11.00">fastant</text>
<polygon fill="#4b6f78" stroke="none" points="247.33,-235.12 247.33,-243.12 412.33,-243.12 412.33,-235.12 247.33,-235.12"/>
<text xml:space="preserve" text-anchor="start" x="419.33" y="-235.75" font-family="Avenir Next, Helvetica, Arial, sans-serif" font-size="11.00">27.275ns</text>
<text xml:space="preserve" text-anchor="start" x="226.92" y="-216" font-family="Avenir Next, Helvetica, Arial, sans-serif" font-size="11.00">std</text>
<polygon fill="#b95032" stroke="none" points="247.58,-215.38 247.58,-223.38 369.58,-223.38 369.58,-215.38 247.58,-215.38"/>
<text xml:space="preserve" text-anchor="start" x="419.33" y="-216" font-family="Avenir Next, Helvetica, Arial, sans-serif" font-size="11.00">20.222ns</text>
<polygon fill="#fff8e8" stroke="none" points="0,-104.75 0,-203.5 186,-203.5 186,-104.75 0,-104.75"/>
<text xml:space="preserve" text-anchor="start" x="0" y="-150.75" font-family="Avenir Next, Helvetica, Arial, sans-serif" font-size="11.00">Docker / riscv64&#45;gnu</text>
<polygon fill="#fff8e8" stroke="none" points="186,-104.75 186,-203.5 512,-203.5 512,-104.75 186,-104.75"/>
<text xml:space="preserve" text-anchor="start" x="220.92" y="-190.25" font-family="Avenir Next, Helvetica, Arial, sans-serif" font-size="11.00" fill="#075a4a">tach</text>
<polygon fill="#075a4a" stroke="none" points="247.58,-189.62 247.58,-197.62 283.58,-197.62 283.58,-189.62 247.58,-189.62"/>
<text xml:space="preserve" text-anchor="start" x="419.33" y="-190.25" font-family="Avenir Next, Helvetica, Arial, sans-serif" font-size="11.00">59.584ns</text>
<text xml:space="preserve" text-anchor="start" x="206.67" y="-170.5" font-family="Avenir Next, Helvetica, Arial, sans-serif" font-size="11.00">quanta</text>
<polygon fill="#d48a22" stroke="none" points="247.58,-169.88 247.58,-177.88 378.58,-177.88 378.58,-169.88 247.58,-169.88"/>
<text xml:space="preserve" text-anchor="start" x="419.33" y="-170.5" font-family="Avenir Next, Helvetica, Arial, sans-serif" font-size="11.00">215.296ns</text>
<text xml:space="preserve" text-anchor="start" x="197.67" y="-150.75" font-family="Avenir Next, Helvetica, Arial, sans-serif" font-size="11.00">minstant</text>
<polygon fill="#8f2e2e" stroke="none" points="247.33,-150.12 247.33,-158.12 412.33,-158.12 412.33,-150.12 247.33,-150.12"/>
<text xml:space="preserve" text-anchor="start" x="419.33" y="-150.75" font-family="Avenir Next, Helvetica, Arial, sans-serif" font-size="11.00">271.262ns</text>
<text xml:space="preserve" text-anchor="start" x="208.17" y="-131" font-family="Avenir Next, Helvetica, Arial, sans-serif" font-size="11.00">fastant</text>
<polygon fill="#4b6f78" stroke="none" points="247.33,-130.38 247.33,-138.38 412.33,-138.38 412.33,-130.38 247.33,-130.38"/>
<text xml:space="preserve" text-anchor="start" x="419.33" y="-131" font-family="Avenir Next, Helvetica, Arial, sans-serif" font-size="11.00">271.241ns</text>
<text xml:space="preserve" text-anchor="start" x="226.92" y="-111.25" font-family="Avenir Next, Helvetica, Arial, sans-serif" font-size="11.00">std</text>
<polygon fill="#b95032" stroke="none" points="247.58,-110.62 247.58,-118.62 360.58,-118.62 360.58,-110.62 247.58,-110.62"/>
<text xml:space="preserve" text-anchor="start" x="419.33" y="-111.25" font-family="Avenir Next, Helvetica, Arial, sans-serif" font-size="11.00">185.151ns</text>
<polygon fill="#fff8e8" stroke="none" points="0,0 0,-98.75 186,-98.75 186,0 0,0"/>
<text xml:space="preserve" text-anchor="start" x="0" y="-46" font-family="Avenir Next, Helvetica, Arial, sans-serif" font-size="11.00">local macOS / aarch64</text>
<polygon fill="#fff8e8" stroke="none" points="186,0 186,-98.75 512,-98.75 512,0 186,0"/>
<text xml:space="preserve" text-anchor="start" x="220.92" y="-85.5" font-family="Avenir Next, Helvetica, Arial, sans-serif" font-size="11.00" fill="#075a4a">tach</text>
<polygon fill="#075a4a" stroke="none" points="247.58,-84.88 247.58,-92.88 249.58,-92.88 249.58,-84.88 247.58,-84.88"/>
<text xml:space="preserve" text-anchor="start" x="419.33" y="-85.5" font-family="Avenir Next, Helvetica, Arial, sans-serif" font-size="11.00">0.330ns</text>
<text xml:space="preserve" text-anchor="start" x="206.67" y="-65.75" font-family="Avenir Next, Helvetica, Arial, sans-serif" font-size="11.00">quanta</text>
<polygon fill="#d48a22" stroke="none" points="247.58,-65.12 247.58,-73.12 277.58,-73.12 277.58,-65.12 247.58,-65.12"/>
<text xml:space="preserve" text-anchor="start" x="419.33" y="-65.75" font-family="Avenir Next, Helvetica, Arial, sans-serif" font-size="11.00">4.622ns</text>
<text xml:space="preserve" text-anchor="start" x="197.67" y="-46" font-family="Avenir Next, Helvetica, Arial, sans-serif" font-size="11.00">minstant</text>
<polygon fill="#8f2e2e" stroke="none" points="247.33,-45.38 247.33,-53.38 412.33,-53.38 412.33,-45.38 247.33,-45.38"/>
<text xml:space="preserve" text-anchor="start" x="419.33" y="-46" font-family="Avenir Next, Helvetica, Arial, sans-serif" font-size="11.00">25.740ns</text>
<text xml:space="preserve" text-anchor="start" x="208.17" y="-26.25" font-family="Avenir Next, Helvetica, Arial, sans-serif" font-size="11.00">fastant</text>
<polygon fill="#4b6f78" stroke="none" points="247.33,-25.62 247.33,-33.62 412.33,-33.62 412.33,-25.62 247.33,-25.62"/>
<text xml:space="preserve" text-anchor="start" x="419.33" y="-26.25" font-family="Avenir Next, Helvetica, Arial, sans-serif" font-size="11.00">25.683ns</text>
<text xml:space="preserve" text-anchor="start" x="226.92" y="-6.5" font-family="Avenir Next, Helvetica, Arial, sans-serif" font-size="11.00">std</text>
<polygon fill="#b95032" stroke="none" points="247.58,-5.88 247.58,-13.88 365.58,-13.88 365.58,-5.88 247.58,-5.88"/>
<text xml:space="preserve" text-anchor="start" x="419.33" y="-6.5" font-family="Avenir Next, Helvetica, Arial, sans-serif" font-size="11.00">18.422ns</text>
</g>
</g>
</svg>
