<?xml version="1.0" encoding="UTF-8" standalone="no"?>
<!DOCTYPE svg PUBLIC "-//W3C//DTD SVG 1.1//EN"
 "http://www.w3.org/Graphics/SVG/1.1/DTD/svg11.dtd">
<!-- Generated by graphviz version 14.1.5 (20260411.2331)
 -->
<!-- Title: benchmark Pages: 1 -->
<svg width="600pt" height="322pt"
 viewBox="0.00 0.00 600.00 322.00" xmlns="http://www.w3.org/2000/svg" xmlns:xlink="http://www.w3.org/1999/xlink">
<g id="graph0" class="graph" transform="scale(1 1) rotate(0) translate(8.64 313.14)">
<title>benchmark</title>
<polygon fill="#fbf6ec" stroke="none" points="-8.64,8.64 -8.64,-313.14 591.64,-313.14 591.64,8.64 -8.64,8.64"/>
<!-- benchmark -->
<g id="node1" class="node">
<title>benchmark</title>
<text xml:space="preserve" text-anchor="start" x="3" y="-289.2" font-family="Avenir Next, Helvetica, Arial, sans-serif" font-size="13.00"> &#160;&#160;&#160;&#160;&#160;&#160;&#160;&#160;&#160;&#160;&#160;</text>
<text xml:space="preserve" text-anchor="start" x="39" y="-289.2" font-family="Avenir Next, Helvetica, Arial, sans-serif" font-weight="bold" font-size="14.00">now()</text>
<text xml:space="preserve" text-anchor="start" x="77.25" y="-289.2" font-family="Avenir Next, Helvetica, Arial, sans-serif" font-size="13.00"> &#160;&#160;&#160;&#160;&#160;&#160;&#160;&#160;&#160;</text>
<text xml:space="preserve" text-anchor="start" x="86" y="-262.5" font-family="Avenir Next, Helvetica, Arial, sans-serif" font-size="13.00">hotclock</text>
<polygon fill="#075a4a" stroke="none" points="143,-257.25 143,-276 146,-276 146,-257.25 143,-257.25"/>
<polygon fill="#fbf6ec" stroke="none" points="146,-257.25 146,-276 153,-276 153,-257.25 146,-257.25"/>
<text xml:space="preserve" text-anchor="start" x="153" y="-262.5" font-family="Avenir Next, Helvetica, Arial, sans-serif" font-size="13.00">343 ps (1.0x)</text>
<polygon fill="#fbf6ec" stroke="none" points="253,-257.25 253,-276 580,-276 580,-257.25 253,-257.25"/>
<text xml:space="preserve" text-anchor="start" x="23.75" y="-237.75" font-family="Avenir Next, Helvetica, Arial, sans-serif" font-size="13.00">tick_counter@0.4.5</text>
<polygon fill="#0e7c66" stroke="none" points="143,-232.5 143,-251.25 146,-251.25 146,-232.5 143,-232.5"/>
<polygon fill="#fbf6ec" stroke="none" points="146,-232.5 146,-251.25 153,-251.25 153,-232.5 146,-232.5"/>
<text xml:space="preserve" text-anchor="start" x="153" y="-237.75" font-family="Avenir Next, Helvetica, Arial, sans-serif" font-size="13.00">346 ps (1.0x)</text>
<polygon fill="#fbf6ec" stroke="none" points="253,-232.5 253,-251.25 580,-251.25 580,-232.5 253,-232.5"/>
<text xml:space="preserve" text-anchor="start" x="48.5" y="-213" font-family="Avenir Next, Helvetica, Arial, sans-serif" font-size="13.00">quanta@0.12.6</text>
<polygon fill="#d48a22" stroke="none" points="143,-207.75 143,-226.5 185,-226.5 185,-207.75 143,-207.75"/>
<polygon fill="#fbf6ec" stroke="none" points="185,-207.75 185,-226.5 192,-226.5 192,-207.75 185,-207.75"/>
<text xml:space="preserve" text-anchor="start" x="192" y="-213" font-family="Avenir Next, Helvetica, Arial, sans-serif" font-size="13.00">4.51 ns (13.1x)</text>
<polygon fill="#fbf6ec" stroke="none" points="307,-207.75 307,-226.5 580,-226.5 580,-207.75 307,-207.75"/>
<text xml:space="preserve" text-anchor="start" x="86" y="-188.25" font-family="Avenir Next, Helvetica, Arial, sans-serif" font-size="13.00">std::time</text>
<polygon fill="#b95032" stroke="none" points="143,-183 143,-201.75 329,-201.75 329,-183 143,-183"/>
<polygon fill="#fbf6ec" stroke="none" points="329,-183 329,-201.75 336,-201.75 336,-183 329,-183"/>
<text xml:space="preserve" text-anchor="start" x="336" y="-188.25" font-family="Avenir Next, Helvetica, Arial, sans-serif" font-size="13.00">19.72 ns (57.5x)</text>
<polygon fill="#fbf6ec" stroke="none" points="461,-183 461,-201.75 580,-201.75 580,-183 461,-183"/>
<text xml:space="preserve" text-anchor="start" x="47" y="-163.5" font-family="Avenir Next, Helvetica, Arial, sans-serif" font-size="13.00">minstant@0.1.7</text>
<polygon fill="#8f2e2e" stroke="none" points="143,-158.25 143,-177 395,-177 395,-158.25 143,-158.25"/>
<polygon fill="#fbf6ec" stroke="none" points="395,-158.25 395,-177 402,-177 402,-158.25 395,-158.25"/>
<text xml:space="preserve" text-anchor="start" x="402" y="-163.5" font-family="Avenir Next, Helvetica, Arial, sans-serif" font-size="13.00">26.76 ns (78.0x)</text>
<polygon fill="#fbf6ec" stroke="none" points="527,-158.25 527,-177 580,-177 580,-158.25 527,-158.25"/>
<text xml:space="preserve" text-anchor="start" x="3" y="-133.95" font-family="Avenir Next, Helvetica, Arial, sans-serif" font-size="13.00"> &#160;&#160;&#160;&#160;&#160;&#160;&#160;&#160;&#160;&#160;&#160;</text>
<text xml:space="preserve" text-anchor="start" x="39" y="-133.95" font-family="Avenir Next, Helvetica, Arial, sans-serif" font-weight="bold" font-size="14.00">Elapsed</text>
<text xml:space="preserve" text-anchor="start" x="93" y="-133.95" font-family="Avenir Next, Helvetica, Arial, sans-serif" font-size="13.00"> &#160;&#160;&#160;&#160;&#160;&#160;&#160;&#160;&#160;</text>
<text xml:space="preserve" text-anchor="start" x="86" y="-107.25" font-family="Avenir Next, Helvetica, Arial, sans-serif" font-size="13.00">hotclock</text>
<polygon fill="#075a4a" stroke="none" points="143,-102 143,-120.75 146,-120.75 146,-102 143,-102"/>
<polygon fill="#fbf6ec" stroke="none" points="146,-102 146,-120.75 153,-120.75 153,-102 146,-102"/>
<text xml:space="preserve" text-anchor="start" x="153" y="-107.25" font-family="Avenir Next, Helvetica, Arial, sans-serif" font-size="13.00">640 ps (1.0x)</text>
<polygon fill="#fbf6ec" stroke="none" points="253,-102 253,-120.75 580,-120.75 580,-102 253,-102"/>
<text xml:space="preserve" text-anchor="start" x="23.75" y="-82.5" font-family="Avenir Next, Helvetica, Arial, sans-serif" font-size="13.00">tick_counter@0.4.5</text>
<polygon fill="#0e7c66" stroke="none" points="143,-77.25 143,-96 146,-96 146,-77.25 143,-77.25"/>
<polygon fill="#fbf6ec" stroke="none" points="146,-77.25 146,-96 153,-96 153,-77.25 146,-77.25"/>
<text xml:space="preserve" text-anchor="start" x="153" y="-82.5" font-family="Avenir Next, Helvetica, Arial, sans-serif" font-size="13.00">643 ps (1.0x)</text>
<polygon fill="#fbf6ec" stroke="none" points="253,-77.25 253,-96 580,-96 580,-77.25 253,-77.25"/>
<text xml:space="preserve" text-anchor="start" x="48.5" y="-57.75" font-family="Avenir Next, Helvetica, Arial, sans-serif" font-size="13.00">quanta@0.12.6</text>
<polygon fill="#d48a22" stroke="none" points="143,-52.5 143,-71.25 189,-71.25 189,-52.5 143,-52.5"/>
<polygon fill="#fbf6ec" stroke="none" points="189,-52.5 189,-71.25 196,-71.25 196,-52.5 189,-52.5"/>
<text xml:space="preserve" text-anchor="start" x="196" y="-57.75" font-family="Avenir Next, Helvetica, Arial, sans-serif" font-size="13.00">9.04 ns (14.1x)</text>
<polygon fill="#fbf6ec" stroke="none" points="311,-52.5 311,-71.25 580,-71.25 580,-52.5 311,-52.5"/>
<text xml:space="preserve" text-anchor="start" x="86" y="-33" font-family="Avenir Next, Helvetica, Arial, sans-serif" font-size="13.00">std::time</text>
<polygon fill="#b95032" stroke="none" points="143,-27.75 143,-46.5 360,-46.5 360,-27.75 143,-27.75"/>
<polygon fill="#fbf6ec" stroke="none" points="360,-27.75 360,-46.5 367,-46.5 367,-27.75 360,-27.75"/>
<text xml:space="preserve" text-anchor="start" x="367" y="-33" font-family="Avenir Next, Helvetica, Arial, sans-serif" font-size="13.00">42.86 ns (67.0x)</text>
<polygon fill="#fbf6ec" stroke="none" points="492,-27.75 492,-46.5 580,-46.5 580,-27.75 492,-27.75"/>
<text xml:space="preserve" text-anchor="start" x="47" y="-8.25" font-family="Avenir Next, Helvetica, Arial, sans-serif" font-size="13.00">minstant@0.1.7</text>
<polygon fill="#8f2e2e" stroke="none" points="143,-3 143,-21.75 443,-21.75 443,-3 143,-3"/>
<polygon fill="#fbf6ec" stroke="none" points="443,-3 443,-21.75 450,-21.75 450,-3 443,-3"/>
<text xml:space="preserve" text-anchor="start" x="450" y="-8.25" font-family="Avenir Next, Helvetica, Arial, sans-serif" font-size="13.00">59.32 ns (92.7x)</text>
<polygon fill="#fbf6ec" stroke="none" points="575,-3 575,-21.75 580,-21.75 580,-3 575,-3"/>
</g>
</g>
</svg>
