<?xml version="1.0" encoding="UTF-8"?>
<svg xmlns="http://www.w3.org/2000/svg" width="1002" height="436" viewBox="0 0 1002 436">
<rect width="1002" height="436" fill="#FBF6EC"/>
<g shape-rendering="crispEdges">
<rect x="241.76" y="9" width="6" height="6" fill="#075A4A"/>
<text x="251.76" y="15" text-anchor="start" font-family="Avenir Next, Helvetica, Arial, sans-serif" font-size="12" fill="#2E231B">tach@0.2.0</text>
<rect x="336.96" y="9" width="6" height="6" fill="#D48A22"/>
<text x="346.96" y="15" text-anchor="start" font-family="Avenir Next, Helvetica, Arial, sans-serif" font-size="12" fill="#2E231B">quanta@0.12.6</text>
<rect x="452.32" y="9" width="6" height="6" fill="#8F2E2E"/>
<text x="462.32" y="15" text-anchor="start" font-family="Avenir Next, Helvetica, Arial, sans-serif" font-size="12" fill="#2E231B">minstant@0.1.7</text>
<rect x="574.4" y="9" width="6" height="6" fill="#4B6F78"/>
<text x="584.4" y="15" text-anchor="start" font-family="Avenir Next, Helvetica, Arial, sans-serif" font-size="12" fill="#2E231B">fastant@0.1.11</text>
<rect x="696.48" y="9" width="6" height="6" fill="#B95032"/>
<text x="706.48" y="15" text-anchor="start" font-family="Avenir Next, Helvetica, Arial, sans-serif" font-size="12" fill="#2E231B">std@1.91</text>
<text x="501" y="30" text-anchor="middle" font-family="Avenir Next, Helvetica, Arial, sans-serif" font-size="9" fill="#2E231B">All measurements are nanoseconds; bars share one vertical scale.</text>
<rect x="6" y="42" width="81" height="382" fill="#FFF8E8"/>
<rect x="18.5" y="376" width="8" height="8" fill="#075A4A"/>
<text x="22.5" y="372" text-anchor="middle" font-family="Avenir Next, Helvetica, Arial, sans-serif" font-size="7" fill="#2E231B">8.71</text>
<rect x="30.5" y="372" width="8" height="12" fill="#D48A22"/>
<text x="34.5" y="358" text-anchor="middle" font-family="Avenir Next, Helvetica, Arial, sans-serif" font-size="7" fill="#2E231B">13.3</text>
<rect x="42.5" y="375" width="8" height="9" fill="#8F2E2E"/>
<text x="46.5" y="371" text-anchor="middle" font-family="Avenir Next, Helvetica, Arial, sans-serif" font-size="7" fill="#2E231B">9.36</text>
<rect x="54.5" y="375" width="8" height="9" fill="#4B6F78"/>
<text x="58.5" y="361" text-anchor="middle" font-family="Avenir Next, Helvetica, Arial, sans-serif" font-size="7" fill="#2E231B">9.36</text>
<rect x="66.5" y="361" width="8" height="23" fill="#B95032"/>
<text x="70.5" y="347" text-anchor="middle" font-family="Avenir Next, Helvetica, Arial, sans-serif" font-size="7" fill="#2E231B">24.2</text>
<text x="46.5" y="405" text-anchor="middle" font-family="Avenir Next, Helvetica, Arial, sans-serif" font-size="12" fill="#2E231B">AWS t3 KVM</text>
<text x="46.5" y="419" text-anchor="middle" font-family="Avenir Next, Helvetica, Arial, sans-serif" font-size="12" fill="#2E231B">x86_64</text>
<rect x="107" y="42" width="81" height="382" fill="#FFF8E8"/>
<rect x="119.5" y="378" width="8" height="6" fill="#075A4A"/>
<text x="123.5" y="374" text-anchor="middle" font-family="Avenir Next, Helvetica, Arial, sans-serif" font-size="7" fill="#2E231B">6.84</text>
<rect x="131.5" y="377" width="8" height="7" fill="#D48A22"/>
<text x="135.5" y="363" text-anchor="middle" font-family="Avenir Next, Helvetica, Arial, sans-serif" font-size="7" fill="#2E231B">7.13</text>
<rect x="143.5" y="378" width="8" height="6" fill="#8F2E2E"/>
<text x="147.5" y="374" text-anchor="middle" font-family="Avenir Next, Helvetica, Arial, sans-serif" font-size="7" fill="#2E231B">6.84</text>
<rect x="155.5" y="378" width="8" height="6" fill="#4B6F78"/>
<text x="159.5" y="364" text-anchor="middle" font-family="Avenir Next, Helvetica, Arial, sans-serif" font-size="7" fill="#2E231B">6.84</text>
<rect x="167.5" y="370" width="8" height="14" fill="#B95032"/>
<text x="171.5" y="346" text-anchor="middle" font-family="Avenir Next, Helvetica, Arial, sans-serif" font-size="7" fill="#2E231B">14.7</text>
<text x="147.5" y="405" text-anchor="middle" font-family="Avenir Next, Helvetica, Arial, sans-serif" font-size="12" fill="#2E231B">AWS m7i metal</text>
<text x="147.5" y="419" text-anchor="middle" font-family="Avenir Next, Helvetica, Arial, sans-serif" font-size="12" fill="#2E231B">x86_64</text>
<rect x="208" y="42" width="81" height="382" fill="#FFF8E8"/>
<rect x="220.5" y="376" width="8" height="8" fill="#075A4A"/>
<text x="224.5" y="372" text-anchor="middle" font-family="Avenir Next, Helvetica, Arial, sans-serif" font-size="7" fill="#2E231B">8.24</text>
<rect x="232.5" y="372" width="8" height="12" fill="#D48A22"/>
<text x="236.5" y="358" text-anchor="middle" font-family="Avenir Next, Helvetica, Arial, sans-serif" font-size="7" fill="#2E231B">12.4</text>
<rect x="244.5" y="350" width="8" height="34" fill="#8F2E2E"/>
<text x="248.5" y="346" text-anchor="middle" font-family="Avenir Next, Helvetica, Arial, sans-serif" font-size="7" fill="#2E231B">36.8</text>
<rect x="256.5" y="351" width="8" height="33" fill="#4B6F78"/>
<text x="260.5" y="327" text-anchor="middle" font-family="Avenir Next, Helvetica, Arial, sans-serif" font-size="7" fill="#2E231B">35.5</text>
<text x="248.5" y="391" text-anchor="middle" font-family="Avenir Next, Helvetica, Arial, sans-serif" font-size="12" fill="#2E231B">AWS Windows</text>
<text x="248.5" y="405" text-anchor="middle" font-family="Avenir Next, Helvetica, Arial, sans-serif" font-size="12" fill="#2E231B">c5.large</text>
<text x="248.5" y="419" text-anchor="middle" font-family="Avenir Next, Helvetica, Arial, sans-serif" font-size="12" fill="#2E231B">x86_64</text>
<rect x="309" y="42" width="81" height="382" fill="#FFF8E8"/>
<rect x="321.5" y="371" width="8" height="13" fill="#075A4A"/>
<text x="325.5" y="367" text-anchor="middle" font-family="Avenir Next, Helvetica, Arial, sans-serif" font-size="7" fill="#2E231B">13.6</text>
<rect x="333.5" y="319" width="8" height="65" fill="#D48A22"/>
<text x="337.5" y="315" text-anchor="middle" font-family="Avenir Next, Helvetica, Arial, sans-serif" font-size="7" fill="#2E231B">69.3</text>
<rect x="345.5" y="371" width="8" height="13" fill="#8F2E2E"/>
<text x="349.5" y="367" text-anchor="middle" font-family="Avenir Next, Helvetica, Arial, sans-serif" font-size="7" fill="#2E231B">14.4</text>
<rect x="357.5" y="371" width="8" height="13" fill="#4B6F78"/>
<text x="361.5" y="357" text-anchor="middle" font-family="Avenir Next, Helvetica, Arial, sans-serif" font-size="7" fill="#2E231B">14.2</text>
<rect x="369.5" y="322" width="8" height="62" fill="#B95032"/>
<text x="373.5" y="318" text-anchor="middle" font-family="Avenir Next, Helvetica, Arial, sans-serif" font-size="7" fill="#2E231B">66.5</text>
<text x="349.5" y="405" text-anchor="middle" font-family="Avenir Next, Helvetica, Arial, sans-serif" font-size="12" fill="#2E231B">AWS t3 KVM</text>
<text x="349.5" y="419" text-anchor="middle" font-family="Avenir Next, Helvetica, Arial, sans-serif" font-size="12" fill="#2E231B">x86</text>
<rect x="410" y="42" width="81" height="382" fill="#FFF8E8"/>
<rect x="422.5" y="378" width="8" height="6" fill="#075A4A"/>
<text x="426.5" y="374" text-anchor="middle" font-family="Avenir Next, Helvetica, Arial, sans-serif" font-size="7" fill="#2E231B">6.84</text>
<rect x="434.5" y="362" width="8" height="22" fill="#D48A22"/>
<text x="438.5" y="358" text-anchor="middle" font-family="Avenir Next, Helvetica, Arial, sans-serif" font-size="7" fill="#2E231B">23.1</text>
<rect x="446.5" y="378" width="8" height="6" fill="#8F2E2E"/>
<text x="450.5" y="374" text-anchor="middle" font-family="Avenir Next, Helvetica, Arial, sans-serif" font-size="7" fill="#2E231B">6.84</text>
<rect x="458.5" y="378" width="8" height="6" fill="#4B6F78"/>
<text x="462.5" y="364" text-anchor="middle" font-family="Avenir Next, Helvetica, Arial, sans-serif" font-size="7" fill="#2E231B">6.84</text>
<rect x="470.5" y="363" width="8" height="21" fill="#B95032"/>
<text x="474.5" y="349" text-anchor="middle" font-family="Avenir Next, Helvetica, Arial, sans-serif" font-size="7" fill="#2E231B">22.7</text>
<text x="450.5" y="405" text-anchor="middle" font-family="Avenir Next, Helvetica, Arial, sans-serif" font-size="12" fill="#2E231B">AWS m7i metal</text>
<text x="450.5" y="419" text-anchor="middle" font-family="Avenir Next, Helvetica, Arial, sans-serif" font-size="12" fill="#2E231B">x86</text>
<rect x="511" y="42" width="81" height="382" fill="#FFF8E8"/>
<rect x="523.5" y="370" width="8" height="14" fill="#075A4A"/>
<text x="527.5" y="366" text-anchor="middle" font-family="Avenir Next, Helvetica, Arial, sans-serif" font-size="7" fill="#2E231B">15.4</text>
<rect x="535.5" y="360" width="8" height="24" fill="#D48A22"/>
<text x="539.5" y="356" text-anchor="middle" font-family="Avenir Next, Helvetica, Arial, sans-serif" font-size="7" fill="#2E231B">25.1</text>
<rect x="547.5" y="347" width="8" height="37" fill="#8F2E2E"/>
<text x="551.5" y="343" text-anchor="middle" font-family="Avenir Next, Helvetica, Arial, sans-serif" font-size="7" fill="#2E231B">39.0</text>
<rect x="559.5" y="363" width="8" height="21" fill="#4B6F78"/>
<text x="563.5" y="359" text-anchor="middle" font-family="Avenir Next, Helvetica, Arial, sans-serif" font-size="7" fill="#2E231B">22.1</text>
<rect x="571.5" y="358" width="8" height="26" fill="#B95032"/>
<text x="575.5" y="344" text-anchor="middle" font-family="Avenir Next, Helvetica, Arial, sans-serif" font-size="7" fill="#2E231B">28.1</text>
<text x="551.5" y="405" text-anchor="middle" font-family="Avenir Next, Helvetica, Arial, sans-serif" font-size="12" fill="#2E231B">Docker</text>
<text x="551.5" y="419" text-anchor="middle" font-family="Avenir Next, Helvetica, Arial, sans-serif" font-size="12" fill="#2E231B">x86_64</text>
<rect x="612" y="42" width="81" height="382" fill="#FFF8E8"/>
<rect x="624.5" y="360" width="8" height="24" fill="#075A4A"/>
<text x="628.5" y="356" text-anchor="middle" font-family="Avenir Next, Helvetica, Arial, sans-serif" font-size="7" fill="#2E231B">25.8</text>
<rect x="636.5" y="146" width="8" height="238" fill="#D48A22"/>
<text x="640.5" y="142" text-anchor="middle" font-family="Avenir Next, Helvetica, Arial, sans-serif" font-size="7" fill="#2E231B">254</text>
<rect x="648.5" y="81" width="8" height="303" fill="#8F2E2E"/>
<text x="652.5" y="77" text-anchor="middle" font-family="Avenir Next, Helvetica, Arial, sans-serif" font-size="7" fill="#2E231B">323</text>
<rect x="660.5" y="80" width="8" height="304" fill="#4B6F78"/>
<text x="664.5" y="66" text-anchor="middle" font-family="Avenir Next, Helvetica, Arial, sans-serif" font-size="7" fill="#2E231B">324</text>
<rect x="672.5" y="175" width="8" height="209" fill="#B95032"/>
<text x="676.5" y="171" text-anchor="middle" font-family="Avenir Next, Helvetica, Arial, sans-serif" font-size="7" fill="#2E231B">223</text>
<text x="652.5" y="405" text-anchor="middle" font-family="Avenir Next, Helvetica, Arial, sans-serif" font-size="12" fill="#2E231B">Docker</text>
<text x="652.5" y="419" text-anchor="middle" font-family="Avenir Next, Helvetica, Arial, sans-serif" font-size="12" fill="#2E231B">x86</text>
<rect x="713" y="42" width="81" height="382" fill="#FFF8E8"/>
<rect x="725.5" y="382" width="8" height="2" fill="#075A4A"/>
<text x="729.5" y="378" text-anchor="middle" font-family="Avenir Next, Helvetica, Arial, sans-serif" font-size="7" fill="#2E231B">0.33</text>
<rect x="737.5" y="380" width="8" height="4" fill="#D48A22"/>
<text x="741.5" y="366" text-anchor="middle" font-family="Avenir Next, Helvetica, Arial, sans-serif" font-size="7" fill="#2E231B">4.47</text>
<rect x="749.5" y="358" width="8" height="26" fill="#8F2E2E"/>
<text x="753.5" y="354" text-anchor="middle" font-family="Avenir Next, Helvetica, Arial, sans-serif" font-size="7" fill="#2E231B">27.2</text>
<rect x="761.5" y="358" width="8" height="26" fill="#4B6F78"/>
<text x="765.5" y="344" text-anchor="middle" font-family="Avenir Next, Helvetica, Arial, sans-serif" font-size="7" fill="#2E231B">27.3</text>
<rect x="773.5" y="365" width="8" height="19" fill="#B95032"/>
<text x="777.5" y="361" text-anchor="middle" font-family="Avenir Next, Helvetica, Arial, sans-serif" font-size="7" fill="#2E231B">20.2</text>
<text x="753.5" y="405" text-anchor="middle" font-family="Avenir Next, Helvetica, Arial, sans-serif" font-size="12" fill="#2E231B">Docker</text>
<text x="753.5" y="419" text-anchor="middle" font-family="Avenir Next, Helvetica, Arial, sans-serif" font-size="12" fill="#2E231B">aarch64</text>
<rect x="814" y="42" width="81" height="382" fill="#FFF8E8"/>
<rect x="826.5" y="328" width="8" height="56" fill="#075A4A"/>
<text x="830.5" y="324" text-anchor="middle" font-family="Avenir Next, Helvetica, Arial, sans-serif" font-size="7" fill="#2E231B">59.6</text>
<rect x="838.5" y="182" width="8" height="202" fill="#D48A22"/>
<text x="842.5" y="178" text-anchor="middle" font-family="Avenir Next, Helvetica, Arial, sans-serif" font-size="7" fill="#2E231B">215</text>
<rect x="850.5" y="130" width="8" height="254" fill="#8F2E2E"/>
<text x="854.5" y="126" text-anchor="middle" font-family="Avenir Next, Helvetica, Arial, sans-serif" font-size="7" fill="#2E231B">271</text>
<rect x="862.5" y="130" width="8" height="254" fill="#4B6F78"/>
<text x="866.5" y="116" text-anchor="middle" font-family="Avenir Next, Helvetica, Arial, sans-serif" font-size="7" fill="#2E231B">271</text>
<rect x="874.5" y="210" width="8" height="174" fill="#B95032"/>
<text x="878.5" y="206" text-anchor="middle" font-family="Avenir Next, Helvetica, Arial, sans-serif" font-size="7" fill="#2E231B">185</text>
<text x="854.5" y="405" text-anchor="middle" font-family="Avenir Next, Helvetica, Arial, sans-serif" font-size="12" fill="#2E231B">Docker</text>
<text x="854.5" y="419" text-anchor="middle" font-family="Avenir Next, Helvetica, Arial, sans-serif" font-size="12" fill="#2E231B">riscv64</text>
<rect x="915" y="42" width="81" height="382" fill="#FFF8E8"/>
<rect x="927.5" y="382" width="8" height="2" fill="#075A4A"/>
<text x="931.5" y="378" text-anchor="middle" font-family="Avenir Next, Helvetica, Arial, sans-serif" font-size="7" fill="#2E231B">0.33</text>
<rect x="939.5" y="380" width="8" height="4" fill="#D48A22"/>
<text x="943.5" y="366" text-anchor="middle" font-family="Avenir Next, Helvetica, Arial, sans-serif" font-size="7" fill="#2E231B">4.62</text>
<rect x="951.5" y="360" width="8" height="24" fill="#8F2E2E"/>
<text x="955.5" y="356" text-anchor="middle" font-family="Avenir Next, Helvetica, Arial, sans-serif" font-size="7" fill="#2E231B">25.7</text>
<rect x="963.5" y="360" width="8" height="24" fill="#4B6F78"/>
<text x="967.5" y="346" text-anchor="middle" font-family="Avenir Next, Helvetica, Arial, sans-serif" font-size="7" fill="#2E231B">25.7</text>
<rect x="975.5" y="367" width="8" height="17" fill="#B95032"/>
<text x="979.5" y="363" text-anchor="middle" font-family="Avenir Next, Helvetica, Arial, sans-serif" font-size="7" fill="#2E231B">18.4</text>
<text x="955.5" y="405" text-anchor="middle" font-family="Avenir Next, Helvetica, Arial, sans-serif" font-size="12" fill="#2E231B">macOS</text>
<text x="955.5" y="419" text-anchor="middle" font-family="Avenir Next, Helvetica, Arial, sans-serif" font-size="12" fill="#2E231B">aarch64</text>
</g>
</svg>
