<?xml version="1.0" encoding="UTF-8" standalone="no"?>
<!DOCTYPE svg PUBLIC "-//W3C//DTD SVG 1.1//EN"
 "http://www.w3.org/Graphics/SVG/1.1/DTD/svg11.dtd">
<!-- Generated by graphviz version 14.1.5 (20260411.2331)
 -->
<!-- Title: benchmark Pages: 1 -->
<svg width="505pt" height="387pt"
 viewBox="0.00 0.00 505.00 387.00" xmlns="http://www.w3.org/2000/svg" xmlns:xlink="http://www.w3.org/1999/xlink">
<g id="graph0" class="graph" transform="scale(1 1) rotate(0) translate(5.76 380.76)">
<title>benchmark</title>
<polygon fill="#fbf6ec" stroke="none" points="-5.76,5.76 -5.76,-380.76 499.26,-380.76 499.26,5.76 -5.76,5.76"/>
<!-- benchmark -->
<g id="node1" class="node">
<title>benchmark</title>
<polygon fill="#1b1a17" stroke="none" points="0,-342 0,-375 219,-375 219,-342 0,-342"/>
<polygon fill="none" stroke="#e4d8c2" points="0,-342 0,-375 219,-375 219,-342 0,-342"/>
<text xml:space="preserve" text-anchor="start" x="75" y="-356.35" font-family="Avenir Next, Helvetica, Arial, sans-serif" font-weight="bold" font-size="12.00" fill="#fbf6ec">target / env</text>
<polygon fill="#075a4a" stroke="none" points="219,-342 219,-375 273,-375 273,-342 219,-342"/>
<polygon fill="none" stroke="#e4d8c2" points="219,-342 219,-375 273,-375 273,-342 219,-342"/>
<text xml:space="preserve" text-anchor="start" x="233.62" y="-358.6" font-family="Avenir Next, Helvetica, Arial, sans-serif" font-weight="bold" font-size="12.00" fill="#fbf6ec">tach</text>
<text xml:space="preserve" text-anchor="start" x="235.88" y="-349.45" font-family="Avenir Next, Helvetica, Arial, sans-serif" font-size="9.00" fill="#fbf6ec">0.2.0</text>
<polygon fill="#1b1a17" stroke="none" points="273,-342 273,-375 326.25,-375 326.25,-342 273,-342"/>
<polygon fill="none" stroke="#e4d8c2" points="273,-342 273,-375 326.25,-375 326.25,-342 273,-342"/>
<text xml:space="preserve" text-anchor="start" x="279" y="-358.6" font-family="Avenir Next, Helvetica, Arial, sans-serif" font-weight="bold" font-size="12.00" fill="#fbf6ec">quanta</text>
<text xml:space="preserve" text-anchor="start" x="286.88" y="-349.45" font-family="Avenir Next, Helvetica, Arial, sans-serif" font-size="9.00" fill="#fbf6ec">0.12.6</text>
<polygon fill="#1b1a17" stroke="none" points="326.25,-342 326.25,-375 390,-375 390,-342 326.25,-342"/>
<polygon fill="none" stroke="#e4d8c2" points="326.25,-342 326.25,-375 390,-375 390,-342 326.25,-342"/>
<text xml:space="preserve" text-anchor="start" x="332.25" y="-358.6" font-family="Avenir Next, Helvetica, Arial, sans-serif" font-weight="bold" font-size="12.00" fill="#fbf6ec">minstant</text>
<text xml:space="preserve" text-anchor="start" x="348" y="-349.45" font-family="Avenir Next, Helvetica, Arial, sans-serif" font-size="9.00" fill="#fbf6ec">0.1.7</text>
<polygon fill="#1b1a17" stroke="none" points="390,-342 390,-375 442.5,-375 442.5,-342 390,-342"/>
<polygon fill="none" stroke="#e4d8c2" points="390,-342 390,-375 442.5,-375 442.5,-342 390,-342"/>
<text xml:space="preserve" text-anchor="start" x="396" y="-358.6" font-family="Avenir Next, Helvetica, Arial, sans-serif" font-weight="bold" font-size="12.00" fill="#fbf6ec">fastant</text>
<text xml:space="preserve" text-anchor="start" x="403.5" y="-349.45" font-family="Avenir Next, Helvetica, Arial, sans-serif" font-size="9.00" fill="#fbf6ec">0.1.11</text>
<polygon fill="#1b1a17" stroke="none" points="442.5,-342 442.5,-375 493.5,-375 493.5,-342 442.5,-342"/>
<polygon fill="none" stroke="#e4d8c2" points="442.5,-342 442.5,-375 493.5,-375 493.5,-342 442.5,-342"/>
<text xml:space="preserve" text-anchor="start" x="458.62" y="-358.6" font-family="Avenir Next, Helvetica, Arial, sans-serif" font-weight="bold" font-size="12.00" fill="#fbf6ec">std</text>
<text xml:space="preserve" text-anchor="start" x="448.5" y="-349.45" font-family="Avenir Next, Helvetica, Arial, sans-serif" font-size="9.00" fill="#fbf6ec">1.91&#45;1.95</text>
<polygon fill="#fff8e8" stroke="none" points="0,-313.5 0,-342 219,-342 219,-313.5 0,-313.5"/>
<polygon fill="none" stroke="#e4d8c2" points="0,-313.5 0,-342 219,-342 219,-313.5 0,-313.5"/>
<text xml:space="preserve" text-anchor="start" x="6" y="-324" font-family="Avenir Next, Helvetica, Arial, sans-serif" font-size="12.00">macOS / aarch64</text>
<polygon fill="#075a4a" stroke="none" points="219,-313.5 219,-342 273,-342 273,-313.5 219,-313.5"/>
<polygon fill="none" stroke="#e4d8c2" points="219,-313.5 219,-342 273,-342 273,-313.5 219,-313.5"/>
<text xml:space="preserve" text-anchor="start" x="225" y="-324" font-family="Avenir Next, Helvetica, Arial, sans-serif" font-size="12.00" fill="#fbf6ec">0.330ns</text>
<polygon fill="#8f2e2e" stroke="none" points="273,-313.5 273,-342 326.25,-342 326.25,-313.5 273,-313.5"/>
<polygon fill="none" stroke="#e4d8c2" points="273,-313.5 273,-342 326.25,-342 326.25,-313.5 273,-313.5"/>
<text xml:space="preserve" text-anchor="start" x="282" y="-324" font-family="Avenir Next, Helvetica, Arial, sans-serif" font-size="12.00" fill="#fbf6ec">4.62ns</text>
<polygon fill="#8f2e2e" stroke="none" points="326.25,-313.5 326.25,-342 390,-342 390,-313.5 326.25,-313.5"/>
<polygon fill="none" stroke="#e4d8c2" points="326.25,-313.5 326.25,-342 390,-342 390,-313.5 326.25,-313.5"/>
<text xml:space="preserve" text-anchor="start" x="340.5" y="-324" font-family="Avenir Next, Helvetica, Arial, sans-serif" font-size="12.00" fill="#fbf6ec">25.7ns</text>
<polygon fill="#8f2e2e" stroke="none" points="390,-313.5 390,-342 442.5,-342 442.5,-313.5 390,-313.5"/>
<polygon fill="none" stroke="#e4d8c2" points="390,-313.5 390,-342 442.5,-342 442.5,-313.5 390,-313.5"/>
<text xml:space="preserve" text-anchor="start" x="398.62" y="-324" font-family="Avenir Next, Helvetica, Arial, sans-serif" font-size="12.00" fill="#fbf6ec">25.7ns</text>
<polygon fill="#8f2e2e" stroke="none" points="442.5,-313.5 442.5,-342 493.5,-342 493.5,-313.5 442.5,-313.5"/>
<polygon fill="none" stroke="#e4d8c2" points="442.5,-313.5 442.5,-342 493.5,-342 493.5,-313.5 442.5,-313.5"/>
<text xml:space="preserve" text-anchor="start" x="450.38" y="-324" font-family="Avenir Next, Helvetica, Arial, sans-serif" font-size="12.00" fill="#fbf6ec">18.4ns</text>
<polygon fill="#fff8e8" stroke="none" points="0,-285 0,-313.5 219,-313.5 219,-285 0,-285"/>
<polygon fill="none" stroke="#e4d8c2" points="0,-285 0,-313.5 219,-313.5 219,-285 0,-285"/>
<text xml:space="preserve" text-anchor="start" x="6" y="-295.5" font-family="Avenir Next, Helvetica, Arial, sans-serif" font-size="12.00">Docker / x86_64</text>
<polygon fill="#075a4a" stroke="none" points="219,-285 219,-313.5 273,-313.5 273,-285 219,-285"/>
<polygon fill="none" stroke="#e4d8c2" points="219,-285 219,-313.5 273,-313.5 273,-285 219,-285"/>
<text xml:space="preserve" text-anchor="start" x="228.38" y="-295.5" font-family="Avenir Next, Helvetica, Arial, sans-serif" font-size="12.00" fill="#fbf6ec">15.4ns</text>
<polygon fill="#f4e7bf" stroke="none" points="273,-285 273,-313.5 326.25,-313.5 326.25,-285 273,-285"/>
<polygon fill="none" stroke="#e4d8c2" points="273,-285 273,-313.5 326.25,-313.5 326.25,-285 273,-285"/>
<text xml:space="preserve" text-anchor="start" x="282" y="-295.5" font-family="Avenir Next, Helvetica, Arial, sans-serif" font-size="12.00">25.1ns</text>
<polygon fill="#d9874a" stroke="none" points="326.25,-285 326.25,-313.5 390,-313.5 390,-285 326.25,-285"/>
<polygon fill="none" stroke="#e4d8c2" points="326.25,-285 326.25,-313.5 390,-313.5 390,-285 326.25,-285"/>
<text xml:space="preserve" text-anchor="start" x="340.5" y="-295.5" font-family="Avenir Next, Helvetica, Arial, sans-serif" font-size="12.00">39.0ns</text>
<polygon fill="#f4e7bf" stroke="none" points="390,-285 390,-313.5 442.5,-313.5 442.5,-285 390,-285"/>
<polygon fill="none" stroke="#e4d8c2" points="390,-285 390,-313.5 442.5,-313.5 442.5,-285 390,-285"/>
<text xml:space="preserve" text-anchor="start" x="398.62" y="-295.5" font-family="Avenir Next, Helvetica, Arial, sans-serif" font-size="12.00">22.1ns</text>
<polygon fill="#f4e7bf" stroke="none" points="442.5,-285 442.5,-313.5 493.5,-313.5 493.5,-285 442.5,-285"/>
<polygon fill="none" stroke="#e4d8c2" points="442.5,-285 442.5,-313.5 493.5,-313.5 493.5,-285 442.5,-285"/>
<text xml:space="preserve" text-anchor="start" x="450.38" y="-295.5" font-family="Avenir Next, Helvetica, Arial, sans-serif" font-size="12.00">28.1ns</text>
<polygon fill="#fff8e8" stroke="none" points="0,-256.5 0,-285 219,-285 219,-256.5 0,-256.5"/>
<polygon fill="none" stroke="#e4d8c2" points="0,-256.5 0,-285 219,-285 219,-256.5 0,-256.5"/>
<text xml:space="preserve" text-anchor="start" x="6" y="-267" font-family="Avenir Next, Helvetica, Arial, sans-serif" font-size="12.00">Docker / x86</text>
<polygon fill="#075a4a" stroke="none" points="219,-256.5 219,-285 273,-285 273,-256.5 219,-256.5"/>
<polygon fill="none" stroke="#e4d8c2" points="219,-256.5 219,-285 273,-285 273,-256.5 219,-256.5"/>
<text xml:space="preserve" text-anchor="start" x="228.38" y="-267" font-family="Avenir Next, Helvetica, Arial, sans-serif" font-size="12.00" fill="#fbf6ec">25.8ns</text>
<polygon fill="#8f2e2e" stroke="none" points="273,-256.5 273,-285 326.25,-285 326.25,-256.5 273,-256.5"/>
<polygon fill="none" stroke="#e4d8c2" points="273,-256.5 273,-285 326.25,-285 326.25,-256.5 273,-256.5"/>
<text xml:space="preserve" text-anchor="start" x="283.5" y="-267" font-family="Avenir Next, Helvetica, Arial, sans-serif" font-size="12.00" fill="#fbf6ec">254ns</text>
<polygon fill="#8f2e2e" stroke="none" points="326.25,-256.5 326.25,-285 390,-285 390,-256.5 326.25,-256.5"/>
<polygon fill="none" stroke="#e4d8c2" points="326.25,-256.5 326.25,-285 390,-285 390,-256.5 326.25,-256.5"/>
<text xml:space="preserve" text-anchor="start" x="342" y="-267" font-family="Avenir Next, Helvetica, Arial, sans-serif" font-size="12.00" fill="#fbf6ec">323ns</text>
<polygon fill="#8f2e2e" stroke="none" points="390,-256.5 390,-285 442.5,-285 442.5,-256.5 390,-256.5"/>
<polygon fill="none" stroke="#e4d8c2" points="390,-256.5 390,-285 442.5,-285 442.5,-256.5 390,-256.5"/>
<text xml:space="preserve" text-anchor="start" x="400.12" y="-267" font-family="Avenir Next, Helvetica, Arial, sans-serif" font-size="12.00" fill="#fbf6ec">324ns</text>
<polygon fill="#8f2e2e" stroke="none" points="442.5,-256.5 442.5,-285 493.5,-285 493.5,-256.5 442.5,-256.5"/>
<polygon fill="none" stroke="#e4d8c2" points="442.5,-256.5 442.5,-285 493.5,-285 493.5,-256.5 442.5,-256.5"/>
<text xml:space="preserve" text-anchor="start" x="451.88" y="-267" font-family="Avenir Next, Helvetica, Arial, sans-serif" font-size="12.00" fill="#fbf6ec">223ns</text>
<polygon fill="#fff8e8" stroke="none" points="0,-228 0,-256.5 219,-256.5 219,-228 0,-228"/>
<polygon fill="none" stroke="#e4d8c2" points="0,-228 0,-256.5 219,-256.5 219,-228 0,-228"/>
<text xml:space="preserve" text-anchor="start" x="6" y="-238.5" font-family="Avenir Next, Helvetica, Arial, sans-serif" font-size="12.00">Docker / aarch64</text>
<polygon fill="#075a4a" stroke="none" points="219,-228 219,-256.5 273,-256.5 273,-228 219,-228"/>
<polygon fill="none" stroke="#e4d8c2" points="219,-228 219,-256.5 273,-256.5 273,-228 219,-228"/>
<text xml:space="preserve" text-anchor="start" x="225" y="-238.5" font-family="Avenir Next, Helvetica, Arial, sans-serif" font-size="12.00" fill="#fbf6ec">0.330ns</text>
<polygon fill="#8f2e2e" stroke="none" points="273,-228 273,-256.5 326.25,-256.5 326.25,-228 273,-228"/>
<polygon fill="none" stroke="#e4d8c2" points="273,-228 273,-256.5 326.25,-256.5 326.25,-228 273,-228"/>
<text xml:space="preserve" text-anchor="start" x="282" y="-238.5" font-family="Avenir Next, Helvetica, Arial, sans-serif" font-size="12.00" fill="#fbf6ec">4.47ns</text>
<polygon fill="#8f2e2e" stroke="none" points="326.25,-228 326.25,-256.5 390,-256.5 390,-228 326.25,-228"/>
<polygon fill="none" stroke="#e4d8c2" points="326.25,-228 326.25,-256.5 390,-256.5 390,-228 326.25,-228"/>
<text xml:space="preserve" text-anchor="start" x="340.5" y="-238.5" font-family="Avenir Next, Helvetica, Arial, sans-serif" font-size="12.00" fill="#fbf6ec">27.2ns</text>
<polygon fill="#8f2e2e" stroke="none" points="390,-228 390,-256.5 442.5,-256.5 442.5,-228 390,-228"/>
<polygon fill="none" stroke="#e4d8c2" points="390,-228 390,-256.5 442.5,-256.5 442.5,-228 390,-228"/>
<text xml:space="preserve" text-anchor="start" x="398.62" y="-238.5" font-family="Avenir Next, Helvetica, Arial, sans-serif" font-size="12.00" fill="#fbf6ec">27.3ns</text>
<polygon fill="#8f2e2e" stroke="none" points="442.5,-228 442.5,-256.5 493.5,-256.5 493.5,-228 442.5,-228"/>
<polygon fill="none" stroke="#e4d8c2" points="442.5,-228 442.5,-256.5 493.5,-256.5 493.5,-228 442.5,-228"/>
<text xml:space="preserve" text-anchor="start" x="450.38" y="-238.5" font-family="Avenir Next, Helvetica, Arial, sans-serif" font-size="12.00" fill="#fbf6ec">20.2ns</text>
<polygon fill="#fff8e8" stroke="none" points="0,-199.5 0,-228 219,-228 219,-199.5 0,-199.5"/>
<polygon fill="none" stroke="#e4d8c2" points="0,-199.5 0,-228 219,-228 219,-199.5 0,-199.5"/>
<text xml:space="preserve" text-anchor="start" x="6" y="-210" font-family="Avenir Next, Helvetica, Arial, sans-serif" font-size="12.00">Docker / riscv64</text>
<polygon fill="#075a4a" stroke="none" points="219,-199.5 219,-228 273,-228 273,-199.5 219,-199.5"/>
<polygon fill="none" stroke="#e4d8c2" points="219,-199.5 219,-228 273,-228 273,-199.5 219,-199.5"/>
<text xml:space="preserve" text-anchor="start" x="228.38" y="-210" font-family="Avenir Next, Helvetica, Arial, sans-serif" font-size="12.00" fill="#fbf6ec">59.6ns</text>
<polygon fill="#d9874a" stroke="none" points="273,-199.5 273,-228 326.25,-228 326.25,-199.5 273,-199.5"/>
<polygon fill="none" stroke="#e4d8c2" points="273,-199.5 273,-228 326.25,-228 326.25,-199.5 273,-199.5"/>
<text xml:space="preserve" text-anchor="start" x="283.5" y="-210" font-family="Avenir Next, Helvetica, Arial, sans-serif" font-size="12.00">215ns</text>
<polygon fill="#8f2e2e" stroke="none" points="326.25,-199.5 326.25,-228 390,-228 390,-199.5 326.25,-199.5"/>
<polygon fill="none" stroke="#e4d8c2" points="326.25,-199.5 326.25,-228 390,-228 390,-199.5 326.25,-199.5"/>
<text xml:space="preserve" text-anchor="start" x="342" y="-210" font-family="Avenir Next, Helvetica, Arial, sans-serif" font-size="12.00" fill="#fbf6ec">271ns</text>
<polygon fill="#8f2e2e" stroke="none" points="390,-199.5 390,-228 442.5,-228 442.5,-199.5 390,-199.5"/>
<polygon fill="none" stroke="#e4d8c2" points="390,-199.5 390,-228 442.5,-228 442.5,-199.5 390,-199.5"/>
<text xml:space="preserve" text-anchor="start" x="400.12" y="-210" font-family="Avenir Next, Helvetica, Arial, sans-serif" font-size="12.00" fill="#fbf6ec">271ns</text>
<polygon fill="#d9874a" stroke="none" points="442.5,-199.5 442.5,-228 493.5,-228 493.5,-199.5 442.5,-199.5"/>
<polygon fill="none" stroke="#e4d8c2" points="442.5,-199.5 442.5,-228 493.5,-228 493.5,-199.5 442.5,-199.5"/>
<text xml:space="preserve" text-anchor="start" x="451.88" y="-210" font-family="Avenir Next, Helvetica, Arial, sans-serif" font-size="12.00">185ns</text>
<polygon fill="#fff8e8" stroke="none" points="0,-171 0,-199.5 219,-199.5 219,-171 0,-171"/>
<polygon fill="none" stroke="#e4d8c2" points="0,-171 0,-199.5 219,-199.5 219,-171 0,-171"/>
<text xml:space="preserve" text-anchor="start" x="6" y="-181.5" font-family="Avenir Next, Helvetica, Arial, sans-serif" font-size="12.00">AWS t3 Nitro / x86_64</text>
<polygon fill="#075a4a" stroke="none" points="219,-171 219,-199.5 273,-199.5 273,-171 219,-171"/>
<polygon fill="none" stroke="#e4d8c2" points="219,-171 219,-199.5 273,-199.5 273,-171 219,-171"/>
<text xml:space="preserve" text-anchor="start" x="228.38" y="-181.5" font-family="Avenir Next, Helvetica, Arial, sans-serif" font-size="12.00" fill="#fbf6ec">9.72ns</text>
<polygon fill="#eac17d" stroke="none" points="273,-171 273,-199.5 326.25,-199.5 326.25,-171 273,-171"/>
<polygon fill="none" stroke="#e4d8c2" points="273,-171 273,-199.5 326.25,-199.5 326.25,-171 273,-171"/>
<text xml:space="preserve" text-anchor="start" x="282" y="-181.5" font-family="Avenir Next, Helvetica, Arial, sans-serif" font-size="12.00">14.0ns</text>
<polygon fill="#ddeed9" stroke="none" points="326.25,-171 326.25,-199.5 390,-199.5 390,-171 326.25,-171"/>
<polygon fill="none" stroke="#e4d8c2" points="326.25,-171 326.25,-199.5 390,-199.5 390,-171 326.25,-171"/>
<text xml:space="preserve" text-anchor="start" x="340.5" y="-181.5" font-family="Avenir Next, Helvetica, Arial, sans-serif" font-size="12.00">10.2ns</text>
<polygon fill="#ddeed9" stroke="none" points="390,-171 390,-199.5 442.5,-199.5 442.5,-171 390,-171"/>
<polygon fill="none" stroke="#e4d8c2" points="390,-171 390,-199.5 442.5,-199.5 442.5,-171 390,-171"/>
<text xml:space="preserve" text-anchor="start" x="398.62" y="-181.5" font-family="Avenir Next, Helvetica, Arial, sans-serif" font-size="12.00">10.1ns</text>
<polygon fill="#d9874a" stroke="none" points="442.5,-171 442.5,-199.5 493.5,-199.5 493.5,-171 442.5,-171"/>
<polygon fill="none" stroke="#e4d8c2" points="442.5,-171 442.5,-199.5 493.5,-199.5 493.5,-171 442.5,-171"/>
<text xml:space="preserve" text-anchor="start" x="450.38" y="-181.5" font-family="Avenir Next, Helvetica, Arial, sans-serif" font-size="12.00">25.3ns</text>
<polygon fill="#fff8e8" stroke="none" points="0,-142.5 0,-171 219,-171 219,-142.5 0,-142.5"/>
<polygon fill="none" stroke="#e4d8c2" points="0,-142.5 0,-171 219,-171 219,-142.5 0,-142.5"/>
<text xml:space="preserve" text-anchor="start" x="6" y="-153" font-family="Avenir Next, Helvetica, Arial, sans-serif" font-size="12.00">AWS Lambda / x86_64</text>
<polygon fill="#075a4a" stroke="none" points="219,-142.5 219,-171 273,-171 273,-142.5 219,-142.5"/>
<polygon fill="none" stroke="#e4d8c2" points="219,-142.5 219,-171 273,-171 273,-142.5 219,-142.5"/>
<text xml:space="preserve" text-anchor="start" x="228.38" y="-153" font-family="Avenir Next, Helvetica, Arial, sans-serif" font-size="12.00" fill="#fbf6ec">17.8ns</text>
<polygon fill="#eac17d" stroke="none" points="273,-142.5 273,-171 326.25,-171 326.25,-142.5 273,-142.5"/>
<polygon fill="none" stroke="#e4d8c2" points="273,-142.5 273,-171 326.25,-171 326.25,-142.5 273,-142.5"/>
<text xml:space="preserve" text-anchor="start" x="282" y="-153" font-family="Avenir Next, Helvetica, Arial, sans-serif" font-size="12.00">22.2ns</text>
<polygon fill="#8f2e2e" stroke="none" points="326.25,-142.5 326.25,-171 390,-171 390,-142.5 326.25,-142.5"/>
<polygon fill="none" stroke="#e4d8c2" points="326.25,-142.5 326.25,-171 390,-171 390,-142.5 326.25,-142.5"/>
<text xml:space="preserve" text-anchor="start" x="340.5" y="-153" font-family="Avenir Next, Helvetica, Arial, sans-serif" font-size="12.00" fill="#fbf6ec">75.6ns</text>
<polygon fill="#ddeed9" stroke="none" points="390,-142.5 390,-171 442.5,-171 442.5,-142.5 390,-142.5"/>
<polygon fill="none" stroke="#e4d8c2" points="390,-142.5 390,-171 442.5,-171 442.5,-142.5 390,-142.5"/>
<text xml:space="preserve" text-anchor="start" x="398.62" y="-153" font-family="Avenir Next, Helvetica, Arial, sans-serif" font-size="12.00">18.2ns</text>
<polygon fill="#d9874a" stroke="none" points="442.5,-142.5 442.5,-171 493.5,-171 493.5,-142.5 442.5,-142.5"/>
<polygon fill="none" stroke="#e4d8c2" points="442.5,-142.5 442.5,-171 493.5,-171 493.5,-142.5 442.5,-142.5"/>
<text xml:space="preserve" text-anchor="start" x="450.38" y="-153" font-family="Avenir Next, Helvetica, Arial, sans-serif" font-size="12.00">53.8ns</text>
<polygon fill="#fff8e8" stroke="none" points="0,-114 0,-142.5 219,-142.5 219,-114 0,-114"/>
<polygon fill="none" stroke="#e4d8c2" points="0,-114 0,-142.5 219,-142.5 219,-114 0,-114"/>
<text xml:space="preserve" text-anchor="start" x="6" y="-124.5" font-family="Avenir Next, Helvetica, Arial, sans-serif" font-size="12.00">AWS m7i metal / x86_64</text>
<polygon fill="#075a4a" stroke="none" points="219,-114 219,-142.5 273,-142.5 273,-114 219,-114"/>
<polygon fill="none" stroke="#e4d8c2" points="219,-114 219,-142.5 273,-142.5 273,-114 219,-114"/>
<text xml:space="preserve" text-anchor="start" x="228.38" y="-124.5" font-family="Avenir Next, Helvetica, Arial, sans-serif" font-size="12.00" fill="#fbf6ec">6.84ns</text>
<polygon fill="#ddeed9" stroke="none" points="273,-114 273,-142.5 326.25,-142.5 326.25,-114 273,-114"/>
<polygon fill="none" stroke="#e4d8c2" points="273,-114 273,-142.5 326.25,-142.5 326.25,-114 273,-114"/>
<text xml:space="preserve" text-anchor="start" x="282" y="-124.5" font-family="Avenir Next, Helvetica, Arial, sans-serif" font-size="12.00">7.13ns</text>
<polygon fill="#ddeed9" stroke="none" points="326.25,-114 326.25,-142.5 390,-142.5 390,-114 326.25,-114"/>
<polygon fill="none" stroke="#e4d8c2" points="326.25,-114 326.25,-142.5 390,-142.5 390,-114 326.25,-114"/>
<text xml:space="preserve" text-anchor="start" x="340.5" y="-124.5" font-family="Avenir Next, Helvetica, Arial, sans-serif" font-size="12.00">6.84ns</text>
<polygon fill="#ddeed9" stroke="none" points="390,-114 390,-142.5 442.5,-142.5 442.5,-114 390,-114"/>
<polygon fill="none" stroke="#e4d8c2" points="390,-114 390,-142.5 442.5,-142.5 442.5,-114 390,-114"/>
<text xml:space="preserve" text-anchor="start" x="398.62" y="-124.5" font-family="Avenir Next, Helvetica, Arial, sans-serif" font-size="12.00">6.84ns</text>
<polygon fill="#d9874a" stroke="none" points="442.5,-114 442.5,-142.5 493.5,-142.5 493.5,-114 442.5,-114"/>
<polygon fill="none" stroke="#e4d8c2" points="442.5,-114 442.5,-142.5 493.5,-142.5 493.5,-114 442.5,-114"/>
<text xml:space="preserve" text-anchor="start" x="450.38" y="-124.5" font-family="Avenir Next, Helvetica, Arial, sans-serif" font-size="12.00">14.7ns</text>
<polygon fill="#fff8e8" stroke="none" points="0,-85.5 0,-114 219,-114 219,-85.5 0,-85.5"/>
<polygon fill="none" stroke="#e4d8c2" points="0,-85.5 0,-114 219,-114 219,-85.5 0,-85.5"/>
<text xml:space="preserve" text-anchor="start" x="6" y="-96" font-family="Avenir Next, Helvetica, Arial, sans-serif" font-size="12.00">AWS t3 Nitro / x86</text>
<polygon fill="#075a4a" stroke="none" points="219,-85.5 219,-114 273,-114 273,-85.5 219,-85.5"/>
<polygon fill="none" stroke="#e4d8c2" points="219,-85.5 219,-114 273,-114 273,-85.5 219,-85.5"/>
<text xml:space="preserve" text-anchor="start" x="228.38" y="-96" font-family="Avenir Next, Helvetica, Arial, sans-serif" font-size="12.00" fill="#fbf6ec">10.1ns</text>
<polygon fill="#8f2e2e" stroke="none" points="273,-85.5 273,-114 326.25,-114 326.25,-85.5 273,-85.5"/>
<polygon fill="none" stroke="#e4d8c2" points="273,-85.5 273,-114 326.25,-114 326.25,-85.5 273,-85.5"/>
<text xml:space="preserve" text-anchor="start" x="282" y="-96" font-family="Avenir Next, Helvetica, Arial, sans-serif" font-size="12.00" fill="#fbf6ec">42.4ns</text>
<polygon fill="#ddeed9" stroke="none" points="326.25,-85.5 326.25,-114 390,-114 390,-85.5 326.25,-85.5"/>
<polygon fill="none" stroke="#e4d8c2" points="326.25,-85.5 326.25,-114 390,-114 390,-85.5 326.25,-85.5"/>
<text xml:space="preserve" text-anchor="start" x="340.5" y="-96" font-family="Avenir Next, Helvetica, Arial, sans-serif" font-size="12.00">10.7ns</text>
<polygon fill="#ddeed9" stroke="none" points="390,-85.5 390,-114 442.5,-114 442.5,-85.5 390,-85.5"/>
<polygon fill="none" stroke="#e4d8c2" points="390,-85.5 390,-114 442.5,-114 442.5,-85.5 390,-85.5"/>
<text xml:space="preserve" text-anchor="start" x="398.62" y="-96" font-family="Avenir Next, Helvetica, Arial, sans-serif" font-size="12.00">10.7ns</text>
<polygon fill="#8f2e2e" stroke="none" points="442.5,-85.5 442.5,-114 493.5,-114 493.5,-85.5 442.5,-85.5"/>
<polygon fill="none" stroke="#e4d8c2" points="442.5,-85.5 442.5,-114 493.5,-114 493.5,-85.5 442.5,-85.5"/>
<text xml:space="preserve" text-anchor="start" x="450.38" y="-96" font-family="Avenir Next, Helvetica, Arial, sans-serif" font-size="12.00" fill="#fbf6ec">44.6ns</text>
<polygon fill="#fff8e8" stroke="none" points="0,-57 0,-85.5 219,-85.5 219,-57 0,-57"/>
<polygon fill="none" stroke="#e4d8c2" points="0,-57 0,-85.5 219,-85.5 219,-57 0,-57"/>
<text xml:space="preserve" text-anchor="start" x="6" y="-67.5" font-family="Avenir Next, Helvetica, Arial, sans-serif" font-size="12.00">AWS m7i metal / x86</text>
<polygon fill="#075a4a" stroke="none" points="219,-57 219,-85.5 273,-85.5 273,-57 219,-57"/>
<polygon fill="none" stroke="#e4d8c2" points="219,-57 219,-85.5 273,-85.5 273,-57 219,-57"/>
<text xml:space="preserve" text-anchor="start" x="228.38" y="-67.5" font-family="Avenir Next, Helvetica, Arial, sans-serif" font-size="12.00" fill="#fbf6ec">6.84ns</text>
<polygon fill="#d9874a" stroke="none" points="273,-57 273,-85.5 326.25,-85.5 326.25,-57 273,-57"/>
<polygon fill="none" stroke="#e4d8c2" points="273,-57 273,-85.5 326.25,-85.5 326.25,-57 273,-57"/>
<text xml:space="preserve" text-anchor="start" x="282" y="-67.5" font-family="Avenir Next, Helvetica, Arial, sans-serif" font-size="12.00">23.1ns</text>
<polygon fill="#ddeed9" stroke="none" points="326.25,-57 326.25,-85.5 390,-85.5 390,-57 326.25,-57"/>
<polygon fill="none" stroke="#e4d8c2" points="326.25,-57 326.25,-85.5 390,-85.5 390,-57 326.25,-57"/>
<text xml:space="preserve" text-anchor="start" x="340.5" y="-67.5" font-family="Avenir Next, Helvetica, Arial, sans-serif" font-size="12.00">6.84ns</text>
<polygon fill="#ddeed9" stroke="none" points="390,-57 390,-85.5 442.5,-85.5 442.5,-57 390,-57"/>
<polygon fill="none" stroke="#e4d8c2" points="390,-57 390,-85.5 442.5,-85.5 442.5,-57 390,-57"/>
<text xml:space="preserve" text-anchor="start" x="398.62" y="-67.5" font-family="Avenir Next, Helvetica, Arial, sans-serif" font-size="12.00">6.84ns</text>
<polygon fill="#d9874a" stroke="none" points="442.5,-57 442.5,-85.5 493.5,-85.5 493.5,-57 442.5,-57"/>
<polygon fill="none" stroke="#e4d8c2" points="442.5,-57 442.5,-85.5 493.5,-85.5 493.5,-57 442.5,-57"/>
<text xml:space="preserve" text-anchor="start" x="450.38" y="-67.5" font-family="Avenir Next, Helvetica, Arial, sans-serif" font-size="12.00">22.7ns</text>
<polygon fill="#fff8e8" stroke="none" points="0,-28.5 0,-57 219,-57 219,-28.5 0,-28.5"/>
<polygon fill="none" stroke="#e4d8c2" points="0,-28.5 0,-57 219,-57 219,-28.5 0,-28.5"/>
<text xml:space="preserve" text-anchor="start" x="6" y="-39" font-family="Avenir Next, Helvetica, Arial, sans-serif" font-size="12.00">AWS Lambda / aarch64</text>
<polygon fill="#075a4a" stroke="none" points="219,-28.5 219,-57 273,-57 273,-28.5 219,-28.5"/>
<polygon fill="none" stroke="#e4d8c2" points="219,-28.5 219,-57 273,-57 273,-28.5 219,-28.5"/>
<text xml:space="preserve" text-anchor="start" x="228.38" y="-39" font-family="Avenir Next, Helvetica, Arial, sans-serif" font-size="12.00" fill="#fbf6ec">17.3ns</text>
<polygon fill="#eac17d" stroke="none" points="273,-28.5 273,-57 326.25,-57 326.25,-28.5 273,-28.5"/>
<polygon fill="none" stroke="#e4d8c2" points="273,-28.5 273,-57 326.25,-57 326.25,-28.5 273,-28.5"/>
<text xml:space="preserve" text-anchor="start" x="282" y="-39" font-family="Avenir Next, Helvetica, Arial, sans-serif" font-size="12.00">22.0ns</text>
<polygon fill="#8f2e2e" stroke="none" points="326.25,-28.5 326.25,-57 390,-57 390,-28.5 326.25,-28.5"/>
<polygon fill="none" stroke="#e4d8c2" points="326.25,-28.5 326.25,-57 390,-57 390,-28.5 326.25,-28.5"/>
<text xml:space="preserve" text-anchor="start" x="340.5" y="-39" font-family="Avenir Next, Helvetica, Arial, sans-serif" font-size="12.00" fill="#fbf6ec">72.3ns</text>
<polygon fill="#8f2e2e" stroke="none" points="390,-28.5 390,-57 442.5,-57 442.5,-28.5 390,-28.5"/>
<polygon fill="none" stroke="#e4d8c2" points="390,-28.5 390,-57 442.5,-57 442.5,-28.5 390,-28.5"/>
<text xml:space="preserve" text-anchor="start" x="398.62" y="-39" font-family="Avenir Next, Helvetica, Arial, sans-serif" font-size="12.00" fill="#fbf6ec">74.1ns</text>
<polygon fill="#d9874a" stroke="none" points="442.5,-28.5 442.5,-57 493.5,-57 493.5,-28.5 442.5,-28.5"/>
<polygon fill="none" stroke="#e4d8c2" points="442.5,-28.5 442.5,-57 493.5,-57 493.5,-28.5 442.5,-28.5"/>
<text xml:space="preserve" text-anchor="start" x="450.38" y="-39" font-family="Avenir Next, Helvetica, Arial, sans-serif" font-size="12.00">54.2ns</text>
<polygon fill="#fff8e8" stroke="none" points="0,0 0,-28.5 219,-28.5 219,0 0,0"/>
<polygon fill="none" stroke="#e4d8c2" points="0,0 0,-28.5 219,-28.5 219,0 0,0"/>
<text xml:space="preserve" text-anchor="start" x="6" y="-10.5" font-family="Avenir Next, Helvetica, Arial, sans-serif" font-size="12.00">AWS Nitro Windows c5.large / x86_64</text>
<polygon fill="#075a4a" stroke="none" points="219,0 219,-28.5 273,-28.5 273,0 219,0"/>
<polygon fill="none" stroke="#e4d8c2" points="219,0 219,-28.5 273,-28.5 273,0 219,0"/>
<text xml:space="preserve" text-anchor="start" x="228.38" y="-10.5" font-family="Avenir Next, Helvetica, Arial, sans-serif" font-size="12.00" fill="#fbf6ec">6.96ns</text>
<polygon fill="#eac17d" stroke="none" points="273,0 273,-28.5 326.25,-28.5 326.25,0 273,0"/>
<polygon fill="none" stroke="#e4d8c2" points="273,0 273,-28.5 326.25,-28.5 326.25,0 273,0"/>
<text xml:space="preserve" text-anchor="start" x="282" y="-10.5" font-family="Avenir Next, Helvetica, Arial, sans-serif" font-size="12.00">11.7ns</text>
<polygon fill="#8f2e2e" stroke="none" points="326.25,0 326.25,-28.5 390,-28.5 390,0 326.25,0"/>
<polygon fill="none" stroke="#e4d8c2" points="326.25,0 326.25,-28.5 390,-28.5 390,0 326.25,0"/>
<text xml:space="preserve" text-anchor="start" x="340.5" y="-10.5" font-family="Avenir Next, Helvetica, Arial, sans-serif" font-size="12.00" fill="#fbf6ec">33.7ns</text>
<polygon fill="#8f2e2e" stroke="none" points="390,0 390,-28.5 442.5,-28.5 442.5,0 390,0"/>
<polygon fill="none" stroke="#e4d8c2" points="390,0 390,-28.5 442.5,-28.5 442.5,0 390,0"/>
<text xml:space="preserve" text-anchor="start" x="398.62" y="-10.5" font-family="Avenir Next, Helvetica, Arial, sans-serif" font-size="12.00" fill="#fbf6ec">33.7ns</text>
<polygon fill="#8f2e2e" stroke="none" points="442.5,0 442.5,-28.5 493.5,-28.5 493.5,0 442.5,0"/>
<polygon fill="none" stroke="#e4d8c2" points="442.5,0 442.5,-28.5 493.5,-28.5 493.5,0 442.5,0"/>
<text xml:space="preserve" text-anchor="start" x="450.38" y="-10.5" font-family="Avenir Next, Helvetica, Arial, sans-serif" font-size="12.00" fill="#fbf6ec">39.2ns</text>
</g>
</g>
</svg>
