<?xml version="1.0" encoding="UTF-8"?>
<svg xmlns="http://www.w3.org/2000/svg" width="1192" height="375" viewBox="0 0 1192 375">
<rect width="1192" height="375" fill="#FBF6EC"/>
<g shape-rendering="crispEdges">
<text x="596" y="22" text-anchor="middle" font-family="Avenir Next, Helvetica, Arial, sans-serif" font-size="16" fill="#2E231B">Instant: now() + elapsed()</text>
<rect x="174.92" y="330" width="6" height="6" fill="#D72D24"/>
<text x="184.92" y="336" text-anchor="start" font-family="Avenir Next, Helvetica, Arial, sans-serif" font-size="12" fill="#2E231B">tach: elapsed()</text>
<rect x="303.72" y="330" width="6" height="6" fill="#8B1E18"/>
<text x="313.72" y="336" text-anchor="start" font-family="Avenir Next, Helvetica, Arial, sans-serif" font-size="12" fill="#2E231B">tach: elapsed_fast()</text>
<rect x="466.12" y="330" width="6" height="6" fill="#5B6472"/>
<text x="476.12" y="336" text-anchor="start" font-family="Avenir Next, Helvetica, Arial, sans-serif" font-size="12" fill="#2E231B">quanta: elapsed()</text>
<rect x="608.36" y="330" width="6" height="6" fill="#4F6F6A"/>
<text x="618.36" y="336" text-anchor="start" font-family="Avenir Next, Helvetica, Arial, sans-serif" font-size="12" fill="#2E231B">fastant: elapsed()</text>
<rect x="757.32" y="330" width="6" height="6" fill="#8B5E3C"/>
<text x="767.32" y="336" text-anchor="start" font-family="Avenir Next, Helvetica, Arial, sans-serif" font-size="12" fill="#2E231B">minstant: elapsed()</text>
<rect x="913" y="330" width="6" height="6" fill="#9A8A3A"/>
<text x="923" y="336" text-anchor="start" font-family="Avenir Next, Helvetica, Arial, sans-serif" font-size="12" fill="#2E231B">std: elapsed()</text>
<text x="596" y="356" text-anchor="middle" font-family="Avenir Next, Helvetica, Arial, sans-serif" font-size="8" font-style="italic" fill="#2E231B">All measurements are nanoseconds; squiggle marks compressed upper range.</text>
<rect x="38" y="241" width="16" height="15" fill="#D72D24"/>
<text x="46" y="237" text-anchor="middle" font-family="Avenir Next, Helvetica, Arial, sans-serif" font-size="7" fill="#2E231B">5.29</text>
<rect x="58" y="246" width="16" height="10" fill="#8B1E18"/>
<text x="66" y="242" text-anchor="middle" font-family="Avenir Next, Helvetica, Arial, sans-serif" font-size="7" fill="#2E231B">3.39</text>
<rect x="78" y="230" width="16" height="26" fill="#5B6472"/>
<text x="86" y="226" text-anchor="middle" font-family="Avenir Next, Helvetica, Arial, sans-serif" font-size="7" fill="#2E231B">9.09</text>
<rect x="98" y="89" width="16" height="167" fill="#4F6F6A"/>
<text x="106" y="85" text-anchor="middle" font-family="Avenir Next, Helvetica, Arial, sans-serif" font-size="7" fill="#2E231B">59.4</text>
<rect x="118" y="86" width="16" height="170" fill="#8B5E3C"/>
<text x="126" y="82" text-anchor="middle" font-family="Avenir Next, Helvetica, Arial, sans-serif" font-size="7" fill="#2E231B">60.6</text>
<rect x="138" y="133" width="16" height="123" fill="#9A8A3A"/>
<text x="146" y="129" text-anchor="middle" font-family="Avenir Next, Helvetica, Arial, sans-serif" font-size="7" fill="#2E231B">43.7</text>
<text x="96" y="280" text-anchor="middle" font-family="Avenir Next, Helvetica, Arial, sans-serif" font-size="11" fill="#2E231B">Apple Silicon</text>
<text x="96" y="293" text-anchor="middle" font-family="Avenir Next, Helvetica, Arial, sans-serif" font-size="11" fill="#2E231B">M1 MacBook Pro</text>
<text x="96" y="306" text-anchor="middle" font-family="Avenir Next, Helvetica, Arial, sans-serif" font-size="7" fill="#2E231B">aarch64-apple-darwin</text>
<rect x="238" y="213" width="16" height="43" fill="#D72D24"/>
<text x="246" y="209" text-anchor="middle" font-family="Avenir Next, Helvetica, Arial, sans-serif" font-size="7" fill="#2E231B">15.2</text>
<rect x="258" y="218" width="16" height="38" fill="#8B1E18"/>
<text x="266" y="214" text-anchor="middle" font-family="Avenir Next, Helvetica, Arial, sans-serif" font-size="7" fill="#2E231B">13.5</text>
<rect x="278" y="213" width="16" height="43" fill="#5B6472"/>
<text x="286" y="209" text-anchor="middle" font-family="Avenir Next, Helvetica, Arial, sans-serif" font-size="7" fill="#2E231B">15.3</text>
<rect x="298" y="26" width="16" height="230" fill="#4F6F6A"/>
<path d="M297 23 C299 18 301 28 303 23 S307 28 315 23" stroke="#FBF6EC" stroke-width="4" fill="none" stroke-linecap="round"/>
<path d="M297 23 C299 18 301 28 303 23 S307 28 315 23" stroke="#2E231B" stroke-width="0.8" fill="none" stroke-linecap="round" opacity="0.65"/>
<text x="306" y="22" text-anchor="middle" font-family="Avenir Next, Helvetica, Arial, sans-serif" font-size="7" fill="#2E231B">87.2</text>
<rect x="318" y="26" width="16" height="230" fill="#8B5E3C"/>
<path d="M317 23 C319 18 321 28 323 23 S327 28 335 23" stroke="#FBF6EC" stroke-width="4" fill="none" stroke-linecap="round"/>
<path d="M317 23 C319 18 321 28 323 23 S327 28 335 23" stroke="#2E231B" stroke-width="0.8" fill="none" stroke-linecap="round" opacity="0.65"/>
<text x="326" y="22" text-anchor="middle" font-family="Avenir Next, Helvetica, Arial, sans-serif" font-size="7" fill="#2E231B">87.2</text>
<rect x="338" y="58" width="16" height="198" fill="#9A8A3A"/>
<text x="346" y="54" text-anchor="middle" font-family="Avenir Next, Helvetica, Arial, sans-serif" font-size="7" fill="#2E231B">70.4</text>
<text x="296" y="280" text-anchor="middle" font-family="Avenir Next, Helvetica, Arial, sans-serif" font-size="11" fill="#2E231B">AWS Graviton 3</text>
<text x="296" y="293" text-anchor="middle" font-family="Avenir Next, Helvetica, Arial, sans-serif" font-size="11" fill="#2E231B">c7g.4xlarge</text>
<text x="296" y="306" text-anchor="middle" font-family="Avenir Next, Helvetica, Arial, sans-serif" font-size="7" fill="#2E231B">aarch64-unknown-linux-gnu</text>
<rect x="438" y="138" width="16" height="118" fill="#D72D24"/>
<text x="446" y="134" text-anchor="middle" font-family="Avenir Next, Helvetica, Arial, sans-serif" font-size="7" fill="#2E231B">42.1</text>
<rect x="458" y="174" width="16" height="82" fill="#8B1E18"/>
<text x="466" y="170" text-anchor="middle" font-family="Avenir Next, Helvetica, Arial, sans-serif" font-size="7" fill="#2E231B">29.3</text>
<rect x="478" y="178" width="16" height="78" fill="#5B6472"/>
<text x="486" y="174" text-anchor="middle" font-family="Avenir Next, Helvetica, Arial, sans-serif" font-size="7" fill="#2E231B">27.8</text>
<rect x="498" y="169" width="16" height="87" fill="#4F6F6A"/>
<text x="506" y="165" text-anchor="middle" font-family="Avenir Next, Helvetica, Arial, sans-serif" font-size="7" fill="#2E231B">31.0</text>
<rect x="518" y="169" width="16" height="87" fill="#8B5E3C"/>
<text x="526" y="165" text-anchor="middle" font-family="Avenir Next, Helvetica, Arial, sans-serif" font-size="7" fill="#2E231B">31.2</text>
<rect x="538" y="105" width="16" height="151" fill="#9A8A3A"/>
<text x="546" y="101" text-anchor="middle" font-family="Avenir Next, Helvetica, Arial, sans-serif" font-size="7" fill="#2E231B">53.7</text>
<text x="496" y="280" text-anchor="middle" font-family="Avenir Next, Helvetica, Arial, sans-serif" font-size="11" fill="#2E231B">AWS Intel Burst</text>
<text x="496" y="293" text-anchor="middle" font-family="Avenir Next, Helvetica, Arial, sans-serif" font-size="11" fill="#2E231B">t3.medium</text>
<text x="496" y="306" text-anchor="middle" font-family="Avenir Next, Helvetica, Arial, sans-serif" font-size="7" fill="#2E231B">x86_64-unknown-linux-gnu</text>
<rect x="638" y="198" width="16" height="58" fill="#D72D24"/>
<text x="646" y="194" text-anchor="middle" font-family="Avenir Next, Helvetica, Arial, sans-serif" font-size="7" fill="#2E231B">20.5</text>
<rect x="658" y="212" width="16" height="44" fill="#8B1E18"/>
<text x="666" y="208" text-anchor="middle" font-family="Avenir Next, Helvetica, Arial, sans-serif" font-size="7" fill="#2E231B">15.7</text>
<rect x="678" y="207" width="16" height="49" fill="#5B6472"/>
<text x="686" y="203" text-anchor="middle" font-family="Avenir Next, Helvetica, Arial, sans-serif" font-size="7" fill="#2E231B">17.5</text>
<rect x="698" y="196" width="16" height="60" fill="#4F6F6A"/>
<text x="706" y="192" text-anchor="middle" font-family="Avenir Next, Helvetica, Arial, sans-serif" font-size="7" fill="#2E231B">21.4</text>
<rect x="718" y="196" width="16" height="60" fill="#8B5E3C"/>
<text x="726" y="192" text-anchor="middle" font-family="Avenir Next, Helvetica, Arial, sans-serif" font-size="7" fill="#2E231B">21.4</text>
<rect x="738" y="164" width="16" height="92" fill="#9A8A3A"/>
<text x="746" y="160" text-anchor="middle" font-family="Avenir Next, Helvetica, Arial, sans-serif" font-size="7" fill="#2E231B">32.8</text>
<text x="696" y="280" text-anchor="middle" font-family="Avenir Next, Helvetica, Arial, sans-serif" font-size="11" fill="#2E231B">Alpine on Metal</text>
<text x="696" y="293" text-anchor="middle" font-family="Avenir Next, Helvetica, Arial, sans-serif" font-size="11" fill="#2E231B">m7i.metal-24xl</text>
<text x="696" y="306" text-anchor="middle" font-family="Avenir Next, Helvetica, Arial, sans-serif" font-size="7" fill="#2E231B">x86_64-unknown-linux-musl</text>
<rect x="838" y="55" width="16" height="201" fill="#D72D24"/>
<text x="846" y="51" text-anchor="middle" font-family="Avenir Next, Helvetica, Arial, sans-serif" font-size="7" fill="#2E231B">71.7</text>
<rect x="858" y="120" width="16" height="136" fill="#8B1E18"/>
<text x="866" y="116" text-anchor="middle" font-family="Avenir Next, Helvetica, Arial, sans-serif" font-size="7" fill="#2E231B">48.5</text>
<rect x="878" y="104" width="16" height="152" fill="#5B6472"/>
<text x="886" y="100" text-anchor="middle" font-family="Avenir Next, Helvetica, Arial, sans-serif" font-size="7" fill="#2E231B">54.2</text>
<rect x="898" y="111" width="16" height="145" fill="#4F6F6A"/>
<text x="906" y="107" text-anchor="middle" font-family="Avenir Next, Helvetica, Arial, sans-serif" font-size="7" fill="#2E231B">51.8</text>
<rect x="918" y="26" width="16" height="230" fill="#8B5E3C"/>
<path d="M917 23 C919 18 921 28 923 23 S927 28 935 23" stroke="#FBF6EC" stroke-width="4" fill="none" stroke-linecap="round"/>
<path d="M917 23 C919 18 921 28 923 23 S927 28 935 23" stroke="#2E231B" stroke-width="0.8" fill="none" stroke-linecap="round" opacity="0.65"/>
<text x="926" y="22" text-anchor="middle" font-family="Avenir Next, Helvetica, Arial, sans-serif" font-size="7" fill="#2E231B">138</text>
<rect x="938" y="26" width="16" height="230" fill="#9A8A3A"/>
<path d="M937 23 C939 18 941 28 943 23 S947 28 955 23" stroke="#FBF6EC" stroke-width="4" fill="none" stroke-linecap="round"/>
<path d="M937 23 C939 18 941 28 943 23 S947 28 955 23" stroke="#2E231B" stroke-width="0.8" fill="none" stroke-linecap="round" opacity="0.65"/>
<text x="946" y="22" text-anchor="middle" font-family="Avenir Next, Helvetica, Arial, sans-serif" font-size="7" fill="#2E231B">108</text>
<text x="896" y="280" text-anchor="middle" font-family="Avenir Next, Helvetica, Arial, sans-serif" font-size="11" fill="#2E231B">AWS Lambda</text>
<text x="896" y="293" text-anchor="middle" font-family="Avenir Next, Helvetica, Arial, sans-serif" font-size="11" fill="#2E231B">provided.al2023</text>
<text x="896" y="306" text-anchor="middle" font-family="Avenir Next, Helvetica, Arial, sans-serif" font-size="7" fill="#2E231B">x86_64-unknown-linux-gnu</text>
<rect x="1038" y="190" width="16" height="66" fill="#D72D24"/>
<text x="1046" y="186" text-anchor="middle" font-family="Avenir Next, Helvetica, Arial, sans-serif" font-size="7" fill="#2E231B">23.7</text>
<rect x="1058" y="192" width="16" height="64" fill="#8B1E18"/>
<text x="1066" y="188" text-anchor="middle" font-family="Avenir Next, Helvetica, Arial, sans-serif" font-size="7" fill="#2E231B">22.8</text>
<rect x="1078" y="187" width="16" height="69" fill="#5B6472"/>
<text x="1086" y="183" text-anchor="middle" font-family="Avenir Next, Helvetica, Arial, sans-serif" font-size="7" fill="#2E231B">24.7</text>
<rect x="1098" y="26" width="16" height="230" fill="#4F6F6A"/>
<path d="M1097 23 C1099 18 1101 28 1103 23 S1107 28 1115 23" stroke="#FBF6EC" stroke-width="4" fill="none" stroke-linecap="round"/>
<path d="M1097 23 C1099 18 1101 28 1103 23 S1107 28 1115 23" stroke="#2E231B" stroke-width="0.8" fill="none" stroke-linecap="round" opacity="0.65"/>
<text x="1106" y="22" text-anchor="middle" font-family="Avenir Next, Helvetica, Arial, sans-serif" font-size="7" fill="#2E231B">95.0</text>
<rect x="1118" y="26" width="16" height="230" fill="#8B5E3C"/>
<path d="M1117 23 C1119 18 1121 28 1123 23 S1127 28 1135 23" stroke="#FBF6EC" stroke-width="4" fill="none" stroke-linecap="round"/>
<path d="M1117 23 C1119 18 1121 28 1123 23 S1127 28 1135 23" stroke="#2E231B" stroke-width="0.8" fill="none" stroke-linecap="round" opacity="0.65"/>
<text x="1126" y="22" text-anchor="middle" font-family="Avenir Next, Helvetica, Arial, sans-serif" font-size="7" fill="#2E231B">94.9</text>
<rect x="1138" y="32" width="16" height="224" fill="#9A8A3A"/>
<text x="1146" y="28" text-anchor="middle" font-family="Avenir Next, Helvetica, Arial, sans-serif" font-size="7" fill="#2E231B">79.9</text>
<text x="1096" y="280" text-anchor="middle" font-family="Avenir Next, Helvetica, Arial, sans-serif" font-size="11" fill="#2E231B">GitHub Windows</text>
<text x="1096" y="293" text-anchor="middle" font-family="Avenir Next, Helvetica, Arial, sans-serif" font-size="7" fill="#2E231B">windows-2025</text>
<text x="1096" y="306" text-anchor="middle" font-family="Avenir Next, Helvetica, Arial, sans-serif" font-size="7" fill="#2E231B">x86_64-pc-windows-msvc</text>
</g>
</svg>
