<?xml version="1.0" encoding="UTF-8" standalone="no"?>
<!DOCTYPE svg PUBLIC "-//W3C//DTD SVG 1.1//EN"
 "http://www.w3.org/Graphics/SVG/1.1/DTD/svg11.dtd">
<!-- Generated by graphviz version 14.1.5 (20260411.2331)
 -->
<!-- Title: benchmark Pages: 1 -->
<svg width="661pt" height="325pt"
 viewBox="0.00 0.00 661.00 325.00" xmlns="http://www.w3.org/2000/svg" xmlns:xlink="http://www.w3.org/1999/xlink">
<g id="graph0" class="graph" transform="scale(1 1) rotate(0) translate(5.76 319.26)">
<title>benchmark</title>
<polygon fill="#fbf6ec" stroke="none" points="-5.76,5.76 -5.76,-319.26 655.26,-319.26 655.26,5.76 -5.76,5.76"/>
<!-- benchmark -->
<g id="node1" class="node">
<title>benchmark</title>
<polygon fill="#1b1a17" stroke="none" points="0,-285 0,-313.5 174.75,-313.5 174.75,-285 0,-285"/>
<polygon fill="none" stroke="#e4d8c2" points="0,-285 0,-313.5 174.75,-313.5 174.75,-285 0,-285"/>
<text xml:space="preserve" text-anchor="start" x="52.88" y="-297.1" font-family="Avenir Next, Helvetica, Arial, sans-serif" font-weight="bold" font-size="12.00" fill="#fbf6ec">target / env</text>
<polygon fill="#075a4a" stroke="none" points="174.75,-285 174.75,-313.5 237,-313.5 237,-285 174.75,-285"/>
<polygon fill="none" stroke="#e4d8c2" points="174.75,-285 174.75,-313.5 237,-313.5 237,-285 174.75,-285"/>
<text xml:space="preserve" text-anchor="start" x="180.75" y="-297.1" font-family="Avenir Next, Helvetica, Arial, sans-serif" font-weight="bold" font-size="12.00" fill="#fbf6ec">hotclock</text>
<polygon fill="#1b1a17" stroke="none" points="237,-285 237,-313.5 336.75,-313.5 336.75,-285 237,-285"/>
<polygon fill="none" stroke="#e4d8c2" points="237,-285 237,-313.5 336.75,-313.5 336.75,-285 237,-285"/>
<text xml:space="preserve" text-anchor="start" x="266.25" y="-297.1" font-family="Avenir Next, Helvetica, Arial, sans-serif" font-weight="bold" font-size="12.00" fill="#fbf6ec">quanta</text>
<polygon fill="#1b1a17" stroke="none" points="336.75,-285 336.75,-313.5 443.25,-313.5 443.25,-285 336.75,-285"/>
<polygon fill="none" stroke="#e4d8c2" points="336.75,-285 336.75,-313.5 443.25,-313.5 443.25,-285 336.75,-285"/>
<text xml:space="preserve" text-anchor="start" x="364.12" y="-297.1" font-family="Avenir Next, Helvetica, Arial, sans-serif" font-weight="bold" font-size="12.00" fill="#fbf6ec">minstant</text>
<polygon fill="#1b1a17" stroke="none" points="443.25,-285 443.25,-313.5 549.75,-313.5 549.75,-285 443.25,-285"/>
<polygon fill="none" stroke="#e4d8c2" points="443.25,-285 443.25,-313.5 549.75,-313.5 549.75,-285 443.25,-285"/>
<text xml:space="preserve" text-anchor="start" x="476.25" y="-297.1" font-family="Avenir Next, Helvetica, Arial, sans-serif" font-weight="bold" font-size="12.00" fill="#fbf6ec">fastant</text>
<polygon fill="#1b1a17" stroke="none" points="549.75,-285 549.75,-313.5 649.5,-313.5 649.5,-285 549.75,-285"/>
<polygon fill="none" stroke="#e4d8c2" points="549.75,-285 549.75,-313.5 649.5,-313.5 649.5,-285 549.75,-285"/>
<text xml:space="preserve" text-anchor="start" x="590.25" y="-297.1" font-family="Avenir Next, Helvetica, Arial, sans-serif" font-weight="bold" font-size="12.00" fill="#fbf6ec">std</text>
<polygon fill="#fff8e8" stroke="none" points="0,-256.5 0,-285 174.75,-285 174.75,-256.5 0,-256.5"/>
<polygon fill="none" stroke="#e4d8c2" points="0,-256.5 0,-285 174.75,-285 174.75,-256.5 0,-256.5"/>
<text xml:space="preserve" text-anchor="start" x="6" y="-267" font-family="Avenir Next, Helvetica, Arial, sans-serif" font-size="12.00">AWS t3 KVM / x86_64&#45;musl</text>
<polygon fill="#075a4a" stroke="none" points="174.75,-256.5 174.75,-285 237,-285 237,-256.5 174.75,-256.5"/>
<polygon fill="none" stroke="#e4d8c2" points="174.75,-256.5 174.75,-285 237,-285 237,-256.5 174.75,-256.5"/>
<text xml:space="preserve" text-anchor="start" x="184.88" y="-267" font-family="Avenir Next, Helvetica, Arial, sans-serif" font-size="12.00" fill="#fbf6ec">8.711ns</text>
<polygon fill="#eac17d" stroke="none" points="237,-256.5 237,-285 336.75,-285 336.75,-256.5 237,-256.5"/>
<polygon fill="none" stroke="#e4d8c2" points="237,-256.5 237,-285 336.75,-285 336.75,-256.5 237,-256.5"/>
<text xml:space="preserve" text-anchor="start" x="246.38" y="-267" font-family="Avenir Next, Helvetica, Arial, sans-serif" font-size="12.00">13.254ns 1.52x</text>
<polygon fill="#ddeed9" stroke="none" points="336.75,-256.5 336.75,-285 443.25,-285 443.25,-256.5 336.75,-256.5"/>
<polygon fill="none" stroke="#e4d8c2" points="336.75,-256.5 336.75,-285 443.25,-285 443.25,-256.5 336.75,-256.5"/>
<text xml:space="preserve" text-anchor="start" x="352.88" y="-267" font-family="Avenir Next, Helvetica, Arial, sans-serif" font-size="12.00">9.356ns 1.07x</text>
<polygon fill="#ddeed9" stroke="none" points="443.25,-256.5 443.25,-285 549.75,-285 549.75,-256.5 443.25,-256.5"/>
<polygon fill="none" stroke="#e4d8c2" points="443.25,-256.5 443.25,-285 549.75,-285 549.75,-256.5 443.25,-256.5"/>
<text xml:space="preserve" text-anchor="start" x="459.38" y="-267" font-family="Avenir Next, Helvetica, Arial, sans-serif" font-size="12.00">9.356ns 1.07x</text>
<polygon fill="#d9874a" stroke="none" points="549.75,-256.5 549.75,-285 649.5,-285 649.5,-256.5 549.75,-256.5"/>
<polygon fill="none" stroke="#e4d8c2" points="549.75,-256.5 549.75,-285 649.5,-285 649.5,-256.5 549.75,-256.5"/>
<text xml:space="preserve" text-anchor="start" x="559.12" y="-267" font-family="Avenir Next, Helvetica, Arial, sans-serif" font-size="12.00">24.249ns 2.78x</text>
<polygon fill="#fff8e8" stroke="none" points="0,-228 0,-256.5 174.75,-256.5 174.75,-228 0,-228"/>
<polygon fill="none" stroke="#e4d8c2" points="0,-228 0,-256.5 174.75,-256.5 174.75,-228 0,-228"/>
<text xml:space="preserve" text-anchor="start" x="6" y="-238.5" font-family="Avenir Next, Helvetica, Arial, sans-serif" font-size="12.00">AWS m7i metal / x86_64&#45;musl</text>
<polygon fill="#075a4a" stroke="none" points="174.75,-228 174.75,-256.5 237,-256.5 237,-228 174.75,-228"/>
<polygon fill="none" stroke="#e4d8c2" points="174.75,-228 174.75,-256.5 237,-256.5 237,-228 174.75,-228"/>
<text xml:space="preserve" text-anchor="start" x="184.88" y="-238.5" font-family="Avenir Next, Helvetica, Arial, sans-serif" font-size="12.00" fill="#fbf6ec">6.841ns</text>
<polygon fill="#ddeed9" stroke="none" points="237,-228 237,-256.5 336.75,-256.5 336.75,-228 237,-228"/>
<polygon fill="none" stroke="#e4d8c2" points="237,-228 237,-256.5 336.75,-256.5 336.75,-228 237,-228"/>
<text xml:space="preserve" text-anchor="start" x="249.75" y="-238.5" font-family="Avenir Next, Helvetica, Arial, sans-serif" font-size="12.00">7.130ns 1.04x</text>
<polygon fill="#ddeed9" stroke="none" points="336.75,-228 336.75,-256.5 443.25,-256.5 443.25,-228 336.75,-228"/>
<polygon fill="none" stroke="#e4d8c2" points="336.75,-228 336.75,-256.5 443.25,-256.5 443.25,-228 336.75,-228"/>
<text xml:space="preserve" text-anchor="start" x="352.88" y="-238.5" font-family="Avenir Next, Helvetica, Arial, sans-serif" font-size="12.00">6.841ns 1.00x</text>
<polygon fill="#ddeed9" stroke="none" points="443.25,-228 443.25,-256.5 549.75,-256.5 549.75,-228 443.25,-228"/>
<polygon fill="none" stroke="#e4d8c2" points="443.25,-228 443.25,-256.5 549.75,-256.5 549.75,-228 443.25,-228"/>
<text xml:space="preserve" text-anchor="start" x="459.38" y="-238.5" font-family="Avenir Next, Helvetica, Arial, sans-serif" font-size="12.00">6.841ns 1.00x</text>
<polygon fill="#d9874a" stroke="none" points="549.75,-228 549.75,-256.5 649.5,-256.5 649.5,-228 549.75,-228"/>
<polygon fill="none" stroke="#e4d8c2" points="549.75,-228 549.75,-256.5 649.5,-256.5 649.5,-228 549.75,-228"/>
<text xml:space="preserve" text-anchor="start" x="559.12" y="-238.5" font-family="Avenir Next, Helvetica, Arial, sans-serif" font-size="12.00">14.734ns 2.15x</text>
<polygon fill="#fff8e8" stroke="none" points="0,-199.5 0,-228 174.75,-228 174.75,-199.5 0,-199.5"/>
<polygon fill="none" stroke="#e4d8c2" points="0,-199.5 0,-228 174.75,-228 174.75,-199.5 0,-199.5"/>
<text xml:space="preserve" text-anchor="start" x="6" y="-210" font-family="Avenir Next, Helvetica, Arial, sans-serif" font-size="12.00">AWS m7i metal / x86_64&#45;gnu</text>
<polygon fill="#075a4a" stroke="none" points="174.75,-199.5 174.75,-228 237,-228 237,-199.5 174.75,-199.5"/>
<polygon fill="none" stroke="#e4d8c2" points="174.75,-199.5 174.75,-228 237,-228 237,-199.5 174.75,-199.5"/>
<text xml:space="preserve" text-anchor="start" x="184.88" y="-210" font-family="Avenir Next, Helvetica, Arial, sans-serif" font-size="12.00" fill="#fbf6ec">7.879ns</text>
<polygon fill="#ddeed9" stroke="none" points="237,-199.5 237,-228 336.75,-228 336.75,-199.5 237,-199.5"/>
<polygon fill="none" stroke="#e4d8c2" points="237,-199.5 237,-228 336.75,-228 336.75,-199.5 237,-199.5"/>
<text xml:space="preserve" text-anchor="start" x="249.75" y="-210" font-family="Avenir Next, Helvetica, Arial, sans-serif" font-size="12.00">7.131ns 0.91x</text>
<polygon fill="#ddeed9" stroke="none" points="336.75,-199.5 336.75,-228 443.25,-228 443.25,-199.5 336.75,-199.5"/>
<polygon fill="none" stroke="#e4d8c2" points="336.75,-199.5 336.75,-228 443.25,-228 443.25,-199.5 336.75,-199.5"/>
<text xml:space="preserve" text-anchor="start" x="352.88" y="-210" font-family="Avenir Next, Helvetica, Arial, sans-serif" font-size="12.00">6.842ns 0.87x</text>
<polygon fill="#ddeed9" stroke="none" points="443.25,-199.5 443.25,-228 549.75,-228 549.75,-199.5 443.25,-199.5"/>
<polygon fill="none" stroke="#e4d8c2" points="443.25,-199.5 443.25,-228 549.75,-228 549.75,-199.5 443.25,-199.5"/>
<text xml:space="preserve" text-anchor="start" x="459.38" y="-210" font-family="Avenir Next, Helvetica, Arial, sans-serif" font-size="12.00">6.842ns 0.87x</text>
<polygon fill="#d9874a" stroke="none" points="549.75,-199.5 549.75,-228 649.5,-228 649.5,-199.5 549.75,-199.5"/>
<polygon fill="none" stroke="#e4d8c2" points="549.75,-199.5 549.75,-228 649.5,-228 649.5,-199.5 549.75,-199.5"/>
<text xml:space="preserve" text-anchor="start" x="559.12" y="-210" font-family="Avenir Next, Helvetica, Arial, sans-serif" font-size="12.00">14.999ns 1.90x</text>
<polygon fill="#fff8e8" stroke="none" points="0,-171 0,-199.5 174.75,-199.5 174.75,-171 0,-171"/>
<polygon fill="none" stroke="#e4d8c2" points="0,-171 0,-199.5 174.75,-199.5 174.75,-171 0,-171"/>
<text xml:space="preserve" text-anchor="start" x="6" y="-181.5" font-family="Avenir Next, Helvetica, Arial, sans-serif" font-size="12.00">AWS t3 KVM / x86&#45;musl</text>
<polygon fill="#075a4a" stroke="none" points="174.75,-171 174.75,-199.5 237,-199.5 237,-171 174.75,-171"/>
<polygon fill="none" stroke="#e4d8c2" points="174.75,-171 174.75,-199.5 237,-199.5 237,-171 174.75,-171"/>
<text xml:space="preserve" text-anchor="start" x="181.5" y="-181.5" font-family="Avenir Next, Helvetica, Arial, sans-serif" font-size="12.00" fill="#fbf6ec">13.552ns</text>
<polygon fill="#8f2e2e" stroke="none" points="237,-171 237,-199.5 336.75,-199.5 336.75,-171 237,-171"/>
<polygon fill="none" stroke="#e4d8c2" points="237,-171 237,-199.5 336.75,-199.5 336.75,-171 237,-171"/>
<text xml:space="preserve" text-anchor="start" x="246.38" y="-181.5" font-family="Avenir Next, Helvetica, Arial, sans-serif" font-size="12.00" fill="#fbf6ec">69.312ns 5.11x</text>
<polygon fill="#ddeed9" stroke="none" points="336.75,-171 336.75,-199.5 443.25,-199.5 443.25,-171 336.75,-171"/>
<polygon fill="none" stroke="#e4d8c2" points="336.75,-171 336.75,-199.5 443.25,-199.5 443.25,-171 336.75,-171"/>
<text xml:space="preserve" text-anchor="start" x="349.5" y="-181.5" font-family="Avenir Next, Helvetica, Arial, sans-serif" font-size="12.00">14.363ns 1.06x</text>
<polygon fill="#ddeed9" stroke="none" points="443.25,-171 443.25,-199.5 549.75,-199.5 549.75,-171 443.25,-171"/>
<polygon fill="none" stroke="#e4d8c2" points="443.25,-171 443.25,-199.5 549.75,-199.5 549.75,-171 443.25,-171"/>
<text xml:space="preserve" text-anchor="start" x="456" y="-181.5" font-family="Avenir Next, Helvetica, Arial, sans-serif" font-size="12.00">14.154ns 1.04x</text>
<polygon fill="#8f2e2e" stroke="none" points="549.75,-171 549.75,-199.5 649.5,-199.5 649.5,-171 549.75,-171"/>
<polygon fill="none" stroke="#e4d8c2" points="549.75,-171 549.75,-199.5 649.5,-199.5 649.5,-171 549.75,-171"/>
<text xml:space="preserve" text-anchor="start" x="559.12" y="-181.5" font-family="Avenir Next, Helvetica, Arial, sans-serif" font-size="12.00" fill="#fbf6ec">66.458ns 4.90x</text>
<polygon fill="#fff8e8" stroke="none" points="0,-142.5 0,-171 174.75,-171 174.75,-142.5 0,-142.5"/>
<polygon fill="none" stroke="#e4d8c2" points="0,-142.5 0,-171 174.75,-171 174.75,-142.5 0,-142.5"/>
<text xml:space="preserve" text-anchor="start" x="6" y="-153" font-family="Avenir Next, Helvetica, Arial, sans-serif" font-size="12.00">AWS m7i metal / x86&#45;musl</text>
<polygon fill="#075a4a" stroke="none" points="174.75,-142.5 174.75,-171 237,-171 237,-142.5 174.75,-142.5"/>
<polygon fill="none" stroke="#e4d8c2" points="174.75,-142.5 174.75,-171 237,-171 237,-142.5 174.75,-142.5"/>
<text xml:space="preserve" text-anchor="start" x="184.88" y="-153" font-family="Avenir Next, Helvetica, Arial, sans-serif" font-size="12.00" fill="#fbf6ec">6.841ns</text>
<polygon fill="#d9874a" stroke="none" points="237,-142.5 237,-171 336.75,-171 336.75,-142.5 237,-142.5"/>
<polygon fill="none" stroke="#e4d8c2" points="237,-142.5 237,-171 336.75,-171 336.75,-142.5 237,-142.5"/>
<text xml:space="preserve" text-anchor="start" x="246.38" y="-153" font-family="Avenir Next, Helvetica, Arial, sans-serif" font-size="12.00">23.066ns 3.37x</text>
<polygon fill="#ddeed9" stroke="none" points="336.75,-142.5 336.75,-171 443.25,-171 443.25,-142.5 336.75,-142.5"/>
<polygon fill="none" stroke="#e4d8c2" points="336.75,-142.5 336.75,-171 443.25,-171 443.25,-142.5 336.75,-142.5"/>
<text xml:space="preserve" text-anchor="start" x="352.88" y="-153" font-family="Avenir Next, Helvetica, Arial, sans-serif" font-size="12.00">6.841ns 1.00x</text>
<polygon fill="#ddeed9" stroke="none" points="443.25,-142.5 443.25,-171 549.75,-171 549.75,-142.5 443.25,-142.5"/>
<polygon fill="none" stroke="#e4d8c2" points="443.25,-142.5 443.25,-171 549.75,-171 549.75,-142.5 443.25,-142.5"/>
<text xml:space="preserve" text-anchor="start" x="459.38" y="-153" font-family="Avenir Next, Helvetica, Arial, sans-serif" font-size="12.00">6.841ns 1.00x</text>
<polygon fill="#d9874a" stroke="none" points="549.75,-142.5 549.75,-171 649.5,-171 649.5,-142.5 549.75,-142.5"/>
<polygon fill="none" stroke="#e4d8c2" points="549.75,-142.5 549.75,-171 649.5,-171 649.5,-142.5 549.75,-142.5"/>
<text xml:space="preserve" text-anchor="start" x="559.12" y="-153" font-family="Avenir Next, Helvetica, Arial, sans-serif" font-size="12.00">22.743ns 3.32x</text>
<polygon fill="#fff8e8" stroke="none" points="0,-114 0,-142.5 174.75,-142.5 174.75,-114 0,-114"/>
<polygon fill="none" stroke="#e4d8c2" points="0,-114 0,-142.5 174.75,-142.5 174.75,-114 0,-114"/>
<text xml:space="preserve" text-anchor="start" x="6" y="-124.5" font-family="Avenir Next, Helvetica, Arial, sans-serif" font-size="12.00">Docker / x86_64&#45;gnu</text>
<polygon fill="#075a4a" stroke="none" points="174.75,-114 174.75,-142.5 237,-142.5 237,-114 174.75,-114"/>
<polygon fill="none" stroke="#e4d8c2" points="174.75,-114 174.75,-142.5 237,-142.5 237,-114 174.75,-114"/>
<text xml:space="preserve" text-anchor="start" x="181.5" y="-124.5" font-family="Avenir Next, Helvetica, Arial, sans-serif" font-size="12.00" fill="#fbf6ec">15.394ns</text>
<polygon fill="#f4e7bf" stroke="none" points="237,-114 237,-142.5 336.75,-142.5 336.75,-114 237,-114"/>
<polygon fill="none" stroke="#e4d8c2" points="237,-114 237,-142.5 336.75,-142.5 336.75,-114 237,-114"/>
<text xml:space="preserve" text-anchor="start" x="246.38" y="-124.5" font-family="Avenir Next, Helvetica, Arial, sans-serif" font-size="12.00">25.079ns 1.63x</text>
<polygon fill="#d9874a" stroke="none" points="336.75,-114 336.75,-142.5 443.25,-142.5 443.25,-114 336.75,-114"/>
<polygon fill="none" stroke="#e4d8c2" points="336.75,-114 336.75,-142.5 443.25,-142.5 443.25,-114 336.75,-114"/>
<text xml:space="preserve" text-anchor="start" x="349.5" y="-124.5" font-family="Avenir Next, Helvetica, Arial, sans-serif" font-size="12.00">39.050ns 2.54x</text>
<polygon fill="#f4e7bf" stroke="none" points="443.25,-114 443.25,-142.5 549.75,-142.5 549.75,-114 443.25,-114"/>
<polygon fill="none" stroke="#e4d8c2" points="443.25,-114 443.25,-142.5 549.75,-142.5 549.75,-114 443.25,-114"/>
<text xml:space="preserve" text-anchor="start" x="456" y="-124.5" font-family="Avenir Next, Helvetica, Arial, sans-serif" font-size="12.00">22.066ns 1.43x</text>
<polygon fill="#f4e7bf" stroke="none" points="549.75,-114 549.75,-142.5 649.5,-142.5 649.5,-114 549.75,-114"/>
<polygon fill="none" stroke="#e4d8c2" points="549.75,-114 549.75,-142.5 649.5,-142.5 649.5,-114 549.75,-114"/>
<text xml:space="preserve" text-anchor="start" x="559.12" y="-124.5" font-family="Avenir Next, Helvetica, Arial, sans-serif" font-size="12.00">28.070ns 1.82x</text>
<polygon fill="#fff8e8" stroke="none" points="0,-85.5 0,-114 174.75,-114 174.75,-85.5 0,-85.5"/>
<polygon fill="none" stroke="#e4d8c2" points="0,-85.5 0,-114 174.75,-114 174.75,-85.5 0,-85.5"/>
<text xml:space="preserve" text-anchor="start" x="6" y="-96" font-family="Avenir Next, Helvetica, Arial, sans-serif" font-size="12.00">Docker / x86&#45;gnu</text>
<polygon fill="#075a4a" stroke="none" points="174.75,-85.5 174.75,-114 237,-114 237,-85.5 174.75,-85.5"/>
<polygon fill="none" stroke="#e4d8c2" points="174.75,-85.5 174.75,-114 237,-114 237,-85.5 174.75,-85.5"/>
<text xml:space="preserve" text-anchor="start" x="181.5" y="-96" font-family="Avenir Next, Helvetica, Arial, sans-serif" font-size="12.00" fill="#fbf6ec">25.789ns</text>
<polygon fill="#8f2e2e" stroke="none" points="237,-85.5 237,-114 336.75,-114 336.75,-85.5 237,-85.5"/>
<polygon fill="none" stroke="#e4d8c2" points="237,-85.5 237,-114 336.75,-114 336.75,-85.5 237,-85.5"/>
<text xml:space="preserve" text-anchor="start" x="243" y="-96" font-family="Avenir Next, Helvetica, Arial, sans-serif" font-size="12.00" fill="#fbf6ec">253.702ns 9.84x</text>
<polygon fill="#8f2e2e" stroke="none" points="336.75,-85.5 336.75,-114 443.25,-114 443.25,-85.5 336.75,-85.5"/>
<polygon fill="none" stroke="#e4d8c2" points="336.75,-85.5 336.75,-114 443.25,-114 443.25,-85.5 336.75,-85.5"/>
<text xml:space="preserve" text-anchor="start" x="342.75" y="-96" font-family="Avenir Next, Helvetica, Arial, sans-serif" font-size="12.00" fill="#fbf6ec">323.398ns 12.54x</text>
<polygon fill="#8f2e2e" stroke="none" points="443.25,-85.5 443.25,-114 549.75,-114 549.75,-85.5 443.25,-85.5"/>
<polygon fill="none" stroke="#e4d8c2" points="443.25,-85.5 443.25,-114 549.75,-114 549.75,-85.5 443.25,-85.5"/>
<text xml:space="preserve" text-anchor="start" x="449.25" y="-96" font-family="Avenir Next, Helvetica, Arial, sans-serif" font-size="12.00" fill="#fbf6ec">324.264ns 12.57x</text>
<polygon fill="#8f2e2e" stroke="none" points="549.75,-85.5 549.75,-114 649.5,-114 649.5,-85.5 549.75,-85.5"/>
<polygon fill="none" stroke="#e4d8c2" points="549.75,-85.5 549.75,-114 649.5,-114 649.5,-85.5 549.75,-85.5"/>
<text xml:space="preserve" text-anchor="start" x="555.75" y="-96" font-family="Avenir Next, Helvetica, Arial, sans-serif" font-size="12.00" fill="#fbf6ec">222.623ns 8.63x</text>
<polygon fill="#fff8e8" stroke="none" points="0,-57 0,-85.5 174.75,-85.5 174.75,-57 0,-57"/>
<polygon fill="none" stroke="#e4d8c2" points="0,-57 0,-85.5 174.75,-85.5 174.75,-57 0,-57"/>
<text xml:space="preserve" text-anchor="start" x="6" y="-67.5" font-family="Avenir Next, Helvetica, Arial, sans-serif" font-size="12.00">Docker / aarch64&#45;gnu</text>
<polygon fill="#075a4a" stroke="none" points="174.75,-57 174.75,-85.5 237,-85.5 237,-57 174.75,-57"/>
<polygon fill="none" stroke="#e4d8c2" points="174.75,-57 174.75,-85.5 237,-85.5 237,-57 174.75,-57"/>
<text xml:space="preserve" text-anchor="start" x="184.88" y="-67.5" font-family="Avenir Next, Helvetica, Arial, sans-serif" font-size="12.00" fill="#fbf6ec">0.330ns</text>
<polygon fill="#8f2e2e" stroke="none" points="237,-57 237,-85.5 336.75,-85.5 336.75,-57 237,-57"/>
<polygon fill="none" stroke="#e4d8c2" points="237,-57 237,-85.5 336.75,-85.5 336.75,-57 237,-57"/>
<text xml:space="preserve" text-anchor="start" x="246.38" y="-67.5" font-family="Avenir Next, Helvetica, Arial, sans-serif" font-size="12.00" fill="#fbf6ec">4.466ns 13.53x</text>
<polygon fill="#8f2e2e" stroke="none" points="336.75,-57 336.75,-85.5 443.25,-85.5 443.25,-57 336.75,-57"/>
<polygon fill="none" stroke="#e4d8c2" points="336.75,-57 336.75,-85.5 443.25,-85.5 443.25,-57 336.75,-57"/>
<text xml:space="preserve" text-anchor="start" x="346.12" y="-67.5" font-family="Avenir Next, Helvetica, Arial, sans-serif" font-size="12.00" fill="#fbf6ec">27.203ns 82.43x</text>
<polygon fill="#8f2e2e" stroke="none" points="443.25,-57 443.25,-85.5 549.75,-85.5 549.75,-57 443.25,-57"/>
<polygon fill="none" stroke="#e4d8c2" points="443.25,-57 443.25,-85.5 549.75,-85.5 549.75,-57 443.25,-57"/>
<text xml:space="preserve" text-anchor="start" x="452.62" y="-67.5" font-family="Avenir Next, Helvetica, Arial, sans-serif" font-size="12.00" fill="#fbf6ec">27.275ns 82.65x</text>
<polygon fill="#8f2e2e" stroke="none" points="549.75,-57 549.75,-85.5 649.5,-85.5 649.5,-57 549.75,-57"/>
<polygon fill="none" stroke="#e4d8c2" points="549.75,-57 549.75,-85.5 649.5,-85.5 649.5,-57 549.75,-57"/>
<text xml:space="preserve" text-anchor="start" x="555.75" y="-67.5" font-family="Avenir Next, Helvetica, Arial, sans-serif" font-size="12.00" fill="#fbf6ec">20.222ns 61.28x</text>
<polygon fill="#fff8e8" stroke="none" points="0,-28.5 0,-57 174.75,-57 174.75,-28.5 0,-28.5"/>
<polygon fill="none" stroke="#e4d8c2" points="0,-28.5 0,-57 174.75,-57 174.75,-28.5 0,-28.5"/>
<text xml:space="preserve" text-anchor="start" x="6" y="-39" font-family="Avenir Next, Helvetica, Arial, sans-serif" font-size="12.00">Docker / riscv64&#45;gnu</text>
<polygon fill="#075a4a" stroke="none" points="174.75,-28.5 174.75,-57 237,-57 237,-28.5 174.75,-28.5"/>
<polygon fill="none" stroke="#e4d8c2" points="174.75,-28.5 174.75,-57 237,-57 237,-28.5 174.75,-28.5"/>
<text xml:space="preserve" text-anchor="start" x="181.5" y="-39" font-family="Avenir Next, Helvetica, Arial, sans-serif" font-size="12.00" fill="#fbf6ec">59.584ns</text>
<polygon fill="#d9874a" stroke="none" points="237,-28.5 237,-57 336.75,-57 336.75,-28.5 237,-28.5"/>
<polygon fill="none" stroke="#e4d8c2" points="237,-28.5 237,-57 336.75,-57 336.75,-28.5 237,-28.5"/>
<text xml:space="preserve" text-anchor="start" x="243" y="-39" font-family="Avenir Next, Helvetica, Arial, sans-serif" font-size="12.00">215.296ns 3.61x</text>
<polygon fill="#8f2e2e" stroke="none" points="336.75,-28.5 336.75,-57 443.25,-57 443.25,-28.5 336.75,-28.5"/>
<polygon fill="none" stroke="#e4d8c2" points="336.75,-28.5 336.75,-57 443.25,-57 443.25,-28.5 336.75,-28.5"/>
<text xml:space="preserve" text-anchor="start" x="346.12" y="-39" font-family="Avenir Next, Helvetica, Arial, sans-serif" font-size="12.00" fill="#fbf6ec">271.262ns 4.55x</text>
<polygon fill="#8f2e2e" stroke="none" points="443.25,-28.5 443.25,-57 549.75,-57 549.75,-28.5 443.25,-28.5"/>
<polygon fill="none" stroke="#e4d8c2" points="443.25,-28.5 443.25,-57 549.75,-57 549.75,-28.5 443.25,-28.5"/>
<text xml:space="preserve" text-anchor="start" x="452.62" y="-39" font-family="Avenir Next, Helvetica, Arial, sans-serif" font-size="12.00" fill="#fbf6ec">271.241ns 4.55x</text>
<polygon fill="#d9874a" stroke="none" points="549.75,-28.5 549.75,-57 649.5,-57 649.5,-28.5 549.75,-28.5"/>
<polygon fill="none" stroke="#e4d8c2" points="549.75,-28.5 549.75,-57 649.5,-57 649.5,-28.5 549.75,-28.5"/>
<text xml:space="preserve" text-anchor="start" x="555.75" y="-39" font-family="Avenir Next, Helvetica, Arial, sans-serif" font-size="12.00">185.151ns 3.11x</text>
<polygon fill="#fff8e8" stroke="none" points="0,0 0,-28.5 174.75,-28.5 174.75,0 0,0"/>
<polygon fill="none" stroke="#e4d8c2" points="0,0 0,-28.5 174.75,-28.5 174.75,0 0,0"/>
<text xml:space="preserve" text-anchor="start" x="6" y="-10.5" font-family="Avenir Next, Helvetica, Arial, sans-serif" font-size="12.00">local macOS / aarch64</text>
<polygon fill="#075a4a" stroke="none" points="174.75,0 174.75,-28.5 237,-28.5 237,0 174.75,0"/>
<polygon fill="none" stroke="#e4d8c2" points="174.75,0 174.75,-28.5 237,-28.5 237,0 174.75,0"/>
<text xml:space="preserve" text-anchor="start" x="184.88" y="-10.5" font-family="Avenir Next, Helvetica, Arial, sans-serif" font-size="12.00" fill="#fbf6ec">0.330ns</text>
<polygon fill="#8f2e2e" stroke="none" points="237,0 237,-28.5 336.75,-28.5 336.75,0 237,0"/>
<polygon fill="none" stroke="#e4d8c2" points="237,0 237,-28.5 336.75,-28.5 336.75,0 237,0"/>
<text xml:space="preserve" text-anchor="start" x="246.38" y="-10.5" font-family="Avenir Next, Helvetica, Arial, sans-serif" font-size="12.00" fill="#fbf6ec">4.622ns 14.01x</text>
<polygon fill="#8f2e2e" stroke="none" points="336.75,0 336.75,-28.5 443.25,-28.5 443.25,0 336.75,0"/>
<polygon fill="none" stroke="#e4d8c2" points="336.75,0 336.75,-28.5 443.25,-28.5 443.25,0 336.75,0"/>
<text xml:space="preserve" text-anchor="start" x="346.12" y="-10.5" font-family="Avenir Next, Helvetica, Arial, sans-serif" font-size="12.00" fill="#fbf6ec">25.740ns 78.00x</text>
<polygon fill="#8f2e2e" stroke="none" points="443.25,0 443.25,-28.5 549.75,-28.5 549.75,0 443.25,0"/>
<polygon fill="none" stroke="#e4d8c2" points="443.25,0 443.25,-28.5 549.75,-28.5 549.75,0 443.25,0"/>
<text xml:space="preserve" text-anchor="start" x="452.62" y="-10.5" font-family="Avenir Next, Helvetica, Arial, sans-serif" font-size="12.00" fill="#fbf6ec">25.683ns 77.83x</text>
<polygon fill="#8f2e2e" stroke="none" points="549.75,0 549.75,-28.5 649.5,-28.5 649.5,0 549.75,0"/>
<polygon fill="none" stroke="#e4d8c2" points="549.75,0 549.75,-28.5 649.5,-28.5 649.5,0 549.75,0"/>
<text xml:space="preserve" text-anchor="start" x="555.75" y="-10.5" font-family="Avenir Next, Helvetica, Arial, sans-serif" font-size="12.00" fill="#fbf6ec">18.422ns 55.82x</text>
</g>
</g>
</svg>
