<?xml version="1.0" encoding="UTF-8"?>
<svg xmlns="http://www.w3.org/2000/svg" width="1360" height="475" viewBox="0 0 1360 475">
<rect width="1360" height="475" fill="#FBF6EC"/>
<g shape-rendering="crispEdges">
<rect x="373.16" y="428" width="6" height="6" fill="#1B1A17"/>
<text x="383.16" y="434" text-anchor="start" font-family="Avenir Next, Helvetica, Arial, sans-serif" font-size="12" fill="#2E231B">clock</text>
<rect x="434.76" y="428" width="6" height="6" fill="#D72D24"/>
<text x="444.76" y="434" text-anchor="start" font-family="Avenir Next, Helvetica, Arial, sans-serif" font-size="12" fill="#2E231B">tach@0.2.0</text>
<rect x="529.96" y="428" width="6" height="6" fill="#5B6472"/>
<text x="539.96" y="434" text-anchor="start" font-family="Avenir Next, Helvetica, Arial, sans-serif" font-size="12" fill="#2E231B">quanta@0.12.6</text>
<rect x="645.32" y="428" width="6" height="6" fill="#8B5E3C"/>
<text x="655.32" y="434" text-anchor="start" font-family="Avenir Next, Helvetica, Arial, sans-serif" font-size="12" fill="#2E231B">minstant@0.1.7</text>
<rect x="767.4" y="428" width="6" height="6" fill="#4F6F6A"/>
<text x="777.4" y="434" text-anchor="start" font-family="Avenir Next, Helvetica, Arial, sans-serif" font-size="12" fill="#2E231B">fastant@0.1.11</text>
<rect x="889.48" y="428" width="6" height="6" fill="#9A8A3A"/>
<text x="899.48" y="434" text-anchor="start" font-family="Avenir Next, Helvetica, Arial, sans-serif" font-size="12" fill="#2E231B">std@1.91-1.95</text>
<text x="680" y="454" text-anchor="middle" font-family="Avenir Next, Helvetica, Arial, sans-serif" font-size="9" fill="#2E231B">All measurements are nanoseconds; squiggle marks compressed upper range.</text>
<rect x="6" y="12" width="94" height="382" fill="#FFF8E8"/>
<rect x="19" y="352" width="8" height="2" fill="#1B1A17"/>
<text x="23" y="348" text-anchor="middle" font-family="Avenir Next, Helvetica, Arial, sans-serif" font-size="7" fill="#2E231B">0.33</text>
<rect x="31" y="352" width="8" height="2" fill="#D72D24"/>
<text x="35" y="338" text-anchor="middle" font-family="Avenir Next, Helvetica, Arial, sans-serif" font-size="7" fill="#2E231B">0.33</text>
<rect x="43" y="345" width="8" height="9" fill="#5B6472"/>
<text x="47" y="321" text-anchor="middle" font-family="Avenir Next, Helvetica, Arial, sans-serif" font-size="7" fill="#2E231B">4.62</text>
<rect x="55" y="303" width="8" height="51" fill="#8B5E3C"/>
<text x="59" y="299" text-anchor="middle" font-family="Avenir Next, Helvetica, Arial, sans-serif" font-size="7" fill="#2E231B">25.7</text>
<rect x="67" y="303" width="8" height="51" fill="#4F6F6A"/>
<text x="71" y="289" text-anchor="middle" font-family="Avenir Next, Helvetica, Arial, sans-serif" font-size="7" fill="#2E231B">25.7</text>
<rect x="79" y="317" width="8" height="37" fill="#9A8A3A"/>
<text x="83" y="313" text-anchor="middle" font-family="Avenir Next, Helvetica, Arial, sans-serif" font-size="7" fill="#2E231B">18.4</text>
<text x="53" y="375" text-anchor="middle" font-family="Avenir Next, Helvetica, Arial, sans-serif" font-size="11" fill="#2E231B">macOS aarch64</text>
<text x="53" y="388" text-anchor="middle" font-family="Avenir Next, Helvetica, Arial, sans-serif" font-size="7" fill="#2E231B">aarch64-apple-darwin</text>
<text x="53" y="401" text-anchor="middle" font-family="Avenir Next, Helvetica, Arial, sans-serif" font-size="11" fill="#2E231B">(cntvct)</text>
<rect x="120" y="12" width="94" height="382" fill="#FFF8E8"/>
<rect x="133" y="324" width="8" height="30" fill="#1B1A17"/>
<text x="137" y="320" text-anchor="middle" font-family="Avenir Next, Helvetica, Arial, sans-serif" font-size="7" fill="#2E231B">15.2</text>
<rect x="145" y="323" width="8" height="31" fill="#D72D24"/>
<text x="149" y="309" text-anchor="middle" font-family="Avenir Next, Helvetica, Arial, sans-serif" font-size="7" fill="#2E231B">15.4</text>
<rect x="157" y="304" width="8" height="50" fill="#5B6472"/>
<text x="161" y="290" text-anchor="middle" font-family="Avenir Next, Helvetica, Arial, sans-serif" font-size="7" fill="#2E231B">25.1</text>
<rect x="169" y="276" width="8" height="78" fill="#8B5E3C"/>
<text x="173" y="272" text-anchor="middle" font-family="Avenir Next, Helvetica, Arial, sans-serif" font-size="7" fill="#2E231B">39.0</text>
<rect x="181" y="310" width="8" height="44" fill="#4F6F6A"/>
<text x="185" y="306" text-anchor="middle" font-family="Avenir Next, Helvetica, Arial, sans-serif" font-size="7" fill="#2E231B">22.1</text>
<rect x="193" y="298" width="8" height="56" fill="#9A8A3A"/>
<text x="197" y="294" text-anchor="middle" font-family="Avenir Next, Helvetica, Arial, sans-serif" font-size="7" fill="#2E231B">28.1</text>
<text x="167" y="375" text-anchor="middle" font-family="Avenir Next, Helvetica, Arial, sans-serif" font-size="11" fill="#2E231B">Docker x86_64</text>
<text x="167" y="388" text-anchor="middle" font-family="Avenir Next, Helvetica, Arial, sans-serif" font-size="7" fill="#2E231B">x86_64-unknown-linux-gnu</text>
<text x="167" y="401" text-anchor="middle" font-family="Avenir Next, Helvetica, Arial, sans-serif" font-size="11" fill="#2E231B">(rdtsc)</text>
<rect x="234" y="12" width="94" height="382" fill="#FFF8E8"/>
<rect x="247" y="302" width="8" height="52" fill="#1B1A17"/>
<text x="251" y="298" text-anchor="middle" font-family="Avenir Next, Helvetica, Arial, sans-serif" font-size="7" fill="#2E231B">25.8</text>
<rect x="259" y="302" width="8" height="52" fill="#D72D24"/>
<text x="263" y="288" text-anchor="middle" font-family="Avenir Next, Helvetica, Arial, sans-serif" font-size="7" fill="#2E231B">25.8</text>
<rect x="271" y="116" width="8" height="238" fill="#5B6472"/>
<path d="M270 191 C272 186 274 196 276 191 S280 196 280 191" stroke="#FFF8E8" stroke-width="4" fill="none" stroke-linecap="round"/>
<path d="M270 191 C272 186 274 196 276 191 S280 196 280 191" stroke="#2E231B" stroke-width="0.8" fill="none" stroke-linecap="round" opacity="0.65"/>
<text x="275" y="112" text-anchor="middle" font-family="Avenir Next, Helvetica, Arial, sans-serif" font-size="7" fill="#2E231B">254</text>
<rect x="283" y="84" width="8" height="270" fill="#8B5E3C"/>
<path d="M282 191 C284 186 286 196 288 191 S292 196 292 191" stroke="#FFF8E8" stroke-width="4" fill="none" stroke-linecap="round"/>
<path d="M282 191 C284 186 286 196 288 191 S292 196 292 191" stroke="#2E231B" stroke-width="0.8" fill="none" stroke-linecap="round" opacity="0.65"/>
<text x="287" y="80" text-anchor="middle" font-family="Avenir Next, Helvetica, Arial, sans-serif" font-size="7" fill="#2E231B">323</text>
<rect x="295" y="84" width="8" height="270" fill="#4F6F6A"/>
<path d="M294 191 C296 186 298 196 300 191 S304 196 304 191" stroke="#FFF8E8" stroke-width="4" fill="none" stroke-linecap="round"/>
<path d="M294 191 C296 186 298 196 300 191 S304 196 304 191" stroke="#2E231B" stroke-width="0.8" fill="none" stroke-linecap="round" opacity="0.65"/>
<text x="299" y="70" text-anchor="middle" font-family="Avenir Next, Helvetica, Arial, sans-serif" font-size="7" fill="#2E231B">324</text>
<rect x="307" y="130" width="8" height="224" fill="#9A8A3A"/>
<path d="M306 191 C308 186 310 196 312 191 S316 196 316 191" stroke="#FFF8E8" stroke-width="4" fill="none" stroke-linecap="round"/>
<path d="M306 191 C308 186 310 196 312 191 S316 196 316 191" stroke="#2E231B" stroke-width="0.8" fill="none" stroke-linecap="round" opacity="0.65"/>
<text x="311" y="126" text-anchor="middle" font-family="Avenir Next, Helvetica, Arial, sans-serif" font-size="7" fill="#2E231B">223</text>
<text x="281" y="375" text-anchor="middle" font-family="Avenir Next, Helvetica, Arial, sans-serif" font-size="11" fill="#2E231B">Docker x86</text>
<text x="281" y="388" text-anchor="middle" font-family="Avenir Next, Helvetica, Arial, sans-serif" font-size="7" fill="#2E231B">i686-unknown-linux-gnu</text>
<text x="281" y="401" text-anchor="middle" font-family="Avenir Next, Helvetica, Arial, sans-serif" font-size="11" fill="#2E231B">(rdtsc)</text>
<rect x="348" y="12" width="94" height="382" fill="#FFF8E8"/>
<rect x="361" y="352" width="8" height="2" fill="#1B1A17"/>
<text x="365" y="348" text-anchor="middle" font-family="Avenir Next, Helvetica, Arial, sans-serif" font-size="7" fill="#2E231B">0.33</text>
<rect x="373" y="352" width="8" height="2" fill="#D72D24"/>
<text x="377" y="338" text-anchor="middle" font-family="Avenir Next, Helvetica, Arial, sans-serif" font-size="7" fill="#2E231B">0.33</text>
<rect x="385" y="345" width="8" height="9" fill="#5B6472"/>
<text x="389" y="321" text-anchor="middle" font-family="Avenir Next, Helvetica, Arial, sans-serif" font-size="7" fill="#2E231B">4.47</text>
<rect x="397" y="300" width="8" height="54" fill="#8B5E3C"/>
<text x="401" y="296" text-anchor="middle" font-family="Avenir Next, Helvetica, Arial, sans-serif" font-size="7" fill="#2E231B">27.2</text>
<rect x="409" y="299" width="8" height="55" fill="#4F6F6A"/>
<text x="413" y="285" text-anchor="middle" font-family="Avenir Next, Helvetica, Arial, sans-serif" font-size="7" fill="#2E231B">27.3</text>
<rect x="421" y="314" width="8" height="40" fill="#9A8A3A"/>
<text x="425" y="310" text-anchor="middle" font-family="Avenir Next, Helvetica, Arial, sans-serif" font-size="7" fill="#2E231B">20.2</text>
<text x="395" y="375" text-anchor="middle" font-family="Avenir Next, Helvetica, Arial, sans-serif" font-size="11" fill="#2E231B">Docker aarch64</text>
<text x="395" y="388" text-anchor="middle" font-family="Avenir Next, Helvetica, Arial, sans-serif" font-size="7" fill="#2E231B">aarch64-unknown-linux-gnu</text>
<text x="395" y="401" text-anchor="middle" font-family="Avenir Next, Helvetica, Arial, sans-serif" font-size="11" fill="#2E231B">(cntvct)</text>
<rect x="462" y="12" width="94" height="382" fill="#FFF8E8"/>
<rect x="475" y="235" width="8" height="119" fill="#1B1A17"/>
<text x="479" y="231" text-anchor="middle" font-family="Avenir Next, Helvetica, Arial, sans-serif" font-size="7" fill="#2E231B">59.6</text>
<rect x="487" y="235" width="8" height="119" fill="#D72D24"/>
<text x="491" y="221" text-anchor="middle" font-family="Avenir Next, Helvetica, Arial, sans-serif" font-size="7" fill="#2E231B">59.6</text>
<rect x="499" y="133" width="8" height="221" fill="#5B6472"/>
<path d="M498 191 C500 186 502 196 504 191 S508 196 508 191" stroke="#FFF8E8" stroke-width="4" fill="none" stroke-linecap="round"/>
<path d="M498 191 C500 186 502 196 504 191 S508 196 508 191" stroke="#2E231B" stroke-width="0.8" fill="none" stroke-linecap="round" opacity="0.65"/>
<text x="503" y="129" text-anchor="middle" font-family="Avenir Next, Helvetica, Arial, sans-serif" font-size="7" fill="#2E231B">215</text>
<rect x="511" y="108" width="8" height="246" fill="#8B5E3C"/>
<path d="M510 191 C512 186 514 196 516 191 S520 196 520 191" stroke="#FFF8E8" stroke-width="4" fill="none" stroke-linecap="round"/>
<path d="M510 191 C512 186 514 196 516 191 S520 196 520 191" stroke="#2E231B" stroke-width="0.8" fill="none" stroke-linecap="round" opacity="0.65"/>
<text x="515" y="104" text-anchor="middle" font-family="Avenir Next, Helvetica, Arial, sans-serif" font-size="7" fill="#2E231B">271</text>
<rect x="523" y="108" width="8" height="246" fill="#4F6F6A"/>
<path d="M522 191 C524 186 526 196 528 191 S532 196 532 191" stroke="#FFF8E8" stroke-width="4" fill="none" stroke-linecap="round"/>
<path d="M522 191 C524 186 526 196 528 191 S532 196 532 191" stroke="#2E231B" stroke-width="0.8" fill="none" stroke-linecap="round" opacity="0.65"/>
<text x="527" y="94" text-anchor="middle" font-family="Avenir Next, Helvetica, Arial, sans-serif" font-size="7" fill="#2E231B">271</text>
<rect x="535" y="147" width="8" height="207" fill="#9A8A3A"/>
<path d="M534 191 C536 186 538 196 540 191 S544 196 544 191" stroke="#FFF8E8" stroke-width="4" fill="none" stroke-linecap="round"/>
<path d="M534 191 C536 186 538 196 540 191 S544 196 544 191" stroke="#2E231B" stroke-width="0.8" fill="none" stroke-linecap="round" opacity="0.65"/>
<text x="539" y="143" text-anchor="middle" font-family="Avenir Next, Helvetica, Arial, sans-serif" font-size="7" fill="#2E231B">185</text>
<text x="509" y="375" text-anchor="middle" font-family="Avenir Next, Helvetica, Arial, sans-serif" font-size="11" fill="#2E231B">Docker riscv64</text>
<text x="509" y="388" text-anchor="middle" font-family="Avenir Next, Helvetica, Arial, sans-serif" font-size="7" fill="#2E231B">riscv64gc-unknown-linux-gnu</text>
<text x="509" y="401" text-anchor="middle" font-family="Avenir Next, Helvetica, Arial, sans-serif" font-size="11" fill="#2E231B">(rdtime)</text>
<rect x="576" y="12" width="94" height="382" fill="#FFF8E8"/>
<rect x="589" y="335" width="8" height="19" fill="#1B1A17"/>
<text x="593" y="331" text-anchor="middle" font-family="Avenir Next, Helvetica, Arial, sans-serif" font-size="7" fill="#2E231B">9.40</text>
<rect x="601" y="335" width="8" height="19" fill="#D72D24"/>
<text x="605" y="321" text-anchor="middle" font-family="Avenir Next, Helvetica, Arial, sans-serif" font-size="7" fill="#2E231B">9.72</text>
<rect x="613" y="326" width="8" height="28" fill="#5B6472"/>
<text x="617" y="302" text-anchor="middle" font-family="Avenir Next, Helvetica, Arial, sans-serif" font-size="7" fill="#2E231B">14.0</text>
<rect x="625" y="334" width="8" height="20" fill="#8B5E3C"/>
<text x="629" y="330" text-anchor="middle" font-family="Avenir Next, Helvetica, Arial, sans-serif" font-size="7" fill="#2E231B">10.2</text>
<rect x="637" y="334" width="8" height="20" fill="#4F6F6A"/>
<text x="641" y="320" text-anchor="middle" font-family="Avenir Next, Helvetica, Arial, sans-serif" font-size="7" fill="#2E231B">10.1</text>
<rect x="649" y="303" width="8" height="51" fill="#9A8A3A"/>
<text x="653" y="299" text-anchor="middle" font-family="Avenir Next, Helvetica, Arial, sans-serif" font-size="7" fill="#2E231B">25.3</text>
<text x="623" y="375" text-anchor="middle" font-family="Avenir Next, Helvetica, Arial, sans-serif" font-size="11" fill="#2E231B">AWS Nitro x86_64</text>
<text x="623" y="388" text-anchor="middle" font-family="Avenir Next, Helvetica, Arial, sans-serif" font-size="11" fill="#2E231B">t3.micro</text>
<text x="623" y="401" text-anchor="middle" font-family="Avenir Next, Helvetica, Arial, sans-serif" font-size="7" fill="#2E231B">x86_64-unknown-linux-musl</text>
<text x="623" y="414" text-anchor="middle" font-family="Avenir Next, Helvetica, Arial, sans-serif" font-size="11" fill="#2E231B">(rdtsc)</text>
<rect x="690" y="12" width="94" height="382" fill="#FFF8E8"/>
<rect x="703" y="319" width="8" height="35" fill="#1B1A17"/>
<text x="707" y="315" text-anchor="middle" font-family="Avenir Next, Helvetica, Arial, sans-serif" font-size="7" fill="#2E231B">17.5</text>
<rect x="715" y="318" width="8" height="36" fill="#D72D24"/>
<text x="719" y="304" text-anchor="middle" font-family="Avenir Next, Helvetica, Arial, sans-serif" font-size="7" fill="#2E231B">17.8</text>
<rect x="727" y="310" width="8" height="44" fill="#5B6472"/>
<text x="731" y="286" text-anchor="middle" font-family="Avenir Next, Helvetica, Arial, sans-serif" font-size="7" fill="#2E231B">22.2</text>
<rect x="739" y="203" width="8" height="151" fill="#8B5E3C"/>
<text x="743" y="199" text-anchor="middle" font-family="Avenir Next, Helvetica, Arial, sans-serif" font-size="7" fill="#2E231B">75.6</text>
<rect x="751" y="318" width="8" height="36" fill="#4F6F6A"/>
<text x="755" y="314" text-anchor="middle" font-family="Avenir Next, Helvetica, Arial, sans-serif" font-size="7" fill="#2E231B">18.2</text>
<rect x="763" y="246" width="8" height="108" fill="#9A8A3A"/>
<text x="767" y="242" text-anchor="middle" font-family="Avenir Next, Helvetica, Arial, sans-serif" font-size="7" fill="#2E231B">53.8</text>
<text x="737" y="375" text-anchor="middle" font-family="Avenir Next, Helvetica, Arial, sans-serif" font-size="11" fill="#2E231B">AWS Lambda x86_64</text>
<text x="737" y="388" text-anchor="middle" font-family="Avenir Next, Helvetica, Arial, sans-serif" font-size="11" fill="#2E231B">provided.al2023</text>
<text x="737" y="401" text-anchor="middle" font-family="Avenir Next, Helvetica, Arial, sans-serif" font-size="7" fill="#2E231B">x86_64-unknown-linux-musl</text>
<text x="737" y="414" text-anchor="middle" font-family="Avenir Next, Helvetica, Arial, sans-serif" font-size="11" fill="#2E231B">(rdtsc)</text>
<rect x="804" y="12" width="94" height="382" fill="#FFF8E8"/>
<rect x="817" y="340" width="8" height="14" fill="#1B1A17"/>
<text x="821" y="336" text-anchor="middle" font-family="Avenir Next, Helvetica, Arial, sans-serif" font-size="7" fill="#2E231B">6.84</text>
<rect x="829" y="340" width="8" height="14" fill="#D72D24"/>
<text x="833" y="326" text-anchor="middle" font-family="Avenir Next, Helvetica, Arial, sans-serif" font-size="7" fill="#2E231B">6.84</text>
<rect x="841" y="340" width="8" height="14" fill="#5B6472"/>
<text x="845" y="336" text-anchor="middle" font-family="Avenir Next, Helvetica, Arial, sans-serif" font-size="7" fill="#2E231B">7.13</text>
<rect x="853" y="340" width="8" height="14" fill="#8B5E3C"/>
<text x="857" y="326" text-anchor="middle" font-family="Avenir Next, Helvetica, Arial, sans-serif" font-size="7" fill="#2E231B">6.84</text>
<rect x="865" y="340" width="8" height="14" fill="#4F6F6A"/>
<text x="869" y="336" text-anchor="middle" font-family="Avenir Next, Helvetica, Arial, sans-serif" font-size="7" fill="#2E231B">6.84</text>
<rect x="877" y="325" width="8" height="29" fill="#9A8A3A"/>
<text x="881" y="321" text-anchor="middle" font-family="Avenir Next, Helvetica, Arial, sans-serif" font-size="7" fill="#2E231B">14.7</text>
<text x="851" y="375" text-anchor="middle" font-family="Avenir Next, Helvetica, Arial, sans-serif" font-size="11" fill="#2E231B">AWS Metal x86_64</text>
<text x="851" y="388" text-anchor="middle" font-family="Avenir Next, Helvetica, Arial, sans-serif" font-size="11" fill="#2E231B">m7i.metal</text>
<text x="851" y="401" text-anchor="middle" font-family="Avenir Next, Helvetica, Arial, sans-serif" font-size="7" fill="#2E231B">x86_64-unknown-linux-musl</text>
<text x="851" y="414" text-anchor="middle" font-family="Avenir Next, Helvetica, Arial, sans-serif" font-size="11" fill="#2E231B">(rdtsc)</text>
<rect x="918" y="12" width="94" height="382" fill="#FFF8E8"/>
<rect x="931" y="334" width="8" height="20" fill="#1B1A17"/>
<text x="935" y="330" text-anchor="middle" font-family="Avenir Next, Helvetica, Arial, sans-serif" font-size="7" fill="#2E231B">10.1</text>
<rect x="943" y="334" width="8" height="20" fill="#D72D24"/>
<text x="947" y="320" text-anchor="middle" font-family="Avenir Next, Helvetica, Arial, sans-serif" font-size="7" fill="#2E231B">10.1</text>
<rect x="955" y="269" width="8" height="85" fill="#5B6472"/>
<text x="959" y="265" text-anchor="middle" font-family="Avenir Next, Helvetica, Arial, sans-serif" font-size="7" fill="#2E231B">42.4</text>
<rect x="967" y="333" width="8" height="21" fill="#8B5E3C"/>
<text x="971" y="329" text-anchor="middle" font-family="Avenir Next, Helvetica, Arial, sans-serif" font-size="7" fill="#2E231B">10.7</text>
<rect x="979" y="333" width="8" height="21" fill="#4F6F6A"/>
<text x="983" y="319" text-anchor="middle" font-family="Avenir Next, Helvetica, Arial, sans-serif" font-size="7" fill="#2E231B">10.7</text>
<rect x="991" y="265" width="8" height="89" fill="#9A8A3A"/>
<text x="995" y="261" text-anchor="middle" font-family="Avenir Next, Helvetica, Arial, sans-serif" font-size="7" fill="#2E231B">44.6</text>
<text x="965" y="375" text-anchor="middle" font-family="Avenir Next, Helvetica, Arial, sans-serif" font-size="11" fill="#2E231B">AWS Nitro x86</text>
<text x="965" y="388" text-anchor="middle" font-family="Avenir Next, Helvetica, Arial, sans-serif" font-size="11" fill="#2E231B">t3.micro</text>
<text x="965" y="401" text-anchor="middle" font-family="Avenir Next, Helvetica, Arial, sans-serif" font-size="7" fill="#2E231B">i686-unknown-linux-musl</text>
<text x="965" y="414" text-anchor="middle" font-family="Avenir Next, Helvetica, Arial, sans-serif" font-size="11" fill="#2E231B">(rdtsc)</text>
<rect x="1032" y="12" width="94" height="382" fill="#FFF8E8"/>
<rect x="1045" y="340" width="8" height="14" fill="#1B1A17"/>
<text x="1049" y="336" text-anchor="middle" font-family="Avenir Next, Helvetica, Arial, sans-serif" font-size="7" fill="#2E231B">6.84</text>
<rect x="1057" y="340" width="8" height="14" fill="#D72D24"/>
<text x="1061" y="326" text-anchor="middle" font-family="Avenir Next, Helvetica, Arial, sans-serif" font-size="7" fill="#2E231B">6.84</text>
<rect x="1069" y="308" width="8" height="46" fill="#5B6472"/>
<text x="1073" y="304" text-anchor="middle" font-family="Avenir Next, Helvetica, Arial, sans-serif" font-size="7" fill="#2E231B">23.1</text>
<rect x="1081" y="340" width="8" height="14" fill="#8B5E3C"/>
<text x="1085" y="336" text-anchor="middle" font-family="Avenir Next, Helvetica, Arial, sans-serif" font-size="7" fill="#2E231B">6.84</text>
<rect x="1093" y="340" width="8" height="14" fill="#4F6F6A"/>
<text x="1097" y="326" text-anchor="middle" font-family="Avenir Next, Helvetica, Arial, sans-serif" font-size="7" fill="#2E231B">6.84</text>
<rect x="1105" y="309" width="8" height="45" fill="#9A8A3A"/>
<text x="1109" y="305" text-anchor="middle" font-family="Avenir Next, Helvetica, Arial, sans-serif" font-size="7" fill="#2E231B">22.7</text>
<text x="1079" y="375" text-anchor="middle" font-family="Avenir Next, Helvetica, Arial, sans-serif" font-size="11" fill="#2E231B">AWS Metal x86</text>
<text x="1079" y="388" text-anchor="middle" font-family="Avenir Next, Helvetica, Arial, sans-serif" font-size="11" fill="#2E231B">m7i.metal</text>
<text x="1079" y="401" text-anchor="middle" font-family="Avenir Next, Helvetica, Arial, sans-serif" font-size="7" fill="#2E231B">i686-unknown-linux-musl</text>
<text x="1079" y="414" text-anchor="middle" font-family="Avenir Next, Helvetica, Arial, sans-serif" font-size="11" fill="#2E231B">(rdtsc)</text>
<rect x="1146" y="12" width="94" height="382" fill="#FFF8E8"/>
<rect x="1159" y="319" width="8" height="35" fill="#1B1A17"/>
<text x="1163" y="315" text-anchor="middle" font-family="Avenir Next, Helvetica, Arial, sans-serif" font-size="7" fill="#2E231B">17.3</text>
<rect x="1171" y="319" width="8" height="35" fill="#D72D24"/>
<text x="1175" y="305" text-anchor="middle" font-family="Avenir Next, Helvetica, Arial, sans-serif" font-size="7" fill="#2E231B">17.3</text>
<rect x="1183" y="310" width="8" height="44" fill="#5B6472"/>
<text x="1187" y="286" text-anchor="middle" font-family="Avenir Next, Helvetica, Arial, sans-serif" font-size="7" fill="#2E231B">22.0</text>
<rect x="1195" y="209" width="8" height="145" fill="#8B5E3C"/>
<text x="1199" y="205" text-anchor="middle" font-family="Avenir Next, Helvetica, Arial, sans-serif" font-size="7" fill="#2E231B">72.3</text>
<rect x="1207" y="206" width="8" height="148" fill="#4F6F6A"/>
<text x="1211" y="192" text-anchor="middle" font-family="Avenir Next, Helvetica, Arial, sans-serif" font-size="7" fill="#2E231B">74.1</text>
<rect x="1219" y="246" width="8" height="108" fill="#9A8A3A"/>
<text x="1223" y="242" text-anchor="middle" font-family="Avenir Next, Helvetica, Arial, sans-serif" font-size="7" fill="#2E231B">54.2</text>
<text x="1193" y="375" text-anchor="middle" font-family="Avenir Next, Helvetica, Arial, sans-serif" font-size="11" fill="#2E231B">AWS Lambda aarch64</text>
<text x="1193" y="388" text-anchor="middle" font-family="Avenir Next, Helvetica, Arial, sans-serif" font-size="11" fill="#2E231B">provided.al2023</text>
<text x="1193" y="401" text-anchor="middle" font-family="Avenir Next, Helvetica, Arial, sans-serif" font-size="7" fill="#2E231B">aarch64-unknown-linux-gnu</text>
<text x="1193" y="414" text-anchor="middle" font-family="Avenir Next, Helvetica, Arial, sans-serif" font-size="11" fill="#2E231B">(cntvct)</text>
<rect x="1260" y="12" width="94" height="382" fill="#FFF8E8"/>
<rect x="1273" y="340" width="8" height="14" fill="#1B1A17"/>
<text x="1277" y="336" text-anchor="middle" font-family="Avenir Next, Helvetica, Arial, sans-serif" font-size="7" fill="#2E231B">6.96</text>
<rect x="1285" y="340" width="8" height="14" fill="#D72D24"/>
<text x="1289" y="326" text-anchor="middle" font-family="Avenir Next, Helvetica, Arial, sans-serif" font-size="7" fill="#2E231B">6.96</text>
<rect x="1297" y="331" width="8" height="23" fill="#5B6472"/>
<text x="1301" y="307" text-anchor="middle" font-family="Avenir Next, Helvetica, Arial, sans-serif" font-size="7" fill="#2E231B">11.7</text>
<rect x="1309" y="287" width="8" height="67" fill="#8B5E3C"/>
<text x="1313" y="283" text-anchor="middle" font-family="Avenir Next, Helvetica, Arial, sans-serif" font-size="7" fill="#2E231B">33.6</text>
<rect x="1321" y="287" width="8" height="67" fill="#4F6F6A"/>
<text x="1325" y="273" text-anchor="middle" font-family="Avenir Next, Helvetica, Arial, sans-serif" font-size="7" fill="#2E231B">33.7</text>
<rect x="1333" y="276" width="8" height="78" fill="#9A8A3A"/>
<text x="1337" y="262" text-anchor="middle" font-family="Avenir Next, Helvetica, Arial, sans-serif" font-size="7" fill="#2E231B">39.2</text>
<text x="1307" y="375" text-anchor="middle" font-family="Avenir Next, Helvetica, Arial, sans-serif" font-size="11" fill="#2E231B">AWS Nitro x86_64</text>
<text x="1307" y="388" text-anchor="middle" font-family="Avenir Next, Helvetica, Arial, sans-serif" font-size="11" fill="#2E231B">Windows c5.large</text>
<text x="1307" y="401" text-anchor="middle" font-family="Avenir Next, Helvetica, Arial, sans-serif" font-size="7" fill="#2E231B">x86_64-pc-windows-msvc</text>
<text x="1307" y="414" text-anchor="middle" font-family="Avenir Next, Helvetica, Arial, sans-serif" font-size="11" fill="#2E231B">(rdtsc)</text>
</g>
</svg>
