<?xml version="1.0" encoding="UTF-8" standalone="no"?>
<!DOCTYPE svg PUBLIC "-//W3C//DTD SVG 1.1//EN"
 "http://www.w3.org/Graphics/SVG/1.1/DTD/svg11.dtd">
<!-- Generated by graphviz version 14.1.5 (20260411.2331)
 -->
<!-- Title: benchmark Pages: 1 -->
<svg width="1137pt" height="196pt"
 viewBox="0.00 0.00 1137.00 196.00" xmlns="http://www.w3.org/2000/svg" xmlns:xlink="http://www.w3.org/1999/xlink">
<g id="graph0" class="graph" transform="scale(1 1) rotate(0) translate(5.76 190.51)">
<title>benchmark</title>
<polygon fill="#fbf6ec" stroke="none" points="-5.76,5.76 -5.76,-190.51 1130.76,-190.51 1130.76,5.76 -5.76,5.76"/>
<!-- benchmark -->
<g id="node1" class="node">
<title>benchmark</title>
<polygon fill="#075a4a" stroke="none" points="52.66,-163 52.66,-175.75 62.66,-175.75 62.66,-163 52.66,-163"/>
<text xml:space="preserve" text-anchor="start" x="109.32" y="-166.75" font-family="Avenir Next, Helvetica, Arial, sans-serif" font-size="9.00">tach</text>
<polygon fill="#d48a22" stroke="none" points="269.56,-163 269.56,-175.75 279.56,-175.75 279.56,-163 269.56,-163"/>
<text xml:space="preserve" text-anchor="start" x="326.22" y="-166.75" font-family="Avenir Next, Helvetica, Arial, sans-serif" font-size="9.00">quanta</text>
<polygon fill="#8f2e2e" stroke="none" points="497.71,-163 497.71,-175.75 507.71,-175.75 507.71,-163 497.71,-163"/>
<text xml:space="preserve" text-anchor="start" x="554.38" y="-166.75" font-family="Avenir Next, Helvetica, Arial, sans-serif" font-size="9.00">minstant</text>
<polygon fill="#4b6f78" stroke="none" points="732.61,-163 732.61,-175.75 742.61,-175.75 742.61,-163 732.61,-163"/>
<text xml:space="preserve" text-anchor="start" x="789.27" y="-166.75" font-family="Avenir Next, Helvetica, Arial, sans-serif" font-size="9.00">fastant</text>
<polygon fill="#b95032" stroke="none" points="959.26,-163 959.26,-175.75 969.26,-175.75 969.26,-163 959.26,-163"/>
<text xml:space="preserve" text-anchor="start" x="1015.92" y="-166.75" font-family="Avenir Next, Helvetica, Arial, sans-serif" font-size="9.00">std</text>
<polygon fill="#fff8e8" stroke="none" points="0,-116.5 0,-148 125,-148 125,-116.5 0,-116.5"/>
<text xml:space="preserve" text-anchor="start" x="36.25" y="-136" font-family="Avenir Next, Helvetica, Arial, sans-serif" font-size="9.00">AWS t3 KVM</text>
<text xml:space="preserve" text-anchor="start" x="36.25" y="-123.25" font-family="Avenir Next, Helvetica, Arial, sans-serif" font-size="9.00">x86_64&#45;musl</text>
<polygon fill="#fff8e8" stroke="none" points="0,-110.5 0,-116.5 125,-116.5 125,-110.5 0,-110.5"/>
<polygon fill="#fff8e8" stroke="none" points="0,-16.5 0,-110.5 25,-110.5 25,-16.5 0,-16.5"/>
<polygon fill="#075a4a" stroke="none" points="6.5,-19.5 6.5,-51.5 18.5,-51.5 18.5,-19.5 6.5,-19.5"/>
<polygon fill="#fff8e8" stroke="none" points="25,-16.5 25,-110.5 50,-110.5 50,-16.5 25,-16.5"/>
<polygon fill="#d48a22" stroke="none" points="31.5,-19.5 31.5,-67.5 43.5,-67.5 43.5,-19.5 31.5,-19.5"/>
<polygon fill="#fff8e8" stroke="none" points="50,-16.5 50,-110.5 75,-110.5 75,-16.5 50,-16.5"/>
<polygon fill="#8f2e2e" stroke="none" points="56.5,-19.5 56.5,-53.5 68.5,-53.5 68.5,-19.5 56.5,-19.5"/>
<polygon fill="#fff8e8" stroke="none" points="75,-16.5 75,-110.5 100,-110.5 100,-16.5 75,-16.5"/>
<polygon fill="#4b6f78" stroke="none" points="81.5,-19.5 81.5,-53.5 93.5,-53.5 93.5,-19.5 81.5,-19.5"/>
<polygon fill="#fff8e8" stroke="none" points="100,-16.5 100,-110.5 125,-110.5 125,-16.5 100,-16.5"/>
<polygon fill="#b95032" stroke="none" points="106.5,-19.5 106.5,-107.5 118.5,-107.5 118.5,-19.5 106.5,-19.5"/>
<polygon fill="#fff8e8" stroke="none" points="0,0 0,-16.5 25,-16.5 25,0 0,0"/>
<text xml:space="preserve" text-anchor="start" x="6.12" y="-6" font-family="Avenir Next, Helvetica, Arial, sans-serif" font-size="7.00">8.71</text>
<polygon fill="#fff8e8" stroke="none" points="25,0 25,-16.5 50,-16.5 50,0 25,0"/>
<text xml:space="preserve" text-anchor="start" x="31.12" y="-6" font-family="Avenir Next, Helvetica, Arial, sans-serif" font-size="7.00">13.3</text>
<polygon fill="#fff8e8" stroke="none" points="50,0 50,-16.5 75,-16.5 75,0 50,0"/>
<text xml:space="preserve" text-anchor="start" x="56.12" y="-6" font-family="Avenir Next, Helvetica, Arial, sans-serif" font-size="7.00">9.36</text>
<polygon fill="#fff8e8" stroke="none" points="75,0 75,-16.5 100,-16.5 100,0 75,0"/>
<text xml:space="preserve" text-anchor="start" x="81.12" y="-6" font-family="Avenir Next, Helvetica, Arial, sans-serif" font-size="7.00">9.36</text>
<polygon fill="#fff8e8" stroke="none" points="100,0 100,-16.5 125,-16.5 125,0 100,0"/>
<text xml:space="preserve" text-anchor="start" x="106.12" y="-6" font-family="Avenir Next, Helvetica, Arial, sans-serif" font-size="7.00">24.2</text>
<polygon fill="#fff8e8" stroke="none" points="125,-116.5 125,-148 250,-148 250,-116.5 125,-116.5"/>
<text xml:space="preserve" text-anchor="start" x="155.62" y="-136" font-family="Avenir Next, Helvetica, Arial, sans-serif" font-size="9.00">AWS m7i metal</text>
<text xml:space="preserve" text-anchor="start" x="161.25" y="-123.25" font-family="Avenir Next, Helvetica, Arial, sans-serif" font-size="9.00">x86_64&#45;musl</text>
<polygon fill="#fff8e8" stroke="none" points="125,-110.5 125,-116.5 250,-116.5 250,-110.5 125,-110.5"/>
<polygon fill="#fff8e8" stroke="none" points="125,-16.5 125,-110.5 150,-110.5 150,-16.5 125,-16.5"/>
<polygon fill="#075a4a" stroke="none" points="131.5,-19.5 131.5,-60.5 143.5,-60.5 143.5,-19.5 131.5,-19.5"/>
<polygon fill="#fff8e8" stroke="none" points="150,-16.5 150,-110.5 175,-110.5 175,-16.5 150,-16.5"/>
<polygon fill="#d48a22" stroke="none" points="156.5,-19.5 156.5,-62.5 168.5,-62.5 168.5,-19.5 156.5,-19.5"/>
<polygon fill="#fff8e8" stroke="none" points="175,-16.5 175,-110.5 200,-110.5 200,-16.5 175,-16.5"/>
<polygon fill="#8f2e2e" stroke="none" points="181.5,-19.5 181.5,-60.5 193.5,-60.5 193.5,-19.5 181.5,-19.5"/>
<polygon fill="#fff8e8" stroke="none" points="200,-16.5 200,-110.5 225,-110.5 225,-16.5 200,-16.5"/>
<polygon fill="#4b6f78" stroke="none" points="206.5,-19.5 206.5,-60.5 218.5,-60.5 218.5,-19.5 206.5,-19.5"/>
<polygon fill="#fff8e8" stroke="none" points="225,-16.5 225,-110.5 250,-110.5 250,-16.5 225,-16.5"/>
<polygon fill="#b95032" stroke="none" points="231.5,-19.5 231.5,-107.5 243.5,-107.5 243.5,-19.5 231.5,-19.5"/>
<polygon fill="#fff8e8" stroke="none" points="125,0 125,-16.5 150,-16.5 150,0 125,0"/>
<text xml:space="preserve" text-anchor="start" x="131.12" y="-6" font-family="Avenir Next, Helvetica, Arial, sans-serif" font-size="7.00">6.84</text>
<polygon fill="#fff8e8" stroke="none" points="150,0 150,-16.5 175,-16.5 175,0 150,0"/>
<text xml:space="preserve" text-anchor="start" x="156.12" y="-6" font-family="Avenir Next, Helvetica, Arial, sans-serif" font-size="7.00">7.13</text>
<polygon fill="#fff8e8" stroke="none" points="175,0 175,-16.5 200,-16.5 200,0 175,0"/>
<text xml:space="preserve" text-anchor="start" x="181.12" y="-6" font-family="Avenir Next, Helvetica, Arial, sans-serif" font-size="7.00">6.84</text>
<polygon fill="#fff8e8" stroke="none" points="200,0 200,-16.5 225,-16.5 225,0 200,0"/>
<text xml:space="preserve" text-anchor="start" x="206.12" y="-6" font-family="Avenir Next, Helvetica, Arial, sans-serif" font-size="7.00">6.84</text>
<polygon fill="#fff8e8" stroke="none" points="225,0 225,-16.5 250,-16.5 250,0 225,0"/>
<text xml:space="preserve" text-anchor="start" x="231.12" y="-6" font-family="Avenir Next, Helvetica, Arial, sans-serif" font-size="7.00">14.7</text>
<polygon fill="#fff8e8" stroke="none" points="250,-116.5 250,-148 375,-148 375,-116.5 250,-116.5"/>
<text xml:space="preserve" text-anchor="start" x="286.25" y="-136" font-family="Avenir Next, Helvetica, Arial, sans-serif" font-size="9.00">AWS t3 KVM</text>
<text xml:space="preserve" text-anchor="start" x="293.75" y="-123.25" font-family="Avenir Next, Helvetica, Arial, sans-serif" font-size="9.00">x86&#45;musl</text>
<polygon fill="#fff8e8" stroke="none" points="250,-110.5 250,-116.5 375,-116.5 375,-110.5 250,-110.5"/>
<polygon fill="#fff8e8" stroke="none" points="250,-16.5 250,-110.5 275,-110.5 275,-16.5 250,-16.5"/>
<polygon fill="#075a4a" stroke="none" points="256.5,-19.5 256.5,-36.5 268.5,-36.5 268.5,-19.5 256.5,-19.5"/>
<polygon fill="#fff8e8" stroke="none" points="275,-16.5 275,-110.5 300,-110.5 300,-16.5 275,-16.5"/>
<polygon fill="#d48a22" stroke="none" points="281.5,-19.5 281.5,-107.5 293.5,-107.5 293.5,-19.5 281.5,-19.5"/>
<polygon fill="#fff8e8" stroke="none" points="300,-16.5 300,-110.5 325,-110.5 325,-16.5 300,-16.5"/>
<polygon fill="#8f2e2e" stroke="none" points="306.5,-19.5 306.5,-37.5 318.5,-37.5 318.5,-19.5 306.5,-19.5"/>
<polygon fill="#fff8e8" stroke="none" points="325,-16.5 325,-110.5 350,-110.5 350,-16.5 325,-16.5"/>
<polygon fill="#4b6f78" stroke="none" points="331.5,-19.5 331.5,-37.5 343.5,-37.5 343.5,-19.5 331.5,-19.5"/>
<polygon fill="#fff8e8" stroke="none" points="350,-16.5 350,-110.5 375,-110.5 375,-16.5 350,-16.5"/>
<polygon fill="#b95032" stroke="none" points="356.5,-19.5 356.5,-103.5 368.5,-103.5 368.5,-19.5 356.5,-19.5"/>
<polygon fill="#fff8e8" stroke="none" points="250,0 250,-16.5 275,-16.5 275,0 250,0"/>
<text xml:space="preserve" text-anchor="start" x="256.12" y="-6" font-family="Avenir Next, Helvetica, Arial, sans-serif" font-size="7.00">13.6</text>
<polygon fill="#fff8e8" stroke="none" points="275,0 275,-16.5 300,-16.5 300,0 275,0"/>
<text xml:space="preserve" text-anchor="start" x="281.12" y="-6" font-family="Avenir Next, Helvetica, Arial, sans-serif" font-size="7.00">69.3</text>
<polygon fill="#fff8e8" stroke="none" points="300,0 300,-16.5 325,-16.5 325,0 300,0"/>
<text xml:space="preserve" text-anchor="start" x="306.12" y="-6" font-family="Avenir Next, Helvetica, Arial, sans-serif" font-size="7.00">14.4</text>
<polygon fill="#fff8e8" stroke="none" points="325,0 325,-16.5 350,-16.5 350,0 325,0"/>
<text xml:space="preserve" text-anchor="start" x="331.12" y="-6" font-family="Avenir Next, Helvetica, Arial, sans-serif" font-size="7.00">14.2</text>
<polygon fill="#fff8e8" stroke="none" points="350,0 350,-16.5 375,-16.5 375,0 350,0"/>
<text xml:space="preserve" text-anchor="start" x="356.12" y="-6" font-family="Avenir Next, Helvetica, Arial, sans-serif" font-size="7.00">66.5</text>
<polygon fill="#fff8e8" stroke="none" points="375,-116.5 375,-148 500,-148 500,-116.5 375,-116.5"/>
<text xml:space="preserve" text-anchor="start" x="405.62" y="-136" font-family="Avenir Next, Helvetica, Arial, sans-serif" font-size="9.00">AWS m7i metal</text>
<text xml:space="preserve" text-anchor="start" x="418.75" y="-123.25" font-family="Avenir Next, Helvetica, Arial, sans-serif" font-size="9.00">x86&#45;musl</text>
<polygon fill="#fff8e8" stroke="none" points="375,-110.5 375,-116.5 500,-116.5 500,-110.5 375,-110.5"/>
<polygon fill="#fff8e8" stroke="none" points="375,-16.5 375,-110.5 400,-110.5 400,-16.5 375,-16.5"/>
<polygon fill="#075a4a" stroke="none" points="381.5,-19.5 381.5,-45.5 393.5,-45.5 393.5,-19.5 381.5,-19.5"/>
<polygon fill="#fff8e8" stroke="none" points="400,-16.5 400,-110.5 425,-110.5 425,-16.5 400,-16.5"/>
<polygon fill="#d48a22" stroke="none" points="406.5,-19.5 406.5,-107.5 418.5,-107.5 418.5,-19.5 406.5,-19.5"/>
<polygon fill="#fff8e8" stroke="none" points="425,-16.5 425,-110.5 450,-110.5 450,-16.5 425,-16.5"/>
<polygon fill="#8f2e2e" stroke="none" points="431.5,-19.5 431.5,-45.5 443.5,-45.5 443.5,-19.5 431.5,-19.5"/>
<polygon fill="#fff8e8" stroke="none" points="450,-16.5 450,-110.5 475,-110.5 475,-16.5 450,-16.5"/>
<polygon fill="#4b6f78" stroke="none" points="456.5,-19.5 456.5,-45.5 468.5,-45.5 468.5,-19.5 456.5,-19.5"/>
<polygon fill="#fff8e8" stroke="none" points="475,-16.5 475,-110.5 500,-110.5 500,-16.5 475,-16.5"/>
<polygon fill="#b95032" stroke="none" points="481.5,-19.5 481.5,-106.5 493.5,-106.5 493.5,-19.5 481.5,-19.5"/>
<polygon fill="#fff8e8" stroke="none" points="375,0 375,-16.5 400,-16.5 400,0 375,0"/>
<text xml:space="preserve" text-anchor="start" x="381.12" y="-6" font-family="Avenir Next, Helvetica, Arial, sans-serif" font-size="7.00">6.84</text>
<polygon fill="#fff8e8" stroke="none" points="400,0 400,-16.5 425,-16.5 425,0 400,0"/>
<text xml:space="preserve" text-anchor="start" x="406.12" y="-6" font-family="Avenir Next, Helvetica, Arial, sans-serif" font-size="7.00">23.1</text>
<polygon fill="#fff8e8" stroke="none" points="425,0 425,-16.5 450,-16.5 450,0 425,0"/>
<text xml:space="preserve" text-anchor="start" x="431.12" y="-6" font-family="Avenir Next, Helvetica, Arial, sans-serif" font-size="7.00">6.84</text>
<polygon fill="#fff8e8" stroke="none" points="450,0 450,-16.5 475,-16.5 475,0 450,0"/>
<text xml:space="preserve" text-anchor="start" x="456.12" y="-6" font-family="Avenir Next, Helvetica, Arial, sans-serif" font-size="7.00">6.84</text>
<polygon fill="#fff8e8" stroke="none" points="475,0 475,-16.5 500,-16.5 500,0 475,0"/>
<text xml:space="preserve" text-anchor="start" x="481.12" y="-6" font-family="Avenir Next, Helvetica, Arial, sans-serif" font-size="7.00">22.7</text>
<polygon fill="#fff8e8" stroke="none" points="500,-116.5 500,-148 625,-148 625,-116.5 500,-116.5"/>
<text xml:space="preserve" text-anchor="start" x="547.88" y="-136" font-family="Avenir Next, Helvetica, Arial, sans-serif" font-size="9.00">Docker</text>
<text xml:space="preserve" text-anchor="start" x="537.75" y="-123.25" font-family="Avenir Next, Helvetica, Arial, sans-serif" font-size="9.00">x86_64&#45;gnu</text>
<polygon fill="#fff8e8" stroke="none" points="500,-110.5 500,-116.5 625,-116.5 625,-110.5 500,-110.5"/>
<polygon fill="#fff8e8" stroke="none" points="500,-16.5 500,-110.5 525,-110.5 525,-16.5 500,-16.5"/>
<polygon fill="#075a4a" stroke="none" points="506.5,-19.5 506.5,-54.5 518.5,-54.5 518.5,-19.5 506.5,-19.5"/>
<polygon fill="#fff8e8" stroke="none" points="525,-16.5 525,-110.5 550,-110.5 550,-16.5 525,-16.5"/>
<polygon fill="#d48a22" stroke="none" points="531.5,-19.5 531.5,-76.5 543.5,-76.5 543.5,-19.5 531.5,-19.5"/>
<polygon fill="#fff8e8" stroke="none" points="550,-16.5 550,-110.5 575,-110.5 575,-16.5 550,-16.5"/>
<polygon fill="#8f2e2e" stroke="none" points="556.5,-19.5 556.5,-107.5 568.5,-107.5 568.5,-19.5 556.5,-19.5"/>
<polygon fill="#fff8e8" stroke="none" points="575,-16.5 575,-110.5 600,-110.5 600,-16.5 575,-16.5"/>
<polygon fill="#4b6f78" stroke="none" points="581.5,-19.5 581.5,-69.5 593.5,-69.5 593.5,-19.5 581.5,-19.5"/>
<polygon fill="#fff8e8" stroke="none" points="600,-16.5 600,-110.5 625,-110.5 625,-16.5 600,-16.5"/>
<polygon fill="#b95032" stroke="none" points="606.5,-19.5 606.5,-82.5 618.5,-82.5 618.5,-19.5 606.5,-19.5"/>
<polygon fill="#fff8e8" stroke="none" points="500,0 500,-16.5 525,-16.5 525,0 500,0"/>
<text xml:space="preserve" text-anchor="start" x="506.12" y="-6" font-family="Avenir Next, Helvetica, Arial, sans-serif" font-size="7.00">15.4</text>
<polygon fill="#fff8e8" stroke="none" points="525,0 525,-16.5 550,-16.5 550,0 525,0"/>
<text xml:space="preserve" text-anchor="start" x="531.12" y="-6" font-family="Avenir Next, Helvetica, Arial, sans-serif" font-size="7.00">25.1</text>
<polygon fill="#fff8e8" stroke="none" points="550,0 550,-16.5 575,-16.5 575,0 550,0"/>
<text xml:space="preserve" text-anchor="start" x="556.12" y="-6" font-family="Avenir Next, Helvetica, Arial, sans-serif" font-size="7.00">39.0</text>
<polygon fill="#fff8e8" stroke="none" points="575,0 575,-16.5 600,-16.5 600,0 575,0"/>
<text xml:space="preserve" text-anchor="start" x="581.12" y="-6" font-family="Avenir Next, Helvetica, Arial, sans-serif" font-size="7.00">22.1</text>
<polygon fill="#fff8e8" stroke="none" points="600,0 600,-16.5 625,-16.5 625,0 600,0"/>
<text xml:space="preserve" text-anchor="start" x="606.12" y="-6" font-family="Avenir Next, Helvetica, Arial, sans-serif" font-size="7.00">28.1</text>
<polygon fill="#fff8e8" stroke="none" points="625,-116.5 625,-148 750,-148 750,-116.5 625,-116.5"/>
<text xml:space="preserve" text-anchor="start" x="672.88" y="-136" font-family="Avenir Next, Helvetica, Arial, sans-serif" font-size="9.00">Docker</text>
<text xml:space="preserve" text-anchor="start" x="670.25" y="-123.25" font-family="Avenir Next, Helvetica, Arial, sans-serif" font-size="9.00">x86&#45;gnu</text>
<polygon fill="#fff8e8" stroke="none" points="625,-110.5 625,-116.5 750,-116.5 750,-110.5 625,-110.5"/>
<polygon fill="#fff8e8" stroke="none" points="625,-16.5 625,-110.5 650,-110.5 650,-16.5 625,-16.5"/>
<polygon fill="#075a4a" stroke="none" points="631.5,-19.5 631.5,-26.5 643.5,-26.5 643.5,-19.5 631.5,-19.5"/>
<polygon fill="#fff8e8" stroke="none" points="650,-16.5 650,-110.5 675,-110.5 675,-16.5 650,-16.5"/>
<polygon fill="#d48a22" stroke="none" points="656.5,-19.5 656.5,-88.5 668.5,-88.5 668.5,-19.5 656.5,-19.5"/>
<polygon fill="#fff8e8" stroke="none" points="675,-16.5 675,-110.5 700,-110.5 700,-16.5 675,-16.5"/>
<polygon fill="#8f2e2e" stroke="none" points="681.5,-19.5 681.5,-107.5 693.5,-107.5 693.5,-19.5 681.5,-19.5"/>
<polygon fill="#fff8e8" stroke="none" points="700,-16.5 700,-110.5 725,-110.5 725,-16.5 700,-16.5"/>
<polygon fill="#4b6f78" stroke="none" points="706.5,-19.5 706.5,-107.5 718.5,-107.5 718.5,-19.5 706.5,-19.5"/>
<polygon fill="#fff8e8" stroke="none" points="725,-16.5 725,-110.5 750,-110.5 750,-16.5 725,-16.5"/>
<polygon fill="#b95032" stroke="none" points="731.5,-19.5 731.5,-79.5 743.5,-79.5 743.5,-19.5 731.5,-19.5"/>
<polygon fill="#fff8e8" stroke="none" points="625,0 625,-16.5 650,-16.5 650,0 625,0"/>
<text xml:space="preserve" text-anchor="start" x="631.12" y="-6" font-family="Avenir Next, Helvetica, Arial, sans-serif" font-size="7.00">25.8</text>
<polygon fill="#fff8e8" stroke="none" points="650,0 650,-16.5 675,-16.5 675,0 650,0"/>
<text xml:space="preserve" text-anchor="start" x="654.25" y="-6" font-family="Avenir Next, Helvetica, Arial, sans-serif" font-size="7.00">253.7</text>
<polygon fill="#fff8e8" stroke="none" points="675,0 675,-16.5 700,-16.5 700,0 675,0"/>
<text xml:space="preserve" text-anchor="start" x="679.25" y="-6" font-family="Avenir Next, Helvetica, Arial, sans-serif" font-size="7.00">323.4</text>
<polygon fill="#fff8e8" stroke="none" points="700,0 700,-16.5 725,-16.5 725,0 700,0"/>
<text xml:space="preserve" text-anchor="start" x="704.25" y="-6" font-family="Avenir Next, Helvetica, Arial, sans-serif" font-size="7.00">324.3</text>
<polygon fill="#fff8e8" stroke="none" points="725,0 725,-16.5 750,-16.5 750,0 725,0"/>
<text xml:space="preserve" text-anchor="start" x="729.25" y="-6" font-family="Avenir Next, Helvetica, Arial, sans-serif" font-size="7.00">222.6</text>
<polygon fill="#fff8e8" stroke="none" points="750,-116.5 750,-148 875,-148 875,-116.5 750,-116.5"/>
<text xml:space="preserve" text-anchor="start" x="797.88" y="-136" font-family="Avenir Next, Helvetica, Arial, sans-serif" font-size="9.00">Docker</text>
<text xml:space="preserve" text-anchor="start" x="786.62" y="-123.25" font-family="Avenir Next, Helvetica, Arial, sans-serif" font-size="9.00">aarch64&#45;gnu</text>
<polygon fill="#fff8e8" stroke="none" points="750,-110.5 750,-116.5 875,-116.5 875,-110.5 750,-110.5"/>
<polygon fill="#fff8e8" stroke="none" points="750,-16.5 750,-110.5 775,-110.5 775,-16.5 750,-16.5"/>
<polygon fill="#075a4a" stroke="none" points="756.5,-19.5 756.5,-21.5 768.5,-21.5 768.5,-19.5 756.5,-19.5"/>
<polygon fill="#fff8e8" stroke="none" points="775,-16.5 775,-110.5 800,-110.5 800,-16.5 775,-16.5"/>
<polygon fill="#d48a22" stroke="none" points="781.5,-19.5 781.5,-33.5 793.5,-33.5 793.5,-19.5 781.5,-19.5"/>
<polygon fill="#fff8e8" stroke="none" points="800,-16.5 800,-110.5 825,-110.5 825,-16.5 800,-16.5"/>
<polygon fill="#8f2e2e" stroke="none" points="806.5,-19.5 806.5,-107.5 818.5,-107.5 818.5,-19.5 806.5,-19.5"/>
<polygon fill="#fff8e8" stroke="none" points="825,-16.5 825,-110.5 850,-110.5 850,-16.5 825,-16.5"/>
<polygon fill="#4b6f78" stroke="none" points="831.5,-19.5 831.5,-107.5 843.5,-107.5 843.5,-19.5 831.5,-19.5"/>
<polygon fill="#fff8e8" stroke="none" points="850,-16.5 850,-110.5 875,-110.5 875,-16.5 850,-16.5"/>
<polygon fill="#b95032" stroke="none" points="856.5,-19.5 856.5,-84.5 868.5,-84.5 868.5,-19.5 856.5,-19.5"/>
<polygon fill="#fff8e8" stroke="none" points="750,0 750,-16.5 775,-16.5 775,0 750,0"/>
<text xml:space="preserve" text-anchor="start" x="756.12" y="-6" font-family="Avenir Next, Helvetica, Arial, sans-serif" font-size="7.00">0.33</text>
<polygon fill="#fff8e8" stroke="none" points="775,0 775,-16.5 800,-16.5 800,0 775,0"/>
<text xml:space="preserve" text-anchor="start" x="781.12" y="-6" font-family="Avenir Next, Helvetica, Arial, sans-serif" font-size="7.00">4.47</text>
<polygon fill="#fff8e8" stroke="none" points="800,0 800,-16.5 825,-16.5 825,0 800,0"/>
<text xml:space="preserve" text-anchor="start" x="806.12" y="-6" font-family="Avenir Next, Helvetica, Arial, sans-serif" font-size="7.00">27.2</text>
<polygon fill="#fff8e8" stroke="none" points="825,0 825,-16.5 850,-16.5 850,0 825,0"/>
<text xml:space="preserve" text-anchor="start" x="831.12" y="-6" font-family="Avenir Next, Helvetica, Arial, sans-serif" font-size="7.00">27.3</text>
<polygon fill="#fff8e8" stroke="none" points="850,0 850,-16.5 875,-16.5 875,0 850,0"/>
<text xml:space="preserve" text-anchor="start" x="856.12" y="-6" font-family="Avenir Next, Helvetica, Arial, sans-serif" font-size="7.00">20.2</text>
<polygon fill="#fff8e8" stroke="none" points="875,-116.5 875,-148 1000,-148 1000,-116.5 875,-116.5"/>
<text xml:space="preserve" text-anchor="start" x="922.88" y="-136" font-family="Avenir Next, Helvetica, Arial, sans-serif" font-size="9.00">Docker</text>
<text xml:space="preserve" text-anchor="start" x="913.5" y="-123.25" font-family="Avenir Next, Helvetica, Arial, sans-serif" font-size="9.00">riscv64&#45;gnu</text>
<polygon fill="#fff8e8" stroke="none" points="875,-110.5 875,-116.5 1000,-116.5 1000,-110.5 875,-110.5"/>
<polygon fill="#fff8e8" stroke="none" points="875,-16.5 875,-110.5 900,-110.5 900,-16.5 875,-16.5"/>
<polygon fill="#075a4a" stroke="none" points="881.5,-19.5 881.5,-38.5 893.5,-38.5 893.5,-19.5 881.5,-19.5"/>
<polygon fill="#fff8e8" stroke="none" points="900,-16.5 900,-110.5 925,-110.5 925,-16.5 900,-16.5"/>
<polygon fill="#d48a22" stroke="none" points="906.5,-19.5 906.5,-89.5 918.5,-89.5 918.5,-19.5 906.5,-19.5"/>
<polygon fill="#fff8e8" stroke="none" points="925,-16.5 925,-110.5 950,-110.5 950,-16.5 925,-16.5"/>
<polygon fill="#8f2e2e" stroke="none" points="931.5,-19.5 931.5,-107.5 943.5,-107.5 943.5,-19.5 931.5,-19.5"/>
<polygon fill="#fff8e8" stroke="none" points="950,-16.5 950,-110.5 975,-110.5 975,-16.5 950,-16.5"/>
<polygon fill="#4b6f78" stroke="none" points="956.5,-19.5 956.5,-107.5 968.5,-107.5 968.5,-19.5 956.5,-19.5"/>
<polygon fill="#fff8e8" stroke="none" points="975,-16.5 975,-110.5 1000,-110.5 1000,-16.5 975,-16.5"/>
<polygon fill="#b95032" stroke="none" points="981.5,-19.5 981.5,-79.5 993.5,-79.5 993.5,-19.5 981.5,-19.5"/>
<polygon fill="#fff8e8" stroke="none" points="875,0 875,-16.5 900,-16.5 900,0 875,0"/>
<text xml:space="preserve" text-anchor="start" x="881.12" y="-6" font-family="Avenir Next, Helvetica, Arial, sans-serif" font-size="7.00">59.6</text>
<polygon fill="#fff8e8" stroke="none" points="900,0 900,-16.5 925,-16.5 925,0 900,0"/>
<text xml:space="preserve" text-anchor="start" x="904.25" y="-6" font-family="Avenir Next, Helvetica, Arial, sans-serif" font-size="7.00">215.3</text>
<polygon fill="#fff8e8" stroke="none" points="925,0 925,-16.5 950,-16.5 950,0 925,0"/>
<text xml:space="preserve" text-anchor="start" x="929.25" y="-6" font-family="Avenir Next, Helvetica, Arial, sans-serif" font-size="7.00">271.3</text>
<polygon fill="#fff8e8" stroke="none" points="950,0 950,-16.5 975,-16.5 975,0 950,0"/>
<text xml:space="preserve" text-anchor="start" x="954.25" y="-6" font-family="Avenir Next, Helvetica, Arial, sans-serif" font-size="7.00">271.2</text>
<polygon fill="#fff8e8" stroke="none" points="975,0 975,-16.5 1000,-16.5 1000,0 975,0"/>
<text xml:space="preserve" text-anchor="start" x="979.25" y="-6" font-family="Avenir Next, Helvetica, Arial, sans-serif" font-size="7.00">185.2</text>
<polygon fill="#fff8e8" stroke="none" points="1000,-116.5 1000,-148 1125,-148 1125,-116.5 1000,-116.5"/>
<text xml:space="preserve" text-anchor="start" x="1037" y="-136" font-family="Avenir Next, Helvetica, Arial, sans-serif" font-size="9.00">local macOS</text>
<text xml:space="preserve" text-anchor="start" x="1046.38" y="-123.25" font-family="Avenir Next, Helvetica, Arial, sans-serif" font-size="9.00">aarch64</text>
<polygon fill="#fff8e8" stroke="none" points="1000,-110.5 1000,-116.5 1125,-116.5 1125,-110.5 1000,-110.5"/>
<polygon fill="#fff8e8" stroke="none" points="1000,-16.5 1000,-110.5 1025,-110.5 1025,-16.5 1000,-16.5"/>
<polygon fill="#075a4a" stroke="none" points="1006.5,-19.5 1006.5,-21.5 1018.5,-21.5 1018.5,-19.5 1006.5,-19.5"/>
<polygon fill="#fff8e8" stroke="none" points="1025,-16.5 1025,-110.5 1050,-110.5 1050,-16.5 1025,-16.5"/>
<polygon fill="#d48a22" stroke="none" points="1031.5,-19.5 1031.5,-35.5 1043.5,-35.5 1043.5,-19.5 1031.5,-19.5"/>
<polygon fill="#fff8e8" stroke="none" points="1050,-16.5 1050,-110.5 1075,-110.5 1075,-16.5 1050,-16.5"/>
<polygon fill="#8f2e2e" stroke="none" points="1056.5,-19.5 1056.5,-107.5 1068.5,-107.5 1068.5,-19.5 1056.5,-19.5"/>
<polygon fill="#fff8e8" stroke="none" points="1075,-16.5 1075,-110.5 1100,-110.5 1100,-16.5 1075,-16.5"/>
<polygon fill="#4b6f78" stroke="none" points="1081.5,-19.5 1081.5,-107.5 1093.5,-107.5 1093.5,-19.5 1081.5,-19.5"/>
<polygon fill="#fff8e8" stroke="none" points="1100,-16.5 1100,-110.5 1125,-110.5 1125,-16.5 1100,-16.5"/>
<polygon fill="#b95032" stroke="none" points="1106.5,-19.5 1106.5,-82.5 1118.5,-82.5 1118.5,-19.5 1106.5,-19.5"/>
<polygon fill="#fff8e8" stroke="none" points="1000,0 1000,-16.5 1025,-16.5 1025,0 1000,0"/>
<text xml:space="preserve" text-anchor="start" x="1006.12" y="-6" font-family="Avenir Next, Helvetica, Arial, sans-serif" font-size="7.00">0.33</text>
<polygon fill="#fff8e8" stroke="none" points="1025,0 1025,-16.5 1050,-16.5 1050,0 1025,0"/>
<text xml:space="preserve" text-anchor="start" x="1031.12" y="-6" font-family="Avenir Next, Helvetica, Arial, sans-serif" font-size="7.00">4.62</text>
<polygon fill="#fff8e8" stroke="none" points="1050,0 1050,-16.5 1075,-16.5 1075,0 1050,0"/>
<text xml:space="preserve" text-anchor="start" x="1056.12" y="-6" font-family="Avenir Next, Helvetica, Arial, sans-serif" font-size="7.00">25.7</text>
<polygon fill="#fff8e8" stroke="none" points="1075,0 1075,-16.5 1100,-16.5 1100,0 1075,0"/>
<text xml:space="preserve" text-anchor="start" x="1081.12" y="-6" font-family="Avenir Next, Helvetica, Arial, sans-serif" font-size="7.00">25.7</text>
<polygon fill="#fff8e8" stroke="none" points="1100,0 1100,-16.5 1125,-16.5 1125,0 1100,0"/>
<text xml:space="preserve" text-anchor="start" x="1106.12" y="-6" font-family="Avenir Next, Helvetica, Arial, sans-serif" font-size="7.00">18.4</text>
</g>
</g>
</svg>
