<?xml version="1.0" encoding="UTF-8"?>
<svg xmlns="http://www.w3.org/2000/svg" width="676" height="365" viewBox="0 0 676 365">
<rect width="676" height="365" fill="#FBF6EC"/>
<g shape-rendering="crispEdges">
<rect x="61.96" y="307" width="6" height="6" fill="#D72D24"/>
<text x="71.96" y="313" text-anchor="start" font-family="Avenir Next, Helvetica, Arial, sans-serif" font-size="12" fill="#2E231B">tach@0.2.0</text>
<rect x="157.16" y="307" width="6" height="6" fill="#5B6472"/>
<text x="167.16" y="313" text-anchor="start" font-family="Avenir Next, Helvetica, Arial, sans-serif" font-size="12" fill="#2E231B">quanta@0.12.6</text>
<rect x="272.52" y="307" width="6" height="6" fill="#8B5E3C"/>
<text x="282.52" y="313" text-anchor="start" font-family="Avenir Next, Helvetica, Arial, sans-serif" font-size="12" fill="#2E231B">minstant@0.1.7</text>
<rect x="394.6" y="307" width="6" height="6" fill="#4F6F6A"/>
<text x="404.6" y="313" text-anchor="start" font-family="Avenir Next, Helvetica, Arial, sans-serif" font-size="12" fill="#2E231B">fastant@0.1.11</text>
<rect x="516.68" y="307" width="6" height="6" fill="#9A8A3A"/>
<text x="526.68" y="313" text-anchor="start" font-family="Avenir Next, Helvetica, Arial, sans-serif" font-size="12" fill="#2E231B">std@1.91-1.95</text>
<text x="338" y="333" text-anchor="middle" font-family="Avenir Next, Helvetica, Arial, sans-serif" font-size="9" fill="#2E231B">All measurements are nanoseconds.</text>
<rect x="6" y="12" width="94" height="270" fill="#FBF6EC"/>
<rect x="25" y="254" width="8" height="2" fill="#D72D24"/>
<text x="29" y="250" text-anchor="middle" font-family="Avenir Next, Helvetica, Arial, sans-serif" font-size="7" fill="#2E231B">0.33</text>
<rect x="37" y="243" width="8" height="13" fill="#5B6472"/>
<text x="41" y="239" text-anchor="middle" font-family="Avenir Next, Helvetica, Arial, sans-serif" font-size="7" fill="#2E231B">4.62</text>
<rect x="49" y="182" width="8" height="74" fill="#8B5E3C"/>
<text x="53" y="178" text-anchor="middle" font-family="Avenir Next, Helvetica, Arial, sans-serif" font-size="7" fill="#2E231B">25.7</text>
<rect x="61" y="182" width="8" height="74" fill="#4F6F6A"/>
<text x="65" y="168" text-anchor="middle" font-family="Avenir Next, Helvetica, Arial, sans-serif" font-size="7" fill="#2E231B">25.7</text>
<rect x="73" y="203" width="8" height="53" fill="#9A8A3A"/>
<text x="77" y="199" text-anchor="middle" font-family="Avenir Next, Helvetica, Arial, sans-serif" font-size="7" fill="#2E231B">18.4</text>
<text x="53" y="280" text-anchor="middle" font-family="Avenir Next, Helvetica, Arial, sans-serif" font-size="11" fill="#2E231B">macOS aarch64</text>
<rect x="120" y="12" width="94" height="270" fill="#FBF6EC"/>
<rect x="139" y="212" width="8" height="44" fill="#D72D24"/>
<text x="143" y="208" text-anchor="middle" font-family="Avenir Next, Helvetica, Arial, sans-serif" font-size="7" fill="#2E231B">15.4</text>
<rect x="151" y="184" width="8" height="72" fill="#5B6472"/>
<text x="155" y="180" text-anchor="middle" font-family="Avenir Next, Helvetica, Arial, sans-serif" font-size="7" fill="#2E231B">25.1</text>
<rect x="163" y="144" width="8" height="112" fill="#8B5E3C"/>
<text x="167" y="140" text-anchor="middle" font-family="Avenir Next, Helvetica, Arial, sans-serif" font-size="7" fill="#2E231B">39.0</text>
<rect x="175" y="193" width="8" height="63" fill="#4F6F6A"/>
<text x="179" y="189" text-anchor="middle" font-family="Avenir Next, Helvetica, Arial, sans-serif" font-size="7" fill="#2E231B">22.1</text>
<rect x="187" y="175" width="8" height="81" fill="#9A8A3A"/>
<text x="191" y="171" text-anchor="middle" font-family="Avenir Next, Helvetica, Arial, sans-serif" font-size="7" fill="#2E231B">28.1</text>
<text x="167" y="280" text-anchor="middle" font-family="Avenir Next, Helvetica, Arial, sans-serif" font-size="11" fill="#2E231B">Docker x86_64</text>
<rect x="234" y="12" width="94" height="270" fill="#FBF6EC"/>
<rect x="253" y="228" width="8" height="28" fill="#D72D24"/>
<text x="257" y="224" text-anchor="middle" font-family="Avenir Next, Helvetica, Arial, sans-serif" font-size="7" fill="#2E231B">9.72</text>
<rect x="265" y="216" width="8" height="40" fill="#5B6472"/>
<text x="269" y="212" text-anchor="middle" font-family="Avenir Next, Helvetica, Arial, sans-serif" font-size="7" fill="#2E231B">14.0</text>
<rect x="277" y="227" width="8" height="29" fill="#8B5E3C"/>
<text x="281" y="223" text-anchor="middle" font-family="Avenir Next, Helvetica, Arial, sans-serif" font-size="7" fill="#2E231B">10.2</text>
<rect x="289" y="227" width="8" height="29" fill="#4F6F6A"/>
<text x="293" y="213" text-anchor="middle" font-family="Avenir Next, Helvetica, Arial, sans-serif" font-size="7" fill="#2E231B">10.1</text>
<rect x="301" y="183" width="8" height="73" fill="#9A8A3A"/>
<text x="305" y="179" text-anchor="middle" font-family="Avenir Next, Helvetica, Arial, sans-serif" font-size="7" fill="#2E231B">25.3</text>
<text x="281" y="280" text-anchor="middle" font-family="Avenir Next, Helvetica, Arial, sans-serif" font-size="11" fill="#2E231B">AWS Nitro x86_64</text>
<text x="281" y="293" text-anchor="middle" font-family="Avenir Next, Helvetica, Arial, sans-serif" font-size="11" fill="#2E231B">t3.micro</text>
<rect x="348" y="12" width="94" height="270" fill="#FBF6EC"/>
<rect x="367" y="205" width="8" height="51" fill="#D72D24"/>
<text x="371" y="201" text-anchor="middle" font-family="Avenir Next, Helvetica, Arial, sans-serif" font-size="7" fill="#2E231B">17.8</text>
<rect x="379" y="192" width="8" height="64" fill="#5B6472"/>
<text x="383" y="188" text-anchor="middle" font-family="Avenir Next, Helvetica, Arial, sans-serif" font-size="7" fill="#2E231B">22.2</text>
<rect x="391" y="39" width="8" height="217" fill="#8B5E3C"/>
<text x="395" y="35" text-anchor="middle" font-family="Avenir Next, Helvetica, Arial, sans-serif" font-size="7" fill="#2E231B">75.6</text>
<rect x="403" y="204" width="8" height="52" fill="#4F6F6A"/>
<text x="407" y="200" text-anchor="middle" font-family="Avenir Next, Helvetica, Arial, sans-serif" font-size="7" fill="#2E231B">18.2</text>
<rect x="415" y="101" width="8" height="155" fill="#9A8A3A"/>
<text x="419" y="97" text-anchor="middle" font-family="Avenir Next, Helvetica, Arial, sans-serif" font-size="7" fill="#2E231B">53.8</text>
<text x="395" y="280" text-anchor="middle" font-family="Avenir Next, Helvetica, Arial, sans-serif" font-size="11" fill="#2E231B">AWS Lambda x86_64</text>
<text x="395" y="293" text-anchor="middle" font-family="Avenir Next, Helvetica, Arial, sans-serif" font-size="11" fill="#2E231B">provided.al2023</text>
<rect x="462" y="12" width="94" height="270" fill="#FBF6EC"/>
<rect x="481" y="236" width="8" height="20" fill="#D72D24"/>
<text x="485" y="232" text-anchor="middle" font-family="Avenir Next, Helvetica, Arial, sans-serif" font-size="7" fill="#2E231B">6.84</text>
<rect x="493" y="236" width="8" height="20" fill="#5B6472"/>
<text x="497" y="222" text-anchor="middle" font-family="Avenir Next, Helvetica, Arial, sans-serif" font-size="7" fill="#2E231B">7.13</text>
<rect x="505" y="236" width="8" height="20" fill="#8B5E3C"/>
<text x="509" y="232" text-anchor="middle" font-family="Avenir Next, Helvetica, Arial, sans-serif" font-size="7" fill="#2E231B">6.84</text>
<rect x="517" y="236" width="8" height="20" fill="#4F6F6A"/>
<text x="521" y="222" text-anchor="middle" font-family="Avenir Next, Helvetica, Arial, sans-serif" font-size="7" fill="#2E231B">6.84</text>
<rect x="529" y="214" width="8" height="42" fill="#9A8A3A"/>
<text x="533" y="210" text-anchor="middle" font-family="Avenir Next, Helvetica, Arial, sans-serif" font-size="7" fill="#2E231B">14.7</text>
<text x="509" y="280" text-anchor="middle" font-family="Avenir Next, Helvetica, Arial, sans-serif" font-size="11" fill="#2E231B">AWS Metal x86_64</text>
<text x="509" y="293" text-anchor="middle" font-family="Avenir Next, Helvetica, Arial, sans-serif" font-size="11" fill="#2E231B">m7i.metal</text>
<rect x="576" y="12" width="94" height="270" fill="#FBF6EC"/>
<rect x="595" y="236" width="8" height="20" fill="#D72D24"/>
<text x="599" y="232" text-anchor="middle" font-family="Avenir Next, Helvetica, Arial, sans-serif" font-size="7" fill="#2E231B">6.96</text>
<rect x="607" y="222" width="8" height="34" fill="#5B6472"/>
<text x="611" y="218" text-anchor="middle" font-family="Avenir Next, Helvetica, Arial, sans-serif" font-size="7" fill="#2E231B">11.7</text>
<rect x="619" y="159" width="8" height="97" fill="#8B5E3C"/>
<text x="623" y="155" text-anchor="middle" font-family="Avenir Next, Helvetica, Arial, sans-serif" font-size="7" fill="#2E231B">33.6</text>
<rect x="631" y="159" width="8" height="97" fill="#4F6F6A"/>
<text x="635" y="145" text-anchor="middle" font-family="Avenir Next, Helvetica, Arial, sans-serif" font-size="7" fill="#2E231B">33.7</text>
<rect x="643" y="143" width="8" height="113" fill="#9A8A3A"/>
<text x="647" y="129" text-anchor="middle" font-family="Avenir Next, Helvetica, Arial, sans-serif" font-size="7" fill="#2E231B">39.2</text>
<text x="623" y="280" text-anchor="middle" font-family="Avenir Next, Helvetica, Arial, sans-serif" font-size="11" fill="#2E231B">AWS Nitro x86_64</text>
<text x="623" y="293" text-anchor="middle" font-family="Avenir Next, Helvetica, Arial, sans-serif" font-size="11" fill="#2E231B">Windows c5.large</text>
</g>
</svg>
