<?xml version="1.0" encoding="UTF-8" standalone="no"?>
<!DOCTYPE svg PUBLIC "-//W3C//DTD SVG 1.1//EN"
 "http://www.w3.org/Graphics/SVG/1.1/DTD/svg11.dtd">
<!-- Generated by graphviz version 14.1.5 (20260411.2331)
 -->
<!-- Title: benchmark Pages: 1 -->
<svg width="1194pt" height="164pt"
 viewBox="0.00 0.00 1194.00 164.00" xmlns="http://www.w3.org/2000/svg" xmlns:xlink="http://www.w3.org/1999/xlink">
<g id="graph0" class="graph" transform="scale(1 1) rotate(0) translate(5.76 158.51)">
<title>benchmark</title>
<polygon fill="#fbf6ec" stroke="none" points="-5.76,5.76 -5.76,-158.51 1187.76,-158.51 1187.76,5.76 -5.76,5.76"/>
<!-- benchmark -->
<g id="node1" class="node">
<title>benchmark</title>
<polygon fill="#fff8e8" stroke="none" points="866.75,-129.5 866.75,-152.75 1182,-152.75 1182,-129.5 866.75,-129.5"/>
<polygon fill="#075a4a" stroke="none" points="878.09,-135.5 878.09,-146.75 886.09,-146.75 886.09,-135.5 878.09,-135.5"/>
<text xml:space="preserve" text-anchor="start" x="893.42" y="-138.5" font-family="Avenir Next, Helvetica, Arial, sans-serif" font-size="8.00">tach</text>
<polygon fill="#d48a22" stroke="none" points="934.44,-135.5 934.44,-146.75 942.44,-146.75 942.44,-135.5 934.44,-135.5"/>
<text xml:space="preserve" text-anchor="start" x="949.78" y="-138.5" font-family="Avenir Next, Helvetica, Arial, sans-serif" font-size="8.00">quanta</text>
<polygon fill="#8f2e2e" stroke="none" points="1001.29,-135.5 1001.29,-146.75 1009.29,-146.75 1009.29,-135.5 1001.29,-135.5"/>
<text xml:space="preserve" text-anchor="start" x="1016.62" y="-138.5" font-family="Avenir Next, Helvetica, Arial, sans-serif" font-size="8.00">minstant</text>
<polygon fill="#4b6f78" stroke="none" points="1073.39,-135.5 1073.39,-146.75 1081.39,-146.75 1081.39,-135.5 1073.39,-135.5"/>
<text xml:space="preserve" text-anchor="start" x="1088.73" y="-138.5" font-family="Avenir Next, Helvetica, Arial, sans-serif" font-size="8.00">fastant</text>
<polygon fill="#b95032" stroke="none" points="1138.74,-135.5 1138.74,-146.75 1146.74,-146.75 1146.74,-135.5 1138.74,-135.5"/>
<text xml:space="preserve" text-anchor="start" x="1154.08" y="-138.5" font-family="Avenir Next, Helvetica, Arial, sans-serif" font-size="8.00">std</text>
<polygon fill="#fff8e8" stroke="none" points="0,-22.5 0,-119.5 22,-119.5 22,-22.5 0,-22.5"/>
<text xml:space="preserve" text-anchor="start" x="4.62" y="-56.75" font-family="Avenir Next, Helvetica, Arial, sans-serif" font-size="7.00">8.71</text>
<polygon fill="#075a4a" stroke="none" points="5,-22.5 5,-53.5 17,-53.5 17,-22.5 5,-22.5"/>
<polygon fill="#fff8e8" stroke="none" points="22,-22.5 22,-119.5 44,-119.5 44,-22.5 22,-22.5"/>
<text xml:space="preserve" text-anchor="start" x="26.62" y="-72.75" font-family="Avenir Next, Helvetica, Arial, sans-serif" font-size="7.00">13.3</text>
<polygon fill="#d48a22" stroke="none" points="27,-22.5 27,-69.5 39,-69.5 39,-22.5 27,-22.5"/>
<polygon fill="#fff8e8" stroke="none" points="44,-22.5 44,-119.5 66,-119.5 66,-22.5 44,-22.5"/>
<text xml:space="preserve" text-anchor="start" x="48.62" y="-58.75" font-family="Avenir Next, Helvetica, Arial, sans-serif" font-size="7.00">9.36</text>
<polygon fill="#8f2e2e" stroke="none" points="49,-22.5 49,-55.5 61,-55.5 61,-22.5 49,-22.5"/>
<polygon fill="#fff8e8" stroke="none" points="66,-22.5 66,-119.5 88,-119.5 88,-22.5 66,-22.5"/>
<text xml:space="preserve" text-anchor="start" x="70.62" y="-58.75" font-family="Avenir Next, Helvetica, Arial, sans-serif" font-size="7.00">9.36</text>
<polygon fill="#4b6f78" stroke="none" points="71,-22.5 71,-55.5 83,-55.5 83,-22.5 71,-22.5"/>
<polygon fill="#fff8e8" stroke="none" points="88,-22.5 88,-119.5 110,-119.5 110,-22.5 88,-22.5"/>
<text xml:space="preserve" text-anchor="start" x="92.62" y="-111.75" font-family="Avenir Next, Helvetica, Arial, sans-serif" font-size="7.00">24.2</text>
<polygon fill="#b95032" stroke="none" points="93,-22.5 93,-108.5 105,-108.5 105,-22.5 93,-22.5"/>
<polygon fill="#fff8e8" stroke="none" points="0,0 0,-22.5 110,-22.5 110,0 0,0"/>
<text xml:space="preserve" text-anchor="start" x="32.12" y="-14.25" font-family="Avenir Next, Helvetica, Arial, sans-serif" font-size="8.00">AWS t3 KVM</text>
<text xml:space="preserve" text-anchor="start" x="32.5" y="-3" font-family="Avenir Next, Helvetica, Arial, sans-serif" font-size="8.00">x86_64&#45;musl</text>
<polygon fill="#fff8e8" stroke="none" points="134,-22.5 134,-119.5 156,-119.5 156,-22.5 134,-22.5"/>
<text xml:space="preserve" text-anchor="start" x="138.62" y="-65.75" font-family="Avenir Next, Helvetica, Arial, sans-serif" font-size="7.00">6.84</text>
<polygon fill="#075a4a" stroke="none" points="139,-22.5 139,-62.5 151,-62.5 151,-22.5 139,-22.5"/>
<polygon fill="#fff8e8" stroke="none" points="156,-22.5 156,-119.5 178,-119.5 178,-22.5 156,-22.5"/>
<text xml:space="preserve" text-anchor="start" x="160.62" y="-67.75" font-family="Avenir Next, Helvetica, Arial, sans-serif" font-size="7.00">7.13</text>
<polygon fill="#d48a22" stroke="none" points="161,-22.5 161,-64.5 173,-64.5 173,-22.5 161,-22.5"/>
<polygon fill="#fff8e8" stroke="none" points="178,-22.5 178,-119.5 200,-119.5 200,-22.5 178,-22.5"/>
<text xml:space="preserve" text-anchor="start" x="182.62" y="-65.75" font-family="Avenir Next, Helvetica, Arial, sans-serif" font-size="7.00">6.84</text>
<polygon fill="#8f2e2e" stroke="none" points="183,-22.5 183,-62.5 195,-62.5 195,-22.5 183,-22.5"/>
<polygon fill="#fff8e8" stroke="none" points="200,-22.5 200,-119.5 222,-119.5 222,-22.5 200,-22.5"/>
<text xml:space="preserve" text-anchor="start" x="204.62" y="-65.75" font-family="Avenir Next, Helvetica, Arial, sans-serif" font-size="7.00">6.84</text>
<polygon fill="#4b6f78" stroke="none" points="205,-22.5 205,-62.5 217,-62.5 217,-22.5 205,-22.5"/>
<polygon fill="#fff8e8" stroke="none" points="222,-22.5 222,-119.5 244,-119.5 244,-22.5 222,-22.5"/>
<text xml:space="preserve" text-anchor="start" x="226.62" y="-111.75" font-family="Avenir Next, Helvetica, Arial, sans-serif" font-size="7.00">14.7</text>
<polygon fill="#b95032" stroke="none" points="227,-22.5 227,-108.5 239,-108.5 239,-22.5 227,-22.5"/>
<polygon fill="#fff8e8" stroke="none" points="134,0 134,-22.5 244,-22.5 244,0 134,0"/>
<text xml:space="preserve" text-anchor="start" x="161.25" y="-14.25" font-family="Avenir Next, Helvetica, Arial, sans-serif" font-size="8.00">AWS m7i metal</text>
<text xml:space="preserve" text-anchor="start" x="166.5" y="-3" font-family="Avenir Next, Helvetica, Arial, sans-serif" font-size="8.00">x86_64&#45;musl</text>
<polygon fill="#fff8e8" stroke="none" points="268,-22.5 268,-119.5 290,-119.5 290,-22.5 268,-22.5"/>
<text xml:space="preserve" text-anchor="start" x="272.62" y="-42.75" font-family="Avenir Next, Helvetica, Arial, sans-serif" font-size="7.00">13.6</text>
<polygon fill="#075a4a" stroke="none" points="273,-22.5 273,-39.5 285,-39.5 285,-22.5 273,-22.5"/>
<polygon fill="#fff8e8" stroke="none" points="290,-22.5 290,-119.5 312,-119.5 312,-22.5 290,-22.5"/>
<text xml:space="preserve" text-anchor="start" x="294.62" y="-111.75" font-family="Avenir Next, Helvetica, Arial, sans-serif" font-size="7.00">69.3</text>
<polygon fill="#d48a22" stroke="none" points="295,-22.5 295,-108.5 307,-108.5 307,-22.5 295,-22.5"/>
<polygon fill="#fff8e8" stroke="none" points="312,-22.5 312,-119.5 334,-119.5 334,-22.5 312,-22.5"/>
<text xml:space="preserve" text-anchor="start" x="316.62" y="-43.75" font-family="Avenir Next, Helvetica, Arial, sans-serif" font-size="7.00">14.4</text>
<polygon fill="#8f2e2e" stroke="none" points="317,-22.5 317,-40.5 329,-40.5 329,-22.5 317,-22.5"/>
<polygon fill="#fff8e8" stroke="none" points="334,-22.5 334,-119.5 356,-119.5 356,-22.5 334,-22.5"/>
<text xml:space="preserve" text-anchor="start" x="338.62" y="-43.75" font-family="Avenir Next, Helvetica, Arial, sans-serif" font-size="7.00">14.2</text>
<polygon fill="#4b6f78" stroke="none" points="339,-22.5 339,-40.5 351,-40.5 351,-22.5 339,-22.5"/>
<polygon fill="#fff8e8" stroke="none" points="356,-22.5 356,-119.5 378,-119.5 378,-22.5 356,-22.5"/>
<text xml:space="preserve" text-anchor="start" x="360.62" y="-107.75" font-family="Avenir Next, Helvetica, Arial, sans-serif" font-size="7.00">66.5</text>
<polygon fill="#b95032" stroke="none" points="361,-22.5 361,-104.5 373,-104.5 373,-22.5 361,-22.5"/>
<polygon fill="#fff8e8" stroke="none" points="268,0 268,-22.5 378,-22.5 378,0 268,0"/>
<text xml:space="preserve" text-anchor="start" x="300.12" y="-14.25" font-family="Avenir Next, Helvetica, Arial, sans-serif" font-size="8.00">AWS t3 KVM</text>
<text xml:space="preserve" text-anchor="start" x="306.88" y="-3" font-family="Avenir Next, Helvetica, Arial, sans-serif" font-size="8.00">x86&#45;musl</text>
<polygon fill="#fff8e8" stroke="none" points="402,-22.5 402,-119.5 424,-119.5 424,-22.5 402,-22.5"/>
<text xml:space="preserve" text-anchor="start" x="406.62" y="-51.75" font-family="Avenir Next, Helvetica, Arial, sans-serif" font-size="7.00">6.84</text>
<polygon fill="#075a4a" stroke="none" points="407,-22.5 407,-48.5 419,-48.5 419,-22.5 407,-22.5"/>
<polygon fill="#fff8e8" stroke="none" points="424,-22.5 424,-119.5 446,-119.5 446,-22.5 424,-22.5"/>
<text xml:space="preserve" text-anchor="start" x="428.62" y="-111.75" font-family="Avenir Next, Helvetica, Arial, sans-serif" font-size="7.00">23.1</text>
<polygon fill="#d48a22" stroke="none" points="429,-22.5 429,-108.5 441,-108.5 441,-22.5 429,-22.5"/>
<polygon fill="#fff8e8" stroke="none" points="446,-22.5 446,-119.5 468,-119.5 468,-22.5 446,-22.5"/>
<text xml:space="preserve" text-anchor="start" x="450.62" y="-51.75" font-family="Avenir Next, Helvetica, Arial, sans-serif" font-size="7.00">6.84</text>
<polygon fill="#8f2e2e" stroke="none" points="451,-22.5 451,-48.5 463,-48.5 463,-22.5 451,-22.5"/>
<polygon fill="#fff8e8" stroke="none" points="468,-22.5 468,-119.5 490,-119.5 490,-22.5 468,-22.5"/>
<text xml:space="preserve" text-anchor="start" x="472.62" y="-51.75" font-family="Avenir Next, Helvetica, Arial, sans-serif" font-size="7.00">6.84</text>
<polygon fill="#4b6f78" stroke="none" points="473,-22.5 473,-48.5 485,-48.5 485,-22.5 473,-22.5"/>
<polygon fill="#fff8e8" stroke="none" points="490,-22.5 490,-119.5 512,-119.5 512,-22.5 490,-22.5"/>
<text xml:space="preserve" text-anchor="start" x="494.62" y="-110.75" font-family="Avenir Next, Helvetica, Arial, sans-serif" font-size="7.00">22.7</text>
<polygon fill="#b95032" stroke="none" points="495,-22.5 495,-107.5 507,-107.5 507,-22.5 495,-22.5"/>
<polygon fill="#fff8e8" stroke="none" points="402,0 402,-22.5 512,-22.5 512,0 402,0"/>
<text xml:space="preserve" text-anchor="start" x="429.25" y="-14.25" font-family="Avenir Next, Helvetica, Arial, sans-serif" font-size="8.00">AWS m7i metal</text>
<text xml:space="preserve" text-anchor="start" x="440.88" y="-3" font-family="Avenir Next, Helvetica, Arial, sans-serif" font-size="8.00">x86&#45;musl</text>
<polygon fill="#fff8e8" stroke="none" points="536,-22.5 536,-119.5 558,-119.5 558,-22.5 536,-22.5"/>
<text xml:space="preserve" text-anchor="start" x="540.62" y="-59.75" font-family="Avenir Next, Helvetica, Arial, sans-serif" font-size="7.00">15.4</text>
<polygon fill="#075a4a" stroke="none" points="541,-22.5 541,-56.5 553,-56.5 553,-22.5 541,-22.5"/>
<polygon fill="#fff8e8" stroke="none" points="558,-22.5 558,-119.5 580,-119.5 580,-22.5 558,-22.5"/>
<text xml:space="preserve" text-anchor="start" x="562.62" y="-80.75" font-family="Avenir Next, Helvetica, Arial, sans-serif" font-size="7.00">25.1</text>
<polygon fill="#d48a22" stroke="none" points="563,-22.5 563,-77.5 575,-77.5 575,-22.5 563,-22.5"/>
<polygon fill="#fff8e8" stroke="none" points="580,-22.5 580,-119.5 602,-119.5 602,-22.5 580,-22.5"/>
<text xml:space="preserve" text-anchor="start" x="584.62" y="-111.75" font-family="Avenir Next, Helvetica, Arial, sans-serif" font-size="7.00">39.0</text>
<polygon fill="#8f2e2e" stroke="none" points="585,-22.5 585,-108.5 597,-108.5 597,-22.5 585,-22.5"/>
<polygon fill="#fff8e8" stroke="none" points="602,-22.5 602,-119.5 624,-119.5 624,-22.5 602,-22.5"/>
<text xml:space="preserve" text-anchor="start" x="606.62" y="-74.75" font-family="Avenir Next, Helvetica, Arial, sans-serif" font-size="7.00">22.1</text>
<polygon fill="#4b6f78" stroke="none" points="607,-22.5 607,-71.5 619,-71.5 619,-22.5 607,-22.5"/>
<polygon fill="#fff8e8" stroke="none" points="624,-22.5 624,-119.5 646,-119.5 646,-22.5 624,-22.5"/>
<text xml:space="preserve" text-anchor="start" x="628.62" y="-87.75" font-family="Avenir Next, Helvetica, Arial, sans-serif" font-size="7.00">28.1</text>
<polygon fill="#b95032" stroke="none" points="629,-22.5 629,-84.5 641,-84.5 641,-22.5 629,-22.5"/>
<polygon fill="#fff8e8" stroke="none" points="536,0 536,-22.5 646,-22.5 646,0 536,0"/>
<text xml:space="preserve" text-anchor="start" x="577.88" y="-14.25" font-family="Avenir Next, Helvetica, Arial, sans-serif" font-size="8.00">Docker</text>
<text xml:space="preserve" text-anchor="start" x="570" y="-3" font-family="Avenir Next, Helvetica, Arial, sans-serif" font-size="8.00">x86_64&#45;gnu</text>
<polygon fill="#fff8e8" stroke="none" points="670,-22.5 670,-119.5 692,-119.5 692,-22.5 670,-22.5"/>
<text xml:space="preserve" text-anchor="start" x="674.62" y="-32.75" font-family="Avenir Next, Helvetica, Arial, sans-serif" font-size="7.00">25.8</text>
<polygon fill="#075a4a" stroke="none" points="675,-22.5 675,-29.5 687,-29.5 687,-22.5 675,-22.5"/>
<polygon fill="#fff8e8" stroke="none" points="692,-22.5 692,-119.5 714,-119.5 714,-22.5 692,-22.5"/>
<text xml:space="preserve" text-anchor="start" x="694.75" y="-92.75" font-family="Avenir Next, Helvetica, Arial, sans-serif" font-size="7.00">253.7</text>
<polygon fill="#d48a22" stroke="none" points="697,-22.5 697,-89.5 709,-89.5 709,-22.5 697,-22.5"/>
<polygon fill="#fff8e8" stroke="none" points="714,-22.5 714,-119.5 736,-119.5 736,-22.5 714,-22.5"/>
<text xml:space="preserve" text-anchor="start" x="716.75" y="-111.75" font-family="Avenir Next, Helvetica, Arial, sans-serif" font-size="7.00">323.4</text>
<polygon fill="#8f2e2e" stroke="none" points="719,-22.5 719,-108.5 731,-108.5 731,-22.5 719,-22.5"/>
<polygon fill="#fff8e8" stroke="none" points="736,-22.5 736,-119.5 758,-119.5 758,-22.5 736,-22.5"/>
<text xml:space="preserve" text-anchor="start" x="738.75" y="-111.75" font-family="Avenir Next, Helvetica, Arial, sans-serif" font-size="7.00">324.3</text>
<polygon fill="#4b6f78" stroke="none" points="741,-22.5 741,-108.5 753,-108.5 753,-22.5 741,-22.5"/>
<polygon fill="#fff8e8" stroke="none" points="758,-22.5 758,-119.5 780,-119.5 780,-22.5 758,-22.5"/>
<text xml:space="preserve" text-anchor="start" x="760.75" y="-84.75" font-family="Avenir Next, Helvetica, Arial, sans-serif" font-size="7.00">222.6</text>
<polygon fill="#b95032" stroke="none" points="763,-22.5 763,-81.5 775,-81.5 775,-22.5 763,-22.5"/>
<polygon fill="#fff8e8" stroke="none" points="670,0 670,-22.5 780,-22.5 780,0 670,0"/>
<text xml:space="preserve" text-anchor="start" x="711.88" y="-14.25" font-family="Avenir Next, Helvetica, Arial, sans-serif" font-size="8.00">Docker</text>
<text xml:space="preserve" text-anchor="start" x="710.38" y="-3" font-family="Avenir Next, Helvetica, Arial, sans-serif" font-size="8.00">x86&#45;gnu</text>
<polygon fill="#fff8e8" stroke="none" points="804,-22.5 804,-119.5 826,-119.5 826,-22.5 804,-22.5"/>
<text xml:space="preserve" text-anchor="start" x="808.62" y="-27.75" font-family="Avenir Next, Helvetica, Arial, sans-serif" font-size="7.00">0.33</text>
<polygon fill="#075a4a" stroke="none" points="809,-22.5 809,-24.5 821,-24.5 821,-22.5 809,-22.5"/>
<polygon fill="#fff8e8" stroke="none" points="826,-22.5 826,-119.5 848,-119.5 848,-22.5 826,-22.5"/>
<text xml:space="preserve" text-anchor="start" x="830.62" y="-39.75" font-family="Avenir Next, Helvetica, Arial, sans-serif" font-size="7.00">4.47</text>
<polygon fill="#d48a22" stroke="none" points="831,-22.5 831,-36.5 843,-36.5 843,-22.5 831,-22.5"/>
<polygon fill="#fff8e8" stroke="none" points="848,-22.5 848,-119.5 870,-119.5 870,-22.5 848,-22.5"/>
<text xml:space="preserve" text-anchor="start" x="852.62" y="-111.75" font-family="Avenir Next, Helvetica, Arial, sans-serif" font-size="7.00">27.2</text>
<polygon fill="#8f2e2e" stroke="none" points="853,-22.5 853,-108.5 865,-108.5 865,-22.5 853,-22.5"/>
<polygon fill="#fff8e8" stroke="none" points="870,-22.5 870,-119.5 892,-119.5 892,-22.5 870,-22.5"/>
<text xml:space="preserve" text-anchor="start" x="874.62" y="-111.75" font-family="Avenir Next, Helvetica, Arial, sans-serif" font-size="7.00">27.3</text>
<polygon fill="#4b6f78" stroke="none" points="875,-22.5 875,-108.5 887,-108.5 887,-22.5 875,-22.5"/>
<polygon fill="#fff8e8" stroke="none" points="892,-22.5 892,-119.5 914,-119.5 914,-22.5 892,-22.5"/>
<text xml:space="preserve" text-anchor="start" x="896.62" y="-89.75" font-family="Avenir Next, Helvetica, Arial, sans-serif" font-size="7.00">20.2</text>
<polygon fill="#b95032" stroke="none" points="897,-22.5 897,-86.5 909,-86.5 909,-22.5 897,-22.5"/>
<polygon fill="#fff8e8" stroke="none" points="804,0 804,-22.5 914,-22.5 914,0 804,0"/>
<text xml:space="preserve" text-anchor="start" x="845.88" y="-14.25" font-family="Avenir Next, Helvetica, Arial, sans-serif" font-size="8.00">Docker</text>
<text xml:space="preserve" text-anchor="start" x="836.12" y="-3" font-family="Avenir Next, Helvetica, Arial, sans-serif" font-size="8.00">aarch64&#45;gnu</text>
<polygon fill="#fff8e8" stroke="none" points="938,-22.5 938,-119.5 960,-119.5 960,-22.5 938,-22.5"/>
<text xml:space="preserve" text-anchor="start" x="942.62" y="-44.75" font-family="Avenir Next, Helvetica, Arial, sans-serif" font-size="7.00">59.6</text>
<polygon fill="#075a4a" stroke="none" points="943,-22.5 943,-41.5 955,-41.5 955,-22.5 943,-22.5"/>
<polygon fill="#fff8e8" stroke="none" points="960,-22.5 960,-119.5 982,-119.5 982,-22.5 960,-22.5"/>
<text xml:space="preserve" text-anchor="start" x="962.75" y="-93.75" font-family="Avenir Next, Helvetica, Arial, sans-serif" font-size="7.00">215.3</text>
<polygon fill="#d48a22" stroke="none" points="965,-22.5 965,-90.5 977,-90.5 977,-22.5 965,-22.5"/>
<polygon fill="#fff8e8" stroke="none" points="982,-22.5 982,-119.5 1004,-119.5 1004,-22.5 982,-22.5"/>
<text xml:space="preserve" text-anchor="start" x="984.75" y="-111.75" font-family="Avenir Next, Helvetica, Arial, sans-serif" font-size="7.00">271.3</text>
<polygon fill="#8f2e2e" stroke="none" points="987,-22.5 987,-108.5 999,-108.5 999,-22.5 987,-22.5"/>
<polygon fill="#fff8e8" stroke="none" points="1004,-22.5 1004,-119.5 1026,-119.5 1026,-22.5 1004,-22.5"/>
<text xml:space="preserve" text-anchor="start" x="1006.75" y="-111.75" font-family="Avenir Next, Helvetica, Arial, sans-serif" font-size="7.00">271.2</text>
<polygon fill="#4b6f78" stroke="none" points="1009,-22.5 1009,-108.5 1021,-108.5 1021,-22.5 1009,-22.5"/>
<polygon fill="#fff8e8" stroke="none" points="1026,-22.5 1026,-119.5 1048,-119.5 1048,-22.5 1026,-22.5"/>
<text xml:space="preserve" text-anchor="start" x="1028.75" y="-84.75" font-family="Avenir Next, Helvetica, Arial, sans-serif" font-size="7.00">185.2</text>
<polygon fill="#b95032" stroke="none" points="1031,-22.5 1031,-81.5 1043,-81.5 1043,-22.5 1031,-22.5"/>
<polygon fill="#fff8e8" stroke="none" points="938,0 938,-22.5 1048,-22.5 1048,0 938,0"/>
<text xml:space="preserve" text-anchor="start" x="979.88" y="-14.25" font-family="Avenir Next, Helvetica, Arial, sans-serif" font-size="8.00">Docker</text>
<text xml:space="preserve" text-anchor="start" x="972" y="-3" font-family="Avenir Next, Helvetica, Arial, sans-serif" font-size="8.00">riscv64&#45;gnu</text>
<polygon fill="#fff8e8" stroke="none" points="1072,-22.5 1072,-119.5 1094,-119.5 1094,-22.5 1072,-22.5"/>
<text xml:space="preserve" text-anchor="start" x="1076.62" y="-27.75" font-family="Avenir Next, Helvetica, Arial, sans-serif" font-size="7.00">0.33</text>
<polygon fill="#075a4a" stroke="none" points="1077,-22.5 1077,-24.5 1089,-24.5 1089,-22.5 1077,-22.5"/>
<polygon fill="#fff8e8" stroke="none" points="1094,-22.5 1094,-119.5 1116,-119.5 1116,-22.5 1094,-22.5"/>
<text xml:space="preserve" text-anchor="start" x="1098.62" y="-40.75" font-family="Avenir Next, Helvetica, Arial, sans-serif" font-size="7.00">4.62</text>
<polygon fill="#d48a22" stroke="none" points="1099,-22.5 1099,-37.5 1111,-37.5 1111,-22.5 1099,-22.5"/>
<polygon fill="#fff8e8" stroke="none" points="1116,-22.5 1116,-119.5 1138,-119.5 1138,-22.5 1116,-22.5"/>
<text xml:space="preserve" text-anchor="start" x="1120.62" y="-111.75" font-family="Avenir Next, Helvetica, Arial, sans-serif" font-size="7.00">25.7</text>
<polygon fill="#8f2e2e" stroke="none" points="1121,-22.5 1121,-108.5 1133,-108.5 1133,-22.5 1121,-22.5"/>
<polygon fill="#fff8e8" stroke="none" points="1138,-22.5 1138,-119.5 1160,-119.5 1160,-22.5 1138,-22.5"/>
<text xml:space="preserve" text-anchor="start" x="1142.62" y="-111.75" font-family="Avenir Next, Helvetica, Arial, sans-serif" font-size="7.00">25.7</text>
<polygon fill="#4b6f78" stroke="none" points="1143,-22.5 1143,-108.5 1155,-108.5 1155,-22.5 1143,-22.5"/>
<polygon fill="#fff8e8" stroke="none" points="1160,-22.5 1160,-119.5 1182,-119.5 1182,-22.5 1160,-22.5"/>
<text xml:space="preserve" text-anchor="start" x="1164.62" y="-87.75" font-family="Avenir Next, Helvetica, Arial, sans-serif" font-size="7.00">18.4</text>
<polygon fill="#b95032" stroke="none" points="1165,-22.5 1165,-84.5 1177,-84.5 1177,-22.5 1165,-22.5"/>
<polygon fill="#fff8e8" stroke="none" points="1072,0 1072,-22.5 1182,-22.5 1182,0 1072,0"/>
<text xml:space="preserve" text-anchor="start" x="1103.75" y="-14.25" font-family="Avenir Next, Helvetica, Arial, sans-serif" font-size="8.00">local macOS</text>
<text xml:space="preserve" text-anchor="start" x="1112.38" y="-3" font-family="Avenir Next, Helvetica, Arial, sans-serif" font-size="8.00">aarch64</text>
</g>
</g>
</svg>
