<?xml version="1.0" encoding="UTF-8" standalone="no"?>
<!DOCTYPE svg PUBLIC "-//W3C//DTD SVG 1.1//EN"
 "http://www.w3.org/Graphics/SVG/1.1/DTD/svg11.dtd">
<!-- Generated by graphviz version 14.1.5 (20260411.2331)
 -->
<!-- Title: benchmark Pages: 1 -->
<svg width="1149pt" height="155pt"
 viewBox="0.00 0.00 1149.00 155.00" xmlns="http://www.w3.org/2000/svg" xmlns:xlink="http://www.w3.org/1999/xlink">
<g id="graph0" class="graph" transform="scale(1 1) rotate(0) translate(5.76 149.51)">
<title>benchmark</title>
<polygon fill="#fbf6ec" stroke="none" points="-5.76,5.76 -5.76,-149.51 1142.76,-149.51 1142.76,5.76 -5.76,5.76"/>
<!-- benchmark -->
<g id="node1" class="node">
<title>benchmark</title>
<text xml:space="preserve" text-anchor="start" x="460.12" y="-135.25" font-family="Avenir Next, Helvetica, Arial, sans-serif" font-size="10.00"> &#160;&#160;&#160;&#160;&#160;&#160;&#160;&#160;&#160;&#160;&#160;</text>
<text xml:space="preserve" text-anchor="start" x="487.12" y="-135.25" font-family="Avenir Next, Helvetica, Arial, sans-serif" font-size="8.00" fill="#075a4a">■</text>
<text xml:space="preserve" text-anchor="start" x="491.62" y="-135.25" font-family="Avenir Next, Helvetica, Arial, sans-serif" font-size="8.00"> tach   </text>
<text xml:space="preserve" text-anchor="start" x="515.62" y="-135.25" font-family="Avenir Next, Helvetica, Arial, sans-serif" font-size="8.00" fill="#d48a22">■</text>
<text xml:space="preserve" text-anchor="start" x="520.12" y="-135.25" font-family="Avenir Next, Helvetica, Arial, sans-serif" font-size="8.00"> quanta   </text>
<text xml:space="preserve" text-anchor="start" x="554.62" y="-135.25" font-family="Avenir Next, Helvetica, Arial, sans-serif" font-size="8.00" fill="#8f2e2e">■</text>
<text xml:space="preserve" text-anchor="start" x="559.12" y="-135.25" font-family="Avenir Next, Helvetica, Arial, sans-serif" font-size="8.00"> minstant   </text>
<text xml:space="preserve" text-anchor="start" x="598.88" y="-135.25" font-family="Avenir Next, Helvetica, Arial, sans-serif" font-size="8.00" fill="#4b6f78">■</text>
<text xml:space="preserve" text-anchor="start" x="603.38" y="-135.25" font-family="Avenir Next, Helvetica, Arial, sans-serif" font-size="8.00"> fastant   </text>
<text xml:space="preserve" text-anchor="start" x="636.38" y="-135.25" font-family="Avenir Next, Helvetica, Arial, sans-serif" font-size="8.00" fill="#b95032">■</text>
<text xml:space="preserve" text-anchor="start" x="640.88" y="-135.25" font-family="Avenir Next, Helvetica, Arial, sans-serif" font-size="8.00"> std</text>
<text xml:space="preserve" text-anchor="start" x="654.38" y="-135.25" font-family="Avenir Next, Helvetica, Arial, sans-serif" font-size="10.00"> &#160;&#160;&#160;&#160;&#160;&#160;&#160;&#160;&#160;</text>
<polygon fill="#fff8e8" stroke="none" points="0,-25.5 0,-123.5 21,-123.5 21,-25.5 0,-25.5"/>
<text xml:space="preserve" text-anchor="start" x="4.12" y="-60.62" font-family="Avenir Next, Helvetica, Arial, sans-serif" font-size="6.00">8.71</text>
<polygon fill="#075a4a" stroke="none" points="8,-25.5 8,-56.5 13,-56.5 13,-25.5 8,-25.5"/>
<polygon fill="#fff8e8" stroke="none" points="21,-25.5 21,-123.5 42,-123.5 42,-25.5 21,-25.5"/>
<text xml:space="preserve" text-anchor="start" x="25.12" y="-76.62" font-family="Avenir Next, Helvetica, Arial, sans-serif" font-size="6.00">13.3</text>
<polygon fill="#d48a22" stroke="none" points="29,-25.5 29,-72.5 34,-72.5 34,-25.5 29,-25.5"/>
<polygon fill="#fff8e8" stroke="none" points="42,-25.5 42,-123.5 63,-123.5 63,-25.5 42,-25.5"/>
<text xml:space="preserve" text-anchor="start" x="46.12" y="-62.62" font-family="Avenir Next, Helvetica, Arial, sans-serif" font-size="6.00">9.36</text>
<polygon fill="#8f2e2e" stroke="none" points="50,-25.5 50,-58.5 55,-58.5 55,-25.5 50,-25.5"/>
<polygon fill="#fff8e8" stroke="none" points="63,-25.5 63,-123.5 84,-123.5 84,-25.5 63,-25.5"/>
<text xml:space="preserve" text-anchor="start" x="67.12" y="-62.62" font-family="Avenir Next, Helvetica, Arial, sans-serif" font-size="6.00">9.36</text>
<polygon fill="#4b6f78" stroke="none" points="71,-25.5 71,-58.5 76,-58.5 76,-25.5 71,-25.5"/>
<polygon fill="#fff8e8" stroke="none" points="84,-25.5 84,-123.5 105,-123.5 105,-25.5 84,-25.5"/>
<text xml:space="preserve" text-anchor="start" x="88.12" y="-115.62" font-family="Avenir Next, Helvetica, Arial, sans-serif" font-size="6.00">24.2</text>
<polygon fill="#b95032" stroke="none" points="92,-25.5 92,-111.5 97,-111.5 97,-25.5 92,-25.5"/>
<polygon fill="#fff8e8" stroke="none" points="0,0 0,-25.5 105,-25.5 105,0 0,0"/>
<text xml:space="preserve" text-anchor="start" x="26.25" y="-16.5" font-family="Avenir Next, Helvetica, Arial, sans-serif" font-size="9.00">AWS t3 KVM</text>
<text xml:space="preserve" text-anchor="start" x="26.25" y="-3.75" font-family="Avenir Next, Helvetica, Arial, sans-serif" font-size="9.00">x86_64&#45;musl</text>
<polygon fill="#fff8e8" stroke="none" points="129,-25.5 129,-123.5 150,-123.5 150,-25.5 129,-25.5"/>
<text xml:space="preserve" text-anchor="start" x="133.12" y="-69.62" font-family="Avenir Next, Helvetica, Arial, sans-serif" font-size="6.00">6.84</text>
<polygon fill="#075a4a" stroke="none" points="137,-25.5 137,-65.5 142,-65.5 142,-25.5 137,-25.5"/>
<polygon fill="#fff8e8" stroke="none" points="150,-25.5 150,-123.5 171,-123.5 171,-25.5 150,-25.5"/>
<text xml:space="preserve" text-anchor="start" x="154.12" y="-71.62" font-family="Avenir Next, Helvetica, Arial, sans-serif" font-size="6.00">7.13</text>
<polygon fill="#d48a22" stroke="none" points="158,-25.5 158,-67.5 163,-67.5 163,-25.5 158,-25.5"/>
<polygon fill="#fff8e8" stroke="none" points="171,-25.5 171,-123.5 192,-123.5 192,-25.5 171,-25.5"/>
<text xml:space="preserve" text-anchor="start" x="175.12" y="-69.62" font-family="Avenir Next, Helvetica, Arial, sans-serif" font-size="6.00">6.84</text>
<polygon fill="#8f2e2e" stroke="none" points="179,-25.5 179,-65.5 184,-65.5 184,-25.5 179,-25.5"/>
<polygon fill="#fff8e8" stroke="none" points="192,-25.5 192,-123.5 213,-123.5 213,-25.5 192,-25.5"/>
<text xml:space="preserve" text-anchor="start" x="196.12" y="-69.62" font-family="Avenir Next, Helvetica, Arial, sans-serif" font-size="6.00">6.84</text>
<polygon fill="#4b6f78" stroke="none" points="200,-25.5 200,-65.5 205,-65.5 205,-25.5 200,-25.5"/>
<polygon fill="#fff8e8" stroke="none" points="213,-25.5 213,-123.5 234,-123.5 234,-25.5 213,-25.5"/>
<text xml:space="preserve" text-anchor="start" x="217.12" y="-115.62" font-family="Avenir Next, Helvetica, Arial, sans-serif" font-size="6.00">14.7</text>
<polygon fill="#b95032" stroke="none" points="221,-25.5 221,-111.5 226,-111.5 226,-25.5 221,-25.5"/>
<polygon fill="#fff8e8" stroke="none" points="129,0 129,-25.5 234,-25.5 234,0 129,0"/>
<text xml:space="preserve" text-anchor="start" x="149.62" y="-16.5" font-family="Avenir Next, Helvetica, Arial, sans-serif" font-size="9.00">AWS m7i metal</text>
<text xml:space="preserve" text-anchor="start" x="155.25" y="-3.75" font-family="Avenir Next, Helvetica, Arial, sans-serif" font-size="9.00">x86_64&#45;musl</text>
<polygon fill="#fff8e8" stroke="none" points="258,-25.5 258,-123.5 279,-123.5 279,-25.5 258,-25.5"/>
<text xml:space="preserve" text-anchor="start" x="262.12" y="-46.62" font-family="Avenir Next, Helvetica, Arial, sans-serif" font-size="6.00">13.6</text>
<polygon fill="#075a4a" stroke="none" points="266,-25.5 266,-42.5 271,-42.5 271,-25.5 266,-25.5"/>
<polygon fill="#fff8e8" stroke="none" points="279,-25.5 279,-123.5 300,-123.5 300,-25.5 279,-25.5"/>
<text xml:space="preserve" text-anchor="start" x="283.12" y="-115.62" font-family="Avenir Next, Helvetica, Arial, sans-serif" font-size="6.00">69.3</text>
<polygon fill="#d48a22" stroke="none" points="287,-25.5 287,-111.5 292,-111.5 292,-25.5 287,-25.5"/>
<polygon fill="#fff8e8" stroke="none" points="300,-25.5 300,-123.5 321,-123.5 321,-25.5 300,-25.5"/>
<text xml:space="preserve" text-anchor="start" x="304.12" y="-47.62" font-family="Avenir Next, Helvetica, Arial, sans-serif" font-size="6.00">14.4</text>
<polygon fill="#8f2e2e" stroke="none" points="308,-25.5 308,-43.5 313,-43.5 313,-25.5 308,-25.5"/>
<polygon fill="#fff8e8" stroke="none" points="321,-25.5 321,-123.5 342,-123.5 342,-25.5 321,-25.5"/>
<text xml:space="preserve" text-anchor="start" x="325.12" y="-47.62" font-family="Avenir Next, Helvetica, Arial, sans-serif" font-size="6.00">14.2</text>
<polygon fill="#4b6f78" stroke="none" points="329,-25.5 329,-43.5 334,-43.5 334,-25.5 329,-25.5"/>
<polygon fill="#fff8e8" stroke="none" points="342,-25.5 342,-123.5 363,-123.5 363,-25.5 342,-25.5"/>
<text xml:space="preserve" text-anchor="start" x="346.12" y="-111.62" font-family="Avenir Next, Helvetica, Arial, sans-serif" font-size="6.00">66.5</text>
<polygon fill="#b95032" stroke="none" points="350,-25.5 350,-107.5 355,-107.5 355,-25.5 350,-25.5"/>
<polygon fill="#fff8e8" stroke="none" points="258,0 258,-25.5 363,-25.5 363,0 258,0"/>
<text xml:space="preserve" text-anchor="start" x="284.25" y="-16.5" font-family="Avenir Next, Helvetica, Arial, sans-serif" font-size="9.00">AWS t3 KVM</text>
<text xml:space="preserve" text-anchor="start" x="291.75" y="-3.75" font-family="Avenir Next, Helvetica, Arial, sans-serif" font-size="9.00">x86&#45;musl</text>
<polygon fill="#fff8e8" stroke="none" points="387,-25.5 387,-123.5 408,-123.5 408,-25.5 387,-25.5"/>
<text xml:space="preserve" text-anchor="start" x="391.12" y="-55.62" font-family="Avenir Next, Helvetica, Arial, sans-serif" font-size="6.00">6.84</text>
<polygon fill="#075a4a" stroke="none" points="395,-25.5 395,-51.5 400,-51.5 400,-25.5 395,-25.5"/>
<polygon fill="#fff8e8" stroke="none" points="408,-25.5 408,-123.5 429,-123.5 429,-25.5 408,-25.5"/>
<text xml:space="preserve" text-anchor="start" x="412.12" y="-115.62" font-family="Avenir Next, Helvetica, Arial, sans-serif" font-size="6.00">23.1</text>
<polygon fill="#d48a22" stroke="none" points="416,-25.5 416,-111.5 421,-111.5 421,-25.5 416,-25.5"/>
<polygon fill="#fff8e8" stroke="none" points="429,-25.5 429,-123.5 450,-123.5 450,-25.5 429,-25.5"/>
<text xml:space="preserve" text-anchor="start" x="433.12" y="-55.62" font-family="Avenir Next, Helvetica, Arial, sans-serif" font-size="6.00">6.84</text>
<polygon fill="#8f2e2e" stroke="none" points="437,-25.5 437,-51.5 442,-51.5 442,-25.5 437,-25.5"/>
<polygon fill="#fff8e8" stroke="none" points="450,-25.5 450,-123.5 471,-123.5 471,-25.5 450,-25.5"/>
<text xml:space="preserve" text-anchor="start" x="454.12" y="-55.62" font-family="Avenir Next, Helvetica, Arial, sans-serif" font-size="6.00">6.84</text>
<polygon fill="#4b6f78" stroke="none" points="458,-25.5 458,-51.5 463,-51.5 463,-25.5 458,-25.5"/>
<polygon fill="#fff8e8" stroke="none" points="471,-25.5 471,-123.5 492,-123.5 492,-25.5 471,-25.5"/>
<text xml:space="preserve" text-anchor="start" x="475.12" y="-114.62" font-family="Avenir Next, Helvetica, Arial, sans-serif" font-size="6.00">22.7</text>
<polygon fill="#b95032" stroke="none" points="479,-25.5 479,-110.5 484,-110.5 484,-25.5 479,-25.5"/>
<polygon fill="#fff8e8" stroke="none" points="387,0 387,-25.5 492,-25.5 492,0 387,0"/>
<text xml:space="preserve" text-anchor="start" x="407.62" y="-16.5" font-family="Avenir Next, Helvetica, Arial, sans-serif" font-size="9.00">AWS m7i metal</text>
<text xml:space="preserve" text-anchor="start" x="420.75" y="-3.75" font-family="Avenir Next, Helvetica, Arial, sans-serif" font-size="9.00">x86&#45;musl</text>
<polygon fill="#fff8e8" stroke="none" points="516,-25.5 516,-123.5 537,-123.5 537,-25.5 516,-25.5"/>
<text xml:space="preserve" text-anchor="start" x="520.12" y="-63.62" font-family="Avenir Next, Helvetica, Arial, sans-serif" font-size="6.00">15.4</text>
<polygon fill="#075a4a" stroke="none" points="524,-25.5 524,-59.5 529,-59.5 529,-25.5 524,-25.5"/>
<polygon fill="#fff8e8" stroke="none" points="537,-25.5 537,-123.5 558,-123.5 558,-25.5 537,-25.5"/>
<text xml:space="preserve" text-anchor="start" x="541.12" y="-84.62" font-family="Avenir Next, Helvetica, Arial, sans-serif" font-size="6.00">25.1</text>
<polygon fill="#d48a22" stroke="none" points="545,-25.5 545,-80.5 550,-80.5 550,-25.5 545,-25.5"/>
<polygon fill="#fff8e8" stroke="none" points="558,-25.5 558,-123.5 579,-123.5 579,-25.5 558,-25.5"/>
<text xml:space="preserve" text-anchor="start" x="562.12" y="-115.62" font-family="Avenir Next, Helvetica, Arial, sans-serif" font-size="6.00">39.0</text>
<polygon fill="#8f2e2e" stroke="none" points="566,-25.5 566,-111.5 571,-111.5 571,-25.5 566,-25.5"/>
<polygon fill="#fff8e8" stroke="none" points="579,-25.5 579,-123.5 600,-123.5 600,-25.5 579,-25.5"/>
<text xml:space="preserve" text-anchor="start" x="583.12" y="-78.62" font-family="Avenir Next, Helvetica, Arial, sans-serif" font-size="6.00">22.1</text>
<polygon fill="#4b6f78" stroke="none" points="587,-25.5 587,-74.5 592,-74.5 592,-25.5 587,-25.5"/>
<polygon fill="#fff8e8" stroke="none" points="600,-25.5 600,-123.5 621,-123.5 621,-25.5 600,-25.5"/>
<text xml:space="preserve" text-anchor="start" x="604.12" y="-91.62" font-family="Avenir Next, Helvetica, Arial, sans-serif" font-size="6.00">28.1</text>
<polygon fill="#b95032" stroke="none" points="608,-25.5 608,-87.5 613,-87.5 613,-25.5 608,-25.5"/>
<polygon fill="#fff8e8" stroke="none" points="516,0 516,-25.5 621,-25.5 621,0 516,0"/>
<text xml:space="preserve" text-anchor="start" x="553.88" y="-16.5" font-family="Avenir Next, Helvetica, Arial, sans-serif" font-size="9.00">Docker</text>
<text xml:space="preserve" text-anchor="start" x="543.75" y="-3.75" font-family="Avenir Next, Helvetica, Arial, sans-serif" font-size="9.00">x86_64&#45;gnu</text>
<polygon fill="#fff8e8" stroke="none" points="645,-25.5 645,-123.5 664.8,-123.5 664.8,-25.5 645,-25.5"/>
<text xml:space="preserve" text-anchor="start" x="648.52" y="-36.62" font-family="Avenir Next, Helvetica, Arial, sans-serif" font-size="6.00">25.8</text>
<polygon fill="#075a4a" stroke="none" points="652.4,-25.5 652.4,-32.5 657.4,-32.5 657.4,-25.5 652.4,-25.5"/>
<polygon fill="#fff8e8" stroke="none" points="664.8,-25.5 664.8,-123.5 686.1,-123.5 686.1,-25.5 664.8,-25.5"/>
<text xml:space="preserve" text-anchor="start" x="667.2" y="-96.62" font-family="Avenir Next, Helvetica, Arial, sans-serif" font-size="6.00">253.7</text>
<polygon fill="#d48a22" stroke="none" points="672.95,-25.5 672.95,-92.5 677.95,-92.5 677.95,-25.5 672.95,-25.5"/>
<polygon fill="#fff8e8" stroke="none" points="686.1,-25.5 686.1,-123.5 707.4,-123.5 707.4,-25.5 686.1,-25.5"/>
<text xml:space="preserve" text-anchor="start" x="688.5" y="-115.62" font-family="Avenir Next, Helvetica, Arial, sans-serif" font-size="6.00">323.4</text>
<polygon fill="#8f2e2e" stroke="none" points="694.25,-25.5 694.25,-111.5 699.25,-111.5 699.25,-25.5 694.25,-25.5"/>
<polygon fill="#fff8e8" stroke="none" points="707.4,-25.5 707.4,-123.5 728.7,-123.5 728.7,-25.5 707.4,-25.5"/>
<text xml:space="preserve" text-anchor="start" x="709.8" y="-115.62" font-family="Avenir Next, Helvetica, Arial, sans-serif" font-size="6.00">324.3</text>
<polygon fill="#4b6f78" stroke="none" points="715.55,-25.5 715.55,-111.5 720.55,-111.5 720.55,-25.5 715.55,-25.5"/>
<polygon fill="#fff8e8" stroke="none" points="728.7,-25.5 728.7,-123.5 750,-123.5 750,-25.5 728.7,-25.5"/>
<text xml:space="preserve" text-anchor="start" x="731.1" y="-88.62" font-family="Avenir Next, Helvetica, Arial, sans-serif" font-size="6.00">222.6</text>
<polygon fill="#b95032" stroke="none" points="736.85,-25.5 736.85,-84.5 741.85,-84.5 741.85,-25.5 736.85,-25.5"/>
<polygon fill="#fff8e8" stroke="none" points="645,0 645,-25.5 750,-25.5 750,0 645,0"/>
<text xml:space="preserve" text-anchor="start" x="682.88" y="-16.5" font-family="Avenir Next, Helvetica, Arial, sans-serif" font-size="9.00">Docker</text>
<text xml:space="preserve" text-anchor="start" x="680.25" y="-3.75" font-family="Avenir Next, Helvetica, Arial, sans-serif" font-size="9.00">x86&#45;gnu</text>
<polygon fill="#fff8e8" stroke="none" points="774,-25.5 774,-123.5 795,-123.5 795,-25.5 774,-25.5"/>
<text xml:space="preserve" text-anchor="start" x="778.12" y="-31.62" font-family="Avenir Next, Helvetica, Arial, sans-serif" font-size="6.00">0.33</text>
<polygon fill="#075a4a" stroke="none" points="782,-25.5 782,-27.5 787,-27.5 787,-25.5 782,-25.5"/>
<polygon fill="#fff8e8" stroke="none" points="795,-25.5 795,-123.5 816,-123.5 816,-25.5 795,-25.5"/>
<text xml:space="preserve" text-anchor="start" x="799.12" y="-43.62" font-family="Avenir Next, Helvetica, Arial, sans-serif" font-size="6.00">4.47</text>
<polygon fill="#d48a22" stroke="none" points="803,-25.5 803,-39.5 808,-39.5 808,-25.5 803,-25.5"/>
<polygon fill="#fff8e8" stroke="none" points="816,-25.5 816,-123.5 837,-123.5 837,-25.5 816,-25.5"/>
<text xml:space="preserve" text-anchor="start" x="820.12" y="-115.62" font-family="Avenir Next, Helvetica, Arial, sans-serif" font-size="6.00">27.2</text>
<polygon fill="#8f2e2e" stroke="none" points="824,-25.5 824,-111.5 829,-111.5 829,-25.5 824,-25.5"/>
<polygon fill="#fff8e8" stroke="none" points="837,-25.5 837,-123.5 858,-123.5 858,-25.5 837,-25.5"/>
<text xml:space="preserve" text-anchor="start" x="841.12" y="-115.62" font-family="Avenir Next, Helvetica, Arial, sans-serif" font-size="6.00">27.3</text>
<polygon fill="#4b6f78" stroke="none" points="845,-25.5 845,-111.5 850,-111.5 850,-25.5 845,-25.5"/>
<polygon fill="#fff8e8" stroke="none" points="858,-25.5 858,-123.5 879,-123.5 879,-25.5 858,-25.5"/>
<text xml:space="preserve" text-anchor="start" x="862.12" y="-93.62" font-family="Avenir Next, Helvetica, Arial, sans-serif" font-size="6.00">20.2</text>
<polygon fill="#b95032" stroke="none" points="866,-25.5 866,-89.5 871,-89.5 871,-25.5 866,-25.5"/>
<polygon fill="#fff8e8" stroke="none" points="774,0 774,-25.5 879,-25.5 879,0 774,0"/>
<text xml:space="preserve" text-anchor="start" x="811.88" y="-16.5" font-family="Avenir Next, Helvetica, Arial, sans-serif" font-size="9.00">Docker</text>
<text xml:space="preserve" text-anchor="start" x="800.62" y="-3.75" font-family="Avenir Next, Helvetica, Arial, sans-serif" font-size="9.00">aarch64&#45;gnu</text>
<polygon fill="#fff8e8" stroke="none" points="903,-25.5 903,-123.5 922.8,-123.5 922.8,-25.5 903,-25.5"/>
<text xml:space="preserve" text-anchor="start" x="906.52" y="-48.62" font-family="Avenir Next, Helvetica, Arial, sans-serif" font-size="6.00">59.6</text>
<polygon fill="#075a4a" stroke="none" points="910.4,-25.5 910.4,-44.5 915.4,-44.5 915.4,-25.5 910.4,-25.5"/>
<polygon fill="#fff8e8" stroke="none" points="922.8,-25.5 922.8,-123.5 944.1,-123.5 944.1,-25.5 922.8,-25.5"/>
<text xml:space="preserve" text-anchor="start" x="925.2" y="-97.62" font-family="Avenir Next, Helvetica, Arial, sans-serif" font-size="6.00">215.3</text>
<polygon fill="#d48a22" stroke="none" points="930.95,-25.5 930.95,-93.5 935.95,-93.5 935.95,-25.5 930.95,-25.5"/>
<polygon fill="#fff8e8" stroke="none" points="944.1,-25.5 944.1,-123.5 965.4,-123.5 965.4,-25.5 944.1,-25.5"/>
<text xml:space="preserve" text-anchor="start" x="946.5" y="-115.62" font-family="Avenir Next, Helvetica, Arial, sans-serif" font-size="6.00">271.3</text>
<polygon fill="#8f2e2e" stroke="none" points="952.25,-25.5 952.25,-111.5 957.25,-111.5 957.25,-25.5 952.25,-25.5"/>
<polygon fill="#fff8e8" stroke="none" points="965.4,-25.5 965.4,-123.5 986.7,-123.5 986.7,-25.5 965.4,-25.5"/>
<text xml:space="preserve" text-anchor="start" x="967.8" y="-115.62" font-family="Avenir Next, Helvetica, Arial, sans-serif" font-size="6.00">271.2</text>
<polygon fill="#4b6f78" stroke="none" points="973.55,-25.5 973.55,-111.5 978.55,-111.5 978.55,-25.5 973.55,-25.5"/>
<polygon fill="#fff8e8" stroke="none" points="986.7,-25.5 986.7,-123.5 1008,-123.5 1008,-25.5 986.7,-25.5"/>
<text xml:space="preserve" text-anchor="start" x="989.1" y="-88.62" font-family="Avenir Next, Helvetica, Arial, sans-serif" font-size="6.00">185.2</text>
<polygon fill="#b95032" stroke="none" points="994.85,-25.5 994.85,-84.5 999.85,-84.5 999.85,-25.5 994.85,-25.5"/>
<polygon fill="#fff8e8" stroke="none" points="903,0 903,-25.5 1008,-25.5 1008,0 903,0"/>
<text xml:space="preserve" text-anchor="start" x="940.88" y="-16.5" font-family="Avenir Next, Helvetica, Arial, sans-serif" font-size="9.00">Docker</text>
<text xml:space="preserve" text-anchor="start" x="931.5" y="-3.75" font-family="Avenir Next, Helvetica, Arial, sans-serif" font-size="9.00">riscv64&#45;gnu</text>
<polygon fill="#fff8e8" stroke="none" points="1032,-25.5 1032,-123.5 1053,-123.5 1053,-25.5 1032,-25.5"/>
<text xml:space="preserve" text-anchor="start" x="1036.12" y="-31.62" font-family="Avenir Next, Helvetica, Arial, sans-serif" font-size="6.00">0.33</text>
<polygon fill="#075a4a" stroke="none" points="1040,-25.5 1040,-27.5 1045,-27.5 1045,-25.5 1040,-25.5"/>
<polygon fill="#fff8e8" stroke="none" points="1053,-25.5 1053,-123.5 1074,-123.5 1074,-25.5 1053,-25.5"/>
<text xml:space="preserve" text-anchor="start" x="1057.12" y="-44.62" font-family="Avenir Next, Helvetica, Arial, sans-serif" font-size="6.00">4.62</text>
<polygon fill="#d48a22" stroke="none" points="1061,-25.5 1061,-40.5 1066,-40.5 1066,-25.5 1061,-25.5"/>
<polygon fill="#fff8e8" stroke="none" points="1074,-25.5 1074,-123.5 1095,-123.5 1095,-25.5 1074,-25.5"/>
<text xml:space="preserve" text-anchor="start" x="1078.12" y="-115.62" font-family="Avenir Next, Helvetica, Arial, sans-serif" font-size="6.00">25.7</text>
<polygon fill="#8f2e2e" stroke="none" points="1082,-25.5 1082,-111.5 1087,-111.5 1087,-25.5 1082,-25.5"/>
<polygon fill="#fff8e8" stroke="none" points="1095,-25.5 1095,-123.5 1116,-123.5 1116,-25.5 1095,-25.5"/>
<text xml:space="preserve" text-anchor="start" x="1099.12" y="-115.62" font-family="Avenir Next, Helvetica, Arial, sans-serif" font-size="6.00">25.7</text>
<polygon fill="#4b6f78" stroke="none" points="1103,-25.5 1103,-111.5 1108,-111.5 1108,-25.5 1103,-25.5"/>
<polygon fill="#fff8e8" stroke="none" points="1116,-25.5 1116,-123.5 1137,-123.5 1137,-25.5 1116,-25.5"/>
<text xml:space="preserve" text-anchor="start" x="1120.12" y="-91.62" font-family="Avenir Next, Helvetica, Arial, sans-serif" font-size="6.00">18.4</text>
<polygon fill="#b95032" stroke="none" points="1124,-25.5 1124,-87.5 1129,-87.5 1129,-25.5 1124,-25.5"/>
<polygon fill="#fff8e8" stroke="none" points="1032,0 1032,-25.5 1137,-25.5 1137,0 1032,0"/>
<text xml:space="preserve" text-anchor="start" x="1069.5" y="-16.5" font-family="Avenir Next, Helvetica, Arial, sans-serif" font-size="9.00">macOS</text>
<text xml:space="preserve" text-anchor="start" x="1068.38" y="-3.75" font-family="Avenir Next, Helvetica, Arial, sans-serif" font-size="9.00">aarch64</text>
</g>
</g>
</svg>
