<?xml version="1.0" encoding="UTF-8"?>
<svg xmlns="http://www.w3.org/2000/svg" width="1192" height="375" viewBox="0 0 1192 375">
<rect width="1192" height="375" fill="#FBF6EC"/>
<g shape-rendering="crispEdges">
<text x="596" y="22" text-anchor="middle" font-family="Avenir Next, Helvetica, Arial, sans-serif" font-size="16" fill="#2E231B">Instant: now() + elapsed()</text>
<rect x="256.12" y="330" width="6" height="6" fill="#D72D24"/>
<text x="266.12" y="336" text-anchor="start" font-family="Avenir Next, Helvetica, Arial, sans-serif" font-size="12" fill="#2E231B">tach: elapsed()</text>
<rect x="384.92" y="330" width="6" height="6" fill="#5B6472"/>
<text x="394.92" y="336" text-anchor="start" font-family="Avenir Next, Helvetica, Arial, sans-serif" font-size="12" fill="#2E231B">quanta: elapsed()</text>
<rect x="527.16" y="330" width="6" height="6" fill="#4F6F6A"/>
<text x="537.16" y="336" text-anchor="start" font-family="Avenir Next, Helvetica, Arial, sans-serif" font-size="12" fill="#2E231B">fastant: elapsed()</text>
<rect x="676.12" y="330" width="6" height="6" fill="#8B5E3C"/>
<text x="686.12" y="336" text-anchor="start" font-family="Avenir Next, Helvetica, Arial, sans-serif" font-size="12" fill="#2E231B">minstant: elapsed()</text>
<rect x="831.8" y="330" width="6" height="6" fill="#9A8A3A"/>
<text x="841.8" y="336" text-anchor="start" font-family="Avenir Next, Helvetica, Arial, sans-serif" font-size="12" fill="#2E231B">std: elapsed()</text>
<text x="596" y="356" text-anchor="middle" font-family="Avenir Next, Helvetica, Arial, sans-serif" font-size="8" font-style="italic" fill="#2E231B">All measurements are nanoseconds; squiggle marks compressed upper range.</text>
<rect x="48" y="253" width="16" height="3" fill="#D72D24"/>
<text x="56" y="249" text-anchor="middle" font-family="Avenir Next, Helvetica, Arial, sans-serif" font-size="7" fill="#2E231B">1.20</text>
<rect x="68" y="230" width="16" height="26" fill="#5B6472"/>
<text x="76" y="226" text-anchor="middle" font-family="Avenir Next, Helvetica, Arial, sans-serif" font-size="7" fill="#2E231B">9.16</text>
<rect x="88" y="89" width="16" height="167" fill="#4F6F6A"/>
<text x="96" y="85" text-anchor="middle" font-family="Avenir Next, Helvetica, Arial, sans-serif" font-size="7" fill="#2E231B">59.7</text>
<rect x="108" y="89" width="16" height="167" fill="#8B5E3C"/>
<text x="116" y="85" text-anchor="middle" font-family="Avenir Next, Helvetica, Arial, sans-serif" font-size="7" fill="#2E231B">59.6</text>
<rect x="128" y="133" width="16" height="123" fill="#9A8A3A"/>
<text x="136" y="129" text-anchor="middle" font-family="Avenir Next, Helvetica, Arial, sans-serif" font-size="7" fill="#2E231B">43.7</text>
<text x="96" y="280" text-anchor="middle" font-family="Avenir Next, Helvetica, Arial, sans-serif" font-size="11" fill="#2E231B">Apple Silicon</text>
<text x="96" y="293" text-anchor="middle" font-family="Avenir Next, Helvetica, Arial, sans-serif" font-size="11" fill="#2E231B">M1 MacBook Pro</text>
<text x="96" y="306" text-anchor="middle" font-family="Avenir Next, Helvetica, Arial, sans-serif" font-size="7" fill="#2E231B">aarch64-apple-darwin</text>
<rect x="248" y="219" width="16" height="37" fill="#D72D24"/>
<text x="256" y="215" text-anchor="middle" font-family="Avenir Next, Helvetica, Arial, sans-serif" font-size="7" fill="#2E231B">13.4</text>
<rect x="268" y="213" width="16" height="43" fill="#5B6472"/>
<text x="276" y="209" text-anchor="middle" font-family="Avenir Next, Helvetica, Arial, sans-serif" font-size="7" fill="#2E231B">15.3</text>
<rect x="288" y="26" width="16" height="230" fill="#4F6F6A"/>
<path d="M287 23 C289 18 291 28 293 23 S297 28 305 23" stroke="#FBF6EC" stroke-width="4" fill="none" stroke-linecap="round"/>
<path d="M287 23 C289 18 291 28 293 23 S297 28 305 23" stroke="#2E231B" stroke-width="0.8" fill="none" stroke-linecap="round" opacity="0.65"/>
<text x="296" y="22" text-anchor="middle" font-family="Avenir Next, Helvetica, Arial, sans-serif" font-size="7" fill="#2E231B">87.8</text>
<rect x="308" y="26" width="16" height="230" fill="#8B5E3C"/>
<path d="M307 23 C309 18 311 28 313 23 S317 28 325 23" stroke="#FBF6EC" stroke-width="4" fill="none" stroke-linecap="round"/>
<path d="M307 23 C309 18 311 28 313 23 S317 28 325 23" stroke="#2E231B" stroke-width="0.8" fill="none" stroke-linecap="round" opacity="0.65"/>
<text x="316" y="22" text-anchor="middle" font-family="Avenir Next, Helvetica, Arial, sans-serif" font-size="7" fill="#2E231B">88.1</text>
<rect x="328" y="52" width="16" height="204" fill="#9A8A3A"/>
<text x="336" y="48" text-anchor="middle" font-family="Avenir Next, Helvetica, Arial, sans-serif" font-size="7" fill="#2E231B">72.6</text>
<text x="296" y="280" text-anchor="middle" font-family="Avenir Next, Helvetica, Arial, sans-serif" font-size="11" fill="#2E231B">AWS Graviton 3</text>
<text x="296" y="293" text-anchor="middle" font-family="Avenir Next, Helvetica, Arial, sans-serif" font-size="11" fill="#2E231B">c7g.4xlarge</text>
<text x="296" y="306" text-anchor="middle" font-family="Avenir Next, Helvetica, Arial, sans-serif" font-size="7" fill="#2E231B">aarch64-unknown-linux-gnu</text>
<rect x="448" y="203" width="16" height="53" fill="#D72D24"/>
<text x="456" y="199" text-anchor="middle" font-family="Avenir Next, Helvetica, Arial, sans-serif" font-size="7" fill="#2E231B">18.9</text>
<rect x="468" y="177" width="16" height="79" fill="#5B6472"/>
<text x="476" y="173" text-anchor="middle" font-family="Avenir Next, Helvetica, Arial, sans-serif" font-size="7" fill="#2E231B">28.2</text>
<rect x="488" y="169" width="16" height="87" fill="#4F6F6A"/>
<text x="496" y="165" text-anchor="middle" font-family="Avenir Next, Helvetica, Arial, sans-serif" font-size="7" fill="#2E231B">31.0</text>
<rect x="508" y="169" width="16" height="87" fill="#8B5E3C"/>
<text x="516" y="165" text-anchor="middle" font-family="Avenir Next, Helvetica, Arial, sans-serif" font-size="7" fill="#2E231B">31.1</text>
<rect x="528" y="106" width="16" height="150" fill="#9A8A3A"/>
<text x="536" y="102" text-anchor="middle" font-family="Avenir Next, Helvetica, Arial, sans-serif" font-size="7" fill="#2E231B">53.5</text>
<text x="496" y="280" text-anchor="middle" font-family="Avenir Next, Helvetica, Arial, sans-serif" font-size="11" fill="#2E231B">AWS Intel Burst</text>
<text x="496" y="293" text-anchor="middle" font-family="Avenir Next, Helvetica, Arial, sans-serif" font-size="11" fill="#2E231B">t3.medium</text>
<text x="496" y="306" text-anchor="middle" font-family="Avenir Next, Helvetica, Arial, sans-serif" font-size="7" fill="#2E231B">x86_64-unknown-linux-gnu</text>
<rect x="648" y="218" width="16" height="38" fill="#D72D24"/>
<text x="656" y="214" text-anchor="middle" font-family="Avenir Next, Helvetica, Arial, sans-serif" font-size="7" fill="#2E231B">13.7</text>
<rect x="668" y="207" width="16" height="49" fill="#5B6472"/>
<text x="676" y="203" text-anchor="middle" font-family="Avenir Next, Helvetica, Arial, sans-serif" font-size="7" fill="#2E231B">17.5</text>
<rect x="688" y="196" width="16" height="60" fill="#4F6F6A"/>
<text x="696" y="192" text-anchor="middle" font-family="Avenir Next, Helvetica, Arial, sans-serif" font-size="7" fill="#2E231B">21.4</text>
<rect x="708" y="196" width="16" height="60" fill="#8B5E3C"/>
<text x="716" y="192" text-anchor="middle" font-family="Avenir Next, Helvetica, Arial, sans-serif" font-size="7" fill="#2E231B">21.4</text>
<rect x="728" y="165" width="16" height="91" fill="#9A8A3A"/>
<text x="736" y="161" text-anchor="middle" font-family="Avenir Next, Helvetica, Arial, sans-serif" font-size="7" fill="#2E231B">32.6</text>
<text x="696" y="280" text-anchor="middle" font-family="Avenir Next, Helvetica, Arial, sans-serif" font-size="11" fill="#2E231B">Alpine on Metal</text>
<text x="696" y="293" text-anchor="middle" font-family="Avenir Next, Helvetica, Arial, sans-serif" font-size="11" fill="#2E231B">m7i.metal-24xl</text>
<text x="696" y="306" text-anchor="middle" font-family="Avenir Next, Helvetica, Arial, sans-serif" font-size="7" fill="#2E231B">x86_64-unknown-linux-musl</text>
<rect x="848" y="166" width="16" height="90" fill="#D72D24"/>
<text x="856" y="162" text-anchor="middle" font-family="Avenir Next, Helvetica, Arial, sans-serif" font-size="7" fill="#2E231B">31.9</text>
<rect x="868" y="113" width="16" height="143" fill="#5B6472"/>
<text x="876" y="109" text-anchor="middle" font-family="Avenir Next, Helvetica, Arial, sans-serif" font-size="7" fill="#2E231B">50.9</text>
<rect x="888" y="111" width="16" height="145" fill="#4F6F6A"/>
<text x="896" y="107" text-anchor="middle" font-family="Avenir Next, Helvetica, Arial, sans-serif" font-size="7" fill="#2E231B">51.8</text>
<rect x="908" y="26" width="16" height="230" fill="#8B5E3C"/>
<path d="M907 23 C909 18 911 28 913 23 S917 28 925 23" stroke="#FBF6EC" stroke-width="4" fill="none" stroke-linecap="round"/>
<path d="M907 23 C909 18 911 28 913 23 S917 28 925 23" stroke="#2E231B" stroke-width="0.8" fill="none" stroke-linecap="round" opacity="0.65"/>
<text x="916" y="22" text-anchor="middle" font-family="Avenir Next, Helvetica, Arial, sans-serif" font-size="7" fill="#2E231B">136</text>
<rect x="928" y="26" width="16" height="230" fill="#9A8A3A"/>
<path d="M927 23 C929 18 931 28 933 23 S937 28 945 23" stroke="#FBF6EC" stroke-width="4" fill="none" stroke-linecap="round"/>
<path d="M927 23 C929 18 931 28 933 23 S937 28 945 23" stroke="#2E231B" stroke-width="0.8" fill="none" stroke-linecap="round" opacity="0.65"/>
<text x="936" y="22" text-anchor="middle" font-family="Avenir Next, Helvetica, Arial, sans-serif" font-size="7" fill="#2E231B">106</text>
<text x="896" y="280" text-anchor="middle" font-family="Avenir Next, Helvetica, Arial, sans-serif" font-size="11" fill="#2E231B">AWS Lambda</text>
<text x="896" y="293" text-anchor="middle" font-family="Avenir Next, Helvetica, Arial, sans-serif" font-size="11" fill="#2E231B">provided.al2023</text>
<text x="896" y="306" text-anchor="middle" font-family="Avenir Next, Helvetica, Arial, sans-serif" font-size="7" fill="#2E231B">x86_64-unknown-linux-gnu</text>
<rect x="1048" y="187" width="16" height="69" fill="#D72D24"/>
<text x="1056" y="183" text-anchor="middle" font-family="Avenir Next, Helvetica, Arial, sans-serif" font-size="7" fill="#2E231B">24.7</text>
<rect x="1068" y="185" width="16" height="71" fill="#5B6472"/>
<text x="1076" y="181" text-anchor="middle" font-family="Avenir Next, Helvetica, Arial, sans-serif" font-size="7" fill="#2E231B">25.5</text>
<rect x="1088" y="26" width="16" height="230" fill="#4F6F6A"/>
<path d="M1087 23 C1089 18 1091 28 1093 23 S1097 28 1105 23" stroke="#FBF6EC" stroke-width="4" fill="none" stroke-linecap="round"/>
<path d="M1087 23 C1089 18 1091 28 1093 23 S1097 28 1105 23" stroke="#2E231B" stroke-width="0.8" fill="none" stroke-linecap="round" opacity="0.65"/>
<text x="1096" y="22" text-anchor="middle" font-family="Avenir Next, Helvetica, Arial, sans-serif" font-size="7" fill="#2E231B">105</text>
<rect x="1108" y="26" width="16" height="230" fill="#8B5E3C"/>
<path d="M1107 23 C1109 18 1111 28 1113 23 S1117 28 1125 23" stroke="#FBF6EC" stroke-width="4" fill="none" stroke-linecap="round"/>
<path d="M1107 23 C1109 18 1111 28 1113 23 S1117 28 1125 23" stroke="#2E231B" stroke-width="0.8" fill="none" stroke-linecap="round" opacity="0.65"/>
<text x="1116" y="22" text-anchor="middle" font-family="Avenir Next, Helvetica, Arial, sans-serif" font-size="7" fill="#2E231B">104</text>
<rect x="1128" y="26" width="16" height="230" fill="#9A8A3A"/>
<path d="M1127 23 C1129 18 1131 28 1133 23 S1137 28 1145 23" stroke="#FBF6EC" stroke-width="4" fill="none" stroke-linecap="round"/>
<path d="M1127 23 C1129 18 1131 28 1133 23 S1137 28 1145 23" stroke="#2E231B" stroke-width="0.8" fill="none" stroke-linecap="round" opacity="0.65"/>
<text x="1136" y="22" text-anchor="middle" font-family="Avenir Next, Helvetica, Arial, sans-serif" font-size="7" fill="#2E231B">85.7</text>
<text x="1096" y="280" text-anchor="middle" font-family="Avenir Next, Helvetica, Arial, sans-serif" font-size="11" fill="#2E231B">GitHub Windows</text>
<text x="1096" y="293" text-anchor="middle" font-family="Avenir Next, Helvetica, Arial, sans-serif" font-size="7" fill="#2E231B">windows-2025</text>
<text x="1096" y="306" text-anchor="middle" font-family="Avenir Next, Helvetica, Arial, sans-serif" font-size="7" fill="#2E231B">x86_64-pc-windows-msvc</text>
</g>
</svg>
