<?xml version="1.0" encoding="UTF-8" standalone="no"?>
<!DOCTYPE svg PUBLIC "-//W3C//DTD SVG 1.1//EN"
 "http://www.w3.org/Graphics/SVG/1.1/DTD/svg11.dtd">
<!-- Generated by graphviz version 14.1.5 (20260411.2331)
 -->
<!-- Title: benchmark Pages: 1 -->
<svg width="1014pt" height="151pt"
 viewBox="0.00 0.00 1014.00 151.00" xmlns="http://www.w3.org/2000/svg" xmlns:xlink="http://www.w3.org/1999/xlink">
<g id="graph0" class="graph" transform="scale(1 1) rotate(0) translate(5.76 145.51)">
<title>benchmark</title>
<polygon fill="#fbf6ec" stroke="none" points="-5.76,5.76 -5.76,-145.51 1007.76,-145.51 1007.76,5.76 -5.76,5.76"/>
<!-- benchmark -->
<g id="node1" class="node">
<title>benchmark</title>
<polygon fill="#fff8e8" stroke="none" points="0,-42.75 0,-139.75 18,-139.75 18,-42.75 0,-42.75"/>
<text xml:space="preserve" text-anchor="start" x="2.62" y="-77" font-family="Avenir Next, Helvetica, Arial, sans-serif" font-size="7.00">8.71</text>
<polygon fill="#075a4a" stroke="none" points="5.5,-42.75 5.5,-73.75 12.5,-73.75 12.5,-42.75 5.5,-42.75"/>
<polygon fill="#fff8e8" stroke="none" points="18,-42.75 18,-139.75 36,-139.75 36,-42.75 18,-42.75"/>
<text xml:space="preserve" text-anchor="start" x="20.62" y="-93" font-family="Avenir Next, Helvetica, Arial, sans-serif" font-size="7.00">13.3</text>
<polygon fill="#d48a22" stroke="none" points="23.5,-42.75 23.5,-89.75 30.5,-89.75 30.5,-42.75 23.5,-42.75"/>
<polygon fill="#fff8e8" stroke="none" points="36,-42.75 36,-139.75 54,-139.75 54,-42.75 36,-42.75"/>
<text xml:space="preserve" text-anchor="start" x="38.62" y="-79" font-family="Avenir Next, Helvetica, Arial, sans-serif" font-size="7.00">9.36</text>
<polygon fill="#8f2e2e" stroke="none" points="41.5,-42.75 41.5,-75.75 48.5,-75.75 48.5,-42.75 41.5,-42.75"/>
<polygon fill="#fff8e8" stroke="none" points="54,-42.75 54,-139.75 72,-139.75 72,-42.75 54,-42.75"/>
<text xml:space="preserve" text-anchor="start" x="56.62" y="-79" font-family="Avenir Next, Helvetica, Arial, sans-serif" font-size="7.00">9.36</text>
<polygon fill="#4b6f78" stroke="none" points="59.5,-42.75 59.5,-75.75 66.5,-75.75 66.5,-42.75 59.5,-42.75"/>
<polygon fill="#fff8e8" stroke="none" points="72,-42.75 72,-139.75 90,-139.75 90,-42.75 72,-42.75"/>
<text xml:space="preserve" text-anchor="start" x="74.62" y="-132" font-family="Avenir Next, Helvetica, Arial, sans-serif" font-size="7.00">24.2</text>
<polygon fill="#b95032" stroke="none" points="77.5,-42.75 77.5,-128.75 84.5,-128.75 84.5,-42.75 77.5,-42.75"/>
<polygon fill="#fff8e8" stroke="none" points="0,-20.25 0,-42.75 90,-42.75 90,-20.25 0,-20.25"/>
<text xml:space="preserve" text-anchor="start" x="22.12" y="-34.5" font-family="Avenir Next, Helvetica, Arial, sans-serif" font-size="8.00">AWS t3 KVM</text>
<text xml:space="preserve" text-anchor="start" x="22.5" y="-23.25" font-family="Avenir Next, Helvetica, Arial, sans-serif" font-size="8.00">x86_64&#45;musl</text>
<polygon fill="#fff8e8" stroke="none" points="114,-42.75 114,-139.75 132,-139.75 132,-42.75 114,-42.75"/>
<text xml:space="preserve" text-anchor="start" x="116.62" y="-86" font-family="Avenir Next, Helvetica, Arial, sans-serif" font-size="7.00">6.84</text>
<polygon fill="#075a4a" stroke="none" points="119.5,-42.75 119.5,-82.75 126.5,-82.75 126.5,-42.75 119.5,-42.75"/>
<polygon fill="#fff8e8" stroke="none" points="132,-42.75 132,-139.75 150,-139.75 150,-42.75 132,-42.75"/>
<text xml:space="preserve" text-anchor="start" x="134.62" y="-88" font-family="Avenir Next, Helvetica, Arial, sans-serif" font-size="7.00">7.13</text>
<polygon fill="#d48a22" stroke="none" points="137.5,-42.75 137.5,-84.75 144.5,-84.75 144.5,-42.75 137.5,-42.75"/>
<polygon fill="#fff8e8" stroke="none" points="150,-42.75 150,-139.75 168,-139.75 168,-42.75 150,-42.75"/>
<text xml:space="preserve" text-anchor="start" x="152.62" y="-86" font-family="Avenir Next, Helvetica, Arial, sans-serif" font-size="7.00">6.84</text>
<polygon fill="#8f2e2e" stroke="none" points="155.5,-42.75 155.5,-82.75 162.5,-82.75 162.5,-42.75 155.5,-42.75"/>
<polygon fill="#fff8e8" stroke="none" points="168,-42.75 168,-139.75 186,-139.75 186,-42.75 168,-42.75"/>
<text xml:space="preserve" text-anchor="start" x="170.62" y="-86" font-family="Avenir Next, Helvetica, Arial, sans-serif" font-size="7.00">6.84</text>
<polygon fill="#4b6f78" stroke="none" points="173.5,-42.75 173.5,-82.75 180.5,-82.75 180.5,-42.75 173.5,-42.75"/>
<polygon fill="#fff8e8" stroke="none" points="186,-42.75 186,-139.75 204,-139.75 204,-42.75 186,-42.75"/>
<text xml:space="preserve" text-anchor="start" x="188.62" y="-132" font-family="Avenir Next, Helvetica, Arial, sans-serif" font-size="7.00">14.7</text>
<polygon fill="#b95032" stroke="none" points="191.5,-42.75 191.5,-128.75 198.5,-128.75 198.5,-42.75 191.5,-42.75"/>
<polygon fill="#fff8e8" stroke="none" points="114,-20.25 114,-42.75 204,-42.75 204,-20.25 114,-20.25"/>
<text xml:space="preserve" text-anchor="start" x="131.25" y="-34.5" font-family="Avenir Next, Helvetica, Arial, sans-serif" font-size="8.00">AWS m7i metal</text>
<text xml:space="preserve" text-anchor="start" x="136.5" y="-23.25" font-family="Avenir Next, Helvetica, Arial, sans-serif" font-size="8.00">x86_64&#45;musl</text>
<polygon fill="#fff8e8" stroke="none" points="228,-42.75 228,-139.75 246,-139.75 246,-42.75 228,-42.75"/>
<text xml:space="preserve" text-anchor="start" x="230.62" y="-63" font-family="Avenir Next, Helvetica, Arial, sans-serif" font-size="7.00">13.6</text>
<polygon fill="#075a4a" stroke="none" points="233.5,-42.75 233.5,-59.75 240.5,-59.75 240.5,-42.75 233.5,-42.75"/>
<polygon fill="#fff8e8" stroke="none" points="246,-42.75 246,-139.75 264,-139.75 264,-42.75 246,-42.75"/>
<text xml:space="preserve" text-anchor="start" x="248.62" y="-132" font-family="Avenir Next, Helvetica, Arial, sans-serif" font-size="7.00">69.3</text>
<polygon fill="#d48a22" stroke="none" points="251.5,-42.75 251.5,-128.75 258.5,-128.75 258.5,-42.75 251.5,-42.75"/>
<polygon fill="#fff8e8" stroke="none" points="264,-42.75 264,-139.75 282,-139.75 282,-42.75 264,-42.75"/>
<text xml:space="preserve" text-anchor="start" x="266.62" y="-64" font-family="Avenir Next, Helvetica, Arial, sans-serif" font-size="7.00">14.4</text>
<polygon fill="#8f2e2e" stroke="none" points="269.5,-42.75 269.5,-60.75 276.5,-60.75 276.5,-42.75 269.5,-42.75"/>
<polygon fill="#fff8e8" stroke="none" points="282,-42.75 282,-139.75 300,-139.75 300,-42.75 282,-42.75"/>
<text xml:space="preserve" text-anchor="start" x="284.62" y="-64" font-family="Avenir Next, Helvetica, Arial, sans-serif" font-size="7.00">14.2</text>
<polygon fill="#4b6f78" stroke="none" points="287.5,-42.75 287.5,-60.75 294.5,-60.75 294.5,-42.75 287.5,-42.75"/>
<polygon fill="#fff8e8" stroke="none" points="300,-42.75 300,-139.75 318,-139.75 318,-42.75 300,-42.75"/>
<text xml:space="preserve" text-anchor="start" x="302.62" y="-128" font-family="Avenir Next, Helvetica, Arial, sans-serif" font-size="7.00">66.5</text>
<polygon fill="#b95032" stroke="none" points="305.5,-42.75 305.5,-124.75 312.5,-124.75 312.5,-42.75 305.5,-42.75"/>
<polygon fill="#fff8e8" stroke="none" points="228,-20.25 228,-42.75 318,-42.75 318,-20.25 228,-20.25"/>
<text xml:space="preserve" text-anchor="start" x="250.12" y="-34.5" font-family="Avenir Next, Helvetica, Arial, sans-serif" font-size="8.00">AWS t3 KVM</text>
<text xml:space="preserve" text-anchor="start" x="256.88" y="-23.25" font-family="Avenir Next, Helvetica, Arial, sans-serif" font-size="8.00">x86&#45;musl</text>
<polygon fill="#fff8e8" stroke="none" points="342,-42.75 342,-139.75 360,-139.75 360,-42.75 342,-42.75"/>
<text xml:space="preserve" text-anchor="start" x="344.62" y="-72" font-family="Avenir Next, Helvetica, Arial, sans-serif" font-size="7.00">6.84</text>
<polygon fill="#075a4a" stroke="none" points="347.5,-42.75 347.5,-68.75 354.5,-68.75 354.5,-42.75 347.5,-42.75"/>
<polygon fill="#fff8e8" stroke="none" points="360,-42.75 360,-139.75 378,-139.75 378,-42.75 360,-42.75"/>
<text xml:space="preserve" text-anchor="start" x="362.62" y="-132" font-family="Avenir Next, Helvetica, Arial, sans-serif" font-size="7.00">23.1</text>
<polygon fill="#d48a22" stroke="none" points="365.5,-42.75 365.5,-128.75 372.5,-128.75 372.5,-42.75 365.5,-42.75"/>
<polygon fill="#fff8e8" stroke="none" points="378,-42.75 378,-139.75 396,-139.75 396,-42.75 378,-42.75"/>
<text xml:space="preserve" text-anchor="start" x="380.62" y="-72" font-family="Avenir Next, Helvetica, Arial, sans-serif" font-size="7.00">6.84</text>
<polygon fill="#8f2e2e" stroke="none" points="383.5,-42.75 383.5,-68.75 390.5,-68.75 390.5,-42.75 383.5,-42.75"/>
<polygon fill="#fff8e8" stroke="none" points="396,-42.75 396,-139.75 414,-139.75 414,-42.75 396,-42.75"/>
<text xml:space="preserve" text-anchor="start" x="398.62" y="-72" font-family="Avenir Next, Helvetica, Arial, sans-serif" font-size="7.00">6.84</text>
<polygon fill="#4b6f78" stroke="none" points="401.5,-42.75 401.5,-68.75 408.5,-68.75 408.5,-42.75 401.5,-42.75"/>
<polygon fill="#fff8e8" stroke="none" points="414,-42.75 414,-139.75 432,-139.75 432,-42.75 414,-42.75"/>
<text xml:space="preserve" text-anchor="start" x="416.62" y="-131" font-family="Avenir Next, Helvetica, Arial, sans-serif" font-size="7.00">22.7</text>
<polygon fill="#b95032" stroke="none" points="419.5,-42.75 419.5,-127.75 426.5,-127.75 426.5,-42.75 419.5,-42.75"/>
<polygon fill="#fff8e8" stroke="none" points="342,-20.25 342,-42.75 432,-42.75 432,-20.25 342,-20.25"/>
<text xml:space="preserve" text-anchor="start" x="359.25" y="-34.5" font-family="Avenir Next, Helvetica, Arial, sans-serif" font-size="8.00">AWS m7i metal</text>
<text xml:space="preserve" text-anchor="start" x="370.88" y="-23.25" font-family="Avenir Next, Helvetica, Arial, sans-serif" font-size="8.00">x86&#45;musl</text>
<polygon fill="#fff8e8" stroke="none" points="456,-42.75 456,-139.75 474,-139.75 474,-42.75 456,-42.75"/>
<text xml:space="preserve" text-anchor="start" x="458.62" y="-80" font-family="Avenir Next, Helvetica, Arial, sans-serif" font-size="7.00">15.4</text>
<polygon fill="#075a4a" stroke="none" points="461.5,-42.75 461.5,-76.75 468.5,-76.75 468.5,-42.75 461.5,-42.75"/>
<polygon fill="#fff8e8" stroke="none" points="474,-42.75 474,-139.75 492,-139.75 492,-42.75 474,-42.75"/>
<text xml:space="preserve" text-anchor="start" x="476.62" y="-101" font-family="Avenir Next, Helvetica, Arial, sans-serif" font-size="7.00">25.1</text>
<polygon fill="#d48a22" stroke="none" points="479.5,-42.75 479.5,-97.75 486.5,-97.75 486.5,-42.75 479.5,-42.75"/>
<polygon fill="#fff8e8" stroke="none" points="492,-42.75 492,-139.75 510,-139.75 510,-42.75 492,-42.75"/>
<text xml:space="preserve" text-anchor="start" x="494.62" y="-132" font-family="Avenir Next, Helvetica, Arial, sans-serif" font-size="7.00">39.0</text>
<polygon fill="#8f2e2e" stroke="none" points="497.5,-42.75 497.5,-128.75 504.5,-128.75 504.5,-42.75 497.5,-42.75"/>
<polygon fill="#fff8e8" stroke="none" points="510,-42.75 510,-139.75 528,-139.75 528,-42.75 510,-42.75"/>
<text xml:space="preserve" text-anchor="start" x="512.62" y="-95" font-family="Avenir Next, Helvetica, Arial, sans-serif" font-size="7.00">22.1</text>
<polygon fill="#4b6f78" stroke="none" points="515.5,-42.75 515.5,-91.75 522.5,-91.75 522.5,-42.75 515.5,-42.75"/>
<polygon fill="#fff8e8" stroke="none" points="528,-42.75 528,-139.75 546,-139.75 546,-42.75 528,-42.75"/>
<text xml:space="preserve" text-anchor="start" x="530.62" y="-108" font-family="Avenir Next, Helvetica, Arial, sans-serif" font-size="7.00">28.1</text>
<polygon fill="#b95032" stroke="none" points="533.5,-42.75 533.5,-104.75 540.5,-104.75 540.5,-42.75 533.5,-42.75"/>
<polygon fill="#fff8e8" stroke="none" points="456,-20.25 456,-42.75 546,-42.75 546,-20.25 456,-20.25"/>
<text xml:space="preserve" text-anchor="start" x="487.88" y="-34.5" font-family="Avenir Next, Helvetica, Arial, sans-serif" font-size="8.00">Docker</text>
<text xml:space="preserve" text-anchor="start" x="480" y="-23.25" font-family="Avenir Next, Helvetica, Arial, sans-serif" font-size="8.00">x86_64&#45;gnu</text>
<polygon fill="#fff8e8" stroke="none" points="570,-42.75 570,-139.75 588,-139.75 588,-42.75 570,-42.75"/>
<text xml:space="preserve" text-anchor="start" x="572.62" y="-53" font-family="Avenir Next, Helvetica, Arial, sans-serif" font-size="7.00">25.8</text>
<polygon fill="#075a4a" stroke="none" points="575.5,-42.75 575.5,-49.75 582.5,-49.75 582.5,-42.75 575.5,-42.75"/>
<polygon fill="#fff8e8" stroke="none" points="588,-42.75 588,-139.75 606,-139.75 606,-42.75 588,-42.75"/>
<text xml:space="preserve" text-anchor="start" x="588.75" y="-113" font-family="Avenir Next, Helvetica, Arial, sans-serif" font-size="7.00">253.7</text>
<polygon fill="#d48a22" stroke="none" points="593.5,-42.75 593.5,-109.75 600.5,-109.75 600.5,-42.75 593.5,-42.75"/>
<polygon fill="#fff8e8" stroke="none" points="606,-42.75 606,-139.75 624,-139.75 624,-42.75 606,-42.75"/>
<text xml:space="preserve" text-anchor="start" x="606.75" y="-132" font-family="Avenir Next, Helvetica, Arial, sans-serif" font-size="7.00">323.4</text>
<polygon fill="#8f2e2e" stroke="none" points="611.5,-42.75 611.5,-128.75 618.5,-128.75 618.5,-42.75 611.5,-42.75"/>
<polygon fill="#fff8e8" stroke="none" points="624,-42.75 624,-139.75 642,-139.75 642,-42.75 624,-42.75"/>
<text xml:space="preserve" text-anchor="start" x="624.75" y="-132" font-family="Avenir Next, Helvetica, Arial, sans-serif" font-size="7.00">324.3</text>
<polygon fill="#4b6f78" stroke="none" points="629.5,-42.75 629.5,-128.75 636.5,-128.75 636.5,-42.75 629.5,-42.75"/>
<polygon fill="#fff8e8" stroke="none" points="642,-42.75 642,-139.75 660,-139.75 660,-42.75 642,-42.75"/>
<text xml:space="preserve" text-anchor="start" x="642.75" y="-105" font-family="Avenir Next, Helvetica, Arial, sans-serif" font-size="7.00">222.6</text>
<polygon fill="#b95032" stroke="none" points="647.5,-42.75 647.5,-101.75 654.5,-101.75 654.5,-42.75 647.5,-42.75"/>
<polygon fill="#fff8e8" stroke="none" points="570,-20.25 570,-42.75 660,-42.75 660,-20.25 570,-20.25"/>
<text xml:space="preserve" text-anchor="start" x="601.88" y="-34.5" font-family="Avenir Next, Helvetica, Arial, sans-serif" font-size="8.00">Docker</text>
<text xml:space="preserve" text-anchor="start" x="600.38" y="-23.25" font-family="Avenir Next, Helvetica, Arial, sans-serif" font-size="8.00">x86&#45;gnu</text>
<polygon fill="#fff8e8" stroke="none" points="684,-42.75 684,-139.75 702,-139.75 702,-42.75 684,-42.75"/>
<text xml:space="preserve" text-anchor="start" x="686.62" y="-48" font-family="Avenir Next, Helvetica, Arial, sans-serif" font-size="7.00">0.33</text>
<polygon fill="#075a4a" stroke="none" points="689.5,-42.75 689.5,-44.75 696.5,-44.75 696.5,-42.75 689.5,-42.75"/>
<polygon fill="#fff8e8" stroke="none" points="702,-42.75 702,-139.75 720,-139.75 720,-42.75 702,-42.75"/>
<text xml:space="preserve" text-anchor="start" x="704.62" y="-60" font-family="Avenir Next, Helvetica, Arial, sans-serif" font-size="7.00">4.47</text>
<polygon fill="#d48a22" stroke="none" points="707.5,-42.75 707.5,-56.75 714.5,-56.75 714.5,-42.75 707.5,-42.75"/>
<polygon fill="#fff8e8" stroke="none" points="720,-42.75 720,-139.75 738,-139.75 738,-42.75 720,-42.75"/>
<text xml:space="preserve" text-anchor="start" x="722.62" y="-132" font-family="Avenir Next, Helvetica, Arial, sans-serif" font-size="7.00">27.2</text>
<polygon fill="#8f2e2e" stroke="none" points="725.5,-42.75 725.5,-128.75 732.5,-128.75 732.5,-42.75 725.5,-42.75"/>
<polygon fill="#fff8e8" stroke="none" points="738,-42.75 738,-139.75 756,-139.75 756,-42.75 738,-42.75"/>
<text xml:space="preserve" text-anchor="start" x="740.62" y="-132" font-family="Avenir Next, Helvetica, Arial, sans-serif" font-size="7.00">27.3</text>
<polygon fill="#4b6f78" stroke="none" points="743.5,-42.75 743.5,-128.75 750.5,-128.75 750.5,-42.75 743.5,-42.75"/>
<polygon fill="#fff8e8" stroke="none" points="756,-42.75 756,-139.75 774,-139.75 774,-42.75 756,-42.75"/>
<text xml:space="preserve" text-anchor="start" x="758.62" y="-110" font-family="Avenir Next, Helvetica, Arial, sans-serif" font-size="7.00">20.2</text>
<polygon fill="#b95032" stroke="none" points="761.5,-42.75 761.5,-106.75 768.5,-106.75 768.5,-42.75 761.5,-42.75"/>
<polygon fill="#fff8e8" stroke="none" points="684,-20.25 684,-42.75 774,-42.75 774,-20.25 684,-20.25"/>
<text xml:space="preserve" text-anchor="start" x="715.88" y="-34.5" font-family="Avenir Next, Helvetica, Arial, sans-serif" font-size="8.00">Docker</text>
<text xml:space="preserve" text-anchor="start" x="706.12" y="-23.25" font-family="Avenir Next, Helvetica, Arial, sans-serif" font-size="8.00">aarch64&#45;gnu</text>
<polygon fill="#fff8e8" stroke="none" points="798,-42.75 798,-139.75 816,-139.75 816,-42.75 798,-42.75"/>
<text xml:space="preserve" text-anchor="start" x="800.62" y="-65" font-family="Avenir Next, Helvetica, Arial, sans-serif" font-size="7.00">59.6</text>
<polygon fill="#075a4a" stroke="none" points="803.5,-42.75 803.5,-61.75 810.5,-61.75 810.5,-42.75 803.5,-42.75"/>
<polygon fill="#fff8e8" stroke="none" points="816,-42.75 816,-139.75 834,-139.75 834,-42.75 816,-42.75"/>
<text xml:space="preserve" text-anchor="start" x="816.75" y="-114" font-family="Avenir Next, Helvetica, Arial, sans-serif" font-size="7.00">215.3</text>
<polygon fill="#d48a22" stroke="none" points="821.5,-42.75 821.5,-110.75 828.5,-110.75 828.5,-42.75 821.5,-42.75"/>
<polygon fill="#fff8e8" stroke="none" points="834,-42.75 834,-139.75 852,-139.75 852,-42.75 834,-42.75"/>
<text xml:space="preserve" text-anchor="start" x="834.75" y="-132" font-family="Avenir Next, Helvetica, Arial, sans-serif" font-size="7.00">271.3</text>
<polygon fill="#8f2e2e" stroke="none" points="839.5,-42.75 839.5,-128.75 846.5,-128.75 846.5,-42.75 839.5,-42.75"/>
<polygon fill="#fff8e8" stroke="none" points="852,-42.75 852,-139.75 870,-139.75 870,-42.75 852,-42.75"/>
<text xml:space="preserve" text-anchor="start" x="852.75" y="-132" font-family="Avenir Next, Helvetica, Arial, sans-serif" font-size="7.00">271.2</text>
<polygon fill="#4b6f78" stroke="none" points="857.5,-42.75 857.5,-128.75 864.5,-128.75 864.5,-42.75 857.5,-42.75"/>
<polygon fill="#fff8e8" stroke="none" points="870,-42.75 870,-139.75 888,-139.75 888,-42.75 870,-42.75"/>
<text xml:space="preserve" text-anchor="start" x="870.75" y="-105" font-family="Avenir Next, Helvetica, Arial, sans-serif" font-size="7.00">185.2</text>
<polygon fill="#b95032" stroke="none" points="875.5,-42.75 875.5,-101.75 882.5,-101.75 882.5,-42.75 875.5,-42.75"/>
<polygon fill="#fff8e8" stroke="none" points="798,-20.25 798,-42.75 888,-42.75 888,-20.25 798,-20.25"/>
<text xml:space="preserve" text-anchor="start" x="829.88" y="-34.5" font-family="Avenir Next, Helvetica, Arial, sans-serif" font-size="8.00">Docker</text>
<text xml:space="preserve" text-anchor="start" x="822" y="-23.25" font-family="Avenir Next, Helvetica, Arial, sans-serif" font-size="8.00">riscv64&#45;gnu</text>
<polygon fill="#fff8e8" stroke="none" points="912,-42.75 912,-139.75 930,-139.75 930,-42.75 912,-42.75"/>
<text xml:space="preserve" text-anchor="start" x="914.62" y="-48" font-family="Avenir Next, Helvetica, Arial, sans-serif" font-size="7.00">0.33</text>
<polygon fill="#075a4a" stroke="none" points="917.5,-42.75 917.5,-44.75 924.5,-44.75 924.5,-42.75 917.5,-42.75"/>
<polygon fill="#fff8e8" stroke="none" points="930,-42.75 930,-139.75 948,-139.75 948,-42.75 930,-42.75"/>
<text xml:space="preserve" text-anchor="start" x="932.62" y="-61" font-family="Avenir Next, Helvetica, Arial, sans-serif" font-size="7.00">4.62</text>
<polygon fill="#d48a22" stroke="none" points="935.5,-42.75 935.5,-57.75 942.5,-57.75 942.5,-42.75 935.5,-42.75"/>
<polygon fill="#fff8e8" stroke="none" points="948,-42.75 948,-139.75 966,-139.75 966,-42.75 948,-42.75"/>
<text xml:space="preserve" text-anchor="start" x="950.62" y="-132" font-family="Avenir Next, Helvetica, Arial, sans-serif" font-size="7.00">25.7</text>
<polygon fill="#8f2e2e" stroke="none" points="953.5,-42.75 953.5,-128.75 960.5,-128.75 960.5,-42.75 953.5,-42.75"/>
<polygon fill="#fff8e8" stroke="none" points="966,-42.75 966,-139.75 984,-139.75 984,-42.75 966,-42.75"/>
<text xml:space="preserve" text-anchor="start" x="968.62" y="-132" font-family="Avenir Next, Helvetica, Arial, sans-serif" font-size="7.00">25.7</text>
<polygon fill="#4b6f78" stroke="none" points="971.5,-42.75 971.5,-128.75 978.5,-128.75 978.5,-42.75 971.5,-42.75"/>
<polygon fill="#fff8e8" stroke="none" points="984,-42.75 984,-139.75 1002,-139.75 1002,-42.75 984,-42.75"/>
<text xml:space="preserve" text-anchor="start" x="986.62" y="-108" font-family="Avenir Next, Helvetica, Arial, sans-serif" font-size="7.00">18.4</text>
<polygon fill="#b95032" stroke="none" points="989.5,-42.75 989.5,-104.75 996.5,-104.75 996.5,-42.75 989.5,-42.75"/>
<polygon fill="#fff8e8" stroke="none" points="912,-20.25 912,-42.75 1002,-42.75 1002,-20.25 912,-20.25"/>
<text xml:space="preserve" text-anchor="start" x="933.75" y="-34.5" font-family="Avenir Next, Helvetica, Arial, sans-serif" font-size="8.00">local macOS</text>
<text xml:space="preserve" text-anchor="start" x="942.38" y="-23.25" font-family="Avenir Next, Helvetica, Arial, sans-serif" font-size="8.00">aarch64</text>
<text xml:space="preserve" text-anchor="start" x="347.62" y="-5.75" font-family="Avenir Next, Helvetica, Arial, sans-serif" font-size="10.00"> &#160;&#160;&#160;&#160;&#160;&#160;&#160;&#160;&#160;&#160;&#160;</text>
<text xml:space="preserve" text-anchor="start" x="374.62" y="-5.75" font-family="Avenir Next, Helvetica, Arial, sans-serif" font-size="7.00"> &#160;&#160;&#160;&#160;&#160;&#160;&#160;&#160;&#160;&#160;&#160;&#160;&#160;</text>
<text xml:space="preserve" text-anchor="start" x="395.62" y="-5.75" font-family="Avenir Next, Helvetica, Arial, sans-serif" font-size="7.00" fill="#075a4a">■</text>
<text xml:space="preserve" text-anchor="start" x="400.12" y="-5.75" font-family="Avenir Next, Helvetica, Arial, sans-serif" font-size="7.00"> tach   &#160;&#160;&#160;&#160;&#160;&#160;&#160;&#160;&#160;&#160;&#160;&#160;&#160;</text>
<text xml:space="preserve" text-anchor="start" x="439.12" y="-5.75" font-family="Avenir Next, Helvetica, Arial, sans-serif" font-size="7.00" fill="#d48a22">■</text>
<text xml:space="preserve" text-anchor="start" x="443.62" y="-5.75" font-family="Avenir Next, Helvetica, Arial, sans-serif" font-size="7.00"> quanta   &#160;&#160;&#160;&#160;&#160;&#160;&#160;&#160;&#160;&#160;&#160;&#160;&#160;</text>
<text xml:space="preserve" text-anchor="start" x="490.88" y="-5.75" font-family="Avenir Next, Helvetica, Arial, sans-serif" font-size="7.00" fill="#8f2e2e">■</text>
<text xml:space="preserve" text-anchor="start" x="495.38" y="-5.75" font-family="Avenir Next, Helvetica, Arial, sans-serif" font-size="7.00"> minstant   &#160;&#160;&#160;&#160;&#160;&#160;&#160;&#160;&#160;&#160;&#160;&#160;&#160;</text>
<text xml:space="preserve" text-anchor="start" x="547.12" y="-5.75" font-family="Avenir Next, Helvetica, Arial, sans-serif" font-size="7.00" fill="#4b6f78">■</text>
<text xml:space="preserve" text-anchor="start" x="551.62" y="-5.75" font-family="Avenir Next, Helvetica, Arial, sans-serif" font-size="7.00"> fastant   &#160;&#160;&#160;&#160;&#160;&#160;&#160;&#160;&#160;&#160;&#160;&#160;&#160;</text>
<text xml:space="preserve" text-anchor="start" x="598.12" y="-5.75" font-family="Avenir Next, Helvetica, Arial, sans-serif" font-size="7.00" fill="#b95032">■</text>
<text xml:space="preserve" text-anchor="start" x="602.62" y="-5.75" font-family="Avenir Next, Helvetica, Arial, sans-serif" font-size="7.00"> std &#160;&#160;&#160;&#160;&#160;&#160;&#160;&#160;&#160;&#160;&#160;</text>
<text xml:space="preserve" text-anchor="start" x="631.88" y="-5.75" font-family="Avenir Next, Helvetica, Arial, sans-serif" font-size="10.00"> &#160;&#160;&#160;&#160;&#160;&#160;&#160;&#160;&#160;</text>
</g>
</g>
</svg>
