<?xml version="1.0" encoding="UTF-8" standalone="no"?>
<!DOCTYPE svg PUBLIC "-//W3C//DTD SVG 1.1//EN"
 "http://www.w3.org/Graphics/SVG/1.1/DTD/svg11.dtd">
<!-- Generated by graphviz version 14.1.5 (20260411.2331)
 -->
<!-- Title: benchmark Pages: 1 -->
<svg width="886pt" height="155pt"
 viewBox="0.00 0.00 886.00 155.00" xmlns="http://www.w3.org/2000/svg" xmlns:xlink="http://www.w3.org/1999/xlink">
<g id="graph0" class="graph" transform="scale(1 1) rotate(0) translate(5.76 149.51)">
<title>benchmark</title>
<polygon fill="#fbf6ec" stroke="none" points="-5.76,5.76 -5.76,-149.51 880.26,-149.51 880.26,5.76 -5.76,5.76"/>
<!-- benchmark -->
<g id="node1" class="node">
<title>benchmark</title>
<text xml:space="preserve" text-anchor="start" x="328.88" y="-135.25" font-family="Avenir Next, Helvetica, Arial, sans-serif" font-size="10.00"> &#160;&#160;&#160;&#160;&#160;&#160;&#160;&#160;&#160;&#160;&#160;</text>
<text xml:space="preserve" text-anchor="start" x="355.88" y="-135.25" font-family="Avenir Next, Helvetica, Arial, sans-serif" font-size="8.00" fill="#075a4a">■</text>
<text xml:space="preserve" text-anchor="start" x="360.38" y="-135.25" font-family="Avenir Next, Helvetica, Arial, sans-serif" font-size="8.00"> tach   </text>
<text xml:space="preserve" text-anchor="start" x="384.38" y="-135.25" font-family="Avenir Next, Helvetica, Arial, sans-serif" font-size="8.00" fill="#d48a22">■</text>
<text xml:space="preserve" text-anchor="start" x="388.88" y="-135.25" font-family="Avenir Next, Helvetica, Arial, sans-serif" font-size="8.00"> quanta   </text>
<text xml:space="preserve" text-anchor="start" x="423.38" y="-135.25" font-family="Avenir Next, Helvetica, Arial, sans-serif" font-size="8.00" fill="#8f2e2e">■</text>
<text xml:space="preserve" text-anchor="start" x="427.88" y="-135.25" font-family="Avenir Next, Helvetica, Arial, sans-serif" font-size="8.00"> minstant   </text>
<text xml:space="preserve" text-anchor="start" x="467.62" y="-135.25" font-family="Avenir Next, Helvetica, Arial, sans-serif" font-size="8.00" fill="#4b6f78">■</text>
<text xml:space="preserve" text-anchor="start" x="472.12" y="-135.25" font-family="Avenir Next, Helvetica, Arial, sans-serif" font-size="8.00"> fastant   </text>
<text xml:space="preserve" text-anchor="start" x="505.12" y="-135.25" font-family="Avenir Next, Helvetica, Arial, sans-serif" font-size="8.00" fill="#b95032">■</text>
<text xml:space="preserve" text-anchor="start" x="509.62" y="-135.25" font-family="Avenir Next, Helvetica, Arial, sans-serif" font-size="8.00"> std</text>
<text xml:space="preserve" text-anchor="start" x="523.12" y="-135.25" font-family="Avenir Next, Helvetica, Arial, sans-serif" font-size="10.00"> &#160;&#160;&#160;&#160;&#160;&#160;&#160;&#160;&#160;</text>
<polygon fill="#fff8e8" stroke="none" points="0,-25.5 0,-123.5 15,-123.5 15,-25.5 0,-25.5"/>
<text xml:space="preserve" text-anchor="start" x="1.12" y="-60.62" font-family="Avenir Next, Helvetica, Arial, sans-serif" font-size="6.00">8.71</text>
<polygon fill="#075a4a" stroke="none" points="2.5,-25.5 2.5,-56.5 12.5,-56.5 12.5,-25.5 2.5,-25.5"/>
<polygon fill="#fff8e8" stroke="none" points="15,-25.5 15,-123.5 30,-123.5 30,-25.5 15,-25.5"/>
<text xml:space="preserve" text-anchor="start" x="16.12" y="-76.62" font-family="Avenir Next, Helvetica, Arial, sans-serif" font-size="6.00">13.3</text>
<polygon fill="#d48a22" stroke="none" points="17.5,-25.5 17.5,-72.5 27.5,-72.5 27.5,-25.5 17.5,-25.5"/>
<polygon fill="#fff8e8" stroke="none" points="30,-25.5 30,-123.5 45,-123.5 45,-25.5 30,-25.5"/>
<text xml:space="preserve" text-anchor="start" x="31.12" y="-62.62" font-family="Avenir Next, Helvetica, Arial, sans-serif" font-size="6.00">9.36</text>
<polygon fill="#8f2e2e" stroke="none" points="32.5,-25.5 32.5,-58.5 42.5,-58.5 42.5,-25.5 32.5,-25.5"/>
<polygon fill="#fff8e8" stroke="none" points="45,-25.5 45,-123.5 60,-123.5 60,-25.5 45,-25.5"/>
<text xml:space="preserve" text-anchor="start" x="46.12" y="-62.62" font-family="Avenir Next, Helvetica, Arial, sans-serif" font-size="6.00">9.36</text>
<polygon fill="#4b6f78" stroke="none" points="47.5,-25.5 47.5,-58.5 57.5,-58.5 57.5,-25.5 47.5,-25.5"/>
<polygon fill="#fff8e8" stroke="none" points="60,-25.5 60,-123.5 75,-123.5 75,-25.5 60,-25.5"/>
<text xml:space="preserve" text-anchor="start" x="61.12" y="-115.62" font-family="Avenir Next, Helvetica, Arial, sans-serif" font-size="6.00">24.2</text>
<polygon fill="#b95032" stroke="none" points="62.5,-25.5 62.5,-111.5 72.5,-111.5 72.5,-25.5 62.5,-25.5"/>
<polygon fill="#fff8e8" stroke="none" points="0,0 0,-25.5 75,-25.5 75,0 0,0"/>
<text xml:space="preserve" text-anchor="start" x="11.25" y="-16.5" font-family="Avenir Next, Helvetica, Arial, sans-serif" font-size="9.00">AWS t3 KVM</text>
<text xml:space="preserve" text-anchor="start" x="11.25" y="-3.75" font-family="Avenir Next, Helvetica, Arial, sans-serif" font-size="9.00">x86_64&#45;musl</text>
<polygon fill="#fff8e8" stroke="none" points="99,-25.5 99,-123.5 114,-123.5 114,-25.5 99,-25.5"/>
<text xml:space="preserve" text-anchor="start" x="100.12" y="-69.62" font-family="Avenir Next, Helvetica, Arial, sans-serif" font-size="6.00">6.84</text>
<polygon fill="#075a4a" stroke="none" points="101.5,-25.5 101.5,-65.5 111.5,-65.5 111.5,-25.5 101.5,-25.5"/>
<polygon fill="#fff8e8" stroke="none" points="114,-25.5 114,-123.5 129,-123.5 129,-25.5 114,-25.5"/>
<text xml:space="preserve" text-anchor="start" x="115.12" y="-71.62" font-family="Avenir Next, Helvetica, Arial, sans-serif" font-size="6.00">7.13</text>
<polygon fill="#d48a22" stroke="none" points="116.5,-25.5 116.5,-67.5 126.5,-67.5 126.5,-25.5 116.5,-25.5"/>
<polygon fill="#fff8e8" stroke="none" points="129,-25.5 129,-123.5 144,-123.5 144,-25.5 129,-25.5"/>
<text xml:space="preserve" text-anchor="start" x="130.12" y="-69.62" font-family="Avenir Next, Helvetica, Arial, sans-serif" font-size="6.00">6.84</text>
<polygon fill="#8f2e2e" stroke="none" points="131.5,-25.5 131.5,-65.5 141.5,-65.5 141.5,-25.5 131.5,-25.5"/>
<polygon fill="#fff8e8" stroke="none" points="144,-25.5 144,-123.5 159,-123.5 159,-25.5 144,-25.5"/>
<text xml:space="preserve" text-anchor="start" x="145.12" y="-69.62" font-family="Avenir Next, Helvetica, Arial, sans-serif" font-size="6.00">6.84</text>
<polygon fill="#4b6f78" stroke="none" points="146.5,-25.5 146.5,-65.5 156.5,-65.5 156.5,-25.5 146.5,-25.5"/>
<polygon fill="#fff8e8" stroke="none" points="159,-25.5 159,-123.5 174,-123.5 174,-25.5 159,-25.5"/>
<text xml:space="preserve" text-anchor="start" x="160.12" y="-115.62" font-family="Avenir Next, Helvetica, Arial, sans-serif" font-size="6.00">14.7</text>
<polygon fill="#b95032" stroke="none" points="161.5,-25.5 161.5,-111.5 171.5,-111.5 171.5,-25.5 161.5,-25.5"/>
<polygon fill="#fff8e8" stroke="none" points="99,0 99,-25.5 174,-25.5 174,0 99,0"/>
<text xml:space="preserve" text-anchor="start" x="104.62" y="-16.5" font-family="Avenir Next, Helvetica, Arial, sans-serif" font-size="9.00">AWS m7i metal</text>
<text xml:space="preserve" text-anchor="start" x="110.25" y="-3.75" font-family="Avenir Next, Helvetica, Arial, sans-serif" font-size="9.00">x86_64&#45;musl</text>
<polygon fill="#fff8e8" stroke="none" points="198,-25.5 198,-123.5 213,-123.5 213,-25.5 198,-25.5"/>
<text xml:space="preserve" text-anchor="start" x="199.12" y="-46.62" font-family="Avenir Next, Helvetica, Arial, sans-serif" font-size="6.00">13.6</text>
<polygon fill="#075a4a" stroke="none" points="200.5,-25.5 200.5,-42.5 210.5,-42.5 210.5,-25.5 200.5,-25.5"/>
<polygon fill="#fff8e8" stroke="none" points="213,-25.5 213,-123.5 228,-123.5 228,-25.5 213,-25.5"/>
<text xml:space="preserve" text-anchor="start" x="214.12" y="-115.62" font-family="Avenir Next, Helvetica, Arial, sans-serif" font-size="6.00">69.3</text>
<polygon fill="#d48a22" stroke="none" points="215.5,-25.5 215.5,-111.5 225.5,-111.5 225.5,-25.5 215.5,-25.5"/>
<polygon fill="#fff8e8" stroke="none" points="228,-25.5 228,-123.5 243,-123.5 243,-25.5 228,-25.5"/>
<text xml:space="preserve" text-anchor="start" x="229.12" y="-47.62" font-family="Avenir Next, Helvetica, Arial, sans-serif" font-size="6.00">14.4</text>
<polygon fill="#8f2e2e" stroke="none" points="230.5,-25.5 230.5,-43.5 240.5,-43.5 240.5,-25.5 230.5,-25.5"/>
<polygon fill="#fff8e8" stroke="none" points="243,-25.5 243,-123.5 258,-123.5 258,-25.5 243,-25.5"/>
<text xml:space="preserve" text-anchor="start" x="244.12" y="-47.62" font-family="Avenir Next, Helvetica, Arial, sans-serif" font-size="6.00">14.2</text>
<polygon fill="#4b6f78" stroke="none" points="245.5,-25.5 245.5,-43.5 255.5,-43.5 255.5,-25.5 245.5,-25.5"/>
<polygon fill="#fff8e8" stroke="none" points="258,-25.5 258,-123.5 273,-123.5 273,-25.5 258,-25.5"/>
<text xml:space="preserve" text-anchor="start" x="259.12" y="-111.62" font-family="Avenir Next, Helvetica, Arial, sans-serif" font-size="6.00">66.5</text>
<polygon fill="#b95032" stroke="none" points="260.5,-25.5 260.5,-107.5 270.5,-107.5 270.5,-25.5 260.5,-25.5"/>
<polygon fill="#fff8e8" stroke="none" points="198,0 198,-25.5 273,-25.5 273,0 198,0"/>
<text xml:space="preserve" text-anchor="start" x="209.25" y="-16.5" font-family="Avenir Next, Helvetica, Arial, sans-serif" font-size="9.00">AWS t3 KVM</text>
<text xml:space="preserve" text-anchor="start" x="216.75" y="-3.75" font-family="Avenir Next, Helvetica, Arial, sans-serif" font-size="9.00">x86&#45;musl</text>
<polygon fill="#fff8e8" stroke="none" points="297,-25.5 297,-123.5 312,-123.5 312,-25.5 297,-25.5"/>
<text xml:space="preserve" text-anchor="start" x="298.12" y="-55.62" font-family="Avenir Next, Helvetica, Arial, sans-serif" font-size="6.00">6.84</text>
<polygon fill="#075a4a" stroke="none" points="299.5,-25.5 299.5,-51.5 309.5,-51.5 309.5,-25.5 299.5,-25.5"/>
<polygon fill="#fff8e8" stroke="none" points="312,-25.5 312,-123.5 327,-123.5 327,-25.5 312,-25.5"/>
<text xml:space="preserve" text-anchor="start" x="313.12" y="-115.62" font-family="Avenir Next, Helvetica, Arial, sans-serif" font-size="6.00">23.1</text>
<polygon fill="#d48a22" stroke="none" points="314.5,-25.5 314.5,-111.5 324.5,-111.5 324.5,-25.5 314.5,-25.5"/>
<polygon fill="#fff8e8" stroke="none" points="327,-25.5 327,-123.5 342,-123.5 342,-25.5 327,-25.5"/>
<text xml:space="preserve" text-anchor="start" x="328.12" y="-55.62" font-family="Avenir Next, Helvetica, Arial, sans-serif" font-size="6.00">6.84</text>
<polygon fill="#8f2e2e" stroke="none" points="329.5,-25.5 329.5,-51.5 339.5,-51.5 339.5,-25.5 329.5,-25.5"/>
<polygon fill="#fff8e8" stroke="none" points="342,-25.5 342,-123.5 357,-123.5 357,-25.5 342,-25.5"/>
<text xml:space="preserve" text-anchor="start" x="343.12" y="-55.62" font-family="Avenir Next, Helvetica, Arial, sans-serif" font-size="6.00">6.84</text>
<polygon fill="#4b6f78" stroke="none" points="344.5,-25.5 344.5,-51.5 354.5,-51.5 354.5,-25.5 344.5,-25.5"/>
<polygon fill="#fff8e8" stroke="none" points="357,-25.5 357,-123.5 372,-123.5 372,-25.5 357,-25.5"/>
<text xml:space="preserve" text-anchor="start" x="358.12" y="-114.62" font-family="Avenir Next, Helvetica, Arial, sans-serif" font-size="6.00">22.7</text>
<polygon fill="#b95032" stroke="none" points="359.5,-25.5 359.5,-110.5 369.5,-110.5 369.5,-25.5 359.5,-25.5"/>
<polygon fill="#fff8e8" stroke="none" points="297,0 297,-25.5 372,-25.5 372,0 297,0"/>
<text xml:space="preserve" text-anchor="start" x="302.62" y="-16.5" font-family="Avenir Next, Helvetica, Arial, sans-serif" font-size="9.00">AWS m7i metal</text>
<text xml:space="preserve" text-anchor="start" x="315.75" y="-3.75" font-family="Avenir Next, Helvetica, Arial, sans-serif" font-size="9.00">x86&#45;musl</text>
<polygon fill="#fff8e8" stroke="none" points="396,-25.5 396,-123.5 411,-123.5 411,-25.5 396,-25.5"/>
<text xml:space="preserve" text-anchor="start" x="397.12" y="-63.62" font-family="Avenir Next, Helvetica, Arial, sans-serif" font-size="6.00">15.4</text>
<polygon fill="#075a4a" stroke="none" points="398.5,-25.5 398.5,-59.5 408.5,-59.5 408.5,-25.5 398.5,-25.5"/>
<polygon fill="#fff8e8" stroke="none" points="411,-25.5 411,-123.5 426,-123.5 426,-25.5 411,-25.5"/>
<text xml:space="preserve" text-anchor="start" x="412.12" y="-84.62" font-family="Avenir Next, Helvetica, Arial, sans-serif" font-size="6.00">25.1</text>
<polygon fill="#d48a22" stroke="none" points="413.5,-25.5 413.5,-80.5 423.5,-80.5 423.5,-25.5 413.5,-25.5"/>
<polygon fill="#fff8e8" stroke="none" points="426,-25.5 426,-123.5 441,-123.5 441,-25.5 426,-25.5"/>
<text xml:space="preserve" text-anchor="start" x="427.12" y="-115.62" font-family="Avenir Next, Helvetica, Arial, sans-serif" font-size="6.00">39.0</text>
<polygon fill="#8f2e2e" stroke="none" points="428.5,-25.5 428.5,-111.5 438.5,-111.5 438.5,-25.5 428.5,-25.5"/>
<polygon fill="#fff8e8" stroke="none" points="441,-25.5 441,-123.5 456,-123.5 456,-25.5 441,-25.5"/>
<text xml:space="preserve" text-anchor="start" x="442.12" y="-78.62" font-family="Avenir Next, Helvetica, Arial, sans-serif" font-size="6.00">22.1</text>
<polygon fill="#4b6f78" stroke="none" points="443.5,-25.5 443.5,-74.5 453.5,-74.5 453.5,-25.5 443.5,-25.5"/>
<polygon fill="#fff8e8" stroke="none" points="456,-25.5 456,-123.5 471,-123.5 471,-25.5 456,-25.5"/>
<text xml:space="preserve" text-anchor="start" x="457.12" y="-91.62" font-family="Avenir Next, Helvetica, Arial, sans-serif" font-size="6.00">28.1</text>
<polygon fill="#b95032" stroke="none" points="458.5,-25.5 458.5,-87.5 468.5,-87.5 468.5,-25.5 458.5,-25.5"/>
<polygon fill="#fff8e8" stroke="none" points="396,0 396,-25.5 471,-25.5 471,0 396,0"/>
<text xml:space="preserve" text-anchor="start" x="418.88" y="-16.5" font-family="Avenir Next, Helvetica, Arial, sans-serif" font-size="9.00">Docker</text>
<text xml:space="preserve" text-anchor="start" x="408.75" y="-3.75" font-family="Avenir Next, Helvetica, Arial, sans-serif" font-size="9.00">x86_64&#45;gnu</text>
<polygon fill="#fff8e8" stroke="none" points="495,-25.5 495,-123.5 507.75,-123.5 507.75,-25.5 495,-25.5"/>
<text xml:space="preserve" text-anchor="start" x="495" y="-36.62" font-family="Avenir Next, Helvetica, Arial, sans-serif" font-size="6.00">25.8</text>
<polygon fill="#075a4a" stroke="none" points="496.38,-25.5 496.38,-32.5 506.38,-32.5 506.38,-25.5 496.38,-25.5"/>
<polygon fill="#fff8e8" stroke="none" points="507.75,-25.5 507.75,-123.5 524.25,-123.5 524.25,-25.5 507.75,-25.5"/>
<text xml:space="preserve" text-anchor="start" x="507.75" y="-96.62" font-family="Avenir Next, Helvetica, Arial, sans-serif" font-size="6.00">253.7</text>
<polygon fill="#d48a22" stroke="none" points="511,-25.5 511,-92.5 521,-92.5 521,-25.5 511,-25.5"/>
<polygon fill="#fff8e8" stroke="none" points="524.25,-25.5 524.25,-123.5 540.75,-123.5 540.75,-25.5 524.25,-25.5"/>
<text xml:space="preserve" text-anchor="start" x="524.25" y="-115.62" font-family="Avenir Next, Helvetica, Arial, sans-serif" font-size="6.00">323.4</text>
<polygon fill="#8f2e2e" stroke="none" points="527.5,-25.5 527.5,-111.5 537.5,-111.5 537.5,-25.5 527.5,-25.5"/>
<polygon fill="#fff8e8" stroke="none" points="540.75,-25.5 540.75,-123.5 557.25,-123.5 557.25,-25.5 540.75,-25.5"/>
<text xml:space="preserve" text-anchor="start" x="540.75" y="-115.62" font-family="Avenir Next, Helvetica, Arial, sans-serif" font-size="6.00">324.3</text>
<polygon fill="#4b6f78" stroke="none" points="544,-25.5 544,-111.5 554,-111.5 554,-25.5 544,-25.5"/>
<polygon fill="#fff8e8" stroke="none" points="557.25,-25.5 557.25,-123.5 573.75,-123.5 573.75,-25.5 557.25,-25.5"/>
<text xml:space="preserve" text-anchor="start" x="557.25" y="-88.62" font-family="Avenir Next, Helvetica, Arial, sans-serif" font-size="6.00">222.6</text>
<polygon fill="#b95032" stroke="none" points="560.5,-25.5 560.5,-84.5 570.5,-84.5 570.5,-25.5 560.5,-25.5"/>
<polygon fill="#fff8e8" stroke="none" points="495,0 495,-25.5 573.75,-25.5 573.75,0 495,0"/>
<text xml:space="preserve" text-anchor="start" x="519.75" y="-16.5" font-family="Avenir Next, Helvetica, Arial, sans-serif" font-size="9.00">Docker</text>
<text xml:space="preserve" text-anchor="start" x="517.12" y="-3.75" font-family="Avenir Next, Helvetica, Arial, sans-serif" font-size="9.00">x86&#45;gnu</text>
<polygon fill="#fff8e8" stroke="none" points="597.75,-25.5 597.75,-123.5 612.75,-123.5 612.75,-25.5 597.75,-25.5"/>
<text xml:space="preserve" text-anchor="start" x="598.88" y="-31.62" font-family="Avenir Next, Helvetica, Arial, sans-serif" font-size="6.00">0.33</text>
<polygon fill="#075a4a" stroke="none" points="600.25,-25.5 600.25,-27.5 610.25,-27.5 610.25,-25.5 600.25,-25.5"/>
<polygon fill="#fff8e8" stroke="none" points="612.75,-25.5 612.75,-123.5 627.75,-123.5 627.75,-25.5 612.75,-25.5"/>
<text xml:space="preserve" text-anchor="start" x="613.88" y="-43.62" font-family="Avenir Next, Helvetica, Arial, sans-serif" font-size="6.00">4.47</text>
<polygon fill="#d48a22" stroke="none" points="615.25,-25.5 615.25,-39.5 625.25,-39.5 625.25,-25.5 615.25,-25.5"/>
<polygon fill="#fff8e8" stroke="none" points="627.75,-25.5 627.75,-123.5 642.75,-123.5 642.75,-25.5 627.75,-25.5"/>
<text xml:space="preserve" text-anchor="start" x="628.88" y="-115.62" font-family="Avenir Next, Helvetica, Arial, sans-serif" font-size="6.00">27.2</text>
<polygon fill="#8f2e2e" stroke="none" points="630.25,-25.5 630.25,-111.5 640.25,-111.5 640.25,-25.5 630.25,-25.5"/>
<polygon fill="#fff8e8" stroke="none" points="642.75,-25.5 642.75,-123.5 657.75,-123.5 657.75,-25.5 642.75,-25.5"/>
<text xml:space="preserve" text-anchor="start" x="643.88" y="-115.62" font-family="Avenir Next, Helvetica, Arial, sans-serif" font-size="6.00">27.3</text>
<polygon fill="#4b6f78" stroke="none" points="645.25,-25.5 645.25,-111.5 655.25,-111.5 655.25,-25.5 645.25,-25.5"/>
<polygon fill="#fff8e8" stroke="none" points="657.75,-25.5 657.75,-123.5 672.75,-123.5 672.75,-25.5 657.75,-25.5"/>
<text xml:space="preserve" text-anchor="start" x="658.88" y="-93.62" font-family="Avenir Next, Helvetica, Arial, sans-serif" font-size="6.00">20.2</text>
<polygon fill="#b95032" stroke="none" points="660.25,-25.5 660.25,-89.5 670.25,-89.5 670.25,-25.5 660.25,-25.5"/>
<polygon fill="#fff8e8" stroke="none" points="597.75,0 597.75,-25.5 672.75,-25.5 672.75,0 597.75,0"/>
<text xml:space="preserve" text-anchor="start" x="620.62" y="-16.5" font-family="Avenir Next, Helvetica, Arial, sans-serif" font-size="9.00">Docker</text>
<text xml:space="preserve" text-anchor="start" x="609.38" y="-3.75" font-family="Avenir Next, Helvetica, Arial, sans-serif" font-size="9.00">aarch64&#45;gnu</text>
<polygon fill="#fff8e8" stroke="none" points="696.75,-25.5 696.75,-123.5 709.5,-123.5 709.5,-25.5 696.75,-25.5"/>
<text xml:space="preserve" text-anchor="start" x="696.75" y="-48.62" font-family="Avenir Next, Helvetica, Arial, sans-serif" font-size="6.00">59.6</text>
<polygon fill="#075a4a" stroke="none" points="698.12,-25.5 698.12,-44.5 708.12,-44.5 708.12,-25.5 698.12,-25.5"/>
<polygon fill="#fff8e8" stroke="none" points="709.5,-25.5 709.5,-123.5 726,-123.5 726,-25.5 709.5,-25.5"/>
<text xml:space="preserve" text-anchor="start" x="709.5" y="-97.62" font-family="Avenir Next, Helvetica, Arial, sans-serif" font-size="6.00">215.3</text>
<polygon fill="#d48a22" stroke="none" points="712.75,-25.5 712.75,-93.5 722.75,-93.5 722.75,-25.5 712.75,-25.5"/>
<polygon fill="#fff8e8" stroke="none" points="726,-25.5 726,-123.5 742.5,-123.5 742.5,-25.5 726,-25.5"/>
<text xml:space="preserve" text-anchor="start" x="726" y="-115.62" font-family="Avenir Next, Helvetica, Arial, sans-serif" font-size="6.00">271.3</text>
<polygon fill="#8f2e2e" stroke="none" points="729.25,-25.5 729.25,-111.5 739.25,-111.5 739.25,-25.5 729.25,-25.5"/>
<polygon fill="#fff8e8" stroke="none" points="742.5,-25.5 742.5,-123.5 759,-123.5 759,-25.5 742.5,-25.5"/>
<text xml:space="preserve" text-anchor="start" x="742.5" y="-115.62" font-family="Avenir Next, Helvetica, Arial, sans-serif" font-size="6.00">271.2</text>
<polygon fill="#4b6f78" stroke="none" points="745.75,-25.5 745.75,-111.5 755.75,-111.5 755.75,-25.5 745.75,-25.5"/>
<polygon fill="#fff8e8" stroke="none" points="759,-25.5 759,-123.5 775.5,-123.5 775.5,-25.5 759,-25.5"/>
<text xml:space="preserve" text-anchor="start" x="759" y="-88.62" font-family="Avenir Next, Helvetica, Arial, sans-serif" font-size="6.00">185.2</text>
<polygon fill="#b95032" stroke="none" points="762.25,-25.5 762.25,-84.5 772.25,-84.5 772.25,-25.5 762.25,-25.5"/>
<polygon fill="#fff8e8" stroke="none" points="696.75,0 696.75,-25.5 775.5,-25.5 775.5,0 696.75,0"/>
<text xml:space="preserve" text-anchor="start" x="721.5" y="-16.5" font-family="Avenir Next, Helvetica, Arial, sans-serif" font-size="9.00">Docker</text>
<text xml:space="preserve" text-anchor="start" x="712.12" y="-3.75" font-family="Avenir Next, Helvetica, Arial, sans-serif" font-size="9.00">riscv64&#45;gnu</text>
<polygon fill="#fff8e8" stroke="none" points="799.5,-25.5 799.5,-123.5 814.5,-123.5 814.5,-25.5 799.5,-25.5"/>
<text xml:space="preserve" text-anchor="start" x="800.62" y="-31.62" font-family="Avenir Next, Helvetica, Arial, sans-serif" font-size="6.00">0.33</text>
<polygon fill="#075a4a" stroke="none" points="802,-25.5 802,-27.5 812,-27.5 812,-25.5 802,-25.5"/>
<polygon fill="#fff8e8" stroke="none" points="814.5,-25.5 814.5,-123.5 829.5,-123.5 829.5,-25.5 814.5,-25.5"/>
<text xml:space="preserve" text-anchor="start" x="815.62" y="-44.62" font-family="Avenir Next, Helvetica, Arial, sans-serif" font-size="6.00">4.62</text>
<polygon fill="#d48a22" stroke="none" points="817,-25.5 817,-40.5 827,-40.5 827,-25.5 817,-25.5"/>
<polygon fill="#fff8e8" stroke="none" points="829.5,-25.5 829.5,-123.5 844.5,-123.5 844.5,-25.5 829.5,-25.5"/>
<text xml:space="preserve" text-anchor="start" x="830.62" y="-115.62" font-family="Avenir Next, Helvetica, Arial, sans-serif" font-size="6.00">25.7</text>
<polygon fill="#8f2e2e" stroke="none" points="832,-25.5 832,-111.5 842,-111.5 842,-25.5 832,-25.5"/>
<polygon fill="#fff8e8" stroke="none" points="844.5,-25.5 844.5,-123.5 859.5,-123.5 859.5,-25.5 844.5,-25.5"/>
<text xml:space="preserve" text-anchor="start" x="845.62" y="-115.62" font-family="Avenir Next, Helvetica, Arial, sans-serif" font-size="6.00">25.7</text>
<polygon fill="#4b6f78" stroke="none" points="847,-25.5 847,-111.5 857,-111.5 857,-25.5 847,-25.5"/>
<polygon fill="#fff8e8" stroke="none" points="859.5,-25.5 859.5,-123.5 874.5,-123.5 874.5,-25.5 859.5,-25.5"/>
<text xml:space="preserve" text-anchor="start" x="860.62" y="-91.62" font-family="Avenir Next, Helvetica, Arial, sans-serif" font-size="6.00">18.4</text>
<polygon fill="#b95032" stroke="none" points="862,-25.5 862,-87.5 872,-87.5 872,-25.5 862,-25.5"/>
<polygon fill="#fff8e8" stroke="none" points="799.5,0 799.5,-25.5 874.5,-25.5 874.5,0 799.5,0"/>
<text xml:space="preserve" text-anchor="start" x="822" y="-16.5" font-family="Avenir Next, Helvetica, Arial, sans-serif" font-size="9.00">macOS</text>
<text xml:space="preserve" text-anchor="start" x="820.88" y="-3.75" font-family="Avenir Next, Helvetica, Arial, sans-serif" font-size="9.00">aarch64</text>
</g>
</g>
</svg>
