<?xml version="1.0" encoding="UTF-8" standalone="no"?>
<!DOCTYPE svg PUBLIC "-//W3C//DTD SVG 1.1//EN"
 "http://www.w3.org/Graphics/SVG/1.1/DTD/svg11.dtd">
<!-- Generated by graphviz version 14.1.5 (20260411.2331)
 -->
<!-- Title: benchmark Pages: 1 -->
<svg width="1014pt" height="158pt"
 viewBox="0.00 0.00 1014.00 158.00" xmlns="http://www.w3.org/2000/svg" xmlns:xlink="http://www.w3.org/1999/xlink">
<g id="graph0" class="graph" transform="scale(1 1) rotate(0) translate(5.76 151.76)">
<title>benchmark</title>
<polygon fill="#fbf6ec" stroke="none" points="-5.76,5.76 -5.76,-151.76 1007.76,-151.76 1007.76,5.76 -5.76,5.76"/>
<!-- benchmark -->
<g id="node1" class="node">
<title>benchmark</title>
<polygon fill="#fff8e8" stroke="none" points="804.38,-129.5 804.38,-146 1002,-146 1002,-129.5 804.38,-129.5"/>
<polygon fill="#075a4a" stroke="none" points="809.59,-132.5 809.59,-143 815.59,-143 815.59,-132.5 809.59,-132.5"/>
<text xml:space="preserve" text-anchor="start" x="818.81" y="-135.5" font-family="Avenir Next, Helvetica, Arial, sans-serif" font-size="7.00">tach</text>
<polygon fill="#d48a22" stroke="none" points="843.97,-132.5 843.97,-143 849.97,-143 849.97,-132.5 843.97,-132.5"/>
<text xml:space="preserve" text-anchor="start" x="853.19" y="-135.5" font-family="Avenir Next, Helvetica, Arial, sans-serif" font-size="7.00">quanta</text>
<polygon fill="#8f2e2e" stroke="none" points="886.59,-132.5 886.59,-143 892.59,-143 892.59,-132.5 886.59,-132.5"/>
<text xml:space="preserve" text-anchor="start" x="895.81" y="-135.5" font-family="Avenir Next, Helvetica, Arial, sans-serif" font-size="7.00">minstant</text>
<polygon fill="#4b6f78" stroke="none" points="933.72,-132.5 933.72,-143 939.72,-143 939.72,-132.5 933.72,-132.5"/>
<text xml:space="preserve" text-anchor="start" x="942.94" y="-135.5" font-family="Avenir Next, Helvetica, Arial, sans-serif" font-size="7.00">fastant</text>
<polygon fill="#b95032" stroke="none" points="975.59,-132.5 975.59,-143 981.59,-143 981.59,-132.5 975.59,-132.5"/>
<text xml:space="preserve" text-anchor="start" x="984.81" y="-135.5" font-family="Avenir Next, Helvetica, Arial, sans-serif" font-size="7.00">std</text>
<polygon fill="#fff8e8" stroke="none" points="0,-22.5 0,-119.5 18,-119.5 18,-22.5 0,-22.5"/>
<text xml:space="preserve" text-anchor="start" x="2.62" y="-56.75" font-family="Avenir Next, Helvetica, Arial, sans-serif" font-size="7.00">8.71</text>
<polygon fill="#075a4a" stroke="none" points="5.5,-22.5 5.5,-53.5 12.5,-53.5 12.5,-22.5 5.5,-22.5"/>
<polygon fill="#fff8e8" stroke="none" points="18,-22.5 18,-119.5 36,-119.5 36,-22.5 18,-22.5"/>
<text xml:space="preserve" text-anchor="start" x="20.62" y="-72.75" font-family="Avenir Next, Helvetica, Arial, sans-serif" font-size="7.00">13.3</text>
<polygon fill="#d48a22" stroke="none" points="23.5,-22.5 23.5,-69.5 30.5,-69.5 30.5,-22.5 23.5,-22.5"/>
<polygon fill="#fff8e8" stroke="none" points="36,-22.5 36,-119.5 54,-119.5 54,-22.5 36,-22.5"/>
<text xml:space="preserve" text-anchor="start" x="38.62" y="-58.75" font-family="Avenir Next, Helvetica, Arial, sans-serif" font-size="7.00">9.36</text>
<polygon fill="#8f2e2e" stroke="none" points="41.5,-22.5 41.5,-55.5 48.5,-55.5 48.5,-22.5 41.5,-22.5"/>
<polygon fill="#fff8e8" stroke="none" points="54,-22.5 54,-119.5 72,-119.5 72,-22.5 54,-22.5"/>
<text xml:space="preserve" text-anchor="start" x="56.62" y="-58.75" font-family="Avenir Next, Helvetica, Arial, sans-serif" font-size="7.00">9.36</text>
<polygon fill="#4b6f78" stroke="none" points="59.5,-22.5 59.5,-55.5 66.5,-55.5 66.5,-22.5 59.5,-22.5"/>
<polygon fill="#fff8e8" stroke="none" points="72,-22.5 72,-119.5 90,-119.5 90,-22.5 72,-22.5"/>
<text xml:space="preserve" text-anchor="start" x="74.62" y="-111.75" font-family="Avenir Next, Helvetica, Arial, sans-serif" font-size="7.00">24.2</text>
<polygon fill="#b95032" stroke="none" points="77.5,-22.5 77.5,-108.5 84.5,-108.5 84.5,-22.5 77.5,-22.5"/>
<polygon fill="#fff8e8" stroke="none" points="0,0 0,-22.5 90,-22.5 90,0 0,0"/>
<text xml:space="preserve" text-anchor="start" x="22.12" y="-14.25" font-family="Avenir Next, Helvetica, Arial, sans-serif" font-size="8.00">AWS t3 KVM</text>
<text xml:space="preserve" text-anchor="start" x="22.5" y="-3" font-family="Avenir Next, Helvetica, Arial, sans-serif" font-size="8.00">x86_64&#45;musl</text>
<polygon fill="#fff8e8" stroke="none" points="114,-22.5 114,-119.5 132,-119.5 132,-22.5 114,-22.5"/>
<text xml:space="preserve" text-anchor="start" x="116.62" y="-65.75" font-family="Avenir Next, Helvetica, Arial, sans-serif" font-size="7.00">6.84</text>
<polygon fill="#075a4a" stroke="none" points="119.5,-22.5 119.5,-62.5 126.5,-62.5 126.5,-22.5 119.5,-22.5"/>
<polygon fill="#fff8e8" stroke="none" points="132,-22.5 132,-119.5 150,-119.5 150,-22.5 132,-22.5"/>
<text xml:space="preserve" text-anchor="start" x="134.62" y="-67.75" font-family="Avenir Next, Helvetica, Arial, sans-serif" font-size="7.00">7.13</text>
<polygon fill="#d48a22" stroke="none" points="137.5,-22.5 137.5,-64.5 144.5,-64.5 144.5,-22.5 137.5,-22.5"/>
<polygon fill="#fff8e8" stroke="none" points="150,-22.5 150,-119.5 168,-119.5 168,-22.5 150,-22.5"/>
<text xml:space="preserve" text-anchor="start" x="152.62" y="-65.75" font-family="Avenir Next, Helvetica, Arial, sans-serif" font-size="7.00">6.84</text>
<polygon fill="#8f2e2e" stroke="none" points="155.5,-22.5 155.5,-62.5 162.5,-62.5 162.5,-22.5 155.5,-22.5"/>
<polygon fill="#fff8e8" stroke="none" points="168,-22.5 168,-119.5 186,-119.5 186,-22.5 168,-22.5"/>
<text xml:space="preserve" text-anchor="start" x="170.62" y="-65.75" font-family="Avenir Next, Helvetica, Arial, sans-serif" font-size="7.00">6.84</text>
<polygon fill="#4b6f78" stroke="none" points="173.5,-22.5 173.5,-62.5 180.5,-62.5 180.5,-22.5 173.5,-22.5"/>
<polygon fill="#fff8e8" stroke="none" points="186,-22.5 186,-119.5 204,-119.5 204,-22.5 186,-22.5"/>
<text xml:space="preserve" text-anchor="start" x="188.62" y="-111.75" font-family="Avenir Next, Helvetica, Arial, sans-serif" font-size="7.00">14.7</text>
<polygon fill="#b95032" stroke="none" points="191.5,-22.5 191.5,-108.5 198.5,-108.5 198.5,-22.5 191.5,-22.5"/>
<polygon fill="#fff8e8" stroke="none" points="114,0 114,-22.5 204,-22.5 204,0 114,0"/>
<text xml:space="preserve" text-anchor="start" x="131.25" y="-14.25" font-family="Avenir Next, Helvetica, Arial, sans-serif" font-size="8.00">AWS m7i metal</text>
<text xml:space="preserve" text-anchor="start" x="136.5" y="-3" font-family="Avenir Next, Helvetica, Arial, sans-serif" font-size="8.00">x86_64&#45;musl</text>
<polygon fill="#fff8e8" stroke="none" points="228,-22.5 228,-119.5 246,-119.5 246,-22.5 228,-22.5"/>
<text xml:space="preserve" text-anchor="start" x="230.62" y="-42.75" font-family="Avenir Next, Helvetica, Arial, sans-serif" font-size="7.00">13.6</text>
<polygon fill="#075a4a" stroke="none" points="233.5,-22.5 233.5,-39.5 240.5,-39.5 240.5,-22.5 233.5,-22.5"/>
<polygon fill="#fff8e8" stroke="none" points="246,-22.5 246,-119.5 264,-119.5 264,-22.5 246,-22.5"/>
<text xml:space="preserve" text-anchor="start" x="248.62" y="-111.75" font-family="Avenir Next, Helvetica, Arial, sans-serif" font-size="7.00">69.3</text>
<polygon fill="#d48a22" stroke="none" points="251.5,-22.5 251.5,-108.5 258.5,-108.5 258.5,-22.5 251.5,-22.5"/>
<polygon fill="#fff8e8" stroke="none" points="264,-22.5 264,-119.5 282,-119.5 282,-22.5 264,-22.5"/>
<text xml:space="preserve" text-anchor="start" x="266.62" y="-43.75" font-family="Avenir Next, Helvetica, Arial, sans-serif" font-size="7.00">14.4</text>
<polygon fill="#8f2e2e" stroke="none" points="269.5,-22.5 269.5,-40.5 276.5,-40.5 276.5,-22.5 269.5,-22.5"/>
<polygon fill="#fff8e8" stroke="none" points="282,-22.5 282,-119.5 300,-119.5 300,-22.5 282,-22.5"/>
<text xml:space="preserve" text-anchor="start" x="284.62" y="-43.75" font-family="Avenir Next, Helvetica, Arial, sans-serif" font-size="7.00">14.2</text>
<polygon fill="#4b6f78" stroke="none" points="287.5,-22.5 287.5,-40.5 294.5,-40.5 294.5,-22.5 287.5,-22.5"/>
<polygon fill="#fff8e8" stroke="none" points="300,-22.5 300,-119.5 318,-119.5 318,-22.5 300,-22.5"/>
<text xml:space="preserve" text-anchor="start" x="302.62" y="-107.75" font-family="Avenir Next, Helvetica, Arial, sans-serif" font-size="7.00">66.5</text>
<polygon fill="#b95032" stroke="none" points="305.5,-22.5 305.5,-104.5 312.5,-104.5 312.5,-22.5 305.5,-22.5"/>
<polygon fill="#fff8e8" stroke="none" points="228,0 228,-22.5 318,-22.5 318,0 228,0"/>
<text xml:space="preserve" text-anchor="start" x="250.12" y="-14.25" font-family="Avenir Next, Helvetica, Arial, sans-serif" font-size="8.00">AWS t3 KVM</text>
<text xml:space="preserve" text-anchor="start" x="256.88" y="-3" font-family="Avenir Next, Helvetica, Arial, sans-serif" font-size="8.00">x86&#45;musl</text>
<polygon fill="#fff8e8" stroke="none" points="342,-22.5 342,-119.5 360,-119.5 360,-22.5 342,-22.5"/>
<text xml:space="preserve" text-anchor="start" x="344.62" y="-51.75" font-family="Avenir Next, Helvetica, Arial, sans-serif" font-size="7.00">6.84</text>
<polygon fill="#075a4a" stroke="none" points="347.5,-22.5 347.5,-48.5 354.5,-48.5 354.5,-22.5 347.5,-22.5"/>
<polygon fill="#fff8e8" stroke="none" points="360,-22.5 360,-119.5 378,-119.5 378,-22.5 360,-22.5"/>
<text xml:space="preserve" text-anchor="start" x="362.62" y="-111.75" font-family="Avenir Next, Helvetica, Arial, sans-serif" font-size="7.00">23.1</text>
<polygon fill="#d48a22" stroke="none" points="365.5,-22.5 365.5,-108.5 372.5,-108.5 372.5,-22.5 365.5,-22.5"/>
<polygon fill="#fff8e8" stroke="none" points="378,-22.5 378,-119.5 396,-119.5 396,-22.5 378,-22.5"/>
<text xml:space="preserve" text-anchor="start" x="380.62" y="-51.75" font-family="Avenir Next, Helvetica, Arial, sans-serif" font-size="7.00">6.84</text>
<polygon fill="#8f2e2e" stroke="none" points="383.5,-22.5 383.5,-48.5 390.5,-48.5 390.5,-22.5 383.5,-22.5"/>
<polygon fill="#fff8e8" stroke="none" points="396,-22.5 396,-119.5 414,-119.5 414,-22.5 396,-22.5"/>
<text xml:space="preserve" text-anchor="start" x="398.62" y="-51.75" font-family="Avenir Next, Helvetica, Arial, sans-serif" font-size="7.00">6.84</text>
<polygon fill="#4b6f78" stroke="none" points="401.5,-22.5 401.5,-48.5 408.5,-48.5 408.5,-22.5 401.5,-22.5"/>
<polygon fill="#fff8e8" stroke="none" points="414,-22.5 414,-119.5 432,-119.5 432,-22.5 414,-22.5"/>
<text xml:space="preserve" text-anchor="start" x="416.62" y="-110.75" font-family="Avenir Next, Helvetica, Arial, sans-serif" font-size="7.00">22.7</text>
<polygon fill="#b95032" stroke="none" points="419.5,-22.5 419.5,-107.5 426.5,-107.5 426.5,-22.5 419.5,-22.5"/>
<polygon fill="#fff8e8" stroke="none" points="342,0 342,-22.5 432,-22.5 432,0 342,0"/>
<text xml:space="preserve" text-anchor="start" x="359.25" y="-14.25" font-family="Avenir Next, Helvetica, Arial, sans-serif" font-size="8.00">AWS m7i metal</text>
<text xml:space="preserve" text-anchor="start" x="370.88" y="-3" font-family="Avenir Next, Helvetica, Arial, sans-serif" font-size="8.00">x86&#45;musl</text>
<polygon fill="#fff8e8" stroke="none" points="456,-22.5 456,-119.5 474,-119.5 474,-22.5 456,-22.5"/>
<text xml:space="preserve" text-anchor="start" x="458.62" y="-59.75" font-family="Avenir Next, Helvetica, Arial, sans-serif" font-size="7.00">15.4</text>
<polygon fill="#075a4a" stroke="none" points="461.5,-22.5 461.5,-56.5 468.5,-56.5 468.5,-22.5 461.5,-22.5"/>
<polygon fill="#fff8e8" stroke="none" points="474,-22.5 474,-119.5 492,-119.5 492,-22.5 474,-22.5"/>
<text xml:space="preserve" text-anchor="start" x="476.62" y="-80.75" font-family="Avenir Next, Helvetica, Arial, sans-serif" font-size="7.00">25.1</text>
<polygon fill="#d48a22" stroke="none" points="479.5,-22.5 479.5,-77.5 486.5,-77.5 486.5,-22.5 479.5,-22.5"/>
<polygon fill="#fff8e8" stroke="none" points="492,-22.5 492,-119.5 510,-119.5 510,-22.5 492,-22.5"/>
<text xml:space="preserve" text-anchor="start" x="494.62" y="-111.75" font-family="Avenir Next, Helvetica, Arial, sans-serif" font-size="7.00">39.0</text>
<polygon fill="#8f2e2e" stroke="none" points="497.5,-22.5 497.5,-108.5 504.5,-108.5 504.5,-22.5 497.5,-22.5"/>
<polygon fill="#fff8e8" stroke="none" points="510,-22.5 510,-119.5 528,-119.5 528,-22.5 510,-22.5"/>
<text xml:space="preserve" text-anchor="start" x="512.62" y="-74.75" font-family="Avenir Next, Helvetica, Arial, sans-serif" font-size="7.00">22.1</text>
<polygon fill="#4b6f78" stroke="none" points="515.5,-22.5 515.5,-71.5 522.5,-71.5 522.5,-22.5 515.5,-22.5"/>
<polygon fill="#fff8e8" stroke="none" points="528,-22.5 528,-119.5 546,-119.5 546,-22.5 528,-22.5"/>
<text xml:space="preserve" text-anchor="start" x="530.62" y="-87.75" font-family="Avenir Next, Helvetica, Arial, sans-serif" font-size="7.00">28.1</text>
<polygon fill="#b95032" stroke="none" points="533.5,-22.5 533.5,-84.5 540.5,-84.5 540.5,-22.5 533.5,-22.5"/>
<polygon fill="#fff8e8" stroke="none" points="456,0 456,-22.5 546,-22.5 546,0 456,0"/>
<text xml:space="preserve" text-anchor="start" x="487.88" y="-14.25" font-family="Avenir Next, Helvetica, Arial, sans-serif" font-size="8.00">Docker</text>
<text xml:space="preserve" text-anchor="start" x="480" y="-3" font-family="Avenir Next, Helvetica, Arial, sans-serif" font-size="8.00">x86_64&#45;gnu</text>
<polygon fill="#fff8e8" stroke="none" points="570,-22.5 570,-119.5 588,-119.5 588,-22.5 570,-22.5"/>
<text xml:space="preserve" text-anchor="start" x="572.62" y="-32.75" font-family="Avenir Next, Helvetica, Arial, sans-serif" font-size="7.00">25.8</text>
<polygon fill="#075a4a" stroke="none" points="575.5,-22.5 575.5,-29.5 582.5,-29.5 582.5,-22.5 575.5,-22.5"/>
<polygon fill="#fff8e8" stroke="none" points="588,-22.5 588,-119.5 606,-119.5 606,-22.5 588,-22.5"/>
<text xml:space="preserve" text-anchor="start" x="588.75" y="-92.75" font-family="Avenir Next, Helvetica, Arial, sans-serif" font-size="7.00">253.7</text>
<polygon fill="#d48a22" stroke="none" points="593.5,-22.5 593.5,-89.5 600.5,-89.5 600.5,-22.5 593.5,-22.5"/>
<polygon fill="#fff8e8" stroke="none" points="606,-22.5 606,-119.5 624,-119.5 624,-22.5 606,-22.5"/>
<text xml:space="preserve" text-anchor="start" x="606.75" y="-111.75" font-family="Avenir Next, Helvetica, Arial, sans-serif" font-size="7.00">323.4</text>
<polygon fill="#8f2e2e" stroke="none" points="611.5,-22.5 611.5,-108.5 618.5,-108.5 618.5,-22.5 611.5,-22.5"/>
<polygon fill="#fff8e8" stroke="none" points="624,-22.5 624,-119.5 642,-119.5 642,-22.5 624,-22.5"/>
<text xml:space="preserve" text-anchor="start" x="624.75" y="-111.75" font-family="Avenir Next, Helvetica, Arial, sans-serif" font-size="7.00">324.3</text>
<polygon fill="#4b6f78" stroke="none" points="629.5,-22.5 629.5,-108.5 636.5,-108.5 636.5,-22.5 629.5,-22.5"/>
<polygon fill="#fff8e8" stroke="none" points="642,-22.5 642,-119.5 660,-119.5 660,-22.5 642,-22.5"/>
<text xml:space="preserve" text-anchor="start" x="642.75" y="-84.75" font-family="Avenir Next, Helvetica, Arial, sans-serif" font-size="7.00">222.6</text>
<polygon fill="#b95032" stroke="none" points="647.5,-22.5 647.5,-81.5 654.5,-81.5 654.5,-22.5 647.5,-22.5"/>
<polygon fill="#fff8e8" stroke="none" points="570,0 570,-22.5 660,-22.5 660,0 570,0"/>
<text xml:space="preserve" text-anchor="start" x="601.88" y="-14.25" font-family="Avenir Next, Helvetica, Arial, sans-serif" font-size="8.00">Docker</text>
<text xml:space="preserve" text-anchor="start" x="600.38" y="-3" font-family="Avenir Next, Helvetica, Arial, sans-serif" font-size="8.00">x86&#45;gnu</text>
<polygon fill="#fff8e8" stroke="none" points="684,-22.5 684,-119.5 702,-119.5 702,-22.5 684,-22.5"/>
<text xml:space="preserve" text-anchor="start" x="686.62" y="-27.75" font-family="Avenir Next, Helvetica, Arial, sans-serif" font-size="7.00">0.33</text>
<polygon fill="#075a4a" stroke="none" points="689.5,-22.5 689.5,-24.5 696.5,-24.5 696.5,-22.5 689.5,-22.5"/>
<polygon fill="#fff8e8" stroke="none" points="702,-22.5 702,-119.5 720,-119.5 720,-22.5 702,-22.5"/>
<text xml:space="preserve" text-anchor="start" x="704.62" y="-39.75" font-family="Avenir Next, Helvetica, Arial, sans-serif" font-size="7.00">4.47</text>
<polygon fill="#d48a22" stroke="none" points="707.5,-22.5 707.5,-36.5 714.5,-36.5 714.5,-22.5 707.5,-22.5"/>
<polygon fill="#fff8e8" stroke="none" points="720,-22.5 720,-119.5 738,-119.5 738,-22.5 720,-22.5"/>
<text xml:space="preserve" text-anchor="start" x="722.62" y="-111.75" font-family="Avenir Next, Helvetica, Arial, sans-serif" font-size="7.00">27.2</text>
<polygon fill="#8f2e2e" stroke="none" points="725.5,-22.5 725.5,-108.5 732.5,-108.5 732.5,-22.5 725.5,-22.5"/>
<polygon fill="#fff8e8" stroke="none" points="738,-22.5 738,-119.5 756,-119.5 756,-22.5 738,-22.5"/>
<text xml:space="preserve" text-anchor="start" x="740.62" y="-111.75" font-family="Avenir Next, Helvetica, Arial, sans-serif" font-size="7.00">27.3</text>
<polygon fill="#4b6f78" stroke="none" points="743.5,-22.5 743.5,-108.5 750.5,-108.5 750.5,-22.5 743.5,-22.5"/>
<polygon fill="#fff8e8" stroke="none" points="756,-22.5 756,-119.5 774,-119.5 774,-22.5 756,-22.5"/>
<text xml:space="preserve" text-anchor="start" x="758.62" y="-89.75" font-family="Avenir Next, Helvetica, Arial, sans-serif" font-size="7.00">20.2</text>
<polygon fill="#b95032" stroke="none" points="761.5,-22.5 761.5,-86.5 768.5,-86.5 768.5,-22.5 761.5,-22.5"/>
<polygon fill="#fff8e8" stroke="none" points="684,0 684,-22.5 774,-22.5 774,0 684,0"/>
<text xml:space="preserve" text-anchor="start" x="715.88" y="-14.25" font-family="Avenir Next, Helvetica, Arial, sans-serif" font-size="8.00">Docker</text>
<text xml:space="preserve" text-anchor="start" x="706.12" y="-3" font-family="Avenir Next, Helvetica, Arial, sans-serif" font-size="8.00">aarch64&#45;gnu</text>
<polygon fill="#fff8e8" stroke="none" points="798,-22.5 798,-119.5 816,-119.5 816,-22.5 798,-22.5"/>
<text xml:space="preserve" text-anchor="start" x="800.62" y="-44.75" font-family="Avenir Next, Helvetica, Arial, sans-serif" font-size="7.00">59.6</text>
<polygon fill="#075a4a" stroke="none" points="803.5,-22.5 803.5,-41.5 810.5,-41.5 810.5,-22.5 803.5,-22.5"/>
<polygon fill="#fff8e8" stroke="none" points="816,-22.5 816,-119.5 834,-119.5 834,-22.5 816,-22.5"/>
<text xml:space="preserve" text-anchor="start" x="816.75" y="-93.75" font-family="Avenir Next, Helvetica, Arial, sans-serif" font-size="7.00">215.3</text>
<polygon fill="#d48a22" stroke="none" points="821.5,-22.5 821.5,-90.5 828.5,-90.5 828.5,-22.5 821.5,-22.5"/>
<polygon fill="#fff8e8" stroke="none" points="834,-22.5 834,-119.5 852,-119.5 852,-22.5 834,-22.5"/>
<text xml:space="preserve" text-anchor="start" x="834.75" y="-111.75" font-family="Avenir Next, Helvetica, Arial, sans-serif" font-size="7.00">271.3</text>
<polygon fill="#8f2e2e" stroke="none" points="839.5,-22.5 839.5,-108.5 846.5,-108.5 846.5,-22.5 839.5,-22.5"/>
<polygon fill="#fff8e8" stroke="none" points="852,-22.5 852,-119.5 870,-119.5 870,-22.5 852,-22.5"/>
<text xml:space="preserve" text-anchor="start" x="852.75" y="-111.75" font-family="Avenir Next, Helvetica, Arial, sans-serif" font-size="7.00">271.2</text>
<polygon fill="#4b6f78" stroke="none" points="857.5,-22.5 857.5,-108.5 864.5,-108.5 864.5,-22.5 857.5,-22.5"/>
<polygon fill="#fff8e8" stroke="none" points="870,-22.5 870,-119.5 888,-119.5 888,-22.5 870,-22.5"/>
<text xml:space="preserve" text-anchor="start" x="870.75" y="-84.75" font-family="Avenir Next, Helvetica, Arial, sans-serif" font-size="7.00">185.2</text>
<polygon fill="#b95032" stroke="none" points="875.5,-22.5 875.5,-81.5 882.5,-81.5 882.5,-22.5 875.5,-22.5"/>
<polygon fill="#fff8e8" stroke="none" points="798,0 798,-22.5 888,-22.5 888,0 798,0"/>
<text xml:space="preserve" text-anchor="start" x="829.88" y="-14.25" font-family="Avenir Next, Helvetica, Arial, sans-serif" font-size="8.00">Docker</text>
<text xml:space="preserve" text-anchor="start" x="822" y="-3" font-family="Avenir Next, Helvetica, Arial, sans-serif" font-size="8.00">riscv64&#45;gnu</text>
<polygon fill="#fff8e8" stroke="none" points="912,-22.5 912,-119.5 930,-119.5 930,-22.5 912,-22.5"/>
<text xml:space="preserve" text-anchor="start" x="914.62" y="-27.75" font-family="Avenir Next, Helvetica, Arial, sans-serif" font-size="7.00">0.33</text>
<polygon fill="#075a4a" stroke="none" points="917.5,-22.5 917.5,-24.5 924.5,-24.5 924.5,-22.5 917.5,-22.5"/>
<polygon fill="#fff8e8" stroke="none" points="930,-22.5 930,-119.5 948,-119.5 948,-22.5 930,-22.5"/>
<text xml:space="preserve" text-anchor="start" x="932.62" y="-40.75" font-family="Avenir Next, Helvetica, Arial, sans-serif" font-size="7.00">4.62</text>
<polygon fill="#d48a22" stroke="none" points="935.5,-22.5 935.5,-37.5 942.5,-37.5 942.5,-22.5 935.5,-22.5"/>
<polygon fill="#fff8e8" stroke="none" points="948,-22.5 948,-119.5 966,-119.5 966,-22.5 948,-22.5"/>
<text xml:space="preserve" text-anchor="start" x="950.62" y="-111.75" font-family="Avenir Next, Helvetica, Arial, sans-serif" font-size="7.00">25.7</text>
<polygon fill="#8f2e2e" stroke="none" points="953.5,-22.5 953.5,-108.5 960.5,-108.5 960.5,-22.5 953.5,-22.5"/>
<polygon fill="#fff8e8" stroke="none" points="966,-22.5 966,-119.5 984,-119.5 984,-22.5 966,-22.5"/>
<text xml:space="preserve" text-anchor="start" x="968.62" y="-111.75" font-family="Avenir Next, Helvetica, Arial, sans-serif" font-size="7.00">25.7</text>
<polygon fill="#4b6f78" stroke="none" points="971.5,-22.5 971.5,-108.5 978.5,-108.5 978.5,-22.5 971.5,-22.5"/>
<polygon fill="#fff8e8" stroke="none" points="984,-22.5 984,-119.5 1002,-119.5 1002,-22.5 984,-22.5"/>
<text xml:space="preserve" text-anchor="start" x="986.62" y="-87.75" font-family="Avenir Next, Helvetica, Arial, sans-serif" font-size="7.00">18.4</text>
<polygon fill="#b95032" stroke="none" points="989.5,-22.5 989.5,-84.5 996.5,-84.5 996.5,-22.5 989.5,-22.5"/>
<polygon fill="#fff8e8" stroke="none" points="912,0 912,-22.5 1002,-22.5 1002,0 912,0"/>
<text xml:space="preserve" text-anchor="start" x="933.75" y="-14.25" font-family="Avenir Next, Helvetica, Arial, sans-serif" font-size="8.00">local macOS</text>
<text xml:space="preserve" text-anchor="start" x="942.38" y="-3" font-family="Avenir Next, Helvetica, Arial, sans-serif" font-size="8.00">aarch64</text>
</g>
</g>
</svg>
