<?xml version="1.0" encoding="UTF-8" standalone="no"?>
<!DOCTYPE svg PUBLIC "-//W3C//DTD SVG 1.1//EN"
 "http://www.w3.org/Graphics/SVG/1.1/DTD/svg11.dtd">
<!-- Generated by graphviz version 14.1.5 (20260411.2331)
 -->
<!-- Title: benchmark Pages: 1 -->
<svg width="886pt" height="155pt"
 viewBox="0.00 0.00 886.00 155.00" xmlns="http://www.w3.org/2000/svg" xmlns:xlink="http://www.w3.org/1999/xlink">
<g id="graph0" class="graph" transform="scale(1 1) rotate(0) translate(5.76 149.51)">
<title>benchmark</title>
<polygon fill="#fbf6ec" stroke="none" points="-5.76,5.76 -5.76,-149.51 880.26,-149.51 880.26,5.76 -5.76,5.76"/>
<!-- benchmark -->
<g id="node1" class="node">
<title>benchmark</title>
<text xml:space="preserve" text-anchor="start" x="328.88" y="-135.25" font-family="Avenir Next, Helvetica, Arial, sans-serif" font-size="10.00"> &#160;&#160;&#160;&#160;&#160;&#160;&#160;&#160;&#160;&#160;&#160;</text>
<text xml:space="preserve" text-anchor="start" x="355.88" y="-135.25" font-family="Avenir Next, Helvetica, Arial, sans-serif" font-size="8.00" fill="#075a4a">■</text>
<text xml:space="preserve" text-anchor="start" x="360.38" y="-135.25" font-family="Avenir Next, Helvetica, Arial, sans-serif" font-size="8.00"> tach   </text>
<text xml:space="preserve" text-anchor="start" x="384.38" y="-135.25" font-family="Avenir Next, Helvetica, Arial, sans-serif" font-size="8.00" fill="#d48a22">■</text>
<text xml:space="preserve" text-anchor="start" x="388.88" y="-135.25" font-family="Avenir Next, Helvetica, Arial, sans-serif" font-size="8.00"> quanta   </text>
<text xml:space="preserve" text-anchor="start" x="423.38" y="-135.25" font-family="Avenir Next, Helvetica, Arial, sans-serif" font-size="8.00" fill="#8f2e2e">■</text>
<text xml:space="preserve" text-anchor="start" x="427.88" y="-135.25" font-family="Avenir Next, Helvetica, Arial, sans-serif" font-size="8.00"> minstant   </text>
<text xml:space="preserve" text-anchor="start" x="467.62" y="-135.25" font-family="Avenir Next, Helvetica, Arial, sans-serif" font-size="8.00" fill="#4b6f78">■</text>
<text xml:space="preserve" text-anchor="start" x="472.12" y="-135.25" font-family="Avenir Next, Helvetica, Arial, sans-serif" font-size="8.00"> fastant   </text>
<text xml:space="preserve" text-anchor="start" x="505.12" y="-135.25" font-family="Avenir Next, Helvetica, Arial, sans-serif" font-size="8.00" fill="#b95032">■</text>
<text xml:space="preserve" text-anchor="start" x="509.62" y="-135.25" font-family="Avenir Next, Helvetica, Arial, sans-serif" font-size="8.00"> std</text>
<text xml:space="preserve" text-anchor="start" x="523.12" y="-135.25" font-family="Avenir Next, Helvetica, Arial, sans-serif" font-size="10.00"> &#160;&#160;&#160;&#160;&#160;&#160;&#160;&#160;&#160;</text>
<polygon fill="#fff8e8" stroke="none" points="0,-25.5 0,-123.5 15,-123.5 15,-25.5 0,-25.5"/>
<text xml:space="preserve" text-anchor="start" x="1.12" y="-60.62" font-family="Avenir Next, Helvetica, Arial, sans-serif" font-size="6.00">8.71</text>
<polygon fill="#075a4a" stroke="none" points="5,-25.5 5,-56.5 10,-56.5 10,-25.5 5,-25.5"/>
<polygon fill="#fff8e8" stroke="none" points="15,-25.5 15,-123.5 30,-123.5 30,-25.5 15,-25.5"/>
<text xml:space="preserve" text-anchor="start" x="16.12" y="-76.62" font-family="Avenir Next, Helvetica, Arial, sans-serif" font-size="6.00">13.3</text>
<polygon fill="#d48a22" stroke="none" points="20,-25.5 20,-72.5 25,-72.5 25,-25.5 20,-25.5"/>
<polygon fill="#fff8e8" stroke="none" points="30,-25.5 30,-123.5 45,-123.5 45,-25.5 30,-25.5"/>
<text xml:space="preserve" text-anchor="start" x="31.12" y="-62.62" font-family="Avenir Next, Helvetica, Arial, sans-serif" font-size="6.00">9.36</text>
<polygon fill="#8f2e2e" stroke="none" points="35,-25.5 35,-58.5 40,-58.5 40,-25.5 35,-25.5"/>
<polygon fill="#fff8e8" stroke="none" points="45,-25.5 45,-123.5 60,-123.5 60,-25.5 45,-25.5"/>
<text xml:space="preserve" text-anchor="start" x="46.12" y="-62.62" font-family="Avenir Next, Helvetica, Arial, sans-serif" font-size="6.00">9.36</text>
<polygon fill="#4b6f78" stroke="none" points="50,-25.5 50,-58.5 55,-58.5 55,-25.5 50,-25.5"/>
<polygon fill="#fff8e8" stroke="none" points="60,-25.5 60,-123.5 75,-123.5 75,-25.5 60,-25.5"/>
<text xml:space="preserve" text-anchor="start" x="61.12" y="-115.62" font-family="Avenir Next, Helvetica, Arial, sans-serif" font-size="6.00">24.2</text>
<polygon fill="#b95032" stroke="none" points="65,-25.5 65,-111.5 70,-111.5 70,-25.5 65,-25.5"/>
<polygon fill="#fff8e8" stroke="none" points="0,0 0,-25.5 75,-25.5 75,0 0,0"/>
<text xml:space="preserve" text-anchor="start" x="11.25" y="-16.5" font-family="Avenir Next, Helvetica, Arial, sans-serif" font-size="9.00">AWS t3 KVM</text>
<text xml:space="preserve" text-anchor="start" x="11.25" y="-3.75" font-family="Avenir Next, Helvetica, Arial, sans-serif" font-size="9.00">x86_64&#45;musl</text>
<polygon fill="#fff8e8" stroke="none" points="99,-25.5 99,-123.5 114,-123.5 114,-25.5 99,-25.5"/>
<text xml:space="preserve" text-anchor="start" x="100.12" y="-69.62" font-family="Avenir Next, Helvetica, Arial, sans-serif" font-size="6.00">6.84</text>
<polygon fill="#075a4a" stroke="none" points="104,-25.5 104,-65.5 109,-65.5 109,-25.5 104,-25.5"/>
<polygon fill="#fff8e8" stroke="none" points="114,-25.5 114,-123.5 129,-123.5 129,-25.5 114,-25.5"/>
<text xml:space="preserve" text-anchor="start" x="115.12" y="-71.62" font-family="Avenir Next, Helvetica, Arial, sans-serif" font-size="6.00">7.13</text>
<polygon fill="#d48a22" stroke="none" points="119,-25.5 119,-67.5 124,-67.5 124,-25.5 119,-25.5"/>
<polygon fill="#fff8e8" stroke="none" points="129,-25.5 129,-123.5 144,-123.5 144,-25.5 129,-25.5"/>
<text xml:space="preserve" text-anchor="start" x="130.12" y="-69.62" font-family="Avenir Next, Helvetica, Arial, sans-serif" font-size="6.00">6.84</text>
<polygon fill="#8f2e2e" stroke="none" points="134,-25.5 134,-65.5 139,-65.5 139,-25.5 134,-25.5"/>
<polygon fill="#fff8e8" stroke="none" points="144,-25.5 144,-123.5 159,-123.5 159,-25.5 144,-25.5"/>
<text xml:space="preserve" text-anchor="start" x="145.12" y="-69.62" font-family="Avenir Next, Helvetica, Arial, sans-serif" font-size="6.00">6.84</text>
<polygon fill="#4b6f78" stroke="none" points="149,-25.5 149,-65.5 154,-65.5 154,-25.5 149,-25.5"/>
<polygon fill="#fff8e8" stroke="none" points="159,-25.5 159,-123.5 174,-123.5 174,-25.5 159,-25.5"/>
<text xml:space="preserve" text-anchor="start" x="160.12" y="-115.62" font-family="Avenir Next, Helvetica, Arial, sans-serif" font-size="6.00">14.7</text>
<polygon fill="#b95032" stroke="none" points="164,-25.5 164,-111.5 169,-111.5 169,-25.5 164,-25.5"/>
<polygon fill="#fff8e8" stroke="none" points="99,0 99,-25.5 174,-25.5 174,0 99,0"/>
<text xml:space="preserve" text-anchor="start" x="104.62" y="-16.5" font-family="Avenir Next, Helvetica, Arial, sans-serif" font-size="9.00">AWS m7i metal</text>
<text xml:space="preserve" text-anchor="start" x="110.25" y="-3.75" font-family="Avenir Next, Helvetica, Arial, sans-serif" font-size="9.00">x86_64&#45;musl</text>
<polygon fill="#fff8e8" stroke="none" points="198,-25.5 198,-123.5 213,-123.5 213,-25.5 198,-25.5"/>
<text xml:space="preserve" text-anchor="start" x="199.12" y="-46.62" font-family="Avenir Next, Helvetica, Arial, sans-serif" font-size="6.00">13.6</text>
<polygon fill="#075a4a" stroke="none" points="203,-25.5 203,-42.5 208,-42.5 208,-25.5 203,-25.5"/>
<polygon fill="#fff8e8" stroke="none" points="213,-25.5 213,-123.5 228,-123.5 228,-25.5 213,-25.5"/>
<text xml:space="preserve" text-anchor="start" x="214.12" y="-115.62" font-family="Avenir Next, Helvetica, Arial, sans-serif" font-size="6.00">69.3</text>
<polygon fill="#d48a22" stroke="none" points="218,-25.5 218,-111.5 223,-111.5 223,-25.5 218,-25.5"/>
<polygon fill="#fff8e8" stroke="none" points="228,-25.5 228,-123.5 243,-123.5 243,-25.5 228,-25.5"/>
<text xml:space="preserve" text-anchor="start" x="229.12" y="-47.62" font-family="Avenir Next, Helvetica, Arial, sans-serif" font-size="6.00">14.4</text>
<polygon fill="#8f2e2e" stroke="none" points="233,-25.5 233,-43.5 238,-43.5 238,-25.5 233,-25.5"/>
<polygon fill="#fff8e8" stroke="none" points="243,-25.5 243,-123.5 258,-123.5 258,-25.5 243,-25.5"/>
<text xml:space="preserve" text-anchor="start" x="244.12" y="-47.62" font-family="Avenir Next, Helvetica, Arial, sans-serif" font-size="6.00">14.2</text>
<polygon fill="#4b6f78" stroke="none" points="248,-25.5 248,-43.5 253,-43.5 253,-25.5 248,-25.5"/>
<polygon fill="#fff8e8" stroke="none" points="258,-25.5 258,-123.5 273,-123.5 273,-25.5 258,-25.5"/>
<text xml:space="preserve" text-anchor="start" x="259.12" y="-111.62" font-family="Avenir Next, Helvetica, Arial, sans-serif" font-size="6.00">66.5</text>
<polygon fill="#b95032" stroke="none" points="263,-25.5 263,-107.5 268,-107.5 268,-25.5 263,-25.5"/>
<polygon fill="#fff8e8" stroke="none" points="198,0 198,-25.5 273,-25.5 273,0 198,0"/>
<text xml:space="preserve" text-anchor="start" x="209.25" y="-16.5" font-family="Avenir Next, Helvetica, Arial, sans-serif" font-size="9.00">AWS t3 KVM</text>
<text xml:space="preserve" text-anchor="start" x="216.75" y="-3.75" font-family="Avenir Next, Helvetica, Arial, sans-serif" font-size="9.00">x86&#45;musl</text>
<polygon fill="#fff8e8" stroke="none" points="297,-25.5 297,-123.5 312,-123.5 312,-25.5 297,-25.5"/>
<text xml:space="preserve" text-anchor="start" x="298.12" y="-55.62" font-family="Avenir Next, Helvetica, Arial, sans-serif" font-size="6.00">6.84</text>
<polygon fill="#075a4a" stroke="none" points="302,-25.5 302,-51.5 307,-51.5 307,-25.5 302,-25.5"/>
<polygon fill="#fff8e8" stroke="none" points="312,-25.5 312,-123.5 327,-123.5 327,-25.5 312,-25.5"/>
<text xml:space="preserve" text-anchor="start" x="313.12" y="-115.62" font-family="Avenir Next, Helvetica, Arial, sans-serif" font-size="6.00">23.1</text>
<polygon fill="#d48a22" stroke="none" points="317,-25.5 317,-111.5 322,-111.5 322,-25.5 317,-25.5"/>
<polygon fill="#fff8e8" stroke="none" points="327,-25.5 327,-123.5 342,-123.5 342,-25.5 327,-25.5"/>
<text xml:space="preserve" text-anchor="start" x="328.12" y="-55.62" font-family="Avenir Next, Helvetica, Arial, sans-serif" font-size="6.00">6.84</text>
<polygon fill="#8f2e2e" stroke="none" points="332,-25.5 332,-51.5 337,-51.5 337,-25.5 332,-25.5"/>
<polygon fill="#fff8e8" stroke="none" points="342,-25.5 342,-123.5 357,-123.5 357,-25.5 342,-25.5"/>
<text xml:space="preserve" text-anchor="start" x="343.12" y="-55.62" font-family="Avenir Next, Helvetica, Arial, sans-serif" font-size="6.00">6.84</text>
<polygon fill="#4b6f78" stroke="none" points="347,-25.5 347,-51.5 352,-51.5 352,-25.5 347,-25.5"/>
<polygon fill="#fff8e8" stroke="none" points="357,-25.5 357,-123.5 372,-123.5 372,-25.5 357,-25.5"/>
<text xml:space="preserve" text-anchor="start" x="358.12" y="-114.62" font-family="Avenir Next, Helvetica, Arial, sans-serif" font-size="6.00">22.7</text>
<polygon fill="#b95032" stroke="none" points="362,-25.5 362,-110.5 367,-110.5 367,-25.5 362,-25.5"/>
<polygon fill="#fff8e8" stroke="none" points="297,0 297,-25.5 372,-25.5 372,0 297,0"/>
<text xml:space="preserve" text-anchor="start" x="302.62" y="-16.5" font-family="Avenir Next, Helvetica, Arial, sans-serif" font-size="9.00">AWS m7i metal</text>
<text xml:space="preserve" text-anchor="start" x="315.75" y="-3.75" font-family="Avenir Next, Helvetica, Arial, sans-serif" font-size="9.00">x86&#45;musl</text>
<polygon fill="#fff8e8" stroke="none" points="396,-25.5 396,-123.5 411,-123.5 411,-25.5 396,-25.5"/>
<text xml:space="preserve" text-anchor="start" x="397.12" y="-63.62" font-family="Avenir Next, Helvetica, Arial, sans-serif" font-size="6.00">15.4</text>
<polygon fill="#075a4a" stroke="none" points="401,-25.5 401,-59.5 406,-59.5 406,-25.5 401,-25.5"/>
<polygon fill="#fff8e8" stroke="none" points="411,-25.5 411,-123.5 426,-123.5 426,-25.5 411,-25.5"/>
<text xml:space="preserve" text-anchor="start" x="412.12" y="-84.62" font-family="Avenir Next, Helvetica, Arial, sans-serif" font-size="6.00">25.1</text>
<polygon fill="#d48a22" stroke="none" points="416,-25.5 416,-80.5 421,-80.5 421,-25.5 416,-25.5"/>
<polygon fill="#fff8e8" stroke="none" points="426,-25.5 426,-123.5 441,-123.5 441,-25.5 426,-25.5"/>
<text xml:space="preserve" text-anchor="start" x="427.12" y="-115.62" font-family="Avenir Next, Helvetica, Arial, sans-serif" font-size="6.00">39.0</text>
<polygon fill="#8f2e2e" stroke="none" points="431,-25.5 431,-111.5 436,-111.5 436,-25.5 431,-25.5"/>
<polygon fill="#fff8e8" stroke="none" points="441,-25.5 441,-123.5 456,-123.5 456,-25.5 441,-25.5"/>
<text xml:space="preserve" text-anchor="start" x="442.12" y="-78.62" font-family="Avenir Next, Helvetica, Arial, sans-serif" font-size="6.00">22.1</text>
<polygon fill="#4b6f78" stroke="none" points="446,-25.5 446,-74.5 451,-74.5 451,-25.5 446,-25.5"/>
<polygon fill="#fff8e8" stroke="none" points="456,-25.5 456,-123.5 471,-123.5 471,-25.5 456,-25.5"/>
<text xml:space="preserve" text-anchor="start" x="457.12" y="-91.62" font-family="Avenir Next, Helvetica, Arial, sans-serif" font-size="6.00">28.1</text>
<polygon fill="#b95032" stroke="none" points="461,-25.5 461,-87.5 466,-87.5 466,-25.5 461,-25.5"/>
<polygon fill="#fff8e8" stroke="none" points="396,0 396,-25.5 471,-25.5 471,0 396,0"/>
<text xml:space="preserve" text-anchor="start" x="418.88" y="-16.5" font-family="Avenir Next, Helvetica, Arial, sans-serif" font-size="9.00">Docker</text>
<text xml:space="preserve" text-anchor="start" x="408.75" y="-3.75" font-family="Avenir Next, Helvetica, Arial, sans-serif" font-size="9.00">x86_64&#45;gnu</text>
<polygon fill="#fff8e8" stroke="none" points="495,-25.5 495,-123.5 507.75,-123.5 507.75,-25.5 495,-25.5"/>
<text xml:space="preserve" text-anchor="start" x="495" y="-36.62" font-family="Avenir Next, Helvetica, Arial, sans-serif" font-size="6.00">25.8</text>
<polygon fill="#075a4a" stroke="none" points="498.88,-25.5 498.88,-32.5 503.88,-32.5 503.88,-25.5 498.88,-25.5"/>
<polygon fill="#fff8e8" stroke="none" points="507.75,-25.5 507.75,-123.5 524.25,-123.5 524.25,-25.5 507.75,-25.5"/>
<text xml:space="preserve" text-anchor="start" x="507.75" y="-96.62" font-family="Avenir Next, Helvetica, Arial, sans-serif" font-size="6.00">253.7</text>
<polygon fill="#d48a22" stroke="none" points="513.5,-25.5 513.5,-92.5 518.5,-92.5 518.5,-25.5 513.5,-25.5"/>
<polygon fill="#fff8e8" stroke="none" points="524.25,-25.5 524.25,-123.5 540.75,-123.5 540.75,-25.5 524.25,-25.5"/>
<text xml:space="preserve" text-anchor="start" x="524.25" y="-115.62" font-family="Avenir Next, Helvetica, Arial, sans-serif" font-size="6.00">323.4</text>
<polygon fill="#8f2e2e" stroke="none" points="530,-25.5 530,-111.5 535,-111.5 535,-25.5 530,-25.5"/>
<polygon fill="#fff8e8" stroke="none" points="540.75,-25.5 540.75,-123.5 557.25,-123.5 557.25,-25.5 540.75,-25.5"/>
<text xml:space="preserve" text-anchor="start" x="540.75" y="-115.62" font-family="Avenir Next, Helvetica, Arial, sans-serif" font-size="6.00">324.3</text>
<polygon fill="#4b6f78" stroke="none" points="546.5,-25.5 546.5,-111.5 551.5,-111.5 551.5,-25.5 546.5,-25.5"/>
<polygon fill="#fff8e8" stroke="none" points="557.25,-25.5 557.25,-123.5 573.75,-123.5 573.75,-25.5 557.25,-25.5"/>
<text xml:space="preserve" text-anchor="start" x="557.25" y="-88.62" font-family="Avenir Next, Helvetica, Arial, sans-serif" font-size="6.00">222.6</text>
<polygon fill="#b95032" stroke="none" points="563,-25.5 563,-84.5 568,-84.5 568,-25.5 563,-25.5"/>
<polygon fill="#fff8e8" stroke="none" points="495,0 495,-25.5 573.75,-25.5 573.75,0 495,0"/>
<text xml:space="preserve" text-anchor="start" x="519.75" y="-16.5" font-family="Avenir Next, Helvetica, Arial, sans-serif" font-size="9.00">Docker</text>
<text xml:space="preserve" text-anchor="start" x="517.12" y="-3.75" font-family="Avenir Next, Helvetica, Arial, sans-serif" font-size="9.00">x86&#45;gnu</text>
<polygon fill="#fff8e8" stroke="none" points="597.75,-25.5 597.75,-123.5 612.75,-123.5 612.75,-25.5 597.75,-25.5"/>
<text xml:space="preserve" text-anchor="start" x="598.88" y="-31.62" font-family="Avenir Next, Helvetica, Arial, sans-serif" font-size="6.00">0.33</text>
<polygon fill="#075a4a" stroke="none" points="602.75,-25.5 602.75,-27.5 607.75,-27.5 607.75,-25.5 602.75,-25.5"/>
<polygon fill="#fff8e8" stroke="none" points="612.75,-25.5 612.75,-123.5 627.75,-123.5 627.75,-25.5 612.75,-25.5"/>
<text xml:space="preserve" text-anchor="start" x="613.88" y="-43.62" font-family="Avenir Next, Helvetica, Arial, sans-serif" font-size="6.00">4.47</text>
<polygon fill="#d48a22" stroke="none" points="617.75,-25.5 617.75,-39.5 622.75,-39.5 622.75,-25.5 617.75,-25.5"/>
<polygon fill="#fff8e8" stroke="none" points="627.75,-25.5 627.75,-123.5 642.75,-123.5 642.75,-25.5 627.75,-25.5"/>
<text xml:space="preserve" text-anchor="start" x="628.88" y="-115.62" font-family="Avenir Next, Helvetica, Arial, sans-serif" font-size="6.00">27.2</text>
<polygon fill="#8f2e2e" stroke="none" points="632.75,-25.5 632.75,-111.5 637.75,-111.5 637.75,-25.5 632.75,-25.5"/>
<polygon fill="#fff8e8" stroke="none" points="642.75,-25.5 642.75,-123.5 657.75,-123.5 657.75,-25.5 642.75,-25.5"/>
<text xml:space="preserve" text-anchor="start" x="643.88" y="-115.62" font-family="Avenir Next, Helvetica, Arial, sans-serif" font-size="6.00">27.3</text>
<polygon fill="#4b6f78" stroke="none" points="647.75,-25.5 647.75,-111.5 652.75,-111.5 652.75,-25.5 647.75,-25.5"/>
<polygon fill="#fff8e8" stroke="none" points="657.75,-25.5 657.75,-123.5 672.75,-123.5 672.75,-25.5 657.75,-25.5"/>
<text xml:space="preserve" text-anchor="start" x="658.88" y="-93.62" font-family="Avenir Next, Helvetica, Arial, sans-serif" font-size="6.00">20.2</text>
<polygon fill="#b95032" stroke="none" points="662.75,-25.5 662.75,-89.5 667.75,-89.5 667.75,-25.5 662.75,-25.5"/>
<polygon fill="#fff8e8" stroke="none" points="597.75,0 597.75,-25.5 672.75,-25.5 672.75,0 597.75,0"/>
<text xml:space="preserve" text-anchor="start" x="620.62" y="-16.5" font-family="Avenir Next, Helvetica, Arial, sans-serif" font-size="9.00">Docker</text>
<text xml:space="preserve" text-anchor="start" x="609.38" y="-3.75" font-family="Avenir Next, Helvetica, Arial, sans-serif" font-size="9.00">aarch64&#45;gnu</text>
<polygon fill="#fff8e8" stroke="none" points="696.75,-25.5 696.75,-123.5 709.5,-123.5 709.5,-25.5 696.75,-25.5"/>
<text xml:space="preserve" text-anchor="start" x="696.75" y="-48.62" font-family="Avenir Next, Helvetica, Arial, sans-serif" font-size="6.00">59.6</text>
<polygon fill="#075a4a" stroke="none" points="700.62,-25.5 700.62,-44.5 705.62,-44.5 705.62,-25.5 700.62,-25.5"/>
<polygon fill="#fff8e8" stroke="none" points="709.5,-25.5 709.5,-123.5 726,-123.5 726,-25.5 709.5,-25.5"/>
<text xml:space="preserve" text-anchor="start" x="709.5" y="-97.62" font-family="Avenir Next, Helvetica, Arial, sans-serif" font-size="6.00">215.3</text>
<polygon fill="#d48a22" stroke="none" points="715.25,-25.5 715.25,-93.5 720.25,-93.5 720.25,-25.5 715.25,-25.5"/>
<polygon fill="#fff8e8" stroke="none" points="726,-25.5 726,-123.5 742.5,-123.5 742.5,-25.5 726,-25.5"/>
<text xml:space="preserve" text-anchor="start" x="726" y="-115.62" font-family="Avenir Next, Helvetica, Arial, sans-serif" font-size="6.00">271.3</text>
<polygon fill="#8f2e2e" stroke="none" points="731.75,-25.5 731.75,-111.5 736.75,-111.5 736.75,-25.5 731.75,-25.5"/>
<polygon fill="#fff8e8" stroke="none" points="742.5,-25.5 742.5,-123.5 759,-123.5 759,-25.5 742.5,-25.5"/>
<text xml:space="preserve" text-anchor="start" x="742.5" y="-115.62" font-family="Avenir Next, Helvetica, Arial, sans-serif" font-size="6.00">271.2</text>
<polygon fill="#4b6f78" stroke="none" points="748.25,-25.5 748.25,-111.5 753.25,-111.5 753.25,-25.5 748.25,-25.5"/>
<polygon fill="#fff8e8" stroke="none" points="759,-25.5 759,-123.5 775.5,-123.5 775.5,-25.5 759,-25.5"/>
<text xml:space="preserve" text-anchor="start" x="759" y="-88.62" font-family="Avenir Next, Helvetica, Arial, sans-serif" font-size="6.00">185.2</text>
<polygon fill="#b95032" stroke="none" points="764.75,-25.5 764.75,-84.5 769.75,-84.5 769.75,-25.5 764.75,-25.5"/>
<polygon fill="#fff8e8" stroke="none" points="696.75,0 696.75,-25.5 775.5,-25.5 775.5,0 696.75,0"/>
<text xml:space="preserve" text-anchor="start" x="721.5" y="-16.5" font-family="Avenir Next, Helvetica, Arial, sans-serif" font-size="9.00">Docker</text>
<text xml:space="preserve" text-anchor="start" x="712.12" y="-3.75" font-family="Avenir Next, Helvetica, Arial, sans-serif" font-size="9.00">riscv64&#45;gnu</text>
<polygon fill="#fff8e8" stroke="none" points="799.5,-25.5 799.5,-123.5 814.5,-123.5 814.5,-25.5 799.5,-25.5"/>
<text xml:space="preserve" text-anchor="start" x="800.62" y="-31.62" font-family="Avenir Next, Helvetica, Arial, sans-serif" font-size="6.00">0.33</text>
<polygon fill="#075a4a" stroke="none" points="804.5,-25.5 804.5,-27.5 809.5,-27.5 809.5,-25.5 804.5,-25.5"/>
<polygon fill="#fff8e8" stroke="none" points="814.5,-25.5 814.5,-123.5 829.5,-123.5 829.5,-25.5 814.5,-25.5"/>
<text xml:space="preserve" text-anchor="start" x="815.62" y="-44.62" font-family="Avenir Next, Helvetica, Arial, sans-serif" font-size="6.00">4.62</text>
<polygon fill="#d48a22" stroke="none" points="819.5,-25.5 819.5,-40.5 824.5,-40.5 824.5,-25.5 819.5,-25.5"/>
<polygon fill="#fff8e8" stroke="none" points="829.5,-25.5 829.5,-123.5 844.5,-123.5 844.5,-25.5 829.5,-25.5"/>
<text xml:space="preserve" text-anchor="start" x="830.62" y="-115.62" font-family="Avenir Next, Helvetica, Arial, sans-serif" font-size="6.00">25.7</text>
<polygon fill="#8f2e2e" stroke="none" points="834.5,-25.5 834.5,-111.5 839.5,-111.5 839.5,-25.5 834.5,-25.5"/>
<polygon fill="#fff8e8" stroke="none" points="844.5,-25.5 844.5,-123.5 859.5,-123.5 859.5,-25.5 844.5,-25.5"/>
<text xml:space="preserve" text-anchor="start" x="845.62" y="-115.62" font-family="Avenir Next, Helvetica, Arial, sans-serif" font-size="6.00">25.7</text>
<polygon fill="#4b6f78" stroke="none" points="849.5,-25.5 849.5,-111.5 854.5,-111.5 854.5,-25.5 849.5,-25.5"/>
<polygon fill="#fff8e8" stroke="none" points="859.5,-25.5 859.5,-123.5 874.5,-123.5 874.5,-25.5 859.5,-25.5"/>
<text xml:space="preserve" text-anchor="start" x="860.62" y="-91.62" font-family="Avenir Next, Helvetica, Arial, sans-serif" font-size="6.00">18.4</text>
<polygon fill="#b95032" stroke="none" points="864.5,-25.5 864.5,-87.5 869.5,-87.5 869.5,-25.5 864.5,-25.5"/>
<polygon fill="#fff8e8" stroke="none" points="799.5,0 799.5,-25.5 874.5,-25.5 874.5,0 799.5,0"/>
<text xml:space="preserve" text-anchor="start" x="822" y="-16.5" font-family="Avenir Next, Helvetica, Arial, sans-serif" font-size="9.00">macOS</text>
<text xml:space="preserve" text-anchor="start" x="820.88" y="-3.75" font-family="Avenir Next, Helvetica, Arial, sans-serif" font-size="9.00">aarch64</text>
</g>
</g>
</svg>
